<?xml version="1.0"?>
<svg width="2500" height="2500" xmlns="http://www.w3.org/2000/svg" xmlns:svg="http://www.w3.org/2000/svg" xmlns:xlink="http://www.w3.org/1999/xlink" enable-background="new 0 0 2500 2500" version="1.1" xml:space="preserve">
 <g class="layer">
  <title>Layer 1</title>
  <g id="Background">
   <rect fill="#dfe4e9" height="2500" id="svg_1" width="2500"/>
  </g>
  <g id="Illustration">
   <g id="Cryptocurrency_trading_desk_1_">
    <circle cx="1250" cy="1249.47" fill="#F2E6DC" id="svg_2" r="914.47"/>
    <g id="svg_3">
     <g id="svg_4">
      <path d="m1295.65,535.56l-17.67,0c-1.59,-8.61 -3.84,-16.99 -6.71,-25.08l15.29,-8.84l-29.91,-51.8l-15.33,8.85c-5.63,-6.59 -11.76,-12.72 -18.35,-18.35l8.86,-15.33l-51.81,-29.91l-8.83,15.29c-8.09,-2.86 -16.47,-5.12 -25.09,-6.7l0,-17.68l-59.82,0l0,17.68c-8.62,1.58 -17,3.84 -25.09,6.71l-8.83,-15.3l-51.81,29.91l8.86,15.33c-6.59,5.63 -12.73,11.76 -18.35,18.35l-15.33,-8.85l-29.91,51.8l15.29,8.84c-2.87,8.09 -5.12,16.47 -6.71,25.08l-17.67,0l0,0l0,59.82l17.67,0c1.59,8.62 3.84,17 6.71,25.09l-15.29,8.83l29.91,51.81l15.33,-8.85c5.62,6.58 11.76,12.72 18.35,18.35l-8.86,15.33l51.81,29.91l0,0l8.83,-15.3c8.09,2.87 16.47,5.13 25.09,6.71l0,17.68l59.82,0l0,-17.68c8.62,-1.58 16.99,-3.84 25.09,-6.71l8.83,15.3l0,0l51.8,-29.91l-8.85,-15.33c6.59,-5.63 12.72,-11.77 18.35,-18.35l15.33,8.85l29.91,-51.81l-15.29,-8.83c2.86,-8.09 5.12,-16.47 6.71,-25.09l17.67,0l0,-59.82zm-81.64,33.11c-1.63,51.25 -43.37,92.99 -94.62,94.62c-56.58,1.81 -102.83,-44.43 -101.02,-101.02c1.63,-51.25 43.37,-92.98 94.62,-94.62c56.58,-1.8 102.83,44.44 101.02,101.02z" fill="#E6D0BE" id="svg_5"/>
     </g>
     <path d="m1116.19,698.53c-73.37,0 -133.06,-59.69 -133.06,-133.06c0,-32.06 11.56,-63.03 32.55,-87.2c20.79,-23.93 49.41,-39.7 80.59,-44.38c1.19,-0.17 2.32,0.65 2.5,1.86c0.18,1.2 -0.65,2.32 -1.85,2.5c-62.36,9.37 -109.38,64.06 -109.38,127.22c0,70.94 57.71,128.66 128.65,128.66c58.62,0 109.83,-39.57 124.54,-96.24c0.3,-1.17 1.5,-1.89 2.68,-1.57c1.18,0.3 1.89,1.5 1.58,2.68c-15.21,58.61 -68.18,99.53 -128.8,99.53z" fill="#F2E6DC" id="svg_6"/>
    </g>
    <g id="svg_7">
     <g id="svg_8">
      <g id="svg_9">
       <g id="svg_10">
        <path d="m1235.71,2034.96c-1.01,0 -1.91,-0.71 -2.14,-1.71l-63.42,-277.43l-78.74,0.75c-1.19,0.09 -2.21,-0.96 -2.23,-2.18c-0.01,-1.22 0.97,-2.22 2.19,-2.23l80.51,-0.76c1.1,-0.01 1.94,0.7 2.17,1.71l63.39,277.29l286.37,-24.09l-0.14,-182.04l-86.68,0.07c0,0 0,0 0,0c-1.21,0 -2.2,-0.99 -2.2,-2.2c0,-1.22 0.98,-2.21 2.2,-2.21l88.87,-0.07c0.01,0 0.01,0 0.01,0c0.58,0 1.14,0.23 1.55,0.64c0.42,0.42 0.65,0.98 0.65,1.56l0.15,186.27c0,1.15 -0.87,2.1 -2.02,2.2l-290.3,24.42c-0.06,0.01 -0.12,0.01 -0.19,0.01z" fill="#363E44" id="svg_11"/>
        <path d="m1450.57,2016.88c-1.15,0 -2.11,-0.88 -2.19,-2.04l-13.44,-190.37l-247.32,0.07c-1.22,0 -2.21,-0.98 -2.21,-2.2c0,-1.22 0.99,-2.2 2.2,-2.2l249.38,-0.08c1.16,0 2.12,0.9 2.2,2.05l13.58,192.42c0.09,1.21 -0.83,2.27 -2.04,2.35c-0.05,0 -0.11,0 -0.16,0z" fill="#363E44" id="svg_12"/>
        <path d="m1210.79,2162.99c-13.09,0 -25.4,-5.09 -34.67,-14.35c-9.28,-9.26 -14.4,-21.58 -14.41,-34.69c-0.02,-27.06 21.98,-49.1 49.05,-49.12c0.01,0 0.02,0 0.04,0c13.09,0 25.4,5.09 34.67,14.34c9.28,9.27 14.4,21.59 14.41,34.7l0,0c0.02,27.06 -21.98,49.1 -49.04,49.12c-0.02,0 -0.03,0 -0.05,0zm0.01,-93.75c-0.02,0 -0.03,0 -0.04,0c-24.63,0.02 -44.66,20.07 -44.64,44.71c0.01,11.93 4.67,23.15 13.11,31.58c8.44,8.42 19.64,13.06 31.56,13.06c0.02,0 0.03,0 0.04,0c24.64,-0.03 44.66,-20.08 44.64,-44.71l0,0c-0.01,-11.94 -4.67,-23.15 -13.11,-31.58c-8.44,-8.43 -19.65,-13.06 -31.56,-13.06z" fill="#363E44" id="svg_13"/>
        <path d="m1549.39,2162.72c-13.1,0 -25.41,-5.1 -34.68,-14.35c-9.28,-9.26 -14.39,-21.58 -14.4,-34.7c-0.02,-27.06 21.98,-49.1 49.04,-49.12c0.01,0 0.03,0 0.04,0c27.05,0 49.06,21.99 49.08,49.04l0,0c0.02,27.07 -21.98,49.1 -49.04,49.13c-0.01,0 -0.03,0 -0.04,0zm0,-93.76c-0.01,0 -0.02,0 -0.04,0c-24.63,0.02 -44.65,20.08 -44.63,44.71c0.01,11.94 4.66,23.15 13.11,31.58c8.43,8.42 19.64,13.06 31.56,13.06c0.01,0 0.02,0 0.04,0c24.63,-0.02 44.65,-20.08 44.64,-44.71l0,0c-0.03,-24.62 -20.06,-44.64 -44.68,-44.64z" fill="#363E44" id="svg_14"/>
        <path d="m1257.67,2115.75c-1.21,0 -2.2,-0.99 -2.2,-2.2c0,-1.22 0.98,-2.21 2.2,-2.21l244.47,-0.2c0,0 0,0 0,0c1.22,0 2.21,0.99 2.21,2.2c0,1.22 -0.99,2.21 -2.21,2.21l-244.47,0.2c0,0 0,0 0,0z" fill="#363E44" id="svg_15"/>
        <path d="m1224.52,2071.28c-0.22,0 -0.44,-0.03 -0.65,-0.1c-1.17,-0.36 -1.82,-1.59 -1.46,-2.75l11.2,-36.33c0.36,-1.16 1.59,-1.82 2.75,-1.45c1.17,0.36 1.82,1.59 1.46,2.75l-11.2,36.32c-0.29,0.95 -1.16,1.56 -2.1,1.56z" fill="#363E44" id="svg_16"/>
       </g>
       <path d="m1379.9,2022.83c-1.07,0 -2.02,-0.8 -2.17,-1.9l-27.76,-197.25c-0.17,-1.2 0.67,-2.32 1.87,-2.49c1.19,-0.16 2.32,0.67 2.49,1.88l27.76,197.25c0.17,1.2 -0.67,2.32 -1.88,2.49c-0.1,0.01 -0.2,0.02 -0.31,0.02z" fill="#363E44" id="svg_17"/>
       <path d="m1304.23,2029.19c-1.04,0 -1.97,-0.74 -2.16,-1.8l-37.46,-204.73c-0.22,-1.2 0.57,-2.35 1.77,-2.56c1.21,-0.23 2.35,0.57 2.57,1.77l37.45,204.73c0.22,1.19 -0.57,2.34 -1.77,2.56c-0.13,0.02 -0.27,0.03 -0.4,0.03z" fill="#363E44" id="svg_18"/>
       <path d="m1212.94,1935.34c-1.17,0 -2.14,-0.92 -2.2,-2.1c-0.06,-1.21 0.88,-2.25 2.1,-2.3l313,-14.67c1.23,-0.07 2.25,0.88 2.31,2.1c0.05,1.21 -0.89,2.25 -2.1,2.3l-313,14.67c-0.04,0 -0.07,0 -0.11,0z" fill="#363E44" id="svg_19"/>
      </g>
     </g>
    </g>
    <g id="svg_20">
     <g id="svg_21">
      <path d="m2075.13,1712.21l-1569.86,0c-1.21,0 -2.2,-0.99 -2.2,-2.2l0,-1189.89c0,-1.22 0.99,-2.2 2.2,-2.2l1569.86,0c1.22,0 2.21,0.98 2.21,2.2l0,1189.89c0,1.21 -0.99,2.2 -2.21,2.2zm-1567.65,-4.41l1565.45,0l0,-1185.47l-1565.45,0l0,1185.47z" fill="#363E44" id="svg_22"/>
      <g id="svg_23">
       <rect fill="#FFFFFF" height="998.69" id="svg_24" width="1470.34" x="553.22" y="573.86"/>
       <path d="m2023.56,1574.76l-1470.35,0c-1.21,0 -2.2,-0.99 -2.2,-2.21l0,-998.69c0,-1.22 0.99,-2.21 2.2,-2.21l1470.35,0c1.21,0 2.2,0.99 2.2,2.21l0,998.69c0,1.22 -0.99,2.21 -2.2,2.21zm-1468.14,-4.41l1465.93,0l0,-994.29l-1465.93,0l0,994.29z" fill="#E6D0BE" id="svg_25"/>
      </g>
     </g>
     <g id="svg_26">
      <g id="svg_27">
       <path d="m1124.22,1527.55l-501.15,0c-1.22,0 -2.21,-0.99 -2.21,-2.2l0,-377.9c0,-1.22 0.99,-2.21 2.21,-2.21c1.21,0 2.2,0.99 2.2,2.21l0,375.69l498.95,0c1.22,0 2.21,0.99 2.21,2.21s-0.99,2.2 -2.21,2.2z" fill="#D3BBA3" id="svg_28"/>
       <rect fill="#F2E6DC" height="202.44" id="svg_29" width="73.83" x="1874.16" y="1278.41"/>
       <rect fill="#F2E6DC" height="242.78" id="svg_30" width="73.83" x="1752.32" y="1238.08"/>
       <rect fill="#F2E6DC" height="391.49" id="svg_31" width="73.83" x="1630.48" y="1089.36"/>
       <rect fill="#F2E6DC" height="330.1" id="svg_32" width="73.83" x="1508.63" y="1150.75"/>
       <rect fill="#F2E6DC" height="492.07" id="svg_33" width="73.83" x="1386.62" y="988.78"/>
       <rect fill="#F2E6DC" height="394.83" id="svg_34" width="73.83" x="1264.78" y="1086.02"/>
       <rect fill="#F2E6DC" height="378.03" id="svg_35" width="73.83" x="1142.93" y="1102.82"/>
       <rect fill="#F2E6DC" height="613.89" id="svg_36" width="73.83" x="1021.09" y="866.97"/>
       <rect fill="#F2E6DC" height="290.12" id="svg_37" width="73.83" x="899.17" y="1190.73"/>
       <rect fill="#F2E6DC" height="431.47" id="svg_38" width="73.83" x="777.32" y="1049.38"/>
       <rect fill="#F2E6DC" height="842.53" id="svg_39" width="73.83" x="655.31" y="638.32"/>
      </g>
      <g id="svg_40">
       <rect fill="#E6D0BE" height="276.33" id="svg_41" transform="matrix(-1 -1.224647e-16 1.224647e-16 -1 3824.79 2450.5166)" width="75.72" x="1874.54" y="1087.09"/>
       <rect fill="#E6D0BE" height="276.33" id="svg_42" transform="matrix(-1 -1.224647e-16 1.224647e-16 -1 3575 2487.9851)" width="75.72" x="1749.64" y="1105.83"/>
       <rect fill="#E6D0BE" height="177.97" id="svg_43" transform="matrix(-1 -1.224647e-16 1.224647e-16 -1 3337.6992 2199.165)" width="75.72" x="1630.99" y="1010.6"/>
       <rect fill="#D3BBA3" height="183.83" id="svg_44" transform="matrix(-1 -1.224647e-16 1.224647e-16 -1 3822.8386 2629.6631)" width="76.11" x="1873.37" y="1222.92"/>
       <path d="m1912.01,1456.96c-0.01,0 -0.01,0 -0.01,0c-1.22,-0.01 -2.2,-1 -2.2,-2.22l1.31,-293.91c0.01,-1.21 1,-2.19 2.21,-2.19c0,0 0,0 0.01,0c1.22,0.01 2.2,1 2.19,2.21l-1.31,293.91c-0.01,1.22 -0.99,2.2 -2.2,2.2z" fill="#D3BBA3" id="svg_45"/>
       <path d="m1913.32,1163.05c-0.01,0 -0.01,0 -0.01,0c-1.22,-0.01 -2.2,-1 -2.2,-2.22l1.03,-190.84c0.01,-1.21 0.99,-2.19 2.21,-2.19c0,0 0,0 0.01,0c1.22,0.01 2.2,1 2.19,2.22l-1.03,190.84c-0.01,1.21 -0.99,2.19 -2.2,2.19z" fill="#E6D0BE" id="svg_46"/>
       <rect fill="#E6D0BE" height="276.33" id="svg_47" transform="matrix(-1 -1.224647e-16 1.224647e-16 -1 1871.7429 2052.4133)" width="75.72" x="898.01" y="888.04"/>
       <rect fill="#D3BBA3" height="183.83" id="svg_48" transform="matrix(-1 -1.224647e-16 1.224647e-16 -1 1869.7914 2231.5598)" width="76.11" x="896.84" y="1023.87"/>
       <path d="m935.48,1257.91c0,0 0,0 -0.01,0c-1.22,-0.01 -2.2,-1 -2.19,-2.22l1.31,-293.91c0.01,-1.21 0.96,-2.14 2.21,-2.19c1.22,0.01 2.2,1 2.2,2.22l-1.32,293.9c0,1.22 -0.99,2.2 -2.2,2.2z" fill="#D3BBA3" id="svg_49"/>
       <path d="m936.79,964c0,0 -0.01,0 -0.01,0c-1.22,-0.01 -2.2,-1 -2.19,-2.22l1.03,-190.84c0.01,-1.21 0.99,-2.19 2.2,-2.19c0.01,0 0.01,0 0.01,0c1.22,0 2.2,1 2.2,2.22l-1.03,190.84c-0.01,1.21 -1,2.19 -2.21,2.19z" fill="#E6D0BE" id="svg_50"/>
       <path d="m1545.66,1366.79c-0.01,0 -0.01,0 -0.02,0c-1.21,-0.01 -2.19,-1 -2.19,-2.22l1.03,-193.18c0.01,-1.22 0.99,-2.2 2.21,-2.2c0,0 0,0 0.01,0c1.21,0.01 2.2,1 2.19,2.22l-1.03,193.18c-0.01,1.22 -0.99,2.2 -2.2,2.2z" fill="#E6D0BE" id="svg_51"/>
       <path d="m1667.43,1280.92c0,0 -0.01,0 -0.01,0c-1.22,-0.01 -2.2,-1 -2.19,-2.22l1.03,-205.67c0,-1.21 0.99,-2.19 2.2,-2.19c0,0 0.01,0 0.01,0c1.22,0.01 2.2,1 2.19,2.21l-1.03,205.67c0,1.22 -0.99,2.2 -2.2,2.2z" fill="#E6D0BE" id="svg_52"/>
       <rect fill="#E6D0BE" height="145.19" id="svg_53" transform="matrix(-1 -1.224647e-16 1.224647e-16 -1 2358.8337 2171.8445)" width="75.72" x="1141.56" y="1013.33"/>
       <path d="m1178,1259.84c-0.01,0 -0.01,0 -0.01,0c-1.22,0 -2.2,-1 -2.2,-2.21l1.03,-205.67c0.01,-1.22 1,-2.2 2.21,-2.2c0,0 0,0 0.01,0c1.21,0.01 2.2,1 2.19,2.22l-1.03,205.67c-0.01,1.21 -0.99,2.19 -2.2,2.19z" fill="#E6D0BE" id="svg_54"/>
       <rect fill="#E6D0BE" height="177.97" id="svg_55" transform="matrix(-1 -1.224647e-16 1.224647e-16 -1 2607.0627 2536.3818)" width="75.72" x="1265.67" y="1179.2"/>
       <path d="m1302.11,1449.53c0,0 -0.01,0 -0.01,0c-1.22,-0.01 -2.2,-1 -2.19,-2.22l1.03,-205.67c0,-1.21 0.99,-2.19 2.2,-2.19c0,0 0.01,0 0.01,0c1.22,0 2.2,1 2.2,2.21l-1.03,205.67c-0.01,1.22 -1,2.2 -2.21,2.2z" fill="#E6D0BE" id="svg_56"/>
       <path d="m1426.23,1078.75c-0.01,0 -0.01,0 -0.01,0c-1.22,-0.01 -2.2,-1 -2.2,-2.22l1.03,-230.65c0.01,-1.21 0.99,-2.19 2.21,-2.19c0,0 0,0 0.01,0c1.21,0 2.19,0.99 2.19,2.21l-1.03,230.65c-0.01,1.22 -0.99,2.2 -2.2,2.2z" fill="#E6D0BE" id="svg_57"/>
       <path d="m1784.52,1441.72c0,0 -0.01,0 -0.01,0c-1.22,-0.01 -2.2,-1 -2.19,-2.21l1.03,-230.65c0,-1.22 0.99,-2.2 2.2,-2.2c0,0 0,0 0.01,0c1.22,0.01 2.2,1 2.19,2.22l-1.03,230.65c0,1.21 -0.99,2.19 -2.2,2.19z" fill="#E6D0BE" id="svg_58"/>
       <rect fill="#E6D0BE" height="276.33" id="svg_59" transform="matrix(-1 -1.224647e-16 1.224647e-16 -1 2850.6084 2121.1057)" width="75.72" x="1387.44" y="922.39"/>
       <rect fill="#E6D0BE" height="105.38" id="svg_60" transform="matrix(-1 -1.224647e-16 1.224647e-16 -1 3091.0313 2501.2551)" width="75.72" x="1507.66" y="1197.94"/>
       <path d="m1419.2,1256.72c0,0 -0.01,0 -0.01,0c-1.22,-0.01 -2.2,-1 -2.19,-2.21l1.03,-230.66c0,-1.21 0.99,-2.19 2.2,-2.19c0,0 0.01,0 0.01,0c1.22,0.01 2.2,1 2.19,2.21l-1.03,230.66c0,1.21 -0.99,2.19 -2.2,2.19z" fill="#E6D0BE" id="svg_61"/>
       <rect fill="#D3BBA3" height="131.92" id="svg_62" transform="matrix(-1 -1.224647e-16 1.224647e-16 -1 3574.6125 2245.2202)" width="76.11" x="1749.25" y="1056.65"/>
       <path d="m1785.55,1290.69c0,0 -0.01,0 -0.01,0c-1.22,-0.01 -2.2,-1 -2.19,-2.21l1.31,-293.91c0,-1.21 0.99,-2.19 2.2,-2.19c0,0 0.01,0 0.01,0c1.22,0 2.2,0.99 2.19,2.21l-1.31,293.91c0,1.21 -0.99,2.19 -2.2,2.19z" fill="#D3BBA3" id="svg_63"/>
       <rect fill="#EFBC73" height="131.92" id="svg_64" transform="matrix(-1 -1.224647e-16 1.224647e-16 -1 3822.8416 2062.561)" width="76.11" x="1873.37" y="965.32"/>
       <path d="m1909.66,1133.79c0,0 -0.01,0 -0.01,0c-1.22,-0.01 -2.2,-1 -2.19,-2.22l1.31,-228.33c0.01,-1.22 0.99,-2.19 2.2,-2.19c0.01,0 0.01,0 0.02,0c1.21,0 2.19,0.99 2.19,2.21l-1.31,228.34c-0.01,1.21 -0.99,2.19 -2.21,2.19z" fill="#EFBC73" id="svg_65"/>
       <rect fill="#D3BBA3" height="183.83" id="svg_66" transform="matrix(-1 -1.224647e-16 1.224647e-16 -1 2848.6567 2498.5232)" width="76.11" x="1386.27" y="1157.35"/>
       <path d="m1424.91,1409.34c0,0 0,0 -0.01,0c-1.21,0 -2.2,-1 -2.19,-2.21l1.31,-311.86c0.01,-1.22 0.99,-2.2 2.2,-2.2c0.01,0 0.01,0 0.01,0c1.22,0.01 2.2,1 2.2,2.22l-1.31,311.86c-0.01,1.21 -0.99,2.19 -2.21,2.19z" fill="#D3BBA3" id="svg_67"/>
       <path d="m815.02,1139.63c0,0 -0.01,0 -0.01,0c-1.22,0 -2.2,-1 -2.19,-2.21l1.03,-189.28c0,-1.22 1.02,-2.27 2.21,-2.2c1.22,0.01 2.2,1 2.19,2.22l-1.03,189.28c0,1.21 -0.99,2.19 -2.2,2.19z" fill="#E6D0BE" id="svg_68"/>
       <rect fill="#E6D0BE" height="214.66" id="svg_69" transform="matrix(-1 -1.224647e-16 1.224647e-16 -1 1628.1974 2304.5454)" width="75.72" x="776.24" y="1044.94"/>
       <rect fill="#D3BBA3" height="144.02" id="svg_70" transform="matrix(-1 -1.224647e-16 1.224647e-16 -1 1626.2458 2660.1062)" width="76.11" x="775.07" y="1258.04"/>
       <path d="m813.71,1440.95c-0.01,0 -0.01,0 -0.01,0c-1.22,0 -2.2,-1 -2.2,-2.21l1.32,-257.99c0,-1.21 0.99,-2.19 2.2,-2.19c0,0 0.01,0 0.01,0c1.22,0.01 2.2,1 2.19,2.21l-1.31,257.99c-0.01,1.21 -0.99,2.19 -2.2,2.19z" fill="#D3BBA3" id="svg_71"/>
       <rect fill="#D3BBA3" height="183.83" id="svg_72" transform="matrix(-1 -1.224647e-16 1.224647e-16 -1 3092.2021 2297.1299)" width="76.11" x="1508.05" y="1056.65"/>
       <path d="m1546.69,1290.69c-0.01,0 -0.01,0 -0.01,0c-1.22,-0.01 -2.2,-1 -2.2,-2.21l1.31,-293.91c0.01,-1.21 1,-2.19 2.21,-2.19c0,0 0,0 0.01,0c1.22,0 2.2,0.99 2.19,2.21l-1.31,293.91c-0.01,1.21 -0.99,2.19 -2.2,2.19z" fill="#D3BBA3" id="svg_73"/>
       <rect fill="#D3BBA3" height="131.92" id="svg_74" transform="matrix(-1 -1.224647e-16 1.224647e-16 -1 3335.7478 2057.8774)" width="76.11" x="1629.82" y="962.98"/>
       <path d="m1178.28,1079.93c0,0 0,0 -0.01,0c-1.21,0 -2.19,-1 -2.19,-2.21l1.29,-292.74c0,-1.21 0.99,-2.19 2.2,-2.19c0,0 0.01,0 0.01,0c1.22,0 2.2,0.99 2.19,2.21l-1.28,292.73c-0.01,1.22 -0.99,2.2 -2.21,2.2z" fill="#D3BBA3" id="svg_75"/>
       <rect fill="#D3BBA3" height="165.73" id="svg_76" transform="matrix(-1 -1.224647e-16 1.224647e-16 -1 2359.3218 1891.6613)" width="75.42" x="1141.95" y="862.97"/>
       <rect fill="#E6D0BE" height="177.97" id="svg_77" transform="matrix(-1 -1.224647e-16 1.224647e-16 -1 2115.2883 1693.3398)" width="75.72" x="1019.78" y="757.68"/>
       <path d="m1056.22,1028.01c0,0 0,0 -0.01,0c-1.21,-0.01 -2.2,-1 -2.19,-2.22l1.03,-205.67c0.01,-1.21 0.99,-2.19 2.2,-2.19c0.01,0 0.01,0 0.01,0c1.22,0 2.2,0.99 2.2,2.21l-1.03,205.67c-0.01,1.22 -0.99,2.2 -2.21,2.2z" fill="#E6D0BE" id="svg_78"/>
       <path d="m1056.51,904.3c0,0 0,0 -0.01,0c-1.21,-0.01 -2.2,-1 -2.19,-2.21l1.28,-451.97c0.01,-1.21 0.99,-2.19 2.21,-2.19c0,0 0,0 0,0c1.22,0 2.2,0.99 2.2,2.2l-1.29,451.97c0,1.21 -0.99,2.2 -2.2,2.2z" fill="#D3BBA3" id="svg_79"/>
       <rect fill="#D3BBA3" height="270.09" id="svg_80" transform="matrix(-1 -1.224647e-16 1.224647e-16 -1 2115.7761 1456.0393)" width="75.42" x="1020.18" y="592.98"/>
       <path d="m1304.02,1253.22c0,0 -0.01,0 -0.01,0c-1.22,-0.01 -2.2,-1 -2.19,-2.21l1.31,-233.03c0.01,-1.21 1.11,-2.2 2.21,-2.19c1.22,0.01 2.2,1 2.2,2.22l-1.32,233.02c0,1.21 -0.99,2.19 -2.2,2.19z" fill="#D3BBA3" id="svg_81"/>
       <rect fill="#D3BBA3" height="131.92" id="svg_82" transform="matrix(-1 -1.224647e-16 1.224647e-16 -1 2606.8677 2292.0559)" width="76.11" x="1265.38" y="1080.07"/>
       <rect fill="#E6D0BE" height="177.97" id="svg_83" transform="matrix(-1 -1.224647e-16 1.224647e-16 -1 1389.3354 1623.0865)" width="75.72" x="656.81" y="722.55"/>
       <path d="m693.25,992.88c-0.01,0 -0.01,0 -0.01,0c-1.22,-0.01 -2.2,-1 -2.2,-2.22l1.03,-205.67c0.01,-1.21 0.99,-2.19 2.21,-2.19c0,0 0,0 0.01,0c1.21,0.01 2.2,1 2.19,2.21l-1.03,205.68c0,1.21 -0.99,2.19 -2.2,2.19z" fill="#E6D0BE" id="svg_84"/>
       <path d="m695.15,796.58c0,0 0,0 -0.01,0c-1.22,-0.01 -2.2,-1 -2.19,-2.22l1.31,-233.02c0.01,-1.21 1,-2.19 2.21,-2.19c0,0 0.01,0 0.01,0c1.22,0 2.2,0.99 2.19,2.21l-1.31,233.02c-0.01,1.22 -0.99,2.2 -2.21,2.2z" fill="#D3BBA3" id="svg_85"/>
       <rect fill="#D3BBA3" height="131.92" id="svg_86" transform="matrix(-1 -1.224647e-16 1.224647e-16 -1 1389.1404 1378.7604)" width="76.11" x="656.52" y="623.42"/>
       <path d="m1668.46,1139.64c0,0 -0.01,0 -0.01,0c-1.22,0 -2.2,-0.99 -2.19,-2.21l1.31,-236.54c0,-1.21 0.99,-2.19 2.2,-2.19c0.01,0 0.01,0 0.01,0c1.22,0.01 2.2,1 2.2,2.22l-1.32,236.53c0,1.21 -0.99,2.19 -2.2,2.19z" fill="#D3BBA3" id="svg_87"/>
       <rect fill="#EFBC73" height="151.76" id="svg_88" transform="matrix(-1 -1.224647e-16 1.224647e-16 -1 2848.6597 2683.4011)" width="76.11" x="1386.28" y="1265.82"/>
       <path d="m1422.57,1459.3c0,0 -0.01,0 -0.01,0c-1.22,-0.01 -2.2,-1 -2.19,-2.21l1.31,-262.69c0.01,-1.21 0.99,-2.19 2.2,-2.19c0.01,0 0.01,0 0.01,0c1.22,0 2.2,1 2.2,2.21l-1.32,262.69c0,1.21 -0.99,2.19 -2.2,2.19z" fill="#EFBC73" id="svg_89"/>
       <rect fill="#EFBC73" height="151.76" id="svg_90" transform="matrix(-1 -1.224647e-16 1.224647e-16 -1 2113.3398 2388.3362)" width="76.11" x="1018.62" y="1118.29"/>
       <path d="m1054.91,1311.77c0,0 -0.01,0 -0.01,0c-1.22,-0.01 -2.2,-1 -2.19,-2.22l1.31,-262.68c0.01,-1.22 0.99,-2.2 2.2,-2.2c0.01,0 0.01,0 0.02,0c1.21,0.01 2.19,1 2.19,2.22l-1.31,262.68c-0.01,1.22 -1,2.2 -2.21,2.2z" fill="#EFBC73" id="svg_91"/>
       <rect fill="#EFBC73" height="185.14" id="svg_92" transform="matrix(-1 -1.224647e-16 1.224647e-16 -1 1869.7943 1653.7854)" width="76.11" x="896.84" y="734.33"/>
       <path d="m933.14,969.87c0,0 -0.01,0 -0.01,0c-1.22,-0.01 -2.2,-1 -2.2,-2.22l1.32,-320.44c0,-1.22 0.99,-2.2 2.2,-2.2c0,0 0.01,0 0.01,0c1.22,0 2.2,1 2.19,2.21l-1.31,320.45c0,1.21 -0.99,2.2 -2.2,2.2z" fill="#EFBC73" id="svg_93"/>
       <rect fill="#EFBC73" height="173.18" id="svg_94" transform="matrix(-1 -1.224647e-16 1.224647e-16 -1 1387.387 1976.4034)" width="76.11" x="655.64" y="901.61"/>
       <path d="m691.94,1122.08c-0.01,0 -0.01,0 -0.01,0c-1.22,0 -2.2,-1 -2.2,-2.21l1.31,-299.75c0.01,-1.21 1,-2.2 2.21,-2.2c0,0 0,0 0.01,0c1.21,0.01 2.2,1 2.19,2.22l-1.31,299.74c-0.01,1.22 -0.99,2.2 -2.2,2.2z" fill="#EFBC73" id="svg_95"/>
       <rect fill="#EFBC73" height="173.18" id="svg_96" transform="matrix(-1 -1.224647e-16 1.224647e-16 -1 1626.2489 2041.9733)" width="76.11" x="775.07" y="934.4"/>
       <path d="m811.37,1154.87c-0.01,0 -0.01,0 -0.01,0c-1.22,-0.01 -2.2,-1 -2.2,-2.22l1.32,-299.74c0,-1.22 0.99,-2.2 2.2,-2.2c0,0 0,0 0.01,0c1.21,0.01 2.2,1 2.19,2.21l-1.31,299.75c0,1.21 -0.99,2.2 -2.2,2.2z" fill="#EFBC73" id="svg_97"/>
       <rect fill="#EFBC73" height="173.18" id="svg_98" transform="matrix(-1 -1.224647e-16 1.224647e-16 -1 2360.0076 2697.6726)" width="72.99" x="1143.51" y="1262.25"/>
       <path d="m1178.32,1482.72c0,0 -0.01,0 -0.01,0c-1.22,-0.01 -2.2,-1 -2.2,-2.22l1.26,-299.74c0.01,-1.22 0.94,-2.27 2.22,-2.2c1.21,0 2.19,1 2.19,2.21l-1.26,299.75c0,1.21 -0.99,2.2 -2.2,2.2z" fill="#EFBC73" id="svg_99"/>
       <rect fill="#EFBC73" height="173.18" id="svg_100" transform="matrix(-1 -1.224647e-16 1.224647e-16 -1 2606.6755 2070.0747)" width="76.11" x="1265.28" y="948.45"/>
       <path d="m1301.58,1168.92c0,0 -0.01,0 -0.01,0c-1.22,-0.01 -2.2,-1 -2.19,-2.22l1.31,-299.74c0,-1.22 0.99,-2.2 2.2,-2.2c0.01,0 0.01,0 0.01,0c1.22,0 2.2,1 2.2,2.21l-1.32,299.75c0,1.21 -0.99,2.2 -2.2,2.2z" fill="#EFBC73" id="svg_101"/>
       <rect fill="#EFBC73" height="173.18" id="svg_102" transform="matrix(-1 -1.224647e-16 1.224647e-16 -1 3089.0828 2121.594)" width="76.11" x="1506.49" y="974.21"/>
       <path d="m1542.78,1194.68c0,0 0,0 -0.01,0c-1.21,-0.01 -2.2,-1 -2.19,-2.22l1.31,-299.74c0.01,-1.22 0.99,-2.2 2.21,-2.2c0,0 0,0 0.01,0c1.21,0.01 2.19,1 2.19,2.21l-1.31,299.75c-0.01,1.22 -0.99,2.2 -2.21,2.2z" fill="#EFBC73" id="svg_103"/>
       <rect fill="#EFBC73" height="173.18" id="svg_104" transform="matrix(-1 -1.224647e-16 1.224647e-16 -1 3332.6284 1854.6306)" width="76.11" x="1628.26" y="840.73"/>
       <path d="m1664.56,1061.19c-0.01,0 -0.01,0 -0.01,0c-1.22,0 -2.2,-0.99 -2.2,-2.21l1.31,-299.75c0.01,-1.21 0.98,-2.22 2.22,-2.19c1.22,0 2.2,1 2.19,2.21l-1.31,299.75c0,1.21 -0.99,2.19 -2.2,2.19z" fill="#EFBC73" id="svg_105"/>
       <rect fill="#EFBC73" height="159.2" id="svg_106" transform="matrix(-1 -1.224647e-16 1.224647e-16 -1 3576.1736 2442.6023)" width="76.11" x="1750.03" y="1141.7"/>
       <path d="m1786.33,1344.55c0,0 -0.01,0 -0.01,0c-1.22,-0.01 -2.2,-0.99 -2.19,-2.21l1.31,-275.55c0,-1.22 0.99,-2.19 2.2,-2.19c0,0 0.01,0 0.01,0c1.22,0 2.2,0.99 2.2,2.21l-1.32,275.55c0,1.21 -0.99,2.19 -2.2,2.19z" fill="#EFBC73" id="svg_107"/>
      </g>
     </g>
    </g>
    <g id="svg_108">
     <g id="svg_109">
      <g id="svg_110">
       <ellipse cx="1979.4" cy="568.47" fill="#E0AA63" id="svg_111" rx="137.54" ry="137.54" transform="matrix(0.7071 -0.7071 0.7071 0.7071 177.7817 1566.15)"/>
       <path d="m2091.08,516.38c-0.82,0 -1.6,-0.45 -1.98,-1.24c-8.65,-17.75 -21.65,-33.32 -37.57,-45.02c-0.98,-0.72 -1.19,-2.1 -0.47,-3.08c0.72,-0.98 2.09,-1.19 3.08,-0.47c16.5,12.12 29.96,28.25 38.92,46.64c0.53,1.1 0.08,2.41 -1.02,2.95c-0.31,0.15 -0.63,0.22 -0.96,0.22z" fill="#FFFFFF" id="svg_112"/>
       <path d="m1941.9,689.07c-0.22,0 -0.44,-0.04 -0.66,-0.11c-55.42,-17.5 -91.58,-70.29 -87.95,-128.37c4.22,-67.52 60.51,-119.54 128.05,-118.46c1.22,0.01 2.19,1.02 2.17,2.24c-0.02,1.21 -1.12,2.17 -2.24,2.16c-0.67,-0.01 -1.35,-0.01 -2.01,-0.01c-64.33,0 -117.54,49.85 -121.57,114.34c-3.51,56.05 31.39,107.01 84.88,123.9c1.16,0.37 1.8,1.61 1.43,2.77c-0.3,0.94 -1.16,1.54 -2.1,1.54z" fill="#FFFFFF" id="svg_113"/>
       <ellipse cx="1979.4" cy="568.47" fill="#EFBC73" id="svg_114" rx="114.22" ry="114.22" transform="matrix(0.7071 -0.7071 0.7071 0.7071 177.7817 1566.15)"/>
       <path d="m1979.49,708.22c-2.92,0 -5.86,-0.09 -8.81,-0.27c-37.26,-2.33 -71.37,-19.03 -96.07,-47.02c-24.7,-27.99 -37.01,-63.93 -34.68,-101.18c4.81,-76.9 71.31,-135.58 148.2,-130.75l0,0c76.9,4.81 135.55,71.29 130.75,148.2c-4.63,73.95 -66.28,131.02 -139.39,131.02zm-0.17,-275.09c-70.81,0 -130.51,55.27 -134.99,126.9c-2.26,36.07 9.67,70.87 33.58,97.98c23.92,27.11 56.96,43.28 93.04,45.54c74.49,4.63 138.87,-52.15 143.53,-126.63c4.65,-74.48 -52.15,-138.86 -126.63,-143.52c-2.86,-0.18 -5.71,-0.27 -8.53,-0.27z" fill="#FFFFFF" id="svg_115"/>
      </g>
      <g id="svg_116">
       <path d="m1985.39,597.03c-0.34,0 -0.68,-0.08 -1,-0.24l-60.65,-30.93c-0.57,-0.29 -0.99,-0.81 -1.14,-1.43c-0.15,-0.62 -0.03,-1.28 0.34,-1.8l54.38,-76.68c0.41,-0.58 1.07,-0.92 1.78,-0.93c0.7,0.04 1.38,0.34 1.8,0.91l54.84,75.39c0.35,0.48 0.49,1.09 0.39,1.68c-0.11,0.59 -0.45,1.12 -0.95,1.45l-48.57,32.22c-0.37,0.24 -0.79,0.36 -1.22,0.36zm-57.38,-33.93l57.23,29.18l45.58,-30.23l-51.68,-71.05l-51.13,72.1z" fill="#FFFFFF" id="svg_117"/>
       <path d="m1985.39,597.03c-1.16,0 -2.13,-0.9 -2.2,-2.07l-6.27,-107.61c-0.07,-1.21 0.85,-2.25 2.07,-2.32c1.19,-0.08 2.25,0.85 2.33,2.07l6.27,107.6c0.07,1.22 -0.86,2.26 -2.07,2.33c-0.05,0 -0.09,0 -0.13,0z" fill="#FFFFFF" id="svg_118"/>
       <path d="m1926.59,565.46c-0.99,0 -1.88,-0.66 -2.14,-1.65c-0.3,-1.18 0.41,-2.38 1.59,-2.69l56.47,-14.5c0.33,-0.08 0.68,-0.09 1.02,-0.01l47.81,10.63c1.19,0.26 1.94,1.44 1.67,2.63c-0.26,1.18 -1.44,1.93 -2.63,1.67l-47.29,-10.52l-55.96,14.37c-0.18,0.05 -0.36,0.07 -0.54,0.07z" fill="#FFFFFF" id="svg_119"/>
       <path d="m1987.74,647.29c-0.19,0 -0.39,-0.02 -0.59,-0.08c-0.92,-0.25 -1.57,-1.08 -1.61,-2.04l-1.57,-42.53c-0.03,-0.76 0.34,-1.48 0.98,-1.91l51.97,-34.79c0.87,-0.59 2.03,-0.48 2.77,0.26c0.75,0.74 0.87,1.9 0.3,2.77l-50.4,77.32c-0.42,0.64 -1.12,1 -1.85,1zm0.68,-43.58l1.27,34.36l40.72,-62.47l-41.99,28.11z" fill="#FFFFFF" id="svg_120"/>
       <path d="m1987.74,647.29c-0.61,0 -1.23,-0.25 -1.66,-0.75l-65.26,-75.07c-0.69,-0.8 -0.72,-1.97 -0.07,-2.81c0.65,-0.83 1.8,-1.08 2.74,-0.6l63.69,32.54c1.08,0.55 1.51,1.88 0.96,2.96c-0.56,1.09 -1.88,1.52 -2.97,0.96l-53.56,-27.36l57.8,66.48c0.8,0.92 0.7,2.31 -0.22,3.11c-0.42,0.37 -0.93,0.54 -1.45,0.54z" fill="#FFFFFF" id="svg_121"/>
      </g>
     </g>
     <g id="svg_122">
      <g id="svg_123">
       <ellipse cx="1692.3" cy="479.68" fill="#E0AA63" id="svg_124" rx="139.74" ry="139.74" transform="matrix(0.7071 -0.7071 0.7071 0.7071 156.4781 1337.131)"/>
       <path d="m1623.41,587.58c-0.41,0 -0.83,-0.12 -1.2,-0.36c-17.41,-11.37 -31.97,-26.98 -42.09,-45.13c-0.59,-1.06 -0.21,-2.4 0.86,-2.99c1.06,-0.6 2.4,-0.21 2.99,0.85c9.78,17.53 23.83,32.6 40.65,43.58c1.02,0.67 1.31,2.03 0.64,3.05c-0.42,0.65 -1.13,1 -1.85,1z" fill="#FFFFFF" id="svg_125"/>
       <path d="m1697.32,607.93c-1.18,0 -2.15,-0.93 -2.2,-2.12c-0.05,-1.21 0.9,-2.24 2.12,-2.29c66.24,-2.58 118.51,-56.58 119,-122.93c0.41,-57.08 -37.86,-106.83 -93.08,-120.98c-1.18,-0.3 -1.89,-1.5 -1.59,-2.68s1.51,-1.89 2.69,-1.59c57.18,14.65 96.81,66.17 96.38,125.28c-0.5,68.71 -54.63,124.63 -123.23,127.31c-0.03,0 -0.06,0 -0.09,0z" fill="#FFFFFF" id="svg_126"/>
       <ellipse cx="1692.3" cy="479.68" fill="#EFBC73" id="svg_127" rx="116.05" ry="116.05" transform="matrix(0.7071 -0.7071 0.7071 0.7071 156.4781 1337.131)"/>
       <path d="m1692.32,621.63c-0.36,0 -0.7,0 -1.06,-0.01c-78.27,-0.57 -141.48,-64.71 -140.9,-142.98c0.56,-77.91 64.14,-140.91 141.92,-140.91c0.36,0 0.7,0 1.06,0.01c78.26,0.57 141.47,64.71 140.9,142.98c-0.57,77.91 -64.14,140.91 -141.92,140.91zm-1.03,-4.41c0.34,0 0.69,0 1.03,0c75.37,0 136.96,-61.04 137.52,-136.53c0.55,-75.84 -60.7,-137.99 -136.54,-138.55c-0.33,0 -0.68,0 -1.02,0c-75.37,0 -136.96,61.04 -137.52,136.53c-0.55,75.84 60.7,137.99 136.53,138.55z" fill="#FFFFFF" id="svg_128"/>
      </g>
      <g id="svg_129">
       <ellipse cx="1709.65" cy="516.9" fill="#FFFFFF" id="svg_130" rx="27.46" ry="27.46" transform="matrix(0.7071 -0.7071 0.7071 0.7071 135.2388 1360.3027)"/>
       <ellipse cx="1645.12" cy="479.03" fill="#FFFFFF" id="svg_131" rx="27.46" ry="27.46" transform="matrix(0.2298 -0.9732 0.9732 0.2298 800.9319 1970.0791)"/>
       <ellipse cx="1712.5" cy="440.08" fill="#FFFFFF" id="svg_132" rx="27.46" ry="27.46" transform="matrix(0.2298 -0.9732 0.9732 0.2298 890.7424 2005.6624)"/>
       <path d="m1661.77,480.34c5.71,-1.59 11.65,-2.77 17.24,-3.23c4.32,-0.35 8.43,1.86 10.56,5.63c4.21,7.46 7.38,19.27 9.08,29.5l9.69,-5.22c-7.23,-9.32 -11.99,-18.78 -13.99,-26.76c-0.63,-2.53 -0.58,-5.18 0.25,-7.64c2.15,-6.32 6.49,-12.39 13.78,-20.11l-6.59,-4.52c-3.23,6.36 -6.45,12.73 -9.37,17.35c-2.09,3.31 -5.53,5.53 -9.41,6.03c-8.15,1.07 -16.29,0.51 -24.4,-3.5l3.16,12.47z" fill="#FFFFFF" id="svg_133"/>
      </g>
     </g>
     <g id="svg_134">
      <g id="svg_135">
       <circle cx="1492.09" cy="658.59" fill="#E0AA63" id="svg_136" r="163.98"/>
       <path d="m1565.01,789.64c-0.76,0 -1.51,-0.4 -1.91,-1.12c-0.6,-1.06 -0.23,-2.4 0.83,-3c20.53,-11.65 38.14,-28.32 50.92,-48.2c0.66,-1.02 2.02,-1.32 3.05,-0.66c1.02,0.66 1.32,2.02 0.66,3.04c-13.16,20.48 -31.3,37.65 -52.46,49.65c-0.34,0.2 -0.72,0.29 -1.09,0.29z" fill="#FFFFFF" id="svg_137"/>
       <path d="m1639.95,653.82c-1.17,0 -2.14,-0.92 -2.2,-2.1c-3.61,-77.92 -67.6,-138.95 -145.66,-138.95c-67.16,0 -125.35,45.46 -141.52,110.54c-0.3,1.18 -1.5,1.88 -2.68,1.61c-1.18,-0.3 -1.9,-1.49 -1.6,-2.67c16.66,-67.06 76.61,-113.89 145.8,-113.89c80.42,0 146.34,62.88 150.06,143.15c0.06,1.22 -0.88,2.25 -2.1,2.31c-0.03,0 -0.07,0 -0.1,0z" fill="#FFFFFF" id="svg_138"/>
       <circle cx="1492.09" cy="658.59" fill="#EFBC73" id="svg_139" r="136.18"/>
       <path d="m1492.09,824.77c-91.64,0 -166.19,-74.54 -166.19,-166.18c0,-91.64 74.55,-166.19 166.19,-166.19s166.18,74.55 166.18,166.19c0.01,91.64 -74.55,166.18 -166.18,166.18zm0,-327.96c-89.21,0 -161.78,72.57 -161.78,161.78s72.57,161.78 161.78,161.78c89.2,0 161.78,-72.58 161.78,-161.78s-72.57,-161.78 -161.78,-161.78z" fill="#FFFFFF" id="svg_140"/>
       <path d="m1492.09,796.98c-76.31,0 -138.39,-62.09 -138.39,-138.39s62.08,-138.38 138.39,-138.38s138.38,62.07 138.38,138.38s-62.07,138.39 -138.38,138.39zm0,-272.37c-73.88,0 -133.98,60.1 -133.98,133.98c0,73.88 60.1,133.98 133.98,133.98c73.87,0 133.98,-60.1 133.98,-133.98c0,-73.88 -60.11,-133.98 -133.98,-133.98z" fill="#FFFFFF" id="svg_141"/>
      </g>
      <g id="svg_142">
       <g id="svg_143">
        <path d="m1436.56,733.67l0,-153.97l55.31,0c19.8,0 34.87,3.63 45.2,10.89c10.33,7.27 15.5,17.81 15.5,31.62c0,7.97 -1.84,14.77 -5.5,20.41c-3.67,5.64 -9.06,9.8 -16.18,12.48c8.03,2.12 14.2,6.07 18.5,11.85c4.3,5.78 6.45,12.83 6.45,21.15c0,15.08 -4.77,26.42 -14.32,34c-9.56,7.58 -23.71,11.43 -42.46,11.57l-62.5,0zm37.12,-89.78l19.35,0c8.11,-0.07 13.89,-1.55 17.34,-4.45c3.46,-2.9 5.19,-7.18 5.19,-12.84c0,-6.5 -1.87,-11.19 -5.61,-14.05c-3.74,-2.86 -9.77,-4.3 -18.08,-4.3l-18.19,0l0,35.64zm0,24.32l0,36.91l24.32,0c6.7,0 11.84,-1.53 15.44,-4.6c3.59,-3.07 5.39,-7.39 5.39,-12.95c0,-12.84 -6.38,-19.29 -19.14,-19.36l-26.01,0z" fill="#FFFFFF" id="svg_144"/>
       </g>
       <path d="m1494.51,750.57l15.61,0l0,-26.14c-5.22,-0.22 -10.41,-0.53 -15.61,-0.88l0,27.02z" fill="#FFFFFF" id="svg_145"/>
       <path d="m1494.51,562.59l0,28.74c5.2,0.15 10.4,0.3 15.61,0.35l0,-29.09l-15.61,0z" fill="#FFFFFF" id="svg_146"/>
       <path d="m1460.01,751.12l15.6,0l0,-28.94c-5.17,-0.37 -10.37,-0.73 -15.6,-1.02l0,29.96z" fill="#FFFFFF" id="svg_147"/>
       <path d="m1460.01,563.14l0,28.35c5.2,-0.35 10.4,-0.49 15.6,-0.49l0,-27.86l-15.6,0z" fill="#FFFFFF" id="svg_148"/>
      </g>
     </g>
    </g>
    <g id="svg_149">
     <g id="svg_150">
      <polygon fill="#363E44" id="svg_151" points="1087.413,2158.302 1012.106,1871.001 630.221,1886.125 613.265,2158.302       833.082,2158.302 836.863,2086.521 890.118,2158.302     "/>
      <path d="m836.87,2088.72c-0.73,0 -1.43,-0.35 -1.86,-1l-35.48,-54.83c-0.66,-1.02 -0.37,-2.38 0.65,-3.05c1.02,-0.65 2.39,-0.36 3.05,0.66l35.48,54.82c0.67,1.02 0.37,2.39 -0.65,3.05c-0.37,0.24 -0.78,0.35 -1.19,0.35z" fill="#E6D0BE" id="svg_152"/>
     </g>
     <g id="svg_153">
      <path d="m893.69,1283.16c-3.36,0 -6.9,-1.05 -10.38,-3.13c-5.49,-3.29 -10.22,-8.8 -13.3,-15.51c-6.5,-14.15 -3.61,-29.4 6.43,-34.02c5.02,-2.3 10.94,-1.67 16.7,1.77c5.5,3.29 10.22,8.8 13.3,15.51l0,0c3.09,6.72 4.19,13.89 3.1,20.2c-1.13,6.61 -4.52,11.52 -9.53,13.82c-1.99,0.91 -4.11,1.36 -6.32,1.36zm-10.93,-49.61c-1.58,0 -3.09,0.32 -4.48,0.96c-7.83,3.6 -9.75,16.23 -4.27,28.17c2.72,5.91 6.82,10.73 11.56,13.57c4.47,2.67 8.95,3.22 12.6,1.55c3.65,-1.68 6.15,-5.43 7.03,-10.57c0.94,-5.44 -0.04,-11.69 -2.76,-17.61l0,0c-2.72,-5.92 -6.82,-10.73 -11.56,-13.57c-2.77,-1.66 -5.55,-2.5 -8.12,-2.5z" fill="#363E44" id="svg_154"/>
      <path d="m880.89,1254.41c-16.9,-36.89 -30.01,-56.9 -53.25,-65.42c-31.24,-11.44 -61.9,8.61 -65.07,10.75c-2.02,1.37 -31.95,19.07 -34.14,53.99c-2.16,34.49 14.01,68.92 43.01,87.14l6.64,76.06c2.14,24.41 23.66,42.48 48.07,40.35l5.53,-0.49c24.42,-2.13 42.48,-23.65 40.35,-48.07l-4.43,-50.8c15.37,-2.65 27.23,-8.21 31.46,-16.48c7.57,-14.83 1.74,-43.58 -18.17,-87.03z" fill="#BC8271" id="svg_155"/>
      <path d="m834.09,1274.53c-0.94,0 -1.81,-0.61 -2.11,-1.56c-0.35,-1.16 0.3,-2.39 1.46,-2.75l70.25,-21.69c1.17,-0.36 2.4,0.3 2.76,1.46c0.36,1.16 -0.29,2.4 -1.46,2.75l-70.25,21.69c-0.22,0.06 -0.44,0.1 -0.65,0.1z" fill="#363E44" id="svg_156"/>
      <path d="m868.18,1358.86c-1.1,0 -2.05,-0.83 -2.18,-1.96l-2.12,-18.55c-0.14,-1.21 0.73,-2.3 1.94,-2.44c1.21,-0.16 2.3,0.72 2.44,1.94l2.12,18.55c0.14,1.21 -0.73,2.3 -1.94,2.44c-0.09,0.01 -0.17,0.02 -0.26,0.02z" fill="#363E44" id="svg_157"/>
      <path d="m832.78,1302.93c-0.53,0 -1.07,-0.2 -1.49,-0.58c-4.61,-4.23 -7.47,-6.97 -9.56,-8.98c-1.02,-0.98 -1.86,-1.78 -2.63,-2.5c-0.89,-0.83 -0.94,-2.22 -0.11,-3.11c0.83,-0.89 2.23,-0.94 3.11,-0.12c0.79,0.74 1.64,1.55 2.68,2.54c2.08,2 4.92,4.72 9.49,8.92c0.89,0.82 0.95,2.22 0.13,3.11c-0.43,0.47 -1.03,0.72 -1.62,0.72z" fill="#363E44" id="svg_158"/>
      <path d="m837.42,1185.08c-27.99,-23.15 -92.16,-2.8 -114.55,32.9c-30.29,48.27 -7.32,115.4 34.04,135.35c13.88,6.68 36.75,14.37 59.17,1.46c13.1,-7.54 8.64,-27.39 7.48,-32.16c-12.94,-1.22 -23.05,-11.47 -23.97,-23.78c-0.93,-12.41 7.7,-23.67 18.58,-26.5c7.21,-1.88 13.49,0.45 16.06,1.58c18.36,-37.71 23.13,-72.35 3.19,-88.85z" fill="#363E44" id="svg_159"/>
     </g>
     <g id="svg_160">
      <g id="svg_161">
       <g id="svg_162">
        <path d="m994.63,1220.45c-14.66,0 -29.42,-1.73 -44.05,-5.22c-100.85,-24.1 -163.3,-125.76 -139.2,-226.61l2.14,0.51l-2.14,-0.51c24.1,-100.85 125.76,-163.31 226.61,-139.2c100.85,24.1 163.29,125.75 139.2,226.6c-11.68,48.86 -41.67,90.24 -84.48,116.53c-29.99,18.43 -63.75,27.9 -98.08,27.9zm-0.35,-371.8c-83.02,0 -158.5,56.79 -178.62,140.99c-23.53,98.49 37.46,197.77 135.95,221.3c47.7,11.4 97,3.54 138.8,-22.14c41.79,-25.67 71.09,-66.09 82.49,-113.8c23.53,-98.49 -37.45,-197.76 -135.94,-221.3c-14.28,-3.41 -28.6,-5.05 -42.68,-5.05z" fill="#363E44" id="svg_163"/>
        <g id="svg_164">
         <path d="m1195.13,1381.38c-6.22,0 -12.31,-3.12 -15.81,-8.8l-59.09,-95.83c-1.3,-2.11 -1.7,-4.6 -1.13,-7.01c0.57,-2.42 2.05,-4.46 4.16,-5.77l19.51,-12.03c2.11,-1.3 4.6,-1.7 7.02,-1.13c2.41,0.57 4.46,2.05 5.76,4.16l59.09,95.83c5.37,8.7 2.66,20.15 -6.05,25.51l-3.75,2.32c-3.03,1.86 -6.39,2.75 -9.71,2.75zm-47.49,-126.42c-0.89,0 -1.77,0.25 -2.55,0.73l-19.52,12.04c-1.11,0.68 -1.88,1.75 -2.18,3.02c-0.3,1.27 -0.09,2.58 0.59,3.69l59.09,95.83c4.09,6.63 12.82,8.7 19.45,4.6l3.76,-2.31l0,0c6.63,-4.09 8.7,-12.82 4.61,-19.45l-59.09,-95.83c-0.68,-1.11 -1.76,-1.88 -3.03,-2.18c-0.37,-0.09 -0.75,-0.14 -1.13,-0.14z" fill="#363E44" id="svg_165"/>
         <path d="m1125.26,1267.63c-0.74,0 -1.46,-0.37 -1.88,-1.04l-36.33,-58.74c-0.31,-0.5 -0.4,-1.1 -0.27,-1.67c0.14,-0.56 0.49,-1.06 0.99,-1.36l17.92,-11.05c1.03,-0.64 2.39,-0.32 3.03,0.71l36.33,58.74c0.31,0.5 0.4,1.1 0.27,1.67c-0.14,0.57 -0.49,1.06 -0.99,1.37l-17.92,11.05c-0.35,0.22 -0.75,0.32 -1.15,0.32zm-33.3,-60.22l34.02,54.99l14.16,-8.73l-34.01,-54.99l-14.17,8.73z" fill="#363E44" id="svg_166"/>
        </g>
        <path d="m1136.34,947c-0.74,0 -1.46,-0.37 -1.88,-1.05c-34.67,-56.43 -99.38,-86.47 -164.87,-76.53c-1.2,0.19 -2.33,-0.64 -2.51,-1.84c-0.19,-1.21 0.64,-2.33 1.84,-2.51c67.25,-10.21 133.7,20.63 169.3,78.58c0.64,1.03 0.31,2.39 -0.73,3.03c-0.36,0.22 -0.76,0.32 -1.15,0.32z" fill="#363E44" id="svg_167"/>
        <path d="m996.29,1200.87c-1.21,0 -2.19,-0.97 -2.21,-2.18c-0.01,-1.22 0.97,-2.21 2.18,-2.23c29.65,-0.31 58.76,-8.73 84.16,-24.33c1.04,-0.64 2.4,-0.32 3.03,0.72c0.64,1.04 0.32,2.4 -0.72,3.03c-26.09,16.03 -55.97,24.67 -86.42,24.99c-0.01,0 -0.02,0 -0.02,0z" fill="#363E44" id="svg_168"/>
       </g>
      </g>
      <g id="svg_169">
       <path d="m613.09,1590.62c-72.18,-27.4 -285.33,-93.71 -256.5,-182.89c23.84,-73.76 228.57,-0.03 302.01,22.53c-15.17,53.45 -30.34,106.91 -45.51,160.36z" fill="#BC8271" id="svg_170"/>
       <g id="svg_171">
        <path d="m458.41,1483.43c0,0 0,0 0.01,0c64.7,-124.41 112.99,-211.43 126.85,-238.89c1.45,-2.87 4.03,-7.93 5.48,-15.18c5.37,-26.84 -13.43,-40.61 -20.66,-71.41c-8.21,-34.95 6.96,-59.27 -1.22,-63.42c-5.69,-2.88 -13.99,4.68 -23.93,25.02l0,0c5.77,-16.32 12.64,-38.8 3.61,-41.97c-10.62,-3.09 -21.79,22.37 -27.79,38.1c7.26,-19.04 5.43,-31.34 -0.04,-31.85c-8.62,-0.81 -17.7,12.65 -26.32,38.19l0,0c1.03,-19.3 -1.6,-24.13 -6.55,-23.41c-9.04,1.33 -15.73,22.47 -18.79,42.06c-3.44,22.05 1.54,40.35 4.96,51.81c0,0 0,0.01 -0.01,0.01c-54.35,82.43 -68.6,101.76 -111.04,169.29c-48.22,76.73 25.88,154.46 95.44,121.65z" fill="#BC8271" id="svg_172"/>
        <path d="m570.13,1187.74c18.37,-30.39 31.44,-37.47 36.16,-34.4c7.95,5.15 2.89,37.53 -18.36,85.34c-6.23,-13.75 -11.57,-37.19 -17.8,-50.94z" fill="#BC8271" id="svg_173"/>
        <g id="svg_174">
         <path d="m544.41,1154.07c-1.03,0 -1.96,-0.73 -2.16,-1.78c-0.85,-4.38 -1.29,-8.86 -1.31,-13.3c-0.04,-6.45 0.8,-12.9 2.47,-19.17c0.32,-1.17 1.53,-1.88 2.7,-1.55c1.18,0.31 1.88,1.52 1.56,2.69c-1.57,5.89 -2.36,11.95 -2.32,18c0.02,4.18 0.43,8.38 1.23,12.49c0.23,1.19 -0.56,2.35 -1.75,2.58c-0.14,0.03 -0.28,0.04 -0.42,0.04z" fill="#363E44" id="svg_175"/>
         <path d="m521.26,1147.77c-1.04,0 -1.96,-0.73 -2.16,-1.78c-0.85,-4.39 -1.29,-8.86 -1.31,-13.3c-0.04,-6.45 0.79,-12.9 2.47,-19.17c0.32,-1.17 1.52,-1.89 2.7,-1.56c1.18,0.32 1.87,1.52 1.56,2.7c-1.58,5.89 -2.36,11.95 -2.32,18c0.02,4.17 0.43,8.38 1.22,12.49c0.23,1.2 -0.55,2.35 -1.74,2.58c-0.14,0.03 -0.29,0.04 -0.42,0.04z" fill="#363E44" id="svg_176"/>
         <path d="m493.32,1156.23c-1.04,0 -1.96,-0.73 -2.16,-1.78c-0.85,-4.38 -1.29,-8.86 -1.31,-13.3c-0.04,-6.45 0.8,-12.9 2.48,-19.17c0.31,-1.17 1.51,-1.87 2.69,-1.55c1.18,0.31 1.88,1.52 1.56,2.7c-1.57,5.88 -2.36,11.94 -2.32,18c0.02,4.17 0.43,8.37 1.23,12.48c0.23,1.2 -0.56,2.36 -1.75,2.59c-0.14,0.02 -0.28,0.03 -0.42,0.03z" fill="#363E44" id="svg_177"/>
        </g>
       </g>
      </g>
      <g id="svg_178">
       <g id="svg_179">
        <path d="m1102.06,1472.93c158.11,33.62 282.27,67.69 268.71,118.42c-28.7,107.37 -147.98,52.19 -254,51.24c-3.99,-43.54 -11.01,-116.87 -14.71,-169.66z" fill="#BC8271" id="svg_180"/>
       </g>
       <g id="svg_181">
        <path d="m1235.42,1573.37c0,0 -39.93,-107.38 -57.07,-165.79c-18.01,-61.35 -35.66,-154.55 -22.59,-156.85c7.44,-1.31 12.48,10.9 23.77,44.44c1.12,-2.27 5.63,-8.19 12.73,-8.27c10.52,-0.13 13.54,8.24 14.11,8.88c0.32,-0.8 4,-9.31 11.02,-10.59c7.91,-1.43 13.85,2.22 17.34,7.48c0.85,-1.96 4.74,-8.87 11.52,-9.89c6.98,-1.06 15.03,2.91 17,10.01c3.62,13.02 13.62,51.92 20.79,70.26c14.11,36.09 81.44,157.52 88.06,215.07c-48.9,-11.09 -136.68,-4.75 -136.68,-4.75z" fill="#BC8271" id="svg_182"/>
        <g id="svg_183">
         <path d="m1248.86,1312.82c-1.08,0 -2.02,-0.79 -2.18,-1.89c-0.17,-1.2 0.66,-2.32 1.87,-2.5l11.3,-1.64c1.21,-0.18 2.32,0.66 2.5,1.87c0.17,1.2 -0.66,2.32 -1.87,2.49l-11.3,1.65c-0.11,0.01 -0.22,0.02 -0.32,0.02z" fill="#363E44" id="svg_184"/>
         <path d="m1220.14,1317.09c-1.1,0 -2.06,-0.83 -2.19,-1.96c-0.13,-1.2 0.74,-2.29 1.95,-2.43l12.83,-1.46c1.2,-0.12 2.3,0.74 2.44,1.95c0.13,1.21 -0.74,2.3 -1.95,2.44l-12.83,1.45c-0.08,0.01 -0.17,0.01 -0.25,0.01z" fill="#363E44" id="svg_185"/>
         <path d="m1192.26,1320.04c-1.08,0 -2.02,-0.79 -2.18,-1.89c-0.18,-1.2 0.65,-2.32 1.86,-2.49c2.11,-0.31 4.02,-0.58 5.93,-0.84c1.9,-0.26 3.8,-0.53 5.91,-0.84c1.2,-0.2 2.32,0.66 2.5,1.86c0.17,1.21 -0.66,2.33 -1.86,2.5c-2.12,0.31 -4.03,0.58 -5.94,0.84c-1.9,0.27 -3.8,0.53 -5.9,0.84c-0.11,0.01 -0.22,0.02 -0.32,0.02z" fill="#363E44" id="svg_186"/>
         <path d="m1169.51,1325.35c-1.01,0 -1.93,-0.7 -2.15,-1.73c-0.27,-1.19 0.48,-2.36 1.67,-2.63l11.07,-2.45c1.19,-0.25 2.37,0.48 2.63,1.67c0.26,1.19 -0.49,2.37 -1.67,2.63l-11.08,2.46c-0.16,0.03 -0.32,0.05 -0.47,0.05z" fill="#363E44" id="svg_187"/>
        </g>
       </g>
      </g>
      <g id="svg_188">
       <path d="m616.11,1634.69l-104.12,-38.27l41.71,-201.83c0,0 325.19,-21.13 581.52,78.62l-5.34,196.03l-84.28,7.04l56.64,251.8c-205.78,26.25 -372.87,23.21 -513.32,0l27.19,-293.39z" fill="#8B865C" id="svg_189"/>
       <path d="m623.67,1627.44c-0.11,0 -0.23,-0.01 -0.34,-0.03c-1.2,-0.19 -2.03,-1.31 -1.84,-2.52l10.34,-66.34c0.19,-1.21 1.31,-2.02 2.52,-1.84c1.2,0.19 2.02,1.31 1.84,2.52l-10.34,66.34c-0.17,1.09 -1.11,1.87 -2.18,1.87z" fill="#363E44" id="svg_190"/>
      </g>
     </g>
    </g>
    <g id="svg_191">
     <g id="svg_192">
      <path d="m1781.24,1331.4c0,0 -31.66,86.65 -97.23,86.65c-46.98,0 -70.88,-31.55 -75.9,-76.71c-5.45,-49.09 69.32,-127.99 160.49,-201.63c0,0 31.84,120.06 12.64,191.69z" fill="#D87355" id="svg_193"/>
      <g id="svg_194">
       <path d="m2002.05,1326.28c0,0 45.8,116.88 112.97,72.66c120.03,-79 -6.64,-197.46 -98.27,-243.95c-119.24,-60.49 -205.51,-27.85 -248.15,-15.28l7.64,252.18c0.72,23.76 20.19,42.65 43.96,42.65l156.07,0c29.74,0 50.91,-28.91 41.93,-57.26l-16.15,-51z" fill="#D87355" id="svg_195"/>
       <path d="m2020.67,1251.51c-0.98,0 -1.87,-0.66 -2.13,-1.65l-7.85,-30.24c-0.3,-1.18 0.41,-2.38 1.58,-2.69c1.18,-0.32 2.38,0.4 2.69,1.58l7.85,30.24c0.31,1.18 -0.4,2.38 -1.58,2.69c-0.19,0.05 -0.37,0.07 -0.56,0.07z" fill="#363E44" id="svg_196"/>
       <path d="m1775.49,1369.47c-1.19,0 -2.16,-0.94 -2.2,-2.13l-1.09,-35.87c-0.03,-1.22 0.92,-2.23 2.14,-2.27c1.2,-0.02 2.23,0.92 2.27,2.14l1.08,35.86c0.04,1.22 -0.91,2.24 -2.13,2.27c-0.02,0 -0.05,0 -0.07,0z" fill="#363E44" id="svg_197"/>
      </g>
      <g id="svg_198">
       <g id="svg_199">
        <path d="m2087.96,1279.84c0,0 -81.95,-34.29 -125.83,-51.33c-76.04,-29.53 -119.83,-21.36 -119.89,-10.43c-0.05,11.86 22.76,5.1 33.63,8.55c-1.76,0.87 -6.41,4.44 -6.65,10.31c-0.34,8.67 6.01,11.39 6.49,11.87c-0.62,0.24 -7.24,3.07 -8.39,8.83c-1.28,6.5 1.38,11.5 5.33,14.51c-1.52,0.65 -6.91,3.69 -7.86,9.26c-0.97,5.74 1.88,12.49 7.28,14.3c9.9,3.31 39.51,12.56 53.41,18.94c27.35,12.58 118.91,71.26 162.91,78.18c32.98,1.31 48.31,-44.72 34.55,-81.03c-8.66,-22.85 -34.98,-31.96 -34.98,-31.96z" fill="#84524D" id="svg_200"/>
        <g id="svg_201">
         <path d="m1884.56,1295.77c-0.12,0 -0.24,-0.01 -0.36,-0.03c-1.2,-0.19 -2.01,-1.33 -1.82,-2.53l1.53,-9.29c0.2,-1.2 1.33,-2.04 2.53,-1.82c1.2,0.2 2.02,1.33 1.82,2.53l-1.53,9.3c-0.17,1.08 -1.11,1.84 -2.17,1.84z" fill="#363E44" id="svg_202"/>
         <path d="m1888.63,1273.43c-0.1,0 -0.2,0 -0.3,-0.02c-1.21,-0.16 -2.05,-1.27 -1.89,-2.47l1.41,-10.56c0.17,-1.21 1.29,-2.04 2.48,-1.89c1.21,0.16 2.05,1.27 1.89,2.47l-1.41,10.56c-0.15,1.11 -1.1,1.91 -2.18,1.91z" fill="#363E44" id="svg_203"/>
         <path d="m1891.4,1249.65c-0.12,0 -0.24,-0.01 -0.36,-0.03c-1.2,-0.2 -2.02,-1.33 -1.82,-2.53c0.29,-1.73 0.53,-3.29 0.78,-4.85c0.25,-1.57 0.5,-3.14 0.78,-4.88c0.2,-1.2 1.33,-2.03 2.54,-1.82c1.2,0.2 2.01,1.34 1.81,2.54c-0.28,1.72 -0.53,3.28 -0.78,4.85c-0.24,1.57 -0.49,3.14 -0.78,4.88c-0.18,1.08 -1.11,1.84 -2.17,1.84z" fill="#363E44" id="svg_204"/>
         <path d="m1895.43,1230.35c-0.17,0 -0.34,-0.02 -0.51,-0.06c-1.19,-0.28 -1.92,-1.47 -1.64,-2.65l2.14,-9.08c0.28,-1.19 1.47,-1.91 2.65,-1.64c1.19,0.28 1.92,1.47 1.64,2.65l-2.14,9.08c-0.24,1.02 -1.15,1.7 -2.14,1.7z" fill="#363E44" id="svg_205"/>
        </g>
       </g>
      </g>
      <g id="svg_206">
       <path d="m1763.29,1262.37l-38.15,96.37c-10.33,26.08 -40.1,38.55 -65.93,27.6l0,0c-28.04,-11.88 -39.02,-45.86 -23.23,-71.89l52.98,-87.36l74.33,35.28z" fill="#84524D" id="svg_207"/>
       <g id="svg_208">
        <g id="svg_209">
         <path d="m1851.77,1303.5c-0.9,0 -1.75,-0.56 -2.07,-1.46l-51.58,-144.83l-112.67,0.99c-0.01,0 -0.01,0 -0.02,0c-1.21,0 -2.19,-0.98 -2.2,-2.18c-0.01,-1.22 0.96,-2.22 2.18,-2.23l114.23,-1c0.01,0 0.02,0 0.02,0c0.94,0 1.76,0.59 2.08,1.46l52.11,146.31c0.41,1.14 -0.19,2.4 -1.34,2.81c-0.24,0.09 -0.49,0.13 -0.74,0.13z" fill="#E6D0BE" id="svg_210"/>
        </g>
        <g id="svg_211">
         <polygon fill="#363E44" id="svg_212" points="1728.953,1311.284 1843.187,1311.284 1791.08,1164.984 1676.846,1164.984        "/>
        </g>
       </g>
       <g id="svg_213">
        <path d="m1713.88,1259.65c-10.07,5.74 -11.29,12.45 -8.1,18.06c3.19,5.61 9.59,7.99 19.66,2.25c10.08,-5.73 20.02,-17.41 16.83,-23.02s-18.31,-3.02 -28.39,2.71z" fill="#84524D" id="svg_214"/>
        <path d="m1705.05,1239c-11.67,6.65 -13.09,14.43 -9.39,20.93c3.7,6.5 11.11,9.26 22.79,2.61c11.68,-6.64 23.2,-20.18 19.5,-26.68c-3.7,-6.5 -21.22,-3.5 -32.9,3.14z" fill="#84524D" id="svg_215"/>
        <path d="m1695.37,1227.13c-10.08,5.73 -16.47,3.35 -19.66,-2.26s-1.98,-12.32 8.1,-18.05c10.08,-5.74 25.19,-8.32 28.38,-2.71c3.19,5.6 -6.75,17.28 -16.82,23.02z" fill="#84524D" id="svg_216"/>
        <path d="m1708.62,1245.26c-11.68,6.65 -19.09,3.89 -22.79,-2.61c-3.7,-6.5 -2.29,-14.28 9.39,-20.93c11.67,-6.64 29.19,-9.64 32.89,-3.14c3.7,6.5 -7.82,20.04 -19.49,26.68z" fill="#84524D" id="svg_217"/>
        <path d="m1715.06,1285.46c-4.79,0 -8.73,-2.33 -11.19,-6.66c-2,-3.51 -2.37,-7.21 -1.13,-10.68c-3.78,-0.93 -6.85,-3.34 -8.99,-7.1c-1.95,-3.43 -2.54,-6.99 -1.75,-10.44c-3.37,-1.08 -6.14,-3.41 -8.09,-6.84c-0.6,-1.06 -0.23,-2.4 0.83,-3c1.06,-0.61 2.4,-0.23 3,0.82c1.74,3.06 4.22,4.81 7.38,5.21c0.69,0.09 1.29,0.5 1.64,1.1c0.34,0.6 0.38,1.33 0.1,1.96c-1.26,2.93 -1.02,5.96 0.72,9.01c1.95,3.44 4.84,5.22 8.57,5.3c0.8,0.02 1.53,0.47 1.9,1.18c0.37,0.72 0.33,1.57 -0.12,2.24c-1.92,2.9 -2,5.95 -0.23,9.06c1.85,3.25 4.67,4.72 8.35,4.39c1.24,-0.1 2.29,0.79 2.4,2c0.11,1.21 -0.79,2.28 -2,2.39c-0.47,0.05 -0.93,0.06 -1.39,0.06z" fill="#363E44" id="svg_218"/>
       </g>
      </g>
      <path d="m2082.7,1268.54c-2.34,-1.06 39.78,86.18 -20.9,116.53c0,0 20.71,14.82 45.63,7.79c24.92,-7.04 50.91,-90.05 -24.73,-124.32z" fill="#B77250" id="svg_219"/>
      <path d="m1734.22,1355.55c0,0 -80.82,31.16 -97.19,-54.26l-14.01,33.35c0,0 -11.02,40.32 28.02,58.22c39.04,17.89 70.45,-8.03 83.18,-37.31z" fill="#B77250" id="svg_220"/>
     </g>
     <g id="svg_221">
      <ellipse cx="1877.49" cy="1031.32" fill="#363E44" id="svg_222" rx="55.17" ry="55.17" transform="matrix(0.1222 -0.9925 0.9925 0.1222 624.502 2768.7375)"/>
      <path d="m1839.39,1058.82l0,0c6.98,-3.86 18.94,-14.16 22.8,-7.18l45.26,72.38c3.85,6.98 -19.3,4.55 -26.28,8.4l0,0c-6.98,3.86 -15.77,1.33 -19.62,-5.65l-27.82,-48.33c-3.85,-6.98 -1.32,-15.77 5.66,-19.62z" fill="#84524D" id="svg_223"/>
      <path d="m1844.61,1129.61c-6.25,22.9 11.75,57.56 11.75,57.56s66.3,-32.18 66.3,-57.56c0,-6.49 -17.47,-11.75 -39.02,-11.75s-37.32,5.49 -39.03,11.75z" fill="#84524D" id="svg_224"/>
      <g id="svg_225">
       <path d="m1802.86,1078.73c6.26,11.72 42.97,6.68 42.97,6.68l32.01,-24.96c8.33,-16.73 1.54,-37.05 -15.19,-45.39c-16.73,-8.34 -37.05,-1.54 -45.39,15.19c0,0 -20.78,36.54 -14.4,48.48z" fill="#84524D" id="svg_226"/>
       <path d="m1816.77,1039.95c0,0 -12.93,4.66 -13.65,7.24c-0.86,3.07 7.75,9.5 7.75,9.5s5.66,-16.83 5.9,-16.74z" fill="#84524D" id="svg_227"/>
       <g id="svg_228">
        <path d="m1844.75,1052.28c0,0 -3.71,-5.26 -9.82,-8.31c-1.3,-0.64 -4.04,10.99 -2.51,11.01c6.72,0.12 12.33,-2.7 12.33,-2.7z" fill="#FFFFFF" id="svg_229"/>
        <g id="svg_230">
         <defs>
          <path d="m1844.75,1052.28c0,0 -5.46,-7.73 -14.04,-9.88c-8.58,-2.14 -17.03,2.11 -17.03,2.11s5.46,7.72 14.04,9.87c8.58,2.15 17.03,-2.1 17.03,-2.1z" id="SVGID_1_"/>
         </defs>
         <clipPath id="SVGID_00000158718645822822572620000004113454066427232185_">
          <use id="svg_231" overflow="visible" xlink:href="#SVGID_1_"/>
         </clipPath>
         <path clip-path="url(#SVGID_00000158718645822822572620000004113454066427232185_)" d="m1834.8,1043.58c-2.03,-6.06 -8.58,-9.33 -14.64,-7.3c-6.06,2.03 -9.33,8.58 -7.3,14.64c2.03,6.06 8.58,9.33 14.64,7.3c6.06,-2.03 9.33,-8.58 7.3,-14.64z" fill="#363E44" id="svg_232"/>
        </g>
       </g>
       <path d="m1817.87,1068.37c-2.43,0 -4.72,-1.28 -5.99,-3.41c-0.62,-1.04 -0.28,-2.39 0.77,-3.02c1.04,-0.62 2.4,-0.28 3.02,0.77c0.51,0.86 1.48,1.36 2.48,1.24c0.95,-0.11 1.78,-0.77 2.1,-1.68c0.42,-1.15 1.68,-1.74 2.82,-1.33c1.15,0.41 1.74,1.67 1.33,2.82c-0.89,2.48 -3.15,4.27 -5.76,4.57c-0.25,0.03 -0.51,0.04 -0.77,0.04z" fill="#363E44" id="svg_233"/>
      </g>
      <path d="m1901.95,1066.6c0,0 -47.55,2.1 -77.63,-45.46c-30.07,-47.55 52.46,-44.76 86.72,-28.67c21.95,10.3 -9.09,74.13 -9.09,74.13z" fill="#363E44" id="svg_234"/>
      <path d="m1890.17,1106.25c-3.17,0 -8.53,-0.64 -13.12,-4.32c-4.86,-3.89 -7.58,-10.08 -8.07,-18.41c-0.74,-12.68 8.09,-19.62 13.94,-24.21c1.55,-1.21 3.63,-2.85 4.08,-3.66c-0.39,-0.4 -1.96,-1.51 -8.13,-3.16c-27.38,-7.32 -42.61,-38.17 -43.24,-39.48c-0.53,-1.09 -0.07,-2.41 1.02,-2.94c1.1,-0.54 2.41,-0.07 2.94,1.02c0.15,0.3 15.01,30.35 40.41,37.14c7.75,2.07 10.83,3.85 11.39,6.57c0.61,2.99 -2.19,5.19 -5.75,7.98c-5.43,4.26 -12.87,10.1 -12.26,20.48c0.41,7.01 2.56,12.12 6.39,15.2c5.35,4.32 12.39,3.27 12.46,3.26c1.22,-0.2 2.33,0.63 2.52,1.83c0.19,1.2 -0.62,2.33 -1.81,2.52c-0.13,0.02 -1.17,0.18 -2.77,0.18zm-3.06,-50.46l0.02,0l-0.02,0z" fill="#40484C" id="svg_235"/>
      <g id="svg_236">
       <path d="m1862.38,1004.94c0,0 20.06,-96.29 50.01,-86.56c29.96,9.73 -28.23,96.03 -50.01,86.56z" fill="#363E44" id="svg_237"/>
       <path d="m1882.03,1013.77c0,0 42.97,-113.37 79.41,-95.75c36.44,17.63 -53.36,111.48 -79.41,95.75z" fill="#363E44" id="svg_238"/>
       <path d="m1890.46,1013.61c0,0 96.6,-103.07 126.06,-68.74c29.45,34.33 -106.44,96.64 -126.06,68.74z" fill="#363E44" id="svg_239"/>
       <path d="m1907.75,1027.32c0,0 86.4,-67.17 106.2,-36.46c19.8,30.71 -93.52,60.84 -106.2,36.46z" fill="#363E44" id="svg_240"/>
       <path d="m1962.85,1033.86c-14.74,0 -29.98,-2.07 -41.99,-5.9c-13.29,-4.25 -21.01,-10.26 -22.33,-17.38l-0.33,-1.8l1.71,-0.66c3.11,-1.18 76.34,-28.81 104.63,-14.6c5.44,2.73 8.98,6.85 10.5,12.24c1.7,5.98 0.2,11.47 -4.34,15.86c-8.7,8.41 -27.81,12.24 -47.85,12.24zm-59.44,-22.33c2.02,4.67 8.58,8.96 18.8,12.23c26.47,8.46 72.01,7.66 85.42,-5.31c3.4,-3.29 4.43,-7.04 3.17,-11.49c-1.19,-4.21 -3.88,-7.32 -8.23,-9.5c-24.16,-12.12 -87.33,9.78 -99.16,14.07z" fill="#363E44" id="svg_241"/>
       <path d="m1899.06,1008.76c-1.74,0 -3.36,-0.3 -4.87,-0.89l-1.71,-0.68l0.36,-1.8c0.65,-3.26 16.23,-79.96 43.32,-96.36c5.21,-3.15 10.58,-3.95 15.95,-2.38c5.97,1.76 9.81,5.95 11.11,12.13c4.33,20.54 -19.68,60.25 -42.43,79.43c-8.29,6.98 -15.68,10.55 -21.73,10.55zm-1.47,-4.51c5.03,0.79 12.15,-2.5 20.36,-9.42c21.26,-17.91 44.81,-56.88 40.96,-75.15c-0.97,-4.62 -3.6,-7.49 -8.04,-8.79c-4.2,-1.24 -8.26,-0.6 -12.43,1.91c-23.12,14 -38.19,79.14 -40.85,91.45z" fill="#363E44" id="svg_242"/>
       <path d="m1872.61,993.11c0,0 15.35,-45.07 -7.1,-43.47c-22.45,1.6 7.1,43.47 7.1,43.47z" fill="#363E44" id="svg_243"/>
       <path d="m1922.84,1027.06c0,0 61.2,-13.63 54.32,18.11c-6.87,31.74 -54.32,-18.11 -54.32,-18.11z" fill="#363E44" id="svg_244"/>
      </g>
     </g>
     <g id="svg_245">
      <g id="svg_246">
       <polygon fill="#E6D0BE" id="svg_247" points="1979.051,2035.501 1898.563,2035.501 1883.151,2147.448 2004.352,2147.448      "/>
       <polygon fill="#84524D" id="svg_248" points="1648.039,1860.044 1771.46,1860.044 1674.661,2036.905 1593.854,2036.905      "/>
       <polygon fill="#84524D" id="svg_249" points="1907.398,1860.044 2017.016,1860.044 1972.372,2035.501 1902.986,2035.501      "/>
       <path d="m1694.32,2147.51l-232.8,0c0,0 40.84,-106.93 132.33,-110.56l80.81,-0.05l19.66,110.61z" fill="#E6D0BE" id="svg_250"/>
       <path d="m1986.88,1350.02c2.71,10.62 -4.72,21.16 1.3,28.36c67.76,80.98 70.5,317.14 75.01,510.72l-163.55,0l-13.37,-359.23l-92.7,359.23l-160.66,0l168.53,-512.64l0,-26.44l185.44,0z" fill="#363E44" id="svg_251"/>
       <g id="svg_252">
        <path d="m1921.19,2102.91c-2.22,0 -4.45,-0.5 -6.56,-1.49c-4.55,-2.15 -7.67,-6.24 -8.54,-11.2c-0.88,-4.96 0.66,-9.86 4.21,-13.45c3.55,-3.57 8.44,-5.15 13.41,-4.32l36.58,6.13c0.92,0.15 1.64,0.87 1.8,1.79c0.16,0.92 -0.27,1.84 -1.09,2.3l-32.29,18.24c-2.36,1.33 -4.93,2 -7.52,2zm-0.06,-26.26c-2.89,0 -5.62,1.13 -7.7,3.23c-2.53,2.55 -3.62,6.04 -3,9.58c0.62,3.53 2.84,6.44 6.09,7.98c3.24,1.53 6.9,1.4 10.03,-0.37l26.86,-15.18l-30.43,-5.09c-0.62,-0.1 -1.24,-0.15 -1.85,-0.15z" fill="#84524D" id="svg_253"/>
        <path d="m1998.89,2089.24c-0.86,0 -1.72,-0.07 -2.59,-0.22l-36.58,-6.12c-0.92,-0.16 -1.65,-0.87 -1.81,-1.8c-0.16,-0.91 0.27,-1.84 1.09,-2.3l32.29,-18.23c4.39,-2.48 9.52,-2.67 14.08,-0.52c4.56,2.16 7.67,6.24 8.54,11.21c0.88,4.96 -0.66,9.86 -4.21,13.44c-2.92,2.95 -6.76,4.54 -10.81,4.54zm-32.3,-9.66l30.43,5.09c3.54,0.6 7.03,-0.53 9.55,-3.08c2.53,-2.55 3.63,-6.04 3,-9.57c-0.62,-3.54 -2.84,-6.45 -6.08,-7.98c-3.25,-1.53 -6.91,-1.4 -10.03,0.37l-26.87,15.17z" fill="#84524D" id="svg_254"/>
       </g>
       <rect fill="#D3BBA3" height="17.55" id="svg_255" transform="matrix(-1 -1.224647e-16 1.224647e-16 -1 3887.5034 4312.4478)" width="121.2" x="1883.15" y="2147.45"/>
       <rect fill="#D3BBA3" height="17.55" id="svg_256" transform="matrix(-1 -1.224647e-16 1.224647e-16 -1 3155.8467 4312.4478)" width="232.8" x="1461.52" y="2147.45"/>
       <path d="m1886.27,1532.07c-0.26,0 -0.52,-0.04 -0.78,-0.14c-1.14,-0.43 -1.71,-1.7 -1.28,-2.84l10.19,-26.93c0.25,-0.67 0.81,-1.17 1.5,-1.36l23.42,-6.12c1.18,-0.29 2.38,0.4 2.69,1.58c0.31,1.17 -0.4,2.38 -1.58,2.69l-22.31,5.83l-9.79,25.87c-0.33,0.88 -1.17,1.42 -2.06,1.42z" fill="#FFFFFF" id="svg_257"/>
       <g id="svg_258">
        <path d="m1590.92,2039.17c-0.2,0 -0.39,-0.02 -0.59,-0.08l-35.73,-9.93c-4.86,-1.35 -8.62,-4.85 -10.32,-9.6c-1.7,-4.74 -1.02,-9.83 1.88,-13.96c2.89,-4.13 7.44,-6.51 12.48,-6.53c0.02,0 0.05,0 0.07,0c5.01,0 9.55,2.34 12.47,6.43l21.53,30.19c0.55,0.76 0.55,1.78 0.01,2.55c-0.41,0.59 -1.09,0.93 -1.8,0.93zm-32.21,-35.69c-0.02,0 -0.03,0 -0.05,0c-3.59,0.01 -6.83,1.71 -8.9,4.65c-2.06,2.94 -2.54,6.57 -1.33,9.94c1.21,3.39 3.89,5.88 7.35,6.84l29.73,8.27l-17.92,-25.12c-2.07,-2.92 -5.31,-4.58 -8.88,-4.58z" fill="#84524D" id="svg_259"/>
        <path d="m1623.26,2074.96c-5.01,0 -9.56,-2.34 -12.47,-6.42l-21.53,-30.2c-0.55,-0.76 -0.55,-1.78 -0.02,-2.54s1.5,-1.12 2.4,-0.86l35.73,9.94c4.86,1.35 8.62,4.84 10.32,9.59c1.7,4.74 1.02,9.83 -1.88,13.96c-2.89,4.13 -7.44,6.51 -12.48,6.53c-0.02,0 -0.04,0 -0.07,0zm-26.8,-34.11l17.92,25.13c2.08,2.92 5.35,4.63 8.93,4.58c3.59,-0.02 6.83,-1.72 8.89,-4.66c2.07,-2.94 2.55,-6.56 1.34,-9.94c-1.21,-3.38 -3.89,-5.87 -7.35,-6.83l-29.73,-8.28z" fill="#84524D" id="svg_260"/>
       </g>
       <path d="m1975.6,1378.67l-115.74,0c-1.22,0 -2.2,-0.99 -2.2,-2.21c0,-1.22 0.98,-2.2 2.2,-2.2l115.74,0c1.22,0 2.2,0.99 2.2,2.2c0,1.22 -0.98,2.21 -2.2,2.21z" fill="#FFFFFF" id="svg_261"/>
      </g>
     </g>
    </g>
   </g>
  </g>
 </g>
</svg>