<svg xmlns="http://www.w3.org/2000/svg" fill-rule="evenodd" stroke-linejoin="round" stroke-miterlimit="2" clip-rule="evenodd" viewBox="0 0 101 101" id="bonds"><path d="M67.088,67.756l8.608,13.815c0.518,0.831 0.479,1.895 -0.1,2.686c-0.579,0.791 -1.58,1.151 -2.53,0.909l-4.475,-1.141l-0.948,4.52c-0.201,0.959 -0.966,1.699 -1.931,1.87c-0.965,0.171 -1.937,-0.262 -2.455,-1.094l-8.032,-12.888c0.265,-0.2 0.517,-0.417 0.756,-0.651c2.154,0.455 4.426,-0.011 6.243,-1.329c1.818,-1.323 2.964,-3.338 3.197,-5.524c0.605,-0.316 1.166,-0.711 1.667,-1.173Zm-33.173,-0.003c0.499,0.459 1.058,0.852 1.664,1.17c0.232,2.189 1.378,4.207 3.195,5.528c1.816,1.319 4.091,1.786 6.245,1.331c0.239,0.234 0.492,0.451 0.756,0.651l-8.032,12.888c-0.519,0.832 -1.491,1.265 -2.456,1.094c-0.965,-0.171 -1.729,-0.911 -1.93,-1.87l-0.948,-4.52l-4.475,1.141c-0.95,0.242 -1.952,-0.118 -2.53,-0.909c-0.579,-0.791 -0.618,-1.855 -0.1,-2.686l8.611,-13.818Zm4.172,-18.958c0,-0.008 -0,-0.05 -0,-0.064c-0.007,-1.747 0.827,-3.392 2.241,-4.418c1.429,-1.04 3.276,-1.319 4.95,-0.75l0.007,0.002c0.213,0.073 0.446,-0.012 0.564,-0.203l0.013,-0.019c0.995,-1.604 2.75,-2.58 4.638,-2.58c1.661,-0 3.217,0.754 4.245,2.026c0.221,0.203 0.379,0.44 0.49,0.673c0.126,0.119 0.31,0.161 0.48,0.103l0.007,-0.002c1.674,-0.569 3.521,-0.29 4.949,0.749c1.43,1.038 2.266,2.707 2.243,4.475l-0.001,0.013c-0,0.222 0.151,0.416 0.367,0.468l0.026,0.007c1.831,0.452 3.302,1.819 3.885,3.614c0.549,1.692 0.238,3.538 -0.817,4.951c-0.06,0.091 -0.137,0.191 -0.238,0.301c-0.116,0.155 -0.126,0.365 -0.028,0.53c0.053,0.065 0.096,0.126 0.135,0.191c0.975,1.395 1.244,3.17 0.715,4.8c-0.548,1.68 -1.876,2.99 -3.565,3.513l-0.007,0.002c-0.214,0.066 -0.353,0.272 -0.336,0.495l0,0.006c0.144,1.888 -0.702,3.717 -2.236,4.832c-1.489,1.082 -3.42,1.338 -5.136,0.691l-0.255,-0.089c-0.18,-0.032 -0.366,0.042 -0.475,0.196l-0.003,0.004c-1.02,1.446 -2.677,2.305 -4.445,2.305c-1.769,-0 -3.427,-0.86 -4.445,-2.306l-0.003,-0.004c-0.11,-0.156 -0.299,-0.229 -0.48,-0.194l-0.216,0.075c-1.724,0.663 -3.672,0.41 -5.171,-0.679c-1.533,-1.114 -2.379,-2.943 -2.235,-4.832l0,-0.005c0.016,-0.208 -0.104,-0.4 -0.293,-0.479c-0.061,-0.018 -0.12,-0.038 -0.177,-0.06c-1.628,-0.547 -2.905,-1.835 -3.438,-3.474c-0.526,-1.622 -0.261,-3.392 0.708,-4.786c0.042,-0.069 0.087,-0.135 0.144,-0.204c0.102,-0.174 0.084,-0.396 -0.049,-0.553l-0.05,-0.061c-1.19,-1.438 -1.563,-3.387 -0.985,-5.168c0.583,-1.79 2.047,-3.154 3.872,-3.608l0.038,-0.011c0.218,-0.053 0.37,-0.249 0.367,-0.473Zm-9.494,20.124l-23.173,-0c-2.165,-0 -3.92,-1.755 -3.92,-3.92l-0,-50.531c-0,-2.165 1.755,-3.92 3.92,-3.92l90.16,-0c2.165,-0 3.92,1.755 3.92,3.92l-0,50.531c-0,2.165 -1.755,3.92 -3.92,3.92l-23.172,-0l-2.036,-3.267c0.109,-0.255 0.207,-0.516 0.294,-0.782c0.68,-2.094 0.593,-4.327 -0.194,-6.321c0.996,-2.122 1.171,-4.575 0.429,-6.863c-0.744,-2.29 -2.329,-4.173 -4.383,-5.305c-0.536,-2.078 -1.779,-3.936 -3.556,-5.225c-1.772,-1.289 -3.922,-1.897 -6.064,-1.765c-1.712,-1.604 -3.99,-2.528 -6.398,-2.528c-2.405,-0 -4.683,0.924 -6.395,2.527c-2.138,-0.133 -4.292,0.475 -6.071,1.769c-1.773,1.287 -3.016,3.143 -3.551,5.221c-2.054,1.132 -3.636,3.012 -4.381,5.299c-0.745,2.295 -0.57,4.749 0.426,6.871c-0.787,1.994 -0.873,4.225 -0.195,6.312c0.087,0.269 0.186,0.533 0.296,0.79l-2.036,3.267Zm21.907,-19.019c4.643,-0 8.412,3.769 8.412,8.412c-0,4.643 -3.769,8.412 -8.412,8.412c-4.643,-0 -8.412,-3.769 -8.412,-8.412c-0,-4.643 3.769,-8.412 8.412,-8.412Zm-0,3.92c2.479,-0 4.492,2.013 4.492,4.492c-0,2.479 -2.013,4.492 -4.492,4.492c-2.479,-0 -4.492,-2.013 -4.492,-4.492c-0,-2.479 2.013,-4.492 4.492,-4.492Zm-35.235,-33.919l-0,-1.199c-0,-1.082 0.878,-1.96 1.96,-1.96c1.082,-0 1.96,0.878 1.96,1.96l-0,1.199l2.978,-0c1.082,-0 1.96,0.878 1.96,1.96c-0,1.081 -0.878,1.96 -1.96,1.96l-2.978,-0l-0,3.98l0.167,-0c3.18,-0 5.758,2.578 5.758,5.758l-0,0.303c-0,3.18 -2.578,5.759 -5.758,5.759l-0.167,-0l-0,0.89c-0,1.082 -0.878,1.96 -1.96,1.96c-1.082,-0 -1.96,-0.878 -1.96,-1.96l-0,-0.89l-2.978,-0c-1.082,-0 -1.96,-0.879 -1.96,-1.96c-0,-1.082 0.878,-1.96 1.96,-1.96l2.978,-0l-0,-3.98l-0.166,-0c-3.181,-0 -5.759,-2.579 -5.759,-5.759l-0,-0.303c-0,-3.18 2.578,-5.758 5.759,-5.758l0.166,-0Zm3.92,11.82l-0,3.98l0.167,-0c1.015,-0 1.838,-0.824 1.838,-1.839l-0,-0.303c-0,-1.015 -0.823,-1.838 -1.838,-1.838l-0.167,-0Zm11.715,1.899c-1.082,-0 -1.96,-0.878 -1.96,-1.96c-0,-1.081 0.878,-1.96 1.96,-1.96l58.8,-0c1.082,-0 1.96,0.879 1.96,1.96c-0,1.082 -0.878,1.96 -1.96,1.96l-58.8,-0Zm-15.635,-9.799l-0.166,-0c-1.016,-0 -1.839,0.823 -1.839,1.838l-0,0.303c-0,1.016 0.823,1.839 1.839,1.839l0.166,-0l-0,-3.98Zm15.635,-0.001c-1.082,-0 -1.96,-0.878 -1.96,-1.96c-0,-1.081 0.878,-1.96 1.96,-1.96l58.8,-0c1.082,-0 1.96,0.879 1.96,1.96c-0,1.082 -0.878,1.96 -1.96,1.96l-58.8,-0Z"></path></svg>