<?xml version="1.0"?>
<svg width="650" height="500" xmlns="http://www.w3.org/2000/svg" xmlns:svg="http://www.w3.org/2000/svg" enable-background="new 0 0 650 500" version="1.1" xml:space="preserve">
 <g class="layer">
  <title>Layer 1</title>
  <g id="BACKGROUND">
   <rect fill="#dfe4e9" height="500" id="svg_1" width="650"/>
  </g>
  <g id="OBJECTS">
   <g id="svg_2">
    <path d="m57.58,363.05c7,7.57 14.58,14.39 22.6,20.58c2.36,1.82 13.37,0 16.18,0c37.65,0 75.31,0 112.96,0c54.74,0 109.48,0 164.23,0c49.3,0 98.61,0 147.92,0c15.58,0 31.16,0 46.74,0c3.99,0 11.5,1.38 15.2,-0.24c7.8,-3.39 4.24,-18.96 3.53,-26.06c-1.1,-11.01 -3.68,-22.02 -9.57,-31.51c-16.08,-25.92 -44.22,-35.18 -66.38,-54.37c-21.64,-18.74 -36.64,-43.78 -54.43,-66.22c-13.89,-17.52 -29.61,-33.59 -46.82,-47.85c-10.98,-9.1 -22.85,-17.61 -36.5,-21.69c-11.94,-3.58 -24.69,-3.58 -37.08,-2.16c-36.3,4.15 -71.08,20.61 -97.3,46.05c-29.61,28.71 -54.19,71.32 -93.27,88.11c-21.4,9.2 -45.54,10.44 -66.99,19.52c-21.45,9.08 -41,31.06 -34.98,53.56c2.29,8.55 7.94,15.79 13.96,22.28z" fill="#E3EFFF" id="svg_3"/>
    <path d="m568.69,292.97c4.14,0.69 8.58,0.67 12.33,-1.22c1.87,-0.94 3.65,-2.56 3.83,-4.66c0.08,-0.94 -0.17,-1.87 -0.48,-2.77c-2.59,-7.51 -9.03,-12.96 -15.46,-17.63c-4.8,-3.49 -10.03,-6.87 -15.93,-7.43c-12.46,-1.17 -16.09,8.67 -9.68,17.64c5.96,8.35 15.24,14.37 25.39,16.07z" fill="#E3EFFF" id="svg_4"/>
    <g id="svg_5">
     <path d="m218.49,227.39c-36.8,-9.35 -47.14,-28.78 -47.14,-28.78l-4.25,0l-33.96,0l-13.48,0c0,0 -10.35,19.43 -47.15,28.78c0,0 -24.39,96.97 69.61,155.62l6.76,0c94,-58.65 69.61,-155.62 69.61,-155.62z" fill="#6D89C9" id="svg_6"/>
     <path d="m206.91,237.45c-30.96,-7.86 -39.66,-24.21 -39.66,-24.21l-3.58,0l-28.57,0l-11.34,0c0,0 -8.71,16.35 -39.66,24.21c0,0 -20.52,81.59 58.56,130.92l5.69,0c79.08,-49.33 58.56,-130.92 58.56,-130.92z" fill="#5872B4" id="svg_7"/>
     <path d="m201.94,241.77c-28.45,-7.23 -36.45,-22.26 -36.45,-22.26l-3.29,0l-26.26,0l-10.42,0c0,0 -8,15.03 -36.46,22.26c0,0 -18.86,74.98 53.83,120.33l5.23,0c72.68,-45.35 53.82,-120.33 53.82,-120.33z" fill="#BED1F9" id="svg_8"/>
     <ellipse cx="145.5" cy="283.53" fill="#A1BAF0" id="svg_9" rx="48.94" ry="48.94" transform="matrix(0.2269 -0.9739 0.9739 0.2269 -163.6472 360.924)"/>
     <ellipse cx="145.5" cy="283.53" fill="#DDE8FA" id="svg_10" rx="41.22" ry="41.22" transform="matrix(0.9925 -0.1222 0.1222 0.9925 -33.5529 19.9023)"/>
     <polygon fill="#6D89C9" id="svg_11" points="125.484,286.185 143.229,297.116 165.801,258.329 169.857,261.06 146.422,308.74      121.149,294.849    "/>
    </g>
    <g id="svg_12">
     <g id="svg_13">
      <polygon fill="#6D89C9" id="svg_14" points="532.235,221.2 540.752,217.711 543.044,210.475 538.091,202.717 546.608,199.228       548.9,191.992 543.947,184.235 552.464,180.746 556.093,169.29 553.444,148.145 540.228,143.958 526.515,159.918       483.362,296.115 512.941,305.487 537.188,228.958     "/>
      <path d="m488.5,279.88l-5.14,16.24l29.58,9.37l5.64,-17.79c-8.63,-4.97 -18.63,-7.84 -29.31,-7.84c-0.26,0 -0.51,0.02 -0.77,0.02z" fill="#5672B3" id="svg_15"/>
      <rect fill="#5672B3" height="3.96" id="svg_16" transform="matrix(0.302 -0.9533 0.9533 0.302 140.0365 652.4067)" width="144.41" x="443.35" y="228.59"/>
      <path d="m495.63,300l5.97,-18.82c-1.3,-0.28 -2.61,-0.51 -3.93,-0.7l-5.81,18.33l3.77,1.19z" fill="#486096" id="svg_17"/>
     </g>
     <path d="m489.27,286.56c-28.52,0 -51.64,23.12 -51.64,51.64c0,19.51 10.81,36.48 26.77,45.27l49.73,0c15.97,-8.79 26.78,-25.76 26.78,-45.27c0,-28.52 -23.12,-51.64 -51.64,-51.64zm0,79.21c-15.22,0 -27.56,-12.34 -27.56,-27.57c0,-15.22 12.34,-27.56 27.56,-27.56c15.22,0 27.56,12.34 27.56,27.56c0,15.23 -12.34,27.57 -27.56,27.57z" fill="#BED1F9" id="svg_18"/>
     <path d="m489.27,381.4c23.86,0 43.2,-19.34 43.2,-43.2c0,-23.85 -19.34,-43.19 -43.2,-43.19c-23.86,0 -43.2,19.33 -43.2,43.19c0,23.86 19.34,43.2 43.2,43.2zm0,-73.31c16.63,0 30.11,13.48 30.11,30.11c0,16.63 -13.48,30.11 -30.11,30.11c-16.63,0 -30.11,-13.48 -30.11,-30.11c0,-16.63 13.48,-30.11 30.11,-30.11z" fill="#A1BAF0" id="svg_19"/>
     <path d="m489.27,377.74c21.84,0 39.54,-17.7 39.54,-39.54s-17.7,-39.54 -39.54,-39.54c-21.84,0 -39.54,17.7 -39.54,39.54s17.7,39.54 39.54,39.54zm0,-67.1c15.22,0 27.56,12.34 27.56,27.56c0,15.23 -12.34,27.57 -27.56,27.57c-15.22,0 -27.56,-12.34 -27.56,-27.57c0,-15.22 12.34,-27.56 27.56,-27.56z" fill="#6D89C9" id="svg_20"/>
    </g>
    <g id="svg_21">
     <path d="m598.41,336.25c0,-0.62 -0.04,-1.23 -0.09,-1.83l5.87,-2.84l-2.45,-7.54l-6.43,1.17c-0.63,-1.06 -1.35,-2.05 -2.15,-2.97l3.09,-5.75l-6.41,-4.66l-4.5,4.7c-1.12,-0.48 -2.29,-0.84 -3.5,-1.12l-0.88,-6.47l-7.93,0l-0.88,6.47c-1.21,0.28 -2.38,0.64 -3.5,1.12l-4.5,-4.7l-6.42,4.66l3.1,5.75c-0.8,0.92 -1.52,1.91 -2.16,2.97l-6.42,-1.17l-2.46,7.54l5.88,2.84c-0.05,0.6 -0.09,1.21 -0.09,1.83c0,0.62 0.04,1.23 0.09,1.83l-5.88,2.84l2.46,7.54l6.42,-1.17c0.64,1.06 1.35,2.05 2.16,2.97l-3.1,5.75l6.42,4.66l4.5,-4.7c1.12,0.48 2.29,0.84 3.5,1.12l0.88,6.47l7.93,0l0.88,-6.47c1.21,-0.28 2.38,-0.64 3.5,-1.12l4.5,4.7l6.41,-4.66l-3.09,-5.75c0.8,-0.92 1.52,-1.91 2.15,-2.97l6.43,1.17l2.45,-7.54l-5.87,-2.84c0.05,-0.6 0.09,-1.21 0.09,-1.83zm-21.41,11.97c-6.61,0 -11.97,-5.36 -11.97,-11.97c0,-6.61 5.36,-11.97 11.97,-11.97c6.6,0 11.96,5.36 11.96,11.97c0,6.61 -5.36,11.97 -11.96,11.97z" fill="#BED1F9" id="svg_22"/>
     <path d="m577,353.75c9.66,0 17.49,-7.84 17.49,-17.5c0,-9.66 -7.83,-17.5 -17.49,-17.5c-9.67,0 -17.5,7.84 -17.5,17.5c0,9.66 7.83,17.5 17.5,17.5zm0,-29.47c6.6,0 11.96,5.36 11.96,11.97c0,6.61 -5.36,11.97 -11.96,11.97c-6.61,0 -11.97,-5.36 -11.97,-11.97c0,-6.61 5.36,-11.97 11.97,-11.97z" fill="#A1BAF0" id="svg_23"/>
    </g>
    <g id="svg_24">
     <rect fill="#FFBA53" height="8.69" id="svg_25" width="45.25" x="522.1" y="259.72"/>
     <rect fill="#FFBA53" height="8.69" id="svg_26" width="45.25" x="519.52" y="242.35"/>
     <rect fill="#FFD353" height="8.69" id="svg_27" width="45.25" x="523.7" y="233.66"/>
     <rect fill="#FFD353" height="8.69" id="svg_28" width="45.25" x="514.98" y="251.03"/>
    </g>
    <g id="svg_29">
     <path d="m419.19,160.99l-38.16,-9.38c-2.09,-0.52 -3.37,-2.63 -2.86,-4.72l5.15,-20.94c0.51,-2.09 2.62,-3.37 4.72,-2.85l38.16,9.38c2.1,0.51 3.37,2.63 2.86,4.72l-5.14,20.93c-0.52,2.09 -2.63,3.37 -4.73,2.86z" fill="#6D89C9" id="svg_30"/>
     <circle cx="403.62" cy="142.04" fill="#B1C9F1" id="svg_31" r="13.32"/>
     <path d="m396.39,146.55l2.85,-11.58c0.25,-1 1.45,-1.4 2.25,-0.75l10.55,8.63c0.9,0.74 0.55,2.2 -0.59,2.45l-13.39,2.95c-1.02,0.23 -1.91,-0.69 -1.67,-1.7z" fill="#FFFFFF" id="svg_32"/>
    </g>
    <path d="m367.24,142.6l-20.23,-4.97c-1.05,-0.26 -1.69,-1.32 -1.44,-2.37l2.79,-11.33c0.26,-1.05 1.32,-1.69 2.37,-1.44l20.23,4.98c1.05,0.25 1.69,1.32 1.43,2.37l-2.78,11.33c-0.26,1.05 -1.32,1.69 -2.37,1.43z" fill="#B1C9F1" id="svg_33"/>
    <path d="m419.05,117.89l-16.6,-4.08c-1.05,-0.26 -1.69,-1.32 -1.44,-2.37l2.23,-9.05c0.26,-1.05 1.32,-1.69 2.37,-1.44l16.6,4.08c1.05,0.26 1.7,1.33 1.44,2.38l-2.22,9.04c-0.26,1.05 -1.33,1.7 -2.38,1.44z" fill="#BED1F9" id="svg_34"/>
    <g id="svg_35">
     <path d="m381.78,265.94l-93.49,-22.98c-3.13,-0.77 -5.04,-3.92 -4.27,-7.04l21.12,-85.93c0.77,-3.13 3.92,-5.03 7.05,-4.27l93.49,22.98c3.12,0.77 5.03,3.92 4.26,7.04l-21.12,85.94c-0.77,3.12 -3.92,5.03 -7.04,4.26z" fill="#6D89C9" id="svg_36"/>
     <path d="m379.9,261.67l-87.97,-21.63c-2.51,-0.61 -4.04,-3.14 -3.42,-5.65l19.9,-80.97c0.62,-2.51 3.15,-4.04 5.65,-3.42l87.97,21.62c2.51,0.62 4.04,3.15 3.43,5.65l-19.9,80.97c-0.62,2.51 -3.15,4.04 -5.66,3.43z" fill="#5672B3" id="svg_37"/>
     <path d="m378.32,259.27l-83.88,-20.62c-2.51,-0.61 -4.04,-3.15 -3.43,-5.65l18.98,-77.18c0.61,-2.51 3.14,-4.04 5.65,-3.43l83.89,20.62c2.5,0.62 4.04,3.15 3.42,5.66l-18.97,77.18c-0.62,2.51 -3.15,4.04 -5.66,3.42z" fill="#E3EDF7" id="svg_38"/>
     <path d="m391.45,188.73c0,6.34 -5.14,11.48 -11.48,11.48c-6.34,0 -11.48,-5.14 -11.48,-11.48c0,-6.34 5.14,-11.48 11.48,-11.48c6.34,0 11.48,5.14 11.48,11.48z" fill="#FFFFFF" id="svg_39"/>
     <path d="m332.99,188.08c-9.51,-3.69 -36.33,20.31 -36.33,20.31l0,0l-5.76,23.45c-0.6,2.42 0.88,4.86 3.3,5.45l60.35,14.84l9.52,-5.05l-15.92,-24.04c0,0 -7.72,-32.08 -15.16,-34.96z" fill="#A7BDE3" id="svg_40"/>
     <path d="m369.06,208.73c-8.49,0.42 -41.34,25.17 -49.58,36.08l59.37,14.59c2.22,0.54 4.46,-0.81 5,-3.03l7.01,-28.53c-4.86,-6.64 -15.11,-19.43 -21.8,-19.11z" fill="#B1C9F1" id="svg_41"/>
     <path d="m305.46,241.36c0,0 30.52,-28.44 39.35,-30.51c8.82,-2.08 22.36,45.68 22.36,45.68l-61.71,-15.17z" fill="#BED1F1" id="svg_42"/>
     <path d="m317,208.72c-1.83,-1.33 -12.61,5.94 -23.45,13.95l-2.54,10.33c-0.61,2.51 0.92,5.04 3.43,5.65l29.94,7.36l0,0c0,0 -3.51,-34.46 -7.38,-37.29z" fill="#C9D9F5" id="svg_43"/>
     <path d="m379.29,231.89c-4.72,-0.46 -33.27,19.44 -33.27,19.44l0,0l32.3,7.94c2.51,0.62 5.04,-0.92 5.66,-3.42l3.45,-14.02c-2.43,-5.11 -4.83,-9.62 -8.14,-9.94z" fill="#C9D9F5" id="svg_44"/>
    </g>
    <g id="svg_45">
     <circle cx="249.3" cy="191.48" fill="#FFD353" id="svg_46" r="59.3"/>
     <path d="m307.83,200.99l-46.31,-9.84l45.9,-11.45c-0.36,-1.81 -0.81,-3.58 -1.34,-5.33l-45.89,11.44l36.19,-30.37c-1.12,-1.45 -2.3,-2.86 -3.54,-4.2l-36.18,30.36l19.2,-43.13c-1.63,-0.82 -3.31,-1.57 -5.02,-2.24l-18.79,42.19l0,-46.17c-0.91,-0.04 -1.82,-0.07 -2.75,-0.07s-1.84,0.03 -2.75,0.07l0,47.2l-20.7,-42.44c-1.69,0.73 -3.34,1.53 -4.94,2.4l20.7,42.45l-37.22,-29.08c-1.19,1.39 -2.33,2.83 -3.39,4.33l37.22,29.08l-46.26,-9.83c-0.46,1.76 -0.84,3.56 -1.14,5.38l46.26,9.83l-45.94,11.46c0.36,1.81 0.8,3.59 1.32,5.34l45.95,-11.46l-36.3,30.46c1.11,1.46 2.29,2.87 3.53,4.22l36.31,-30.47l-19.29,43.32c1.63,0.83 3.3,1.57 5.02,2.25l18.87,-42.39l0,46.4c0.91,0.04 1.83,0.07 2.75,0.07s1.84,-0.03 2.75,-0.07l0,-47.43l20.79,42.63c1.69,-0.73 3.34,-1.53 4.95,-2.41l-20.8,-42.63l37.34,29.17c1.19,-1.39 2.32,-2.84 3.38,-4.34l-37.33,-29.16l46.33,9.84c0.45,-1.76 0.82,-3.56 1.12,-5.38z" fill="#FFE692" id="svg_47"/>
     <circle cx="249.3" cy="191.48" fill="#EE9F53" id="svg_48" r="49.89"/>
     <ellipse cx="249.3" cy="191.48" fill="#FFBA53" id="svg_49" rx="46.74" ry="46.74" transform="matrix(0.9282 -0.372 0.372 0.9282 -53.3375 106.4828)"/>
    </g>
    <polygon fill="#E38F6F" id="svg_50" points="427.266,362.191 425.353,376.776 417.622,376.218 418.818,361.713   "/>
    <path d="m436.7,178.29c-1.64,-2.49 -2.13,-5.7 -1.3,-8.57c0.82,-2.86 2.96,-5.32 5.68,-6.54c1.26,-0.57 2.73,-0.88 4.04,-0.42c1.18,0.42 2.08,1.4 3.22,1.93c1.88,0.87 4.24,0.42 6,1.53c1.35,0.85 2.04,2.47 2.39,4.03c0.36,1.57 0.49,3.2 1.1,4.69c0.82,1.95 2.41,3.46 4.03,4.82c0.74,0.62 1.51,1.23 2.05,2.02c0.92,1.35 1.09,3.16 0.44,4.65c-1.17,2.69 -1.13,5.77 -0.57,8.66c1.04,5.37 3.11,10.48 5.18,15.54c0.61,1.5 0.8,3.02 0.98,4.63c0.11,0.92 0.09,1.98 -0.59,2.61c-0.64,0.59 -1.67,0.58 -2.33,1.15c-0.83,0.71 -0.77,1.98 -1.01,3.05c-0.36,1.58 -1.57,2.94 -3.09,3.48c-1.53,0.55 -3.32,0.25 -4.59,-0.75c-1.7,-1.33 -2.3,-3.58 -2.88,-5.65c-1.51,-5.32 -3.58,-10.46 -5.63,-15.59c-1.62,-4.04 -2.42,-8.44 -3.63,-12.63c-0.74,-2.58 -1.5,-5.2 -2.91,-7.5c-1.4,-2.29 -3.95,-4.57 -6.58,-5.14z" fill="#5A4868" id="svg_51"/>
    <polygon fill="#E38F6F" id="svg_52" points="502.55,299.548 517.231,299.628 517.201,307.379 502.649,307.175   "/>
    <path d="m525.87,327.88l-2.1,-30.69c0,0 -2.69,-0.86 -5.48,0.37c-2.79,1.23 -4.17,1 -3.73,2.73c0.44,1.73 2.29,2 1.6,3.57c-0.69,1.56 -1.32,2.8 -0.68,4.04c0.64,1.23 3.31,2.6 4.82,7.81c1.71,5.88 2.36,8.52 2.59,9.49c0.68,2.83 2.98,2.68 2.98,2.68z" fill="#58B9D6" id="svg_53"/>
    <path d="m523.37,326.38c0.93,1.58 2.5,1.5 2.5,1.5l-2.1,-30.69c0,0 -1,-0.32 -2.41,-0.29l2.01,29.48z" fill="#B7E6F1" id="svg_54"/>
    <path d="m457.07,240.01c0,0 3.24,7.66 0,27.26c-2.55,15.46 0,32.52 0,32.52s38.42,-2.71 50.85,-0.8l0,9.76c0,0 -31.72,1.72 -42.08,2.19c-10.36,0.48 -17.22,0.16 -19.29,-4.46c-2.07,-4.62 -4.46,-26.78 -4.46,-26.78s-4.15,12.12 -5.58,15.78c-1.43,3.67 -1.43,3.35 -1.59,4.47c-0.16,1.11 1.11,18.01 -3.19,41.28c-4.31,23.27 -3.99,26.3 -3.99,26.3s-7.17,1.59 -10.84,-1.59c0,0 3.03,-45.43 4.47,-56.91c1.43,-11.48 3.5,-30.92 5.26,-39.37c1.75,-8.45 3.96,-28.69 3.89,-30.6c-0.07,-1.91 26.55,0.95 26.55,0.95z" fill="#4E4C71" id="svg_55"/>
    <path d="m446.74,188.95c0,0 9.85,6.83 12.25,10.54c2.39,3.71 1.67,8.19 0.29,13.45c-1.37,5.26 -1.73,18.83 -1.49,23.37c0.24,4.54 0.24,4.54 0.24,4.54s0.17,0.48 -5.54,1.32c-5.7,0.84 -10.12,-1.56 -13.35,-1.32c-3.23,0.24 -10.16,-0.24 -10.16,-0.24s0.72,-10.87 0,-11.35c-0.72,-0.48 -14.35,1.07 -25.94,-1.56l0.95,-5.97c0,0 10.64,0.83 14.35,0.24c3.71,-0.6 11.12,-1.2 11.12,-1.2s-0.36,-3.83 -0.6,-6.69c-0.24,-2.87 0.12,-8.37 0.12,-8.37s-9.21,8.25 -11.48,9.08c-2.27,0.84 -17.01,-0.67 -17.01,-0.67l1.47,-5.96c0,0 8.73,-0.42 12.44,-0.78c0,0 11.11,-11.52 14.22,-13.2c3.11,-1.67 11.48,-5.23 11.48,-5.23l6.64,0z" fill="#58B9D6" id="svg_56"/>
    <path d="m447.05,182.77c0,0 -0.5,5.54 -0.44,5.96c0.06,0.42 1.44,1.02 1.38,1.97c-0.06,0.96 -3.17,8.73 -6.4,7.83c-3.23,-0.89 -3.94,-7.83 -3.17,-8.72c0.78,-0.9 1.62,-1.56 1.44,-5.08c-0.18,-3.53 7.19,-1.96 7.19,-1.96z" fill="#C8776F" id="svg_57"/>
    <path d="m436.63,176.7c0,0 -0.12,8.17 4.58,9.56c4.7,1.4 7.65,-7.17 7.85,-7.77c0.2,-0.6 0.52,0.32 1.4,-1.08c0.87,-1.39 0.6,-3.86 -0.24,-3.94c-0.84,-0.08 -1.52,-0.12 -1.84,1.07c-0.31,1.2 -0.35,3.55 -1.15,3.19c-0.8,-0.36 -0.48,-3.94 -0.76,-4.1c-0.81,-0.47 -1.93,-0.01 -2.8,-0.36c-0.51,-0.2 -0.88,-0.68 -1.41,-0.8c-0.65,-0.14 -1.26,0.29 -1.88,0.52c-0.96,0.36 -2.1,0.21 -2.94,-0.39c-0.36,0.32 -0.47,0.84 -0.56,1.32c-0.16,0.93 -0.16,1.83 -0.25,2.78z" fill="#E38F6F" id="svg_58"/>
    <path d="m447.99,226.75c-5.02,1.79 -20.09,2.41 -20.09,2.41l0,0c0.59,0 0.98,0.03 1.08,0.1c0.35,0.23 0.36,3.02 0.27,5.77c5.47,-1.59 14.23,-3.88 18.74,-5.87c6.53,-2.89 11.11,-18.79 11.11,-18.79s-6.09,14.58 -11.11,16.38z" fill="#59A5CE" id="svg_59"/>
    <path d="m439.22,217.54c-1.47,0.51 -6.53,0.56 -10.01,0.54c0.14,1.52 0.25,2.69 0.25,2.69s7.89,-1.06 11.12,-1.01c0,0 6.45,-6.16 9.8,-14.53c0,0 -8.85,11.51 -11.16,12.31z" fill="#59A5CE" id="svg_60"/>
    <path d="m438.58,257.07c0,0 2.24,23.91 -2.07,38.41c1.44,-3.66 5.58,-15.78 5.58,-15.78s0.16,-12.91 -3.51,-22.63z" fill="#383752" id="svg_61"/>
    <path d="m403.99,221.72c0,0 -2.9,-0.95 -3.26,-1.55c-0.36,-0.6 -1.14,-2.4 -1.14,-2.4l-0.53,2.16c0,0 -2.48,-0.48 -5.67,-1.63c-3.18,-1.16 -5.3,-2.63 -5.93,-2.65c-0.64,-0.02 -1.08,0.66 -0.96,1.09c0.12,0.44 0.12,0.44 0.12,0.44s-2.44,-1.36 -3.01,-1.04c-0.58,0.32 -0.82,0.8 -0.46,1.28c0.36,0.48 6.9,3.67 7.29,3.83c0.4,0.16 -6.57,-2.43 -7.17,-2.27c-0.6,0.16 -1.01,1.03 -0.29,1.39c0.73,0.36 7.01,2.39 7.01,2.39s-2.73,-0.64 -3.21,-0.48c-0.48,0.16 -0.68,0.6 -0.28,1.16c0.4,0.56 4.3,2.27 5.86,2.47c1.55,0.2 5.58,-0.12 6.17,0c0.6,0.12 4.62,1.07 4.62,1.07l0.84,-5.26z" fill="#E38F6F" id="svg_62"/>
    <path d="m396.58,383.47l30.76,0c0,0 1.04,-2.63 0,-5.5c-1.03,-2.87 -0.71,-4.22 -2.47,-3.9c-1.75,0.32 -2.15,2.15 -3.66,1.35c-1.52,-0.8 -2.71,-1.51 -3.99,-0.95c-1.27,0.55 -2.82,3.12 -8.13,4.28c-5.97,1.29 -8.65,1.77 -9.64,1.93c-2.87,0.48 -2.87,2.79 -2.87,2.79z" fill="#58B9D6" id="svg_63"/>
    <path d="m398.24,381.08c-1.63,0.81 -1.66,2.39 -1.66,2.39l30.76,0c0,0 0.38,-0.98 0.45,-2.39l-29.55,0z" fill="#B7E6F1" id="svg_64"/>
    <g id="svg_65">
     <path d="m380.38,116.4l-33.8,-8.31c-2.09,-0.51 -3.37,-2.63 -2.85,-4.72l4.07,-16.58c0.52,-2.09 2.63,-3.37 4.72,-2.86l33.8,8.31c2.1,0.51 3.38,2.63 2.86,4.72l-4.08,16.58c-0.51,2.1 -2.62,3.37 -4.72,2.86z" fill="#18D5E4" id="svg_66"/>
     <path d="m376.98,93.46l-13.62,-3.56l-1.31,-0.34l-0.38,1.47l-3.3,12.64c-0.55,-0.6 -1.34,-1.09 -2.29,-1.33c-2.08,-0.55 -4.1,0.25 -4.5,1.79c-0.4,1.53 0.97,3.21 3.06,3.76c2.08,0.54 4.1,-0.26 4.5,-1.79l3.84,-14.73l13.61,3.55l-2.43,9.34c-0.56,-0.59 -1.34,-1.08 -2.29,-1.33c-2.09,-0.54 -4.11,0.26 -4.5,1.79c-0.4,1.53 0.96,3.22 3.05,3.76c2.09,0.55 4.1,-0.25 4.5,-1.79c0.04,-0.14 0.05,-0.28 0.05,-0.43l0.06,0.03l2.87,-11.03l0.38,-1.46l-1.3,-0.34z" fill="#FFFFFF" id="svg_67"/>
    </g>
    <g id="svg_68">
     <polygon fill="#D7EAFF" id="svg_69" points="494.298,159.927 480.084,150.512 494.298,141.097 508.511,150.512    "/>
     <polygon fill="#CEE1F5" id="svg_70" points="480.084,165.551 494.298,174.966 494.298,159.927 480.084,150.512    "/>
     <polygon fill="#B9D3F0" id="svg_71" points="508.511,165.551 494.298,174.966 494.298,159.927 508.511,150.512    "/>
    </g>
    <g id="svg_72">
     <polygon fill="#D7EAFF" id="svg_73" points="120.521,161.186 103.25,149.745 120.521,138.305 137.792,149.745    "/>
     <polygon fill="#CEE1F5" id="svg_74" points="103.25,168.019 120.521,179.46 120.521,161.186 103.25,149.745    "/>
     <polygon fill="#B9D3F0" id="svg_75" points="137.792,168.019 120.521,179.46 120.521,161.186 137.792,149.745    "/>
    </g>
    <path d="m275.07,195.81c-0.65,-4.33 -3.17,-6.94 -7.38,-8.01c-0.48,-0.12 -1.03,-0.02 -1.46,-0.47c0.09,-0.12 0.16,-0.27 0.28,-0.35c2.63,-1.83 3.7,-4.39 3.71,-7.55c0.02,-4.84 -2.72,-8.53 -7.35,-9.84c-2.36,-0.68 -4.77,-0.91 -7.2,-0.89c-0.9,0.01 -1.32,-0.21 -1.36,-1.23c-0.1,-2.38 -0.36,-4.76 -0.48,-7.15c-0.01,-0.28 -0.06,-0.5 -0.13,-0.69l-5.83,0.43c0,0.06 0,0.12 0,0.19c0.26,2.5 0.43,5 0.68,7.49c0.07,0.7 -0.11,1.04 -0.82,1.1c-0.9,0.08 -1.8,0.16 -2.69,0.32c-0.95,0.17 -1.21,-0.2 -1.25,-1.12c-0.1,-2.43 -0.33,-4.85 -0.47,-7.27c0,-0.15 -0.03,-0.27 -0.06,-0.38l-5.57,0.41c-0.03,0.15 -0.04,0.33 -0.02,0.55c0.2,2.26 0.34,4.53 0.53,6.79c0.14,1.71 0.09,1.8 -1.56,1.97c-0.16,0.02 -0.32,0.02 -0.47,0.03c-2.81,0.24 -5.62,0.47 -8.43,0.7c-0.05,0 -0.1,0.01 -0.15,0.01l0.61,6.29c1.03,-0.11 2.06,-0.2 3.09,-0.27c1.95,-0.12 3.05,0.72 3.34,2.67c0.2,1.31 0.25,2.65 0.37,3.98c0.65,7.14 1.3,14.28 1.93,21.42c0.14,1.56 -0.51,2.33 -2.08,2.51c-0.86,0.09 -1.71,0.18 -2.57,0.23c-0.09,1.35 -0.3,4.38 -0.52,7.11c3.01,-0.25 6.05,-0.29 9.05,-0.67c0.86,-0.12 1.12,0.18 1.16,1.07c0.12,2.53 0.38,5.04 0.56,7.57l5.96,-0.34c-0.01,-0.04 0,-0.06 0,-0.11c-0.25,-2.37 -0.36,-4.76 -0.57,-7.14c-0.08,-0.88 0.08,-1.42 1.11,-1.43c0.78,0 1.57,-0.1 2.34,-0.25c0.9,-0.16 1.25,0.12 1.3,1.07c0.13,2.46 0.35,4.92 0.51,7.38c0,0.08 0.02,0.14 0.03,0.22l6.01,-0.34c0,-0.01 0,-0.01 0,-0.02c-0.22,-2.45 -0.28,-4.92 -0.5,-7.37c-0.09,-1.09 0.28,-1.52 1.34,-1.68c2.49,-0.37 4.91,-1.03 7.24,-1.99c3.47,-1.44 6.24,-3.64 7.38,-7.39c0.76,-2.47 0.77,-5.02 0.39,-7.56zm-28.86,-7.78c-0.27,-3.39 -0.58,-6.77 -0.9,-10.16c-0.06,-0.66 0.06,-0.93 0.84,-0.99c3.16,-0.21 6.32,-0.61 9.43,0.33c3.9,1.19 5.29,5.64 2.61,8.31c-1.05,1.04 -2.35,1.68 -3.45,1.97c-2.72,0.91 -5.22,1.06 -7.72,1.23c-0.53,0.04 -0.76,-0.11 -0.81,-0.69zm14.61,16.75c-0.79,0.44 -1.59,0.84 -2.29,1.03c-3.35,1.16 -6.69,1.33 -9.99,1.68c-0.56,0.06 -0.78,-0.2 -0.83,-0.72c-0.35,-3.78 -0.7,-7.55 -1.06,-11.33c-0.04,-0.49 -0.02,-0.8 0.61,-0.86c3.35,-0.29 6.7,-0.75 10.07,-0.31c1.13,0.15 2.22,0.43 3.26,0.91c2.02,0.95 3.07,2.53 3.12,4.72c0.05,2.19 -1,3.79 -2.89,4.88z" fill="#FFF3D3" id="svg_76"/>
    <g id="svg_77">
     <path d="m296.77,99.16c3.7,11.85 -2.9,24.46 -14.74,28.16c-11.85,3.71 -24.46,-2.89 -28.16,-14.74c-3.71,-11.85 2.89,-24.45 14.74,-28.16c11.84,-3.7 24.45,2.89 28.16,14.74z" fill="#6D89C9" id="svg_78"/>
     <path d="m293.27,100.25c3.11,9.92 -2.42,20.48 -12.34,23.58c-9.91,3.1 -20.47,-2.42 -23.57,-12.34c-3.1,-9.92 2.42,-20.47 12.34,-23.58c9.92,-3.1 20.47,2.43 23.57,12.34z" fill="#A1BAF0" id="svg_79"/>
     <path d="m290.86,101.01c2.69,8.58 -2.09,17.72 -10.68,20.41c-8.59,2.68 -17.72,-2.1 -20.41,-10.69c-2.69,-8.58 2.1,-17.72 10.68,-20.41c8.59,-2.68 17.73,2.1 20.41,10.69z" fill="#BED1F9" id="svg_80"/>
     <path d="m283.59,110.56c0.25,-1.8 -0.41,-3.11 -1.88,-4c-0.16,-0.1 -0.39,-0.12 -0.49,-0.34c0.04,-0.04 0.09,-0.09 0.14,-0.11c1.2,-0.45 1.9,-1.35 2.27,-2.61c0.56,-1.92 -0.06,-3.69 -1.66,-4.71c-0.81,-0.53 -1.7,-0.88 -2.62,-1.14c-0.34,-0.09 -0.47,-0.23 -0.37,-0.64c0.23,-0.96 0.41,-1.93 0.64,-2.9c0.02,-0.11 0.03,-0.21 0.02,-0.29l-2.25,-0.46c-0.01,0.03 -0.01,0.05 -0.02,0.08c-0.19,1.02 -0.41,2.03 -0.6,3.05c-0.06,0.29 -0.16,0.4 -0.44,0.35c-0.35,-0.06 -0.7,-0.13 -1.05,-0.16c-0.38,-0.04 -0.44,-0.21 -0.34,-0.59c0.24,-0.97 0.43,-1.96 0.65,-2.94c0.01,-0.06 0.02,-0.11 0.02,-0.16l-2.15,-0.44c-0.03,0.06 -0.06,0.12 -0.08,0.21c-0.18,0.93 -0.39,1.84 -0.57,2.77c-0.15,0.7 -0.18,0.73 -0.82,0.61c-0.06,-0.01 -0.12,-0.02 -0.18,-0.03c-1.09,-0.22 -2.18,-0.43 -3.27,-0.64c-0.02,-0.01 -0.04,-0.01 -0.06,-0.01l-0.48,2.57c0.4,0.06 0.8,0.14 1.2,0.23c0.75,0.16 1.07,0.61 0.96,1.42c-0.08,0.54 -0.21,1.08 -0.32,1.63c-0.57,2.91 -1.14,5.83 -1.72,8.74c-0.13,0.64 -0.46,0.87 -1.08,0.77c-0.33,-0.05 -0.67,-0.11 -1,-0.19c-0.19,0.53 -0.61,1.72 -1.01,2.78c1.17,0.23 2.32,0.54 3.5,0.72c0.34,0.04 0.41,0.19 0.32,0.55c-0.24,1.02 -0.43,2.05 -0.66,3.08l2.3,0.51c0,-0.02 0.01,-0.03 0.01,-0.04c0.18,-0.98 0.41,-1.94 0.6,-2.91c0.07,-0.36 0.2,-0.56 0.59,-0.45c0.29,0.08 0.6,0.13 0.91,0.16c0.36,0.03 0.46,0.18 0.37,0.56c-0.23,1 -0.43,2 -0.65,3c-0.01,0.03 -0.01,0.06 -0.01,0.09l2.31,0.51c0,0 0,0 0,0c0.2,-1 0.46,-1.99 0.65,-2.99c0.09,-0.45 0.28,-0.58 0.7,-0.53c0.98,0.13 1.98,0.13 2.97,0c1.48,-0.2 2.77,-0.78 3.64,-2.14c0.56,-0.91 0.86,-1.92 1.01,-2.97zm-10.03,-6.24c0.29,-1.38 0.56,-2.76 0.83,-4.15c0.05,-0.26 0.12,-0.36 0.43,-0.3c1.22,0.26 2.46,0.44 3.52,1.16c1.35,0.89 1.36,2.82 0.04,3.59c-0.51,0.3 -1.08,0.41 -1.53,0.41c-1.13,0.07 -2.09,-0.14 -3.06,-0.35c-0.2,-0.04 -0.27,-0.12 -0.23,-0.36zm3.61,8.26c-0.35,0.09 -0.7,0.16 -0.98,0.16c-1.4,0.1 -2.68,-0.2 -3.97,-0.41c-0.22,-0.04 -0.28,-0.17 -0.23,-0.38c0.3,-1.54 0.6,-3.09 0.89,-4.63c0.04,-0.2 0.09,-0.32 0.33,-0.27c1.3,0.24 2.62,0.42 3.85,0.96c0.41,0.19 0.79,0.41 1.13,0.72c0.65,0.6 0.87,1.34 0.63,2.22c-0.23,0.88 -0.81,1.4 -1.65,1.63z" fill="#FFFFFF" id="svg_81"/>
    </g>
    <g id="svg_82">
     <polygon fill="#E38F6F" id="svg_83" points="182.058,362.31 181.061,375.879 188.593,376.656 188.993,374.357 189.948,363.207    "/>
     <polygon fill="#E38F6F" id="svg_84" points="230.055,360.597 235.355,374.016 241.85,370.639 237.228,356.373    "/>
     <path d="m166.51,168.64c0,0 1.68,-2.98 0.6,-6.33c-1.07,-3.35 -3.82,-3.47 -5.44,-4.3c-1.61,-0.84 -6.27,-1.62 -8.36,0.41c-2.1,2.04 -2.99,3.53 -3.83,4.01c-0.84,0.48 -1.55,2.69 -0.9,4.84c0.66,2.15 2.39,2.63 2.63,4.36c0.24,1.74 1.5,3.17 3.11,3.83c1.62,0.66 3.83,-0.18 3.95,-0.48c0.12,-0.3 8.24,-6.34 8.24,-6.34z" fill="#5A4868" id="svg_85"/>
     <path d="m171.61,232.45c0,0 1.12,11.03 5.82,20.36c4.69,9.32 9.23,22.47 9.47,24.14c0.24,1.68 -1.44,19.61 -0.6,35.03c0.84,15.42 -3.59,47.46 -5.74,51.88c0,0 5.5,3.23 10.76,1.68c0,0 5.02,-34.07 7.29,-46.27c2.27,-12.19 3.59,-45.3 3.59,-45.3s3.35,6.21 4.9,11.35c1.56,5.14 6.58,30.25 13.63,49.37c7.05,19.13 8.01,27.14 8.01,27.14s8.01,-1.31 10.88,-3.7c0,0 -10.32,-26.15 -18.77,-63.76c0,0 -4.46,-24.23 -6.7,-29.81c-2.23,-5.58 -19.6,-43.51 -21.04,-44.95c-1.43,-1.43 -21.5,12.84 -21.5,12.84z" fill="#4E4C71" id="svg_86"/>
     <path d="m158.87,181.08c0,0 -5.86,5.86 -7.36,9.8c-1.49,3.95 3.35,11.36 5.02,15.36c1.68,4.01 4.19,9.93 8.61,9.69c0,0 3.65,9.02 3.35,12.67c-0.3,3.64 -0.3,4.48 -0.3,4.48s14.82,-2.45 18.83,-5.5c4,-3.05 8.31,-8.3 8.31,-8.3s-1.86,-0.9 -2.45,-1.92c-0.6,-1.01 -3.17,-7.17 -3.17,-7.17s11.35,-3.65 15.12,-5.8c3.76,-2.15 4.54,-2.57 4.54,-2.57l-2.09,-4.48c0,0 -11.6,4.12 -20.08,6.16l-3.59,-9.15c0,0 4.24,2.21 5.14,2.39c0.9,0.18 1.61,0.18 1.61,0.18s-0.53,-7.17 -0.18,-9.21c0,0 -5.72,-2.63 -9.88,-5.73c-4.16,-3.11 -4.34,-3.23 -5.36,-3.41c-1.01,-0.18 -9.98,0.96 -9.98,0.96l-6.09,1.55z" fill="#FC736B" id="svg_87"/>
     <path d="m166.01,179.04c0,0 -1.35,-2.77 -1.38,-5.22l-6.58,1.68c0,0 1.17,4.08 0.82,5.58c-0.36,1.49 6.33,1.94 7.44,1.02c1.1,-0.93 -0.3,-3.06 -0.3,-3.06z" fill="#C8776F" id="svg_88"/>
     <path d="m166.46,167.73c0,0 0.91,10.04 -3.95,9.8c-4.86,-0.24 -7.33,-6.05 -7.33,-6.05c-0.67,0.31 -1.52,-0.05 -2.06,-0.56c-0.53,-0.51 -0.82,-1.23 -1.02,-1.94c-0.12,-0.43 -0.18,-0.96 0.16,-1.25c0.22,-0.18 0.53,-0.19 0.8,-0.1c0.27,0.09 0.5,0.27 0.72,0.44c0.35,0.28 0.7,0.55 1.05,0.83c0.13,0.11 0.3,0.23 0.47,0.19c0.22,-0.05 0.3,-0.31 0.34,-0.53c0.2,-1.09 0.16,-2.22 -0.11,-3.3c1.86,-0.04 3.81,-0.05 5.38,-1.07c0.42,0.49 1.1,0.7 1.75,0.7c0.65,0 1.28,-0.19 1.89,-0.38c0.27,0.85 0.59,1.68 0.98,2.47c0.17,0.37 0.53,0.85 0.93,0.75z" fill="#E38F6F" id="svg_89"/>
     <path d="m167.45,222.61c7.8,-4.4 18.86,-9.98 22.52,-11.8c-0.16,-0.39 -0.26,-0.62 -0.26,-0.62s-15.8,5.32 -24.57,5.74c0,0 1.32,3.27 2.31,6.68z" fill="#D5616B" id="svg_90"/>
     <path d="m169.6,205.03c-3.42,-7.18 -7.88,-11.8 -7.88,-11.8c3.02,4.31 7.17,13.97 7.17,13.97c8.85,-0.88 18.31,-3.71 18.31,-3.71l-17.6,1.54z" fill="#D5616B" id="svg_91"/>
     <path d="m207.46,197.66c0,0 2,-0.71 2.72,-1.88c0.72,-1.16 1.88,-1.7 2.15,-1.52c0.27,0.18 -0.06,1.11 0.21,0.99c0.27,-0.12 4.81,-3.41 5.62,-3.68c0.81,-0.27 1.17,0.09 0.9,0.48c-0.27,0.39 -4.22,3.05 -4.22,3.05s5.11,-2.78 5.68,-2.93c0.57,-0.15 0.75,0.48 0.75,0.71c0,0.24 -5.86,3.5 -5.86,3.5s3.91,-1.61 4.27,-1.52c0.36,0.09 0.54,0.36 0.24,0.8c-0.3,0.45 -4.24,2.13 -4.24,2.13s1.85,-0.42 2.03,-0.27c0.18,0.15 0,0.71 -0.48,0.95c-0.48,0.24 -1.34,0.87 -3.34,1.05c-2.01,0.18 -5.07,1.05 -5.07,1.05l-1.36,-2.91z" fill="#E38F6F" id="svg_92"/>
     <path d="m204.4,278.43c1.12,-4.99 2.63,-15.03 -1.84,-20.1c-6.1,-6.91 -11.36,-24.05 -11.36,-24.05c2.27,13.74 10.87,28.78 11.34,30.81c0.48,2.03 -0.34,8.87 -0.34,8.87s1.02,1.9 2.2,4.47z" fill="#383752" id="svg_93"/>
     <g id="svg_94">
      <path d="m180.3,383.47l28.13,0c0,0 0.66,-1.08 -2.09,-2.39s-7,-1.2 -14.17,-4.3c0,0 -1.12,-0.32 -2.15,-1.76c-1.04,-1.43 -2.55,-0.24 -3.03,0c-0.48,0.24 -1.83,0.8 -3.35,-0.08c-1.51,-0.87 -2.78,-0.56 -3.34,0.24c-0.56,0.8 -0.64,2.63 -0.48,3.11c0.16,0.48 0.64,4.06 0.48,5.18z" fill="#75ADD3" id="svg_95"/>
      <path d="m180.3,383.47l28.13,0c0,0 0.58,-0.99 -1.79,-2.23l-26.4,0c0.08,0.9 0.12,1.77 0.06,2.23z" fill="#608EAD" id="svg_96"/>
     </g>
     <g id="svg_97">
      <path d="m234.77,379.5l27.3,-6.79c0,0 0.38,-1.21 -2.6,-1.82c-2.99,-0.61 -7.08,0.53 -14.8,-0.76c0,0 -1.16,-0.04 -2.51,-1.18c-1.35,-1.14 -2.53,0.38 -2.94,0.73c-0.4,0.35 -1.58,1.22 -3.26,0.73c-1.68,-0.48 -2.85,0.14 -3.19,1.04c-0.35,0.91 0.01,2.71 0.28,3.14c0.27,0.42 1.6,3.79 1.72,4.91z" fill="#75ADD3" id="svg_98"/>
      <path d="m234.77,379.5l27.3,-6.79c0,0 0.32,-1.11 -2.28,-1.74l-25.62,6.38c0.3,0.85 0.55,1.69 0.6,2.15z" fill="#608EAD" id="svg_99"/>
     </g>
    </g>
    <g id="svg_100">
     <circle cx="187.2" cy="112.67" fill="#18D5E4" id="svg_101" r="29.65"/>
     <circle cx="187.2" cy="112.67" fill="#18BFD5" id="svg_102" r="24.82"/>
     <circle cx="187.2" cy="112.67" fill="#E9F3FF" id="svg_103" r="21.98"/>
     <g id="svg_104">
      <polygon fill="#18BCD8" id="svg_105" points="187.175,91.909 187.175,121.933 200.106,113.035     "/>
      <polygon fill="#18B0D8" id="svg_106" points="187.175,108.036 187.175,121.933 200.106,113.035     "/>
      <polygon fill="#18D5E4" id="svg_107" points="187.175,91.909 187.175,121.933 174.244,113.035     "/>
      <polygon fill="#18BCD8" id="svg_108" points="187.175,108.036 187.175,121.933 174.244,113.035     "/>
      <g id="svg_109">
       <polygon fill="#18BCD8" id="svg_110" points="187.175,133.44 200.594,115.061 187.175,124.597      "/>
       <polygon fill="#18D5E4" id="svg_111" points="187.221,133.44 173.802,115.061 187.221,124.597      "/>
      </g>
     </g>
    </g>
    <g id="svg_112">
     <g id="svg_113">
      <path d="m353.72,347.88l-61.38,0c-1.6,0 -2.9,-1.29 -2.9,-2.9l0,-61.38c0,-1.6 1.3,-2.9 2.9,-2.9l61.38,0c1.6,0 2.9,1.3 2.9,2.9l0,61.38c0.01,1.61 -1.29,2.9 -2.9,2.9z" fill="#6D89C9" id="svg_114"/>
      <rect fill="#EE9F53" height="54.28" id="svg_115" width="54.28" x="295.89" y="287.15"/>
      <rect fill="#FFBA53" height="46.98" id="svg_116" width="46.98" x="299.54" y="290.8"/>
      <g id="svg_117">
       <g id="svg_118">
        <path d="m300.08,267.67l0,0c-1.03,0 -1.87,0.84 -1.87,1.87l0,11.16l3.74,0l0,-11.16c0,-1.03 -0.84,-1.87 -1.87,-1.87z" fill="#556A9C" id="svg_119"/>
        <path d="m311.56,267.67l0,0c-1.04,0 -1.88,0.84 -1.88,1.87l0,11.16l3.75,0l0,-11.16c0,-1.03 -0.84,-1.87 -1.87,-1.87z" fill="#556A9C" id="svg_120"/>
        <path d="m323.03,267.67l0,0c-1.03,0 -1.87,0.84 -1.87,1.87l0,11.16l3.74,0l0,-11.16c0,-1.03 -0.83,-1.87 -1.87,-1.87z" fill="#556A9C" id="svg_121"/>
        <path d="m334.51,267.67l0,0c-1.03,0 -1.87,0.84 -1.87,1.87l0,11.16l3.74,0l0,-11.16c0,-1.03 -0.84,-1.87 -1.87,-1.87z" fill="#556A9C" id="svg_122"/>
        <path d="m345.99,267.67l0,0c-1.04,0 -1.88,0.84 -1.88,1.87l0,11.16l3.75,0l0,-11.16c0,-1.03 -0.84,-1.87 -1.87,-1.87z" fill="#556A9C" id="svg_123"/>
       </g>
       <g id="svg_124">
        <path d="m345.99,360.92l0,0c1.03,0 1.87,-0.84 1.87,-1.88l0,-11.16l-3.75,0l0,11.16c0,1.04 0.84,1.88 1.88,1.88z" fill="#556A9C" id="svg_125"/>
        <path d="m334.51,360.92l0,0c1.03,0 1.87,-0.84 1.87,-1.88l0,-11.16l-3.74,0l0,11.16c0,1.04 0.83,1.88 1.87,1.88z" fill="#556A9C" id="svg_126"/>
        <path d="m323.03,360.92l0,0c1.04,0 1.87,-0.84 1.87,-1.88l0,-11.16l-3.74,0l0,11.16c0,1.04 0.84,1.88 1.87,1.88z" fill="#556A9C" id="svg_127"/>
        <path d="m311.56,360.92l0,0c1.03,0 1.87,-0.84 1.87,-1.88l0,-11.16l-3.75,0l0,11.16c0,1.04 0.84,1.88 1.88,1.88z" fill="#556A9C" id="svg_128"/>
        <path d="m300.08,360.92l0,0c1.03,0 1.87,-0.84 1.87,-1.88l0,-11.16l-3.74,0l0,11.16c0,1.04 0.84,1.88 1.87,1.88z" fill="#556A9C" id="svg_129"/>
       </g>
       <g id="svg_130">
        <path d="m369.65,291.34l0,0c0,-1.03 -0.83,-1.87 -1.87,-1.87l-11.16,0l0,3.74l11.16,0c1.04,0 1.87,-0.83 1.87,-1.87z" fill="#556A9C" id="svg_131"/>
        <path d="m369.65,302.82l0,0c0,-1.04 -0.83,-1.88 -1.87,-1.88l-11.16,0l0,3.75l11.16,0c1.04,0 1.87,-0.84 1.87,-1.87z" fill="#556A9C" id="svg_132"/>
        <path d="m369.65,314.29l0,0c0,-1.03 -0.83,-1.87 -1.87,-1.87l-11.16,0l0,3.75l11.16,0c1.04,0 1.87,-0.84 1.87,-1.88z" fill="#556A9C" id="svg_133"/>
        <path d="m369.65,325.77l0,0c0,-1.03 -0.83,-1.87 -1.87,-1.87l-11.16,0l0,3.74l11.16,0c1.04,0 1.87,-0.84 1.87,-1.87z" fill="#556A9C" id="svg_134"/>
        <path d="m369.65,337.25l0,0c0,-1.04 -0.83,-1.88 -1.87,-1.88l-11.16,0l0,3.75l11.16,0c1.04,0 1.87,-0.84 1.87,-1.87z" fill="#556A9C" id="svg_135"/>
       </g>
       <g id="svg_136">
        <path d="m276.41,337.25l0,0c0,1.03 0.84,1.87 1.87,1.87l11.16,0l0,-3.75l-11.16,0c-1.03,0 -1.87,0.84 -1.87,1.88z" fill="#556A9C" id="svg_137"/>
        <path d="m276.41,325.77l0,0c0,1.03 0.84,1.87 1.87,1.87l11.16,0l0,-3.74l-11.16,0c-1.03,0 -1.87,0.84 -1.87,1.87z" fill="#556A9C" id="svg_138"/>
        <path d="m276.41,314.29l0,0c0,1.04 0.84,1.88 1.87,1.88l11.16,0l0,-3.75l-11.16,0c-1.03,0 -1.87,0.84 -1.87,1.87z" fill="#556A9C" id="svg_139"/>
        <path d="m276.41,302.82l0,0c0,1.03 0.84,1.87 1.87,1.87l11.16,0l0,-3.75l-11.16,0c-1.03,0 -1.87,0.84 -1.87,1.88z" fill="#556A9C" id="svg_140"/>
        <path d="m276.41,291.34l0,0c0,1.03 0.84,1.87 1.87,1.87l11.16,0l0,-3.74l-11.16,0c-1.03,0 -1.87,0.84 -1.87,1.87z" fill="#556A9C" id="svg_141"/>
       </g>
      </g>
      <g id="svg_142">
       <rect fill="#3D4C70" height="2.7" id="svg_143" width="3.75" x="332.64" y="278"/>
       <rect fill="#3D4C70" height="2.7" id="svg_144" width="3.75" x="321.16" y="278"/>
       <rect fill="#3D4C70" height="2.7" id="svg_145" width="3.75" x="298.21" y="278"/>
       <rect fill="#3D4C70" height="2.7" id="svg_146" width="3.75" x="309.68" y="278"/>
       <rect fill="#3D4C70" height="3.75" id="svg_147" width="2.7" x="356.63" y="289.47"/>
       <rect fill="#3D4C70" height="3.75" id="svg_148" width="2.7" x="356.63" y="335.37"/>
       <rect fill="#3D4C70" height="3.75" id="svg_149" width="2.7" x="356.63" y="300.94"/>
       <rect fill="#3D4C70" height="3.75" id="svg_150" width="2.7" x="356.63" y="312.42"/>
       <rect fill="#3D4C70" height="3.75" id="svg_151" width="2.7" x="356.63" y="323.9"/>
       <rect fill="#3D4C70" height="2.7" id="svg_152" width="3.75" x="298.21" y="347.88"/>
       <rect fill="#3D4C70" height="3.75" id="svg_153" width="2.7" x="286.74" y="312.42"/>
       <rect fill="#3D4C70" height="3.75" id="svg_154" width="2.7" x="286.74" y="300.94"/>
       <rect fill="#3D4C70" height="3.75" id="svg_155" width="2.7" x="286.74" y="289.47"/>
       <rect fill="#3D4C70" height="3.75" id="svg_156" width="2.7" x="286.74" y="323.9"/>
       <rect fill="#3D4C70" height="3.75" id="svg_157" width="2.7" x="286.74" y="335.37"/>
       <rect fill="#3D4C70" height="2.7" id="svg_158" width="3.75" x="344.11" y="278"/>
       <rect fill="#3D4C70" height="2.7" id="svg_159" width="3.75" x="321.16" y="347.88"/>
       <rect fill="#3D4C70" height="2.7" id="svg_160" width="3.75" x="332.64" y="347.88"/>
       <rect fill="#3D4C70" height="2.7" id="svg_161" width="3.75" x="309.68" y="347.88"/>
       <rect fill="#3D4C70" height="2.7" id="svg_162" width="3.75" x="344.11" y="347.88"/>
      </g>
     </g>
     <g id="svg_163">
      <g id="svg_164">
       <path d="m406.87,283.35l-15.62,0c-0.12,0 -0.23,0.06 -0.3,0.15l-8.34,11.33l-10.8,0c-0.21,0 -0.38,0.17 -0.38,0.38s0.17,0.37 0.38,0.37l10.99,0l11.72,0c0.21,0 0.38,-0.17 0.38,-0.37s-0.17,-0.38 -0.38,-0.38l-10.97,0l7.89,-10.72l15.43,0c0.21,0 0.38,-0.17 0.38,-0.38s-0.17,-0.38 -0.38,-0.38z" fill="#6D89C9" id="svg_165"/>
       <path d="m400.58,307.54c0.21,0 0.38,-0.17 0.38,-0.38c0,-0.21 -0.17,-0.38 -0.38,-0.38l-28.77,0c-0.21,0 -0.38,0.17 -0.38,0.38c0,0.21 0.17,0.38 0.38,0.38l28.77,0z" fill="#6D89C9" id="svg_166"/>
       <path d="m403.29,326.23l-13.89,0l-4.35,-7.39c-0.07,-0.11 -0.2,-0.18 -0.33,-0.18l-14.35,0c-0.21,0 -0.38,0.17 -0.38,0.38s0.17,0.38 0.38,0.38l14.13,0l4.35,7.38c0.07,0.12 0.2,0.19 0.33,0.19l14.11,0c0.21,0 0.38,-0.17 0.38,-0.38s-0.17,-0.38 -0.38,-0.38z" fill="#6D89C9" id="svg_167"/>
       <path d="m396.19,335.95l-21.19,0c-0.21,0 -0.38,0.17 -0.38,0.38s0.17,0.38 0.38,0.38l21.19,0c0.21,0 0.38,-0.17 0.38,-0.38s-0.17,-0.38 -0.38,-0.38z" fill="#6D89C9" id="svg_168"/>
      </g>
      <g id="svg_169">
       <path d="m273.06,296.43c0.11,0 0.19,-0.08 0.19,-0.19c0,-0.1 -0.08,-0.19 -0.19,-0.19l-14.71,0l-3.77,-6.68c-0.04,-0.05 -0.1,-0.09 -0.17,-0.09l-6.69,0c-0.11,0 -0.19,0.08 -0.19,0.19c0,0.1 0.08,0.19 0.19,0.19l6.58,0l3.62,6.39l-16.83,0l-3.9,-2.99c-0.08,-0.06 -0.2,-0.05 -0.26,0.04c-0.06,0.08 -0.05,0.2 0.04,0.26l3.94,3.03c0.03,0.03 0.07,0.04 0.12,0.04l32.03,0z" fill="#6D89C9" id="svg_170"/>
       <path d="m273.06,309.56l-23.75,0c-0.1,0 -0.19,0.08 -0.19,0.19c0,0.11 0.09,0.19 0.19,0.19l23.75,0c0.11,0 0.19,-0.08 0.19,-0.19c0,-0.11 -0.08,-0.19 -0.19,-0.19z" fill="#6D89C9" id="svg_171"/>
       <path d="m273.06,324.07l-17.79,0c-0.11,0 -0.19,0.08 -0.19,0.18l0,7.11l-10.25,0c-0.11,0 -0.19,0.08 -0.19,0.19c0,0.1 0.08,0.19 0.19,0.19l10.44,0c0.11,0 0.19,-0.09 0.19,-0.19l0,-7.1l17.6,0c0.11,0 0.19,-0.09 0.19,-0.19s-0.08,-0.19 -0.19,-0.19z" fill="#6D89C9" id="svg_172"/>
       <path d="m271.39,341.24l-17.91,0c-0.11,0 -0.19,0.09 -0.19,0.19c0,0.11 0.08,0.19 0.19,0.19l17.91,0c0.1,0 0.19,-0.08 0.19,-0.19c0,-0.1 -0.09,-0.19 -0.19,-0.19z" fill="#6D89C9" id="svg_173"/>
      </g>
      <g id="svg_174">
       <path d="m410.62,283.73c0,1.01 -0.82,1.83 -1.83,1.83c-1.02,0 -1.84,-0.82 -1.84,-1.83c0,-1.01 0.82,-1.83 1.84,-1.83c1.01,0 1.83,0.82 1.83,1.83z" fill="#FFBA53" id="svg_175"/>
       <path d="m398.19,295.2c0,1.02 -0.82,1.84 -1.84,1.84c-1.01,0 -1.83,-0.82 -1.83,-1.84c0,-1.01 0.82,-1.83 1.83,-1.83c1.02,0 1.84,0.82 1.84,1.83z" fill="#FFBA53" id="svg_176"/>
       <path d="m404.24,307.12c0,1.01 -0.82,1.83 -1.83,1.83c-1.01,0 -1.83,-0.82 -1.83,-1.83c0,-1.01 0.82,-1.83 1.83,-1.83c1.01,0 1.83,0.82 1.83,1.83z" fill="#FFBA53" id="svg_177"/>
       <circle cx="398.03" cy="336.33" fill="#FFBA53" id="svg_178" r="1.83"/>
       <path d="m406.95,326.61c0,1.01 -0.82,1.83 -1.83,1.83c-1.01,0 -1.83,-0.82 -1.83,-1.83c0,-1.02 0.82,-1.84 1.83,-1.84c1.01,0 1.83,0.82 1.83,1.84z" fill="#FFBA53" id="svg_179"/>
      </g>
      <g id="svg_180">
       <path d="m237.58,291.95c0,1.01 -0.83,1.84 -1.84,1.84c-1.01,0 -1.83,-0.83 -1.83,-1.84c0,-1.01 0.82,-1.83 1.83,-1.83c1.01,0 1.84,0.82 1.84,1.83z" fill="#FFBA53" id="svg_181"/>
       <path d="m247.72,289.47c0,1.01 -0.82,1.83 -1.84,1.83c-1.01,0 -1.83,-0.82 -1.83,-1.83c0,-1.02 0.82,-1.84 1.83,-1.84c1.02,0 1.84,0.82 1.84,1.84z" fill="#FFBA53" id="svg_182"/>
       <path d="m244.83,331.55c0,1.01 -0.82,1.83 -1.83,1.83c-1.02,0 -1.84,-0.82 -1.84,-1.83c0,-1.01 0.82,-1.84 1.84,-1.84c1.01,0 1.83,0.83 1.83,1.84z" fill="#FFBA53" id="svg_183"/>
       <path d="m253.48,341.43c0,1.01 -0.82,1.84 -1.84,1.84s-1.83,-0.83 -1.83,-1.84c0,-1.01 0.82,-1.83 1.83,-1.83s1.84,0.82 1.84,1.83z" fill="#FFBA53" id="svg_184"/>
       <circle cx="247.68" cy="309.75" fill="#FFBA53" id="svg_185" r="1.83"/>
      </g>
     </g>
    </g>
    <text fill="#FFFFFF" font-family="&#x27;Montserrat-ExtraBold&#x27;" font-size="18.17px" id="svg_186" transform="matrix(1 0 0 1 302.7303 321.0676)">NFT</text>
   </g>
  </g>
 </g>
</svg>