<?xml version="1.0" encoding="utf-8"?>
<!-- Generator: Adobe Illustrator 27.5.0, SVG Export Plug-In . SVG Version: 6.00 Build 0)  -->
<svg version="1.1" xmlns="http://www.w3.org/2000/svg" xmlns:xlink="http://www.w3.org/1999/xlink" x="0px" y="0px"
	 viewBox="0 0 2500 2500" style="enable-background:new 0 0 2500 2500;" xml:space="preserve">
<g id="Background">
	<rect style="fill:#FFFFFF;" width="2500" height="2500"/>
</g>
<g id="Illustration">
	<g id="Cryptocurrency_trading_desk_1_">
		<circle style="fill:#F2E6DC;" cx="1250" cy="1249.468" r="914.468"/>
		<g>
			<g>
				<path style="fill:#E6D0BE;" d="M1295.652,535.562h-17.676c-1.583-8.616-3.84-16.996-6.709-25.086l15.297-8.832l-29.91-51.807
					l-15.332,8.852c-5.627-6.587-11.763-12.723-18.349-18.349l8.852-15.332l-51.806-29.911l-8.832,15.298
					c-8.09-2.869-16.469-5.127-25.086-6.71V386.01h-59.821v17.676c-8.617,1.583-16.996,3.84-25.086,6.71l-8.832-15.298
					l-51.807,29.911l8.852,15.332c-6.587,5.626-12.723,11.763-18.349,18.349l-15.332-8.852l-29.91,51.807l15.297,8.832
					c-2.869,8.09-5.127,16.469-6.709,25.086h-17.676l0,0v59.821h17.676c1.583,8.616,3.84,16.995,6.709,25.086l-15.297,8.832
					l29.91,51.807l15.332-8.852c5.626,6.587,11.763,12.723,18.349,18.349l-8.852,15.332l51.806,29.91l0,0l8.832-15.297
					c8.09,2.869,16.469,5.127,25.086,6.71v17.676h59.821v-17.676c8.616-1.583,16.995-3.84,25.086-6.71l8.832,15.297l0,0
					l51.806-29.91l-8.852-15.332c6.587-5.626,12.723-11.763,18.349-18.349l15.332,8.852l29.91-51.807l-15.297-8.832
					c2.869-8.09,5.127-16.469,6.709-25.086h17.676V535.562z M1214.01,568.675c-1.635,51.245-43.372,92.982-94.616,94.618
					c-56.586,1.807-102.83-44.437-101.024-101.023c1.635-51.245,43.372-92.982,94.616-94.618
					C1169.572,465.846,1215.816,512.089,1214.01,568.675z"/>
			</g>
			<path style="fill:#F2E6DC;" d="M1116.189,698.534c-73.37,0-133.061-59.691-133.061-133.062c0-32.059,11.561-63.027,32.555-87.203
				c20.784-23.933,49.402-39.694,80.583-44.376c1.194-0.172,2.326,0.648,2.506,1.853c0.181,1.203-0.648,2.326-1.852,2.507
				c-62.36,9.363-109.385,64.055-109.385,127.22c0,70.941,57.714,128.655,128.654,128.655c58.617,0,109.827-39.573,124.536-96.233
				c0.304-1.177,1.502-1.898,2.687-1.579c1.177,0.306,1.884,1.508,1.578,2.685C1229.778,657.606,1176.812,698.534,1116.189,698.534z
				"/>
		</g>
		<g>
			<g>
				<g>
					<g>
						<path style="fill:#363E44;" d="M1235.715,2034.958c-1.019,0-1.916-0.704-2.146-1.713l-63.418-277.424l-78.743,0.749
							c-1.185,0.09-2.212-0.964-2.224-2.182c-0.012-1.218,0.965-2.214,2.183-2.225l80.516-0.766
							c1.098-0.004,1.938,0.704,2.169,1.713l63.386,277.288l286.375-24.088l-0.147-182.042l-86.672,0.071c-0.001,0-0.001,0-0.002,0
							c-1.216,0-2.203-0.986-2.204-2.201c-0.001-1.218,0.984-2.206,2.201-2.206l88.875-0.073c0.001,0,0.001,0,0.002,0
							c0.584,0,1.144,0.232,1.557,0.643c0.413,0.413,0.647,0.975,0.647,1.558l0.152,186.272c0.001,1.147-0.877,2.102-2.019,2.197
							l-290.302,24.42C1235.838,2034.956,1235.776,2034.958,1235.715,2034.958z"/>
						<path style="fill:#363E44;" d="M1450.571,2016.884c-1.147,0-2.114-0.887-2.196-2.049l-13.438-190.369l-247.321,0.075
							c-1.217,0-2.205-0.985-2.205-2.203c0-1.216,0.985-2.203,2.202-2.203l249.375-0.075c1.158,0,2.117,0.895,2.199,2.049
							l13.583,192.418c0.086,1.214-0.83,2.268-2.043,2.352C1450.676,2016.882,1450.623,2016.884,1450.571,2016.884z"/>
						<path style="fill:#363E44;" d="M1210.794,2162.991c-13.095,0-25.408-5.094-34.677-14.347
							c-9.277-9.262-14.393-21.583-14.404-34.695c-0.022-27.062,21.978-49.1,49.042-49.121c0.014,0,0.029,0,0.042,0
							c13.095,0,25.407,5.094,34.676,14.347c9.278,9.264,14.393,21.585,14.404,34.695l0,0c0.023,27.062-21.977,49.1-49.041,49.121
							C1210.822,2162.991,1210.807,2162.991,1210.794,2162.991z M1210.797,2069.236c-0.013,0-0.025,0-0.038,0
							c-24.634,0.021-44.658,20.077-44.639,44.71c0.01,11.935,4.667,23.15,13.11,31.581c8.436,8.42,19.644,13.058,31.563,13.058
							c0.013,0,0.025,0,0.038,0c24.634-0.021,44.658-20.077,44.638-44.71l0,0c-0.01-11.932-4.665-23.148-13.11-31.579
							C1233.923,2073.873,1222.715,2069.236,1210.797,2069.236z"/>
						<path style="fill:#363E44;" d="M1549.388,2162.716c-13.095,0-25.409-5.094-34.677-14.347
							c-9.277-9.262-14.393-21.583-14.404-34.695c-0.021-27.062,21.978-49.1,49.042-49.121c0.014,0,0.029,0,0.042,0
							c27.045,0,49.058,21.99,49.08,49.042l0,0c0.022,27.062-21.978,49.1-49.042,49.121
							C1549.416,2162.716,1549.401,2162.716,1549.388,2162.716z M1549.392,2068.96c-0.014,0-0.025,0-0.038,0
							c-24.634,0.021-44.658,20.077-44.639,44.71c0.01,11.935,4.666,23.15,13.11,31.581c8.435,8.42,19.644,13.058,31.563,13.058
							c0.013,0,0.025,0,0.038,0c24.634-0.021,44.658-20.077,44.639-44.71l0,0C1594.044,2088.977,1574.006,2068.96,1549.392,2068.96z
							"/>
						<path style="fill:#363E44;" d="M1257.673,2115.749c-1.216,0-2.203-0.986-2.204-2.201c-0.001-1.218,0.984-2.206,2.201-2.206
							l244.471-0.198c0.001,0,0.002,0,0.002,0c1.216,0,2.203,0.985,2.203,2.201c0.001,1.218-0.984,2.206-2.201,2.206l-244.471,0.198
							C1257.674,2115.749,1257.674,2115.749,1257.673,2115.749z"/>
						<path style="fill:#363E44;" d="M1224.518,2071.28c-0.215,0-0.434-0.03-0.65-0.097c-1.163-0.359-1.815-1.593-1.457-2.757
							l11.198-36.322c0.357-1.164,1.59-1.825,2.754-1.457c1.163,0.359,1.815,1.592,1.457,2.756l-11.198,36.322
							C1226.331,2070.673,1225.46,2071.28,1224.518,2071.28z"/>
					</g>
					<path style="fill:#363E44;" d="M1379.905,2022.828c-1.08,0-2.024-0.796-2.179-1.896l-27.759-197.249
						c-0.17-1.205,0.67-2.32,1.875-2.49c1.193-0.166,2.32,0.671,2.489,1.874l27.759,197.249c0.17,1.205-0.67,2.32-1.875,2.49
						C1380.112,2022.821,1380.008,2022.828,1379.905,2022.828z"/>
					<path style="fill:#363E44;" d="M1304.231,2029.195c-1.044,0-1.971-0.745-2.166-1.807l-37.455-204.729
						c-0.219-1.196,0.574-2.346,1.771-2.563c1.204-0.23,2.347,0.575,2.565,1.771l37.455,204.729
						c0.218,1.196-0.575,2.345-1.771,2.563C1304.496,2029.185,1304.362,2029.195,1304.231,2029.195z"/>
					<path style="fill:#363E44;" d="M1212.941,1935.341c-1.17,0-2.143-0.919-2.199-2.1c-0.057-1.216,0.882-2.247,2.098-2.305
						l313.001-14.665c1.228-0.071,2.247,0.88,2.305,2.098c0.057,1.216-0.882,2.247-2.098,2.305l-313.001,14.665
						C1213.011,1935.341,1212.977,1935.341,1212.941,1935.341z"/>
				</g>
			</g>
		</g>
		<g>
			<g>
				<path style="fill:#363E44;" d="M2075.132,1712.211H505.274c-1.217,0-2.204-0.986-2.204-2.203V520.121
					c0-1.218,0.987-2.203,2.204-2.203h1569.858c1.217,0,2.204,0.985,2.204,2.203v1189.886
					C2077.336,1711.225,2076.349,1712.211,2075.132,1712.211z M507.478,1707.804h1565.45V522.325H507.478V1707.804z"/>
				<g>
					<rect x="553.215" y="573.857" style="fill:#FFFFFF;" width="1470.342" height="998.694"/>
					<path style="fill:#E6D0BE;" d="M2023.557,1574.755H553.215c-1.217,0-2.204-0.986-2.204-2.204V573.856
						c0-1.218,0.987-2.203,2.204-2.203h1470.341c1.217,0,2.203,0.985,2.203,2.203v998.695
						C2025.76,1573.769,2024.774,1574.755,2023.557,1574.755z M555.419,1570.348h1465.934V576.06H555.419V1570.348z"/>
				</g>
			</g>
			<g>
				<g>
					<path style="fill:#D3BBA3;" d="M1124.225,1527.548H623.066c-1.217,0-2.204-0.985-2.204-2.203v-377.898
						c0-1.218,0.987-2.203,2.204-2.203c1.217,0,2.203,0.985,2.203,2.203v375.694h498.956c1.217,0,2.203,0.986,2.203,2.204
						S1125.442,1527.548,1124.225,1527.548z"/>
					<rect x="1874.162" y="1278.408" style="fill:#F2E6DC;" width="73.832" height="202.445"/>
					<rect x="1752.32" y="1238.078" style="fill:#F2E6DC;" width="73.832" height="242.776"/>
					<rect x="1630.478" y="1089.362" style="fill:#F2E6DC;" width="73.832" height="391.492"/>
					<rect x="1508.635" y="1150.75" style="fill:#F2E6DC;" width="73.832" height="330.103"/>
					<rect x="1386.62" y="988.781" style="fill:#F2E6DC;" width="73.832" height="492.074"/>
					<rect x="1264.777" y="1086.024" style="fill:#F2E6DC;" width="73.832" height="394.831"/>
					<rect x="1142.935" y="1102.822" style="fill:#F2E6DC;" width="73.832" height="378.033"/>
					<rect x="1021.093" y="866.965" style="fill:#F2E6DC;" width="73.832" height="613.89"/>
					<rect x="899.166" y="1190.733" style="fill:#F2E6DC;" width="73.832" height="290.122"/>
					<rect x="777.324" y="1049.382" style="fill:#F2E6DC;" width="73.832" height="431.473"/>
					<rect x="655.308" y="638.324" style="fill:#F2E6DC;" width="73.832" height="842.533"/>
				</g>
				<g>
					
						<rect x="1874.536" y="1087.093" transform="matrix(-1 -1.224647e-16 1.224647e-16 -1 3824.79 2450.5166)" style="fill:#E6D0BE;" width="75.718" height="276.33"/>
					
						<rect x="1749.641" y="1105.827" transform="matrix(-1 -1.224647e-16 1.224647e-16 -1 3575 2487.9851)" style="fill:#E6D0BE;" width="75.718" height="276.331"/>
					
						<rect x="1630.991" y="1010.595" transform="matrix(-1 -1.224647e-16 1.224647e-16 -1 3337.6992 2199.165)" style="fill:#E6D0BE;" width="75.718" height="177.975"/>
					
						<rect x="1873.365" y="1222.917" transform="matrix(-1 -1.224647e-16 1.224647e-16 -1 3822.8386 2629.6631)" style="fill:#D3BBA3;" width="76.108" height="183.83"/>
					<path style="fill:#D3BBA3;" d="M1912.005,1456.956c-0.003,0-0.007,0-0.01,0c-1.217-0.006-2.199-0.996-2.194-2.214
						l1.313-293.908c0.005-1.214,0.991-2.193,2.204-2.193c0.003,0,0.006,0,0.01,0c1.217,0.006,2.199,0.996,2.194,2.214
						l-1.313,293.908C1914.203,1455.977,1913.217,1456.956,1912.005,1456.956z"/>
					<path style="fill:#E6D0BE;" d="M1913.317,1163.048c-0.004,0-0.008,0-0.012,0c-1.217-0.006-2.198-0.999-2.192-2.216
						l1.03-190.841c0.006-1.212,0.992-2.191,2.203-2.191c0.004,0,0.008,0,0.012,0c1.217,0.007,2.198,0.998,2.192,2.216l-1.03,190.84
						C1915.514,1162.069,1914.529,1163.048,1913.317,1163.048z"/>
					
						<rect x="898.013" y="888.042" transform="matrix(-1 -1.224647e-16 1.224647e-16 -1 1871.7429 2052.4133)" style="fill:#E6D0BE;" width="75.718" height="276.33"/>
					
						<rect x="896.842" y="1023.865" transform="matrix(-1 -1.224647e-16 1.224647e-16 -1 1869.7914 2231.5598)" style="fill:#D3BBA3;" width="76.108" height="183.83"/>
					<path style="fill:#D3BBA3;" d="M935.481,1257.906c-0.003,0-0.006,0-0.01,0c-1.217-0.006-2.199-0.996-2.194-2.214l1.313-293.908
						c0.005-1.218,0.964-2.139,2.213-2.193c1.217,0.006,2.199,0.996,2.194,2.214l-1.313,293.908
						C937.679,1256.927,936.693,1257.906,935.481,1257.906z"/>
					<path style="fill:#E6D0BE;" d="M936.793,963.998c-0.004,0-0.008,0-0.012,0c-1.217-0.006-2.198-0.998-2.192-2.216l1.03-190.843
						c0.007-1.211,0.992-2.191,2.203-2.191c0.004,0,0.008,0,0.012,0c1.217,0.007,2.198,0.999,2.192,2.217l-1.03,190.843
						C938.99,963.019,938.005,963.998,936.793,963.998z"/>
					<path style="fill:#E6D0BE;" d="M1545.657,1366.785c-0.003,0-0.007,0-0.012,0c-1.217-0.006-2.198-0.999-2.192-2.214
						l1.03-193.184c0.006-1.214,0.992-2.193,2.203-2.193c0.003,0,0.008,0,0.012,0c1.217,0.006,2.198,0.999,2.192,2.214
						l-1.03,193.184C1547.854,1365.806,1546.869,1366.785,1545.657,1366.785z"/>
					<path style="fill:#E6D0BE;" d="M1667.429,1280.918c-0.003,0-0.008,0-0.011,0c-1.217-0.006-2.199-0.999-2.193-2.214
						l1.03-205.672c0.006-1.214,0.992-2.193,2.203-2.193c0.003,0,0.008,0,0.011,0c1.217,0.006,2.199,0.998,2.193,2.214
						l-1.03,205.671C1669.626,1279.939,1668.641,1280.918,1667.429,1280.918z"/>
					
						<rect x="1141.558" y="1013.327" transform="matrix(-1 -1.224647e-16 1.224647e-16 -1 2358.8337 2171.8445)" style="fill:#E6D0BE;" width="75.718" height="145.191"/>
					<path style="fill:#E6D0BE;" d="M1177.997,1259.843c-0.003,0-0.007,0-0.011,0c-1.217-0.006-2.199-0.999-2.193-2.214
						l1.03-205.673c0.006-1.214,0.992-2.193,2.203-2.193c0.003,0,0.008,0,0.011,0c1.217,0.006,2.199,0.999,2.193,2.214
						l-1.03,205.673C1180.194,1258.863,1179.208,1259.843,1177.997,1259.843z"/>
					
						<rect x="1265.673" y="1179.203" transform="matrix(-1 -1.224647e-16 1.224647e-16 -1 2607.0627 2536.3818)" style="fill:#E6D0BE;" width="75.718" height="177.975"/>
					<path style="fill:#E6D0BE;" d="M1302.111,1449.527c-0.003,0-0.008,0-0.011,0c-1.217-0.006-2.199-0.998-2.193-2.214
						l1.03-205.673c0.006-1.214,0.992-2.193,2.204-2.193c0.003,0,0.008,0,0.011,0c1.217,0.006,2.199,0.999,2.193,2.214
						l-1.03,205.673C1304.308,1448.548,1303.323,1449.527,1302.111,1449.527z"/>
					<path style="fill:#E6D0BE;" d="M1426.226,1078.746c-0.003,0-0.006,0-0.01,0c-1.217-0.006-2.199-0.996-2.194-2.214l1.03-230.653
						c0.005-1.214,0.991-2.193,2.203-2.193c0.003,0,0.006,0,0.01,0c1.217,0.006,2.199,0.996,2.194,2.214l-1.03,230.653
						C1428.424,1077.767,1427.438,1078.746,1426.226,1078.746z"/>
					<path style="fill:#E6D0BE;" d="M1784.519,1441.72c-0.003,0-0.006,0-0.01,0c-1.217-0.006-2.199-0.996-2.194-2.214l1.03-230.651
						c0.005-1.214,0.991-2.193,2.203-2.193c0.003,0,0.006,0,0.01,0c1.217,0.006,2.199,0.996,2.194,2.214l-1.03,230.651
						C1786.717,1440.741,1785.732,1441.72,1784.519,1441.72z"/>
					
						<rect x="1387.445" y="922.388" transform="matrix(-1 -1.224647e-16 1.224647e-16 -1 2850.6084 2121.1057)" style="fill:#E6D0BE;" width="75.718" height="276.331"/>
					
						<rect x="1507.657" y="1197.938" transform="matrix(-1 -1.224647e-16 1.224647e-16 -1 3091.0313 2501.2551)" style="fill:#E6D0BE;" width="75.718" height="105.38"/>
					<path style="fill:#E6D0BE;" d="M1419.201,1256.72c-0.003,0-0.006,0-0.01,0c-1.217-0.006-2.199-0.996-2.194-2.214l1.03-230.653
						c0.005-1.214,0.991-2.193,2.204-2.193c0.003,0,0.006,0,0.01,0c1.217,0.007,2.199,0.996,2.194,2.214l-1.03,230.653
						C1421.399,1255.741,1420.414,1256.72,1419.201,1256.72z"/>
					
						<rect x="1749.252" y="1056.65" transform="matrix(-1 -1.224647e-16 1.224647e-16 -1 3574.6125 2245.2202)" style="fill:#D3BBA3;" width="76.108" height="131.92"/>
					<path style="fill:#D3BBA3;" d="M1785.549,1290.69c-0.003,0-0.006,0-0.01,0c-1.217-0.006-2.199-0.996-2.194-2.214l1.312-293.907
						c0.005-1.214,0.991-2.193,2.203-2.193c0.003,0,0.006,0,0.01,0c1.217,0.007,2.199,0.996,2.194,2.214l-1.312,293.907
						C1787.747,1289.711,1786.761,1290.69,1785.549,1290.69z"/>
					
						<rect x="1873.367" y="965.32" transform="matrix(-1 -1.224647e-16 1.224647e-16 -1 3822.8416 2062.561)" style="fill:#EFBC73;" width="76.108" height="131.921"/>
					<path style="fill:#EFBC73;" d="M1909.663,1133.791c-0.004,0-0.009,0-0.013,0c-1.217-0.007-2.197-0.999-2.191-2.217
						l1.312-228.337c0.008-1.212,0.992-2.191,2.203-2.191c0.004,0,0.009,0,0.013,0c1.217,0.006,2.197,0.998,2.191,2.216
						l-1.312,228.337C1911.859,1132.812,1910.875,1133.791,1909.663,1133.791z"/>
					
						<rect x="1386.274" y="1157.347" transform="matrix(-1 -1.224647e-16 1.224647e-16 -1 2848.6567 2498.5232)" style="fill:#D3BBA3;" width="76.108" height="183.83"/>
					<path style="fill:#D3BBA3;" d="M1424.914,1409.341c-0.003,0-0.006,0-0.01,0c-1.217-0.004-2.199-0.996-2.194-2.212
						l1.312-311.861c0.005-1.214,0.991-2.195,2.203-2.195c0.003,0,0.006,0,0.01,0c1.217,0.004,2.199,0.996,2.194,2.212
						l-1.312,311.861C1427.113,1408.36,1426.127,1409.341,1424.914,1409.341z"/>
					<path style="fill:#E6D0BE;" d="M815.021,1139.631c-0.004,0-0.007,0-0.012,0c-1.217-0.006-2.198-0.998-2.192-2.216l1.03-189.28
						c0.006-1.216,1.023-2.262,2.215-2.191c1.217,0.006,2.198,0.998,2.192,2.216l-1.03,189.28
						C817.218,1138.652,816.232,1139.631,815.021,1139.631z"/>
					
						<rect x="776.24" y="1044.941" transform="matrix(-1 -1.224647e-16 1.224647e-16 -1 1628.1974 2304.5454)" style="fill:#E6D0BE;" width="75.718" height="214.663"/>
					
						<rect x="775.069" y="1258.043" transform="matrix(-1 -1.224647e-16 1.224647e-16 -1 1626.2458 2660.1062)" style="fill:#D3BBA3;" width="76.108" height="144.02"/>
					<path style="fill:#D3BBA3;" d="M813.708,1440.954c-0.003,0-0.008,0-0.011,0c-1.217-0.007-2.199-0.999-2.193-2.214
						l1.313-257.986c0.007-1.214,0.992-2.193,2.203-2.193c0.003,0,0.008,0,0.011,0c1.217,0.007,2.199,0.999,2.193,2.214
						l-1.313,257.986C815.905,1439.975,814.92,1440.954,813.708,1440.954z"/>
					
						<rect x="1508.047" y="1056.65" transform="matrix(-1 -1.224647e-16 1.224647e-16 -1 3092.2021 2297.1299)" style="fill:#D3BBA3;" width="76.108" height="183.83"/>
					<path style="fill:#D3BBA3;" d="M1546.687,1290.69c-0.003,0-0.006,0-0.01,0c-1.217-0.006-2.199-0.996-2.194-2.214l1.312-293.907
						c0.005-1.214,0.991-2.193,2.204-2.193c0.003,0,0.006,0,0.01,0c1.217,0.007,2.199,0.996,2.194,2.214l-1.312,293.907
						C1548.885,1289.711,1547.899,1290.69,1546.687,1290.69z"/>
					
						<rect x="1629.82" y="962.979" transform="matrix(-1 -1.224647e-16 1.224647e-16 -1 3335.7478 2057.8774)" style="fill:#D3BBA3;" width="76.108" height="131.921"/>
					<path style="fill:#D3BBA3;" d="M1178.284,1079.929c-0.003,0-0.006,0-0.01,0c-1.217-0.004-2.199-0.996-2.194-2.212
						l1.287-292.739c0.005-1.211,0.991-2.193,2.203-2.193c0.003,0,0.006,0,0.01,0c1.217,0.007,2.199,0.996,2.194,2.214
						l-1.287,292.735C1180.482,1078.948,1179.496,1079.929,1178.284,1079.929z"/>
					
						<rect x="1141.948" y="862.967" transform="matrix(-1 -1.224647e-16 1.224647e-16 -1 2359.3218 1891.6613)" style="fill:#D3BBA3;" width="75.425" height="165.727"/>
					
						<rect x="1019.785" y="757.682" transform="matrix(-1 -1.224647e-16 1.224647e-16 -1 2115.2883 1693.3398)" style="fill:#E6D0BE;" width="75.718" height="177.975"/>
					<path style="fill:#E6D0BE;" d="M1056.224,1028.006c-0.003,0-0.007,0-0.011,0c-1.217-0.007-2.199-0.999-2.193-2.214
						l1.03-205.673c0.006-1.214,0.992-2.193,2.203-2.193c0.003,0,0.007,0,0.011,0c1.217,0.006,2.199,0.998,2.193,2.214
						l-1.03,205.673C1058.421,1027.027,1057.436,1028.006,1056.224,1028.006z"/>
					<path style="fill:#D3BBA3;" d="M1056.51,904.296c-0.002,0-0.004,0-0.006,0c-1.217-0.004-2.2-0.992-2.197-2.21l1.287-451.964
						c0.003-1.214,0.99-2.197,2.203-2.197c0.002,0,0.005,0,0.007,0c1.217,0.004,2.2,0.992,2.197,2.21l-1.287,451.964
						C1058.711,903.313,1057.724,904.296,1056.51,904.296z"/>
					
						<rect x="1020.176" y="592.977" transform="matrix(-1 -1.224647e-16 1.224647e-16 -1 2115.7761 1456.0393)" style="fill:#D3BBA3;" width="75.425" height="270.086"/>
					<path style="fill:#D3BBA3;" d="M1304.019,1253.221c-0.004,0-0.009,0-0.013,0c-1.217-0.006-2.197-0.998-2.191-2.216
						l1.313-233.022c0.008-1.216,1.108-2.201,2.216-2.191c1.217,0.006,2.197,0.998,2.191,2.216l-1.313,233.022
						C1306.216,1252.242,1305.23,1253.221,1304.019,1253.221z"/>
					
						<rect x="1265.38" y="1080.068" transform="matrix(-1 -1.224647e-16 1.224647e-16 -1 2606.8677 2292.0559)" style="fill:#D3BBA3;" width="76.108" height="131.921"/>
					
						<rect x="656.809" y="722.555" transform="matrix(-1 -1.224647e-16 1.224647e-16 -1 1389.3354 1623.0865)" style="fill:#E6D0BE;" width="75.718" height="177.975"/>
					<path style="fill:#E6D0BE;" d="M693.247,992.879c-0.003,0-0.008,0-0.011,0c-1.217-0.006-2.199-0.998-2.193-2.214l1.03-205.671
						c0.006-1.214,0.992-2.193,2.203-2.193c0.003,0,0.008,0,0.011,0c1.217,0.006,2.199,0.998,2.193,2.214l-1.03,205.671
						C695.445,991.9,694.459,992.879,693.247,992.879z"/>
					<path style="fill:#D3BBA3;" d="M695.155,796.575c-0.004,0-0.009,0-0.013,0c-1.217-0.006-2.197-0.998-2.191-2.216l1.313-233.022
						c0.007-1.211,0.992-2.191,2.204-2.191c0.004,0,0.009,0,0.013,0c1.217,0.006,2.197,0.998,2.191,2.216l-1.313,233.022
						C697.352,795.596,696.367,796.575,695.155,796.575z"/>
					
						<rect x="656.516" y="623.42" transform="matrix(-1 -1.224647e-16 1.224647e-16 -1 1389.1404 1378.7604)" style="fill:#D3BBA3;" width="76.108" height="131.92"/>
					<path style="fill:#D3BBA3;" d="M1668.459,1139.644c-0.004,0-0.007,0-0.012,0c-1.217-0.006-2.198-0.998-2.192-2.216
						l1.313-236.534c0.006-1.211,0.992-2.191,2.203-2.191c0.004,0,0.008,0,0.012,0c1.217,0.006,2.198,0.998,2.192,2.216
						l-1.313,236.534C1670.656,1138.665,1669.671,1139.644,1668.459,1139.644z"/>
					
						<rect x="1386.276" y="1265.819" transform="matrix(-1 -1.224647e-16 1.224647e-16 -1 2848.6597 2683.4011)" style="fill:#EFBC73;" width="76.108" height="151.764"/>
					<path style="fill:#EFBC73;" d="M1422.572,1459.299c-0.003,0-0.008,0-0.011,0c-1.217-0.006-2.199-0.998-2.193-2.214
						l1.313-262.684c0.006-1.214,0.992-2.193,2.203-2.193c0.003,0,0.008,0,0.011,0c1.217,0.006,2.199,0.999,2.193,2.214
						l-1.313,262.684C1424.769,1458.32,1423.783,1459.299,1422.572,1459.299z"/>
					
						<rect x="1018.616" y="1118.286" transform="matrix(-1 -1.224647e-16 1.224647e-16 -1 2113.3398 2388.3362)" style="fill:#EFBC73;" width="76.108" height="151.764"/>
					<path style="fill:#EFBC73;" d="M1054.912,1311.765c-0.003,0-0.008,0-0.011,0c-1.217-0.006-2.199-0.998-2.193-2.214
						l1.313-262.684c0.006-1.214,0.992-2.193,2.203-2.193c0.003,0,0.008,0,0.011,0c1.217,0.006,2.199,0.999,2.193,2.214
						l-1.313,262.684C1057.109,1310.786,1056.123,1311.765,1054.912,1311.765z"/>
					
						<rect x="896.843" y="734.325" transform="matrix(-1 -1.224647e-16 1.224647e-16 -1 1869.7943 1653.7854)" style="fill:#EFBC73;" width="76.108" height="185.136"/>
					<path style="fill:#EFBC73;" d="M933.139,969.867c-0.003,0-0.005,0-0.009,0c-1.217-0.004-2.2-0.996-2.195-2.212l1.312-320.449
						c0.005-1.214,0.991-2.195,2.204-2.195c0.003,0,0.005,0,0.009,0c1.217,0.004,2.2,0.996,2.195,2.212l-1.312,320.449
						C935.338,968.885,934.352,969.867,933.139,969.867z"/>
					
						<rect x="655.64" y="901.613" transform="matrix(-1 -1.224647e-16 1.224647e-16 -1 1387.387 1976.4034)" style="fill:#EFBC73;" width="76.108" height="173.177"/>
					<path style="fill:#EFBC73;" d="M691.936,1122.08c-0.003,0-0.006,0-0.01,0c-1.217-0.004-2.199-0.996-2.194-2.212l1.312-299.748
						c0.005-1.214,0.991-2.195,2.203-2.195c0.003,0,0.007,0,0.01,0c1.217,0.004,2.199,0.996,2.194,2.212l-1.312,299.748
						C694.134,1121.099,693.149,1122.08,691.936,1122.08z"/>
					
						<rect x="775.07" y="934.398" transform="matrix(-1 -1.224647e-16 1.224647e-16 -1 1626.2489 2041.9733)" style="fill:#EFBC73;" width="76.108" height="173.178"/>
					<path style="fill:#EFBC73;" d="M811.367,1154.867c-0.003,0-0.006,0-0.01,0c-1.217-0.004-2.199-0.996-2.194-2.212l1.312-299.748
						c0.005-1.214,0.991-2.195,2.203-2.195c0.003,0,0.007,0,0.01,0c1.217,0.004,2.199,0.996,2.194,2.212l-1.311,299.748
						C813.565,1153.885,812.58,1154.867,811.367,1154.867z"/>
					
						<rect x="1143.511" y="1262.248" transform="matrix(-1 -1.224647e-16 1.224647e-16 -1 2360.0076 2697.6726)" style="fill:#EFBC73;" width="72.986" height="173.177"/>
					<path style="fill:#EFBC73;" d="M1178.318,1482.716c-0.003,0-0.006,0-0.01,0c-1.217-0.004-2.199-0.996-2.194-2.212
						l1.258-299.748c0.005-1.218,0.94-2.264,2.213-2.195c1.217,0.004,2.199,0.996,2.194,2.212l-1.258,299.748
						C1180.516,1481.735,1179.531,1482.716,1178.318,1482.716z"/>
					
						<rect x="1265.284" y="948.449" transform="matrix(-1 -1.224647e-16 1.224647e-16 -1 2606.6755 2070.0747)" style="fill:#EFBC73;" width="76.108" height="173.178"/>
					<path style="fill:#EFBC73;" d="M1301.58,1168.916c-0.003,0-0.007,0-0.01,0c-1.217-0.004-2.199-0.996-2.194-2.212l1.313-299.748
						c0.005-1.214,0.991-2.195,2.204-2.195c0.003,0,0.006,0,0.01,0c1.217,0.004,2.199,0.996,2.194,2.212l-1.313,299.748
						C1303.778,1167.935,1302.792,1168.916,1301.58,1168.916z"/>
					
						<rect x="1506.487" y="974.208" transform="matrix(-1 -1.224647e-16 1.224647e-16 -1 3089.0828 2121.594)" style="fill:#EFBC73;" width="76.108" height="173.178"/>
					<path style="fill:#EFBC73;" d="M1542.783,1194.677c-0.003,0-0.006,0-0.01,0c-1.217-0.004-2.199-0.996-2.194-2.212
						l1.313-299.748c0.005-1.214,0.991-2.195,2.203-2.195c0.003,0,0.006,0,0.01,0c1.217,0.004,2.199,0.996,2.194,2.212
						l-1.313,299.748C1544.981,1193.696,1543.996,1194.677,1542.783,1194.677z"/>
					
						<rect x="1628.26" y="840.727" transform="matrix(-1 -1.224647e-16 1.224647e-16 -1 3332.6284 1854.6306)" style="fill:#EFBC73;" width="76.108" height="173.177"/>
					<path style="fill:#EFBC73;" d="M1664.557,1061.195c-0.003,0-0.006,0-0.01,0c-1.217-0.004-2.199-0.996-2.194-2.212
						l1.312-299.748c0.004-1.218,0.978-2.227,2.213-2.195c1.217,0.004,2.199,0.996,2.194,2.212L1666.76,1059
						C1666.755,1060.214,1665.769,1061.195,1664.557,1061.195z"/>
					
						<rect x="1750.033" y="1141.703" transform="matrix(-1 -1.224647e-16 1.224647e-16 -1 3576.1736 2442.6023)" style="fill:#EFBC73;" width="76.108" height="159.197"/>
					<path style="fill:#EFBC73;" d="M1786.329,1344.552c-0.003,0-0.006,0-0.011,0c-1.217-0.007-2.198-0.996-2.193-2.214
						l1.313-275.55c0.005-1.214,0.991-2.193,2.203-2.193c0.003,0,0.006,0,0.011,0c1.217,0.006,2.198,0.996,2.193,2.214
						l-1.313,275.55C1788.527,1343.573,1787.541,1344.552,1786.329,1344.552z"/>
				</g>
			</g>
		</g>
		<g>
			<g>
				<g>
					
						<ellipse transform="matrix(0.7071 -0.7071 0.7071 0.7071 177.7817 1566.15)" style="fill:#E0AA63;" cx="1979.401" cy="568.474" rx="137.542" ry="137.542"/>
					<path style="fill:#FFFFFF;" d="M2091.081,516.379c-0.817,0-1.601-0.454-1.983-1.237c-8.652-17.755-21.644-33.324-37.572-45.026
						c-0.98-0.721-1.191-2.1-0.47-3.079c0.721-0.981,2.097-1.192,3.08-0.471c16.501,12.122,29.96,28.252,38.924,46.644
						c0.533,1.095,0.078,2.414-1.016,2.948C2091.733,516.308,2091.405,516.379,2091.081,516.379z"/>
					<path style="fill:#FFFFFF;" d="M1941.902,689.066c-0.221,0-0.444-0.032-0.665-0.103
						c-55.415-17.508-91.582-70.298-87.95-128.378c4.223-67.516,60.509-119.54,128.053-118.46c1.217,0.019,2.187,1.022,2.168,2.24
						c-0.019,1.218-1.118,2.173-2.239,2.167c-0.669-0.011-1.345-0.017-2.011-0.017c-64.328,0-117.537,49.853-121.572,114.345
						c-3.505,56.055,31.398,107.005,84.879,123.902c1.161,0.366,1.804,1.603,1.438,2.763
						C1943.705,688.466,1942.837,689.066,1941.902,689.066z"/>
					
						<ellipse transform="matrix(0.7071 -0.7071 0.7071 0.7071 177.7817 1566.15)" style="fill:#EFBC73;" cx="1979.401" cy="568.474" rx="114.224" ry="114.224"/>
					<path style="fill:#FFFFFF;" d="M1979.495,708.222c-2.923,0-5.86-0.09-8.817-0.276c-37.255-2.331-71.372-19.029-96.067-47.019
						c-24.696-27.992-37.013-63.924-34.682-101.178c4.809-76.904,71.307-135.576,148.198-130.751l0,0
						c76.905,4.812,135.558,71.292,130.749,148.199C2114.248,651.148,2052.598,708.222,1979.495,708.222z M1979.315,433.131
						c-70.806,0-130.509,55.273-134.988,126.895c-2.257,36.079,9.672,70.877,33.588,97.986
						c23.916,27.107,56.958,43.279,93.038,45.536c74.486,4.631,138.865-52.147,143.524-126.626
						c4.658-74.481-52.146-138.866-126.626-143.525C1984.991,433.219,1982.141,433.131,1979.315,433.131z"/>
				</g>
				<g>
					<path style="fill:#FFFFFF;" d="M1985.39,597.034c-0.342,0-0.685-0.08-1.001-0.241l-60.651-30.929
						c-0.57-0.29-0.987-0.816-1.139-1.435c-0.153-0.622-0.028-1.28,0.342-1.801l54.378-76.678c0.411-0.579,1.075-0.925,1.785-0.93
						c0.697,0.043,1.377,0.336,1.795,0.908l54.84,75.389c0.354,0.484,0.494,1.095,0.387,1.685c-0.107,0.592-0.45,1.115-0.951,1.446
						l-48.567,32.218C1986.241,596.911,1985.816,597.034,1985.39,597.034z M1928.01,563.096l57.234,29.186l45.577-30.234
						L1979.139,491L1928.01,563.096z"/>
					<path style="fill:#FFFFFF;" d="M1985.387,597.034c-1.158,0-2.129-0.904-2.198-2.074l-6.273-107.607
						c-0.07-1.216,0.858-2.257,2.072-2.328c1.195-0.08,2.256,0.856,2.328,2.07l6.273,107.608c0.07,1.216-0.857,2.257-2.072,2.328
						C1985.475,597.032,1985.431,597.034,1985.387,597.034z"/>
					<path style="fill:#FFFFFF;" d="M1926.585,565.461c-0.982,0-1.878-0.661-2.134-1.655c-0.302-1.179,0.408-2.38,1.587-2.683
						l56.467-14.5c0.337-0.084,0.688-0.09,1.026-0.017l47.811,10.632c1.188,0.265,1.937,1.442,1.672,2.63
						c-0.264,1.186-1.442,1.928-2.63,1.674l-47.295-10.518l-55.956,14.368C1926.951,565.44,1926.766,565.461,1926.585,565.461z"/>
					<path style="fill:#FFFFFF;" d="M1987.742,647.294c-0.196,0-0.394-0.026-0.589-0.08c-0.925-0.256-1.578-1.082-1.614-2.042
						l-1.569-42.528c-0.028-0.764,0.342-1.487,0.977-1.913l51.973-34.794c0.868-0.585,2.029-0.473,2.774,0.263
						c0.745,0.736,0.869,1.896,0.298,2.772l-50.404,77.322C1989.174,646.928,1988.473,647.294,1987.742,647.294z M1988.421,603.709
						l1.267,34.361l40.724-62.474L1988.421,603.709z"/>
					<path style="fill:#FFFFFF;" d="M1987.743,647.294c-0.615,0-1.229-0.256-1.664-0.758l-65.258-75.067
						c-0.692-0.796-0.722-1.973-0.072-2.804c0.651-0.831,1.798-1.082,2.738-0.605l63.69,32.539c1.083,0.553,1.513,1.881,0.96,2.965
						c-0.554,1.082-1.877,1.515-2.965,0.96l-53.564-27.366l57.799,66.485c0.798,0.919,0.7,2.311-0.217,3.109
						C1988.77,647.115,1988.255,647.294,1987.743,647.294z"/>
				</g>
			</g>
			<g>
				<g>
					
						<ellipse transform="matrix(0.7071 -0.7071 0.7071 0.7071 156.4781 1337.131)" style="fill:#E0AA63;" cx="1692.299" cy="479.68" rx="139.744" ry="139.744"/>
					<path style="fill:#FFFFFF;" d="M1623.415,587.579c-0.413,0-0.831-0.116-1.203-0.359
						c-17.413-11.371-31.967-26.976-42.088-45.125c-0.593-1.063-0.211-2.406,0.852-2.998c1.065-0.592,2.406-0.211,2.998,0.85
						c9.774,17.529,23.83,32.601,40.648,43.584c1.019,0.665,1.305,2.029,0.64,3.049
						C1624.839,587.228,1624.134,587.579,1623.415,587.579z"/>
					<path style="fill:#FFFFFF;" d="M1697.322,607.929c-1.178,0-2.154-0.932-2.2-2.117c-0.048-1.216,0.9-2.24,2.115-2.287
						c66.244-2.589,118.514-56.588,118.999-122.938c0.417-57.081-37.855-106.826-93.073-120.973
						c-1.179-0.301-1.89-1.502-1.588-2.681s1.507-1.892,2.681-1.588c57.183,14.65,96.819,66.164,96.386,125.272
						c-0.501,68.71-54.632,124.631-123.233,127.31C1697.38,607.929,1697.351,607.929,1697.322,607.929z"/>
					
						<ellipse transform="matrix(0.7071 -0.7071 0.7071 0.7071 156.4781 1337.131)" style="fill:#EFBC73;" cx="1692.299" cy="479.68" rx="116.052" ry="116.052"/>
					<path style="fill:#FFFFFF;" d="M1692.315,621.628c-0.353,0-0.699-0.002-1.053-0.004
						c-78.267-0.572-141.477-64.714-140.906-142.98c0.569-77.916,64.14-140.912,141.927-140.912c0.353,0,0.699,0.002,1.053,0.004
						c78.268,0.572,141.477,64.714,140.907,142.98C1833.674,558.631,1770.101,621.628,1692.315,621.628z M1691.294,617.217
						c0.338,0.002,0.683,0.004,1.021,0.004c75.377,0,136.969-61.036,137.521-136.535c0.553-75.839-60.695-137.99-136.532-138.543
						c-0.338-0.002-0.683-0.004-1.021-0.004c-75.378,0-136.968,61.036-137.52,136.535
						C1554.209,554.513,1615.456,616.664,1691.294,617.217z"/>
				</g>
				<g>
					
						<ellipse transform="matrix(0.7071 -0.7071 0.7071 0.7071 135.2388 1360.3027)" style="fill:#FFFFFF;" cx="1709.65" cy="516.904" rx="27.458" ry="27.458"/>
					
						<ellipse transform="matrix(0.2298 -0.9732 0.9732 0.2298 800.9319 1970.0791)" style="fill:#FFFFFF;" cx="1645.117" cy="479.029" rx="27.458" ry="27.458"/>
					
						<ellipse transform="matrix(0.2298 -0.9732 0.9732 0.2298 890.7424 2005.6624)" style="fill:#FFFFFF;" cx="1712.503" cy="440.08" rx="27.458" ry="27.458"/>
					<path style="fill:#FFFFFF;" d="M1661.774,480.339c5.708-1.586,11.647-2.772,17.238-3.227c4.313-0.351,8.43,1.856,10.555,5.625
						c4.209,7.465,7.388,19.269,9.083,29.5l9.694-5.221c-7.238-9.318-11.997-18.78-13.992-26.758
						c-0.631-2.525-0.583-5.175,0.252-7.64c2.141-6.315,6.487-12.389,13.774-20.106l-6.592-4.525
						c-3.224,6.36-6.449,12.729-9.368,17.356c-2.084,3.304-5.531,5.522-9.405,6.028c-8.155,1.064-16.289,0.508-24.405-3.501
						L1661.774,480.339z"/>
				</g>
			</g>
			<g>
				<g>
					<circle style="fill:#E0AA63;" cx="1492.09" cy="658.59" r="163.983"/>
					<path style="fill:#FFFFFF;" d="M1565.014,789.639c-0.767,0-1.513-0.4-1.918-1.117c-0.6-1.059-0.229-2.404,0.83-3.004
						c20.537-11.648,38.147-28.315,50.926-48.198c0.656-1.022,2.023-1.323,3.045-0.661c1.024,0.656,1.32,2.021,0.663,3.045
						c-13.164,20.48-31.304,37.647-52.46,49.648C1565.756,789.547,1565.382,789.639,1565.014,789.639z"/>
					<path style="fill:#FFFFFF;" d="M1639.95,653.818c-1.17,0-2.144-0.921-2.199-2.102c-3.614-77.914-67.596-138.945-145.66-138.945
						c-67.157,0-125.355,45.457-141.525,110.541c-0.295,1.179-1.493,1.883-2.671,1.607c-1.181-0.295-1.9-1.489-1.607-2.671
						c16.66-67.053,76.616-113.884,145.802-113.884c80.424,0,146.339,62.878,150.063,143.15c0.056,1.214-0.883,2.247-2.099,2.302
						C1640.02,653.818,1639.984,653.818,1639.95,653.818z"/>
					<circle style="fill:#EFBC73;" cx="1492.09" cy="658.59" r="136.182"/>
					<path style="fill:#FFFFFF;" d="M1492.09,824.775c-91.635,0-166.186-74.55-166.186-166.186
						c0-91.634,74.551-166.184,166.186-166.184s166.185,74.55,166.185,166.184C1658.275,750.225,1583.725,824.775,1492.09,824.775z
						 M1492.09,496.812c-89.206,0-161.779,72.573-161.779,161.777s72.574,161.779,161.779,161.779
						c89.205,0,161.778-72.575,161.778-161.779S1581.295,496.812,1492.09,496.812z"/>
					<path style="fill:#FFFFFF;" d="M1492.09,796.975c-76.306,0-138.386-62.08-138.386-138.386s62.08-138.384,138.386-138.384
						s138.385,62.078,138.385,138.384S1568.396,796.975,1492.09,796.975z M1492.09,524.612
						c-73.877,0-133.979,60.102-133.979,133.977c0,73.877,60.102,133.979,133.979,133.979c73.875,0,133.978-60.102,133.978-133.979
						C1626.068,584.714,1565.965,524.612,1492.09,524.612z"/>
				</g>
				<g>
					<g>
						<path style="fill:#FFFFFF;" d="M1436.558,733.673V579.701h55.308c19.809,0,34.879,3.631,45.208,10.893
							c10.327,7.261,15.492,17.802,15.492,31.618c0,7.969-1.833,14.771-5.499,20.41c-3.666,5.642-9.059,9.8-16.18,12.479
							c8.037,2.115,14.206,6.065,18.506,11.844c4.299,5.782,6.451,12.832,6.451,21.15c0,15.088-4.777,26.422-14.329,34
							c-9.554,7.58-23.707,11.439-42.459,11.579H1436.558z M1473.677,643.891h19.352c8.107-0.069,13.888-1.555,17.344-4.455
							c3.453-2.898,5.182-7.176,5.182-12.834c0-6.504-1.869-11.188-5.605-14.053c-3.738-2.863-9.766-4.295-18.083-4.295h-18.189
							V643.891z M1473.677,668.214v36.906h24.323c6.697,0,11.844-1.532,15.439-4.599c3.595-3.068,5.393-7.386,5.393-12.955
							c0-12.831-6.381-19.281-19.141-19.352H1473.677z"/>
					</g>
					<path style="fill:#FFFFFF;" d="M1494.509,750.566h15.607v-26.141c-5.212-0.22-10.41-0.526-15.607-0.877V750.566z"/>
					<path style="fill:#FFFFFF;" d="M1494.509,562.593v28.741c5.202,0.149,10.405,0.294,15.607,0.349v-29.09H1494.509z"/>
					<path style="fill:#FFFFFF;" d="M1460.007,751.115h15.607v-28.931c-5.177-0.375-10.375-0.729-15.607-1.022V751.115z"/>
					<path style="fill:#FFFFFF;" d="M1460.007,563.142v28.349c5.203-0.354,10.405-0.491,15.607-0.496v-27.852H1460.007z"/>
				</g>
			</g>
		</g>
		<g>
			<g>
				<polygon style="fill:#363E44;" points="1087.413,2158.302 1012.106,1871.001 630.221,1886.125 613.265,2158.302 
					833.082,2158.302 836.863,2086.521 890.118,2158.302 				"/>
				<path style="fill:#E6D0BE;" d="M836.866,2088.725c-0.723,0-1.43-0.355-1.852-1.007l-35.486-54.826
					c-0.662-1.02-0.369-2.384,0.652-3.047c1.022-0.659,2.386-0.368,3.047,0.654l35.486,54.826c0.662,1.02,0.369,2.385-0.652,3.047
					C837.691,2088.611,837.276,2088.725,836.866,2088.725z"/>
			</g>
			<g>
				<path style="fill:#363E44;" d="M893.692,1283.162c-3.363,0-6.904-1.052-10.383-3.133c-5.492-3.286-10.215-8.795-13.301-15.513
					c-6.495-14.142-3.609-29.401,6.436-34.015c5.012-2.305,10.941-1.676,16.699,1.769c5.493,3.286,10.216,8.795,13.301,15.513l0,0
					c3.086,6.716,4.187,13.888,3.101,20.195c-1.138,6.611-4.525,11.519-9.537,13.822
					C898.024,1282.711,895.896,1283.162,893.692,1283.162z M882.756,1233.553c-1.579,0-3.085,0.314-4.472,0.953
					c-7.836,3.6-9.752,16.238-4.272,28.172c2.718,5.916,6.823,10.736,11.559,13.568c4.472,2.677,8.948,3.228,12.596,1.549
					c3.652-1.678,6.149-5.429,7.033-10.566c0.937-5.438-0.044-11.691-2.762-17.609l0,0c-2.718-5.916-6.823-10.734-11.559-13.568
					C888.108,1234.394,885.334,1233.553,882.756,1233.553z"/>
				<path style="fill:#BC8271;" d="M880.891,1254.415c-16.904-36.894-30.009-56.909-53.254-65.423
					c-31.239-11.442-61.895,8.606-65.064,10.747c-2.023,1.367-31.956,19.069-34.145,53.993c-2.162,34.49,14.016,68.92,43.011,87.141
					l6.643,76.055c2.133,24.416,23.655,42.481,48.071,40.348l5.53-0.483c24.417-2.133,42.481-23.655,40.349-48.071l-4.437-50.805
					c15.376-2.649,27.238-8.208,31.464-16.482C906.63,1326.614,900.799,1297.861,880.891,1254.415z"/>
				<path style="fill:#363E44;" d="M834.089,1274.527c-0.94,0-1.812-0.607-2.105-1.554c-0.358-1.162,0.293-2.397,1.456-2.754
					l70.253-21.685c1.162-0.362,2.396,0.293,2.756,1.455c0.358,1.162-0.293,2.397-1.456,2.755l-70.253,21.685
					C834.523,1274.495,834.304,1274.527,834.089,1274.527z"/>
				<path style="fill:#363E44;" d="M868.185,1358.855c-1.105,0-2.057-0.828-2.186-1.954l-2.119-18.556
					c-0.138-1.209,0.731-2.3,1.94-2.438c1.206-0.153,2.301,0.727,2.439,1.939l2.119,18.556c0.138,1.209-0.731,2.3-1.939,2.438
					C868.353,1358.851,868.268,1358.855,868.185,1358.855z"/>
				<path style="fill:#363E44;" d="M832.776,1302.926c-0.531,0-1.066-0.192-1.489-0.581c-4.605-4.226-7.462-6.966-9.56-8.98
					c-1.018-0.975-1.854-1.777-2.625-2.494c-0.891-0.831-0.941-2.223-0.112-3.116c0.83-0.887,2.225-0.936,3.114-0.112
					c0.785,0.732,1.638,1.549,2.674,2.541c2.083,1.999,4.919,4.719,9.49,8.915c0.896,0.822,0.956,2.217,0.133,3.112
					C833.966,1302.684,833.372,1302.926,832.776,1302.926z"/>
				<path style="fill:#363E44;" d="M837.417,1185.084c-27.989-23.156-92.158-2.805-114.551,32.892
					c-30.282,48.274-7.316,115.408,34.045,135.349c13.876,6.689,36.747,14.371,59.172,1.466c13.094-7.536,8.64-27.395,7.474-32.165
					c-12.94-1.211-23.05-11.468-23.97-23.78c-0.928-12.401,7.708-23.668,18.583-26.501c7.214-1.879,13.495,0.452,16.061,1.582
					C852.585,1236.225,857.361,1201.584,837.417,1185.084z"/>
			</g>
			<g>
				<g>
					<g>
						<path style="fill:#363E44;" d="M994.633,1220.446c-14.664,0-29.428-1.726-44.051-5.22
							c-100.854-24.097-163.299-125.752-139.203-226.605l2.143,0.512l-2.143-0.512c24.097-100.855,125.759-163.307,226.606-139.204
							c100.853,24.099,163.298,125.754,139.202,226.607c-11.673,48.854-41.672,90.24-84.473,116.531
							C1062.724,1210.977,1028.962,1220.446,994.633,1220.446z M994.281,848.655c-83.025,0-158.497,56.782-178.616,140.99
							c-23.532,98.49,37.451,197.761,135.94,221.294c47.708,11.403,97.004,3.54,138.801-22.139
							c41.797-25.674,71.093-66.091,82.493-113.801c23.532-98.49-37.451-197.763-135.939-221.296
							C1022.677,850.29,1008.364,848.655,994.281,848.655z"/>
						<g>
							<path style="fill:#363E44;" d="M1195.134,1381.383c-6.225,0-12.313-3.127-15.814-8.803l-59.091-95.828
								c-1.302-2.111-1.704-4.603-1.132-7.015c0.572-2.414,2.051-4.461,4.162-5.763l19.514-12.033
								c2.109-1.3,4.599-1.706,7.016-1.132c2.415,0.572,4.461,2.051,5.762,4.164l59.092,95.824
								c5.367,8.702,2.652,20.15-6.051,25.517l-3.754,2.315C1201.813,1380.495,1198.454,1381.383,1195.134,1381.383z
								 M1147.639,1254.964c-0.893,0-1.772,0.247-2.552,0.729l-19.515,12.033c-1.109,0.682-1.886,1.758-2.186,3.025
								c-0.301,1.27-0.09,2.578,0.594,3.688l59.091,95.826c4.093,6.632,12.818,8.704,19.454,4.609l3.754-2.315l0,0
								c6.634-4.091,8.704-12.817,4.614-19.453l-59.092-95.824c-0.684-1.108-1.759-1.885-3.028-2.186
								C1148.397,1255.009,1148.016,1254.964,1147.639,1254.964z"/>
							<path style="fill:#363E44;" d="M1125.261,1267.632c-0.738,0-1.459-0.37-1.876-1.044l-36.333-58.736
								c-0.308-0.497-0.404-1.097-0.27-1.668c0.134-0.568,0.49-1.061,0.988-1.369l17.916-11.048
								c1.033-0.635,2.391-0.318,3.031,0.717l36.332,58.736c0.308,0.497,0.405,1.097,0.27,1.668
								c-0.135,0.568-0.49,1.061-0.988,1.369l-17.916,11.048C1126.055,1267.527,1125.656,1267.632,1125.261,1267.632z
								 M1091.962,1207.41l34.014,54.989l14.164-8.734l-34.014-54.99L1091.962,1207.41z"/>
						</g>
						<path style="fill:#363E44;" d="M1136.343,947.003c-0.74,0-1.463-0.372-1.88-1.05c-34.669-56.438-99.384-86.472-164.877-76.532
							c-1.197,0.192-2.326-0.641-2.509-1.846c-0.183-1.203,0.645-2.326,1.847-2.509c67.245-10.211,133.695,20.63,169.294,78.581
							c0.637,1.037,0.313,2.393-0.724,3.032C1137.134,946.897,1136.735,947.003,1136.343,947.003z"/>
						<path style="fill:#363E44;" d="M996.287,1200.872c-1.206,0-2.191-0.97-2.203-2.18c-0.013-1.218,0.963-2.214,2.18-2.227
							c29.651-0.314,58.753-8.73,84.159-24.338c1.036-0.635,2.393-0.314,3.031,0.725c0.637,1.037,0.313,2.395-0.724,3.032
							c-26.087,16.023-55.971,24.665-86.419,24.988C996.302,1200.872,996.294,1200.872,996.287,1200.872z"/>
					</g>
				</g>
				<g>
					<path style="fill:#BC8271;" d="M613.09,1590.618c-72.179-27.395-285.328-93.707-256.502-182.886
						c23.843-73.765,228.574-0.028,302.013,22.529C643.431,1483.713,628.261,1537.166,613.09,1590.618z"/>
					<g>
						<path style="fill:#BC8271;" d="M458.406,1483.429c0.003-0.002,0.008,0,0.009-0.004c64.706-124.406,113-211.43,126.853-238.881
							c1.451-2.875,4.034-7.937,5.484-15.181c5.371-26.84-13.435-40.616-20.666-71.415c-8.204-34.946,6.961-59.269-1.214-63.417
							c-5.687-2.885-13.99,4.679-23.93,25.02l-0.004-0.001c5.776-16.322,12.642-38.801,3.612-41.966
							c-10.621-3.097-21.79,22.365-27.793,38.098c7.267-19.044,5.433-31.344-0.041-31.855c-8.617-0.803-17.691,12.652-26.318,38.194
							l-0.002,0c1.03-19.3-1.596-24.136-6.545-23.407c-9.036,1.33-15.734,22.463-18.79,42.052
							c-3.442,22.052,1.539,40.35,4.955,51.812c0,0,0,0.007-0.002,0.009c-54.353,82.433-68.601,101.758-111.043,169.29
							C314.749,1438.505,388.852,1516.245,458.406,1483.429z"/>
						<path style="fill:#BC8271;" d="M570.13,1187.745c18.37-30.399,31.439-37.47,36.163-34.405
							c7.946,5.154,2.885,37.527-18.367,85.337C581.696,1224.932,576.36,1201.49,570.13,1187.745z"/>
						<g>
							<path style="fill:#363E44;" d="M544.411,1154.073c-1.035,0-1.958-0.732-2.162-1.786c-0.845-4.379-1.285-8.853-1.309-13.297
								c-0.035-6.449,0.797-12.899,2.475-19.167c0.313-1.173,1.521-1.879,2.697-1.558c1.176,0.314,1.874,1.521,1.559,2.698
								c-1.575,5.887-2.357,11.945-2.324,18c0.023,4.175,0.437,8.375,1.23,12.487c0.23,1.194-0.552,2.35-1.746,2.58
								C544.69,1154.06,544.549,1154.073,544.411,1154.073z"/>
							<path style="fill:#363E44;" d="M521.258,1147.772c-1.035,0-1.958-0.732-2.162-1.786c-0.844-4.383-1.284-8.857-1.308-13.299
								c-0.037-6.447,0.796-12.894,2.474-19.167c0.313-1.175,1.52-1.885,2.697-1.558c1.176,0.314,1.874,1.521,1.559,2.698
								c-1.575,5.892-2.357,11.947-2.323,18.001c0.023,4.172,0.436,8.375,1.229,12.49c0.23,1.197-0.552,2.352-1.747,2.582
								C521.536,1147.759,521.395,1147.772,521.258,1147.772z"/>
							<path style="fill:#363E44;" d="M493.32,1156.235c-1.035,0-1.958-0.732-2.162-1.786c-0.843-4.383-1.284-8.855-1.308-13.297
								c-0.035-6.456,0.797-12.903,2.475-19.167c0.314-1.173,1.516-1.876,2.698-1.558c1.175,0.314,1.873,1.524,1.558,2.698
								c-1.575,5.883-2.357,11.941-2.324,18.001c0.022,4.17,0.436,8.373,1.229,12.487c0.23,1.197-0.552,2.352-1.747,2.582
								C493.598,1156.222,493.457,1156.235,493.32,1156.235z"/>
						</g>
					</g>
				</g>
				<g>
					<g>
						<path style="fill:#BC8271;" d="M1102.06,1472.927c158.106,33.624,282.267,67.693,268.708,118.42
							c-28.702,107.378-147.978,52.188-253.995,51.245C1112.783,1599.049,1105.757,1525.717,1102.06,1472.927z"/>
					</g>
					<g>
						<path style="fill:#BC8271;" d="M1235.416,1573.37c0,0-39.922-107.381-57.067-165.794
							c-18.007-61.346-35.66-154.542-22.591-156.843c7.444-1.311,12.479,10.902,23.768,44.438c1.125-2.266,5.634-8.189,12.737-8.273
							c10.513-0.124,13.541,8.244,14.108,8.885c0.319-0.799,3.996-9.316,11.019-10.59c7.911-1.435,13.851,2.219,17.339,7.477
							c0.853-1.959,4.736-8.866,11.522-9.892c6.98-1.055,15.033,2.911,17.003,10.008c3.614,13.021,13.612,51.924,20.785,70.263
							c14.115,36.089,81.444,157.52,88.058,215.072C1323.198,1567.034,1235.416,1573.37,1235.416,1573.37z"/>
						<g>
							<path style="fill:#363E44;" d="M1248.859,1312.818c-1.076,0-2.019-0.79-2.178-1.887c-0.174-1.205,0.661-2.322,1.865-2.496
								l11.304-1.642c1.207-0.185,2.323,0.659,2.497,1.864c0.174,1.205-0.661,2.322-1.865,2.496l-11.304,1.642
								C1249.072,1312.811,1248.965,1312.818,1248.859,1312.818z"/>
							<path style="fill:#363E44;" d="M1220.14,1317.091c-1.105,0-2.058-0.831-2.186-1.956c-0.137-1.209,0.732-2.3,1.941-2.436
								l12.833-1.455c1.2-0.123,2.3,0.734,2.437,1.943c0.137,1.209-0.733,2.3-1.942,2.438l-12.831,1.45
								C1220.307,1317.087,1220.223,1317.091,1220.14,1317.091z"/>
							<path style="fill:#363E44;" d="M1192.255,1320.04c-1.075,0-2.016-0.788-2.177-1.885c-0.176-1.203,0.656-2.322,1.86-2.498
								c2.113-0.31,4.021-0.575,5.93-0.839c1.902-0.262,3.803-0.527,5.908-0.835c1.206-0.2,2.324,0.656,2.5,1.861
								c0.176,1.203-0.656,2.322-1.86,2.498c-2.116,0.31-4.029,0.575-5.941,0.841c-1.898,0.263-3.796,0.525-5.896,0.833
								C1192.469,1320.033,1192.362,1320.04,1192.255,1320.04z"/>
							<path style="fill:#363E44;" d="M1169.505,1325.35c-1.01,0-1.922-0.699-2.15-1.726c-0.262-1.19,0.487-2.365,1.675-2.63
								l11.072-2.455c1.186-0.25,2.364,0.486,2.629,1.674c0.262,1.19-0.487,2.365-1.675,2.63l-11.071,2.455
								C1169.824,1325.333,1169.663,1325.35,1169.505,1325.35z"/>
						</g>
					</g>
				</g>
				<g>
					<path style="fill:#8B865C;" d="M616.107,1634.686l-104.116-38.263l41.709-201.837c0,0,325.19-21.125,581.523,78.62
						l-5.338,196.031l-84.289,7.041l56.643,251.799c-205.78,26.249-372.87,23.208-513.323,0L616.107,1634.686z"/>
					<path style="fill:#363E44;" d="M623.67,1627.437c-0.112,0-0.226-0.009-0.341-0.026c-1.203-0.187-2.026-1.315-1.839-2.518
						l10.339-66.345c0.187-1.203,1.31-2.019,2.517-1.838c1.203,0.187,2.026,1.315,1.839,2.518l-10.339,66.345
						C625.676,1626.66,624.738,1627.437,623.67,1627.437z"/>
				</g>
			</g>
		</g>
		<g>
			<g>
				<path style="fill:#D87355;" d="M1781.242,1331.401c0,0-31.66,86.644-97.229,86.644c-46.985,0-70.882-31.546-75.9-76.71
					c-5.454-49.084,69.32-127.989,160.488-201.621C1768.601,1139.713,1800.436,1259.769,1781.242,1331.401z"/>
				<g>
					<path style="fill:#D87355;" d="M2002.045,1326.279c0,0,45.8,116.883,112.978,72.666
						c120.029-79.003-6.644-197.466-98.272-243.951c-119.244-60.495-205.51-27.857-248.149-15.281l7.636,252.177
						c0.72,23.763,20.191,42.654,43.965,42.654h156.063c29.745,0,50.914-28.91,41.932-57.267L2002.045,1326.279z"/>
					<path style="fill:#363E44;" d="M2020.675,1251.508c-0.98,0-1.874-0.658-2.131-1.651l-7.85-30.241
						c-0.307-1.177,0.401-2.38,1.578-2.685c1.183-0.321,2.381,0.402,2.687,1.579l7.85,30.24c0.307,1.177-0.401,2.38-1.578,2.686
						C2021.044,1251.487,2020.858,1251.508,2020.675,1251.508z"/>
					<path style="fill:#363E44;" d="M1775.491,1369.475c-1.187,0-2.165-0.943-2.201-2.137l-1.086-35.87
						c-0.036-1.216,0.919-2.231,2.136-2.27c1.203-0.017,2.231,0.919,2.269,2.137l1.086,35.87c0.036,1.216-0.919,2.232-2.136,2.27
						C1775.536,1369.475,1775.513,1369.475,1775.491,1369.475z"/>
				</g>
				<g>
					<g>
						<path style="fill:#84524D;" d="M2087.96,1279.838c0,0-81.949-34.288-125.835-51.331
							c-76.04-29.53-119.828-21.36-119.881-10.428c-0.057,11.864,22.752,5.099,33.627,8.549c-1.765,0.871-6.414,4.444-6.646,10.308
							c-0.343,8.678,6.005,11.391,6.483,11.875c-0.621,0.244-7.24,3.064-8.383,8.831c-1.288,6.496,1.375,11.494,5.327,14.508
							c-1.522,0.655-6.912,3.686-7.859,9.264c-0.974,5.737,1.878,12.488,7.277,14.295c9.903,3.314,39.51,12.557,53.409,18.946
							c27.351,12.572,118.914,71.251,162.906,78.173c32.98,1.315,48.312-44.722,34.553-81.028
							C2114.279,1288.953,2087.96,1279.838,2087.96,1279.838z"/>
						<g>
							<path style="fill:#363E44;" d="M1884.561,1295.773c-0.118,0-0.239-0.009-0.359-0.03c-1.201-0.196-2.014-1.33-1.817-2.531
								l1.527-9.292c0.197-1.201,1.331-2.044,2.532-1.816c1.201,0.196,2.014,1.33,1.817,2.531l-1.527,9.292
								C1886.555,1295.006,1885.62,1295.773,1884.561,1295.773z"/>
							<path style="fill:#363E44;" d="M1888.625,1273.432c-0.098,0-0.197-0.006-0.296-0.019c-1.206-0.161-2.053-1.272-1.891-2.477
								l1.417-10.559c0.162-1.205,1.282-2.042,2.477-1.891c1.206,0.161,2.053,1.272,1.891,2.477l-1.417,10.559
								C1890.658,1272.629,1889.712,1273.432,1888.625,1273.432z"/>
							<path style="fill:#363E44;" d="M1891.398,1249.653c-0.118,0-0.24-0.009-0.361-0.03c-1.201-0.198-2.013-1.332-1.815-2.533
								c0.286-1.728,0.533-3.288,0.779-4.85c0.248-1.571,0.496-3.144,0.782-4.883c0.199-1.201,1.324-2.029,2.534-1.814
								c1.201,0.198,2.013,1.332,1.815,2.533c-0.286,1.728-0.533,3.288-0.779,4.85c-0.247,1.571-0.496,3.144-0.782,4.883
								C1893.392,1248.887,1892.458,1249.653,1891.398,1249.653z"/>
							<path style="fill:#363E44;" d="M1895.427,1230.349c-0.168,0-0.338-0.019-0.508-0.058c-1.185-0.28-1.918-1.468-1.639-2.651
								l2.143-9.081c0.279-1.188,1.469-1.906,2.65-1.64c1.185,0.28,1.918,1.468,1.639,2.651l-2.143,9.081
								C1897.33,1229.667,1896.425,1230.349,1895.427,1230.349z"/>
						</g>
					</g>
				</g>
				<g>
					<path style="fill:#84524D;" d="M1763.291,1262.369l-38.152,96.368c-10.326,26.083-40.102,38.55-65.932,27.606l0,0
						c-28.035-11.879-39.012-45.861-23.223-71.896l52.979-87.357L1763.291,1262.369z"/>
					<g>
						<g>
							<path style="fill:#E6D0BE;" d="M1851.772,1303.498c-0.906,0-1.755-0.562-2.076-1.463l-51.581-144.824l-112.666,0.988
								c-0.006,0-0.013,0-0.019,0c-1.208,0-2.193-0.975-2.204-2.184c-0.011-1.218,0.967-2.212,2.184-2.223l114.234-1.001
								c0.007,0,0.013,0,0.019,0c0.932,0,1.762,0.585,2.076,1.463l52.107,146.301c0.409,1.147-0.189,2.408-1.336,2.817
								C1852.267,1303.457,1852.017,1303.498,1851.772,1303.498z"/>
						</g>
						<g>
							<polygon style="fill:#363E44;" points="1728.953,1311.284 1843.187,1311.284 1791.08,1164.984 1676.846,1164.984 							"/>
						</g>
					</g>
					<g>
						<path style="fill:#84524D;" d="M1713.883,1259.653c-10.075,5.734-11.295,12.448-8.102,18.056
							c3.192,5.609,9.587,7.988,19.662,2.254c10.075-5.734,20.015-17.411,16.823-23.02S1723.958,1253.919,1713.883,1259.653z"/>
						<path style="fill:#84524D;" d="M1705.052,1239.003c-11.677,6.646-13.091,14.427-9.391,20.927
							c3.7,6.5,11.112,9.258,22.789,2.612c11.677-6.646,23.198-20.18,19.498-26.68
							C1734.249,1229.362,1716.729,1232.356,1705.052,1239.003z"/>
						<path style="fill:#84524D;" d="M1695.37,1227.125c-10.075,5.734-16.47,3.355-19.662-2.254s-1.973-12.322,8.103-18.056
							c10.075-5.734,25.191-8.318,28.383-2.71C1715.385,1209.714,1705.445,1221.391,1695.37,1227.125z"/>
						<path style="fill:#84524D;" d="M1708.615,1245.263c-11.677,6.646-19.089,3.888-22.789-2.612
							c-3.7-6.5-2.286-14.281,9.391-20.927c11.677-6.646,29.196-9.641,32.896-3.141
							C1731.813,1225.083,1720.293,1238.617,1708.615,1245.263z"/>
						<path style="fill:#363E44;" d="M1715.063,1285.465c-4.789,0-8.729-2.33-11.196-6.667c-1.999-3.51-2.37-7.207-1.125-10.678
							c-3.781-0.925-6.853-3.338-8.995-7.099c-1.951-3.428-2.54-6.994-1.749-10.445c-3.37-1.08-6.134-3.409-8.085-6.834
							c-0.601-1.059-0.232-2.404,0.825-3.006c1.061-0.603,2.401-0.23,3.005,0.824c1.738,3.056,4.221,4.807,7.378,5.212
							c0.688,0.088,1.292,0.495,1.635,1.095c0.342,0.603,0.382,1.33,0.108,1.967c-1.265,2.922-1.024,5.954,0.713,9.006
							c1.955,3.437,4.839,5.218,8.569,5.3c0.804,0.017,1.533,0.471,1.906,1.183c0.371,0.712,0.326,1.571-0.12,2.24
							c-1.927,2.897-2.007,5.944-0.234,9.055c1.848,3.251,4.676,4.723,8.356,4.394c1.236-0.105,2.284,0.785,2.393,1.997
							c0.109,1.212-0.786,2.283-1.997,2.393C1715.979,1285.446,1715.517,1285.465,1715.063,1285.465z"/>
					</g>
				</g>
				<path style="fill:#B77250;" d="M2082.7,1268.542c-2.335-1.058,39.782,86.174-20.896,116.531c0,0,20.703,14.815,45.623,7.783
					C2132.347,1385.824,2158.338,1302.805,2082.7,1268.542z"/>
				<path style="fill:#B77250;" d="M1734.223,1355.552c0,0-80.825,31.158-97.195-54.258l-14.009,33.349
					c0,0-11.021,40.315,28.019,58.213C1690.078,1410.753,1721.495,1384.825,1734.223,1355.552z"/>
			</g>
			<g>
				
					<ellipse transform="matrix(0.1222 -0.9925 0.9925 0.1222 624.502 2768.7375)" style="fill:#363E44;" cx="1877.494" cy="1031.321" rx="55.166" ry="55.166"/>
				<path style="fill:#84524D;" d="M1839.391,1058.818L1839.391,1058.818c6.981-3.857,18.941-14.157,22.797-7.177l45.257,72.374
					c3.857,6.981-19.294,4.551-26.275,8.408l0,0c-6.981,3.857-15.766,1.324-19.623-5.656l-27.813-48.326
					C1829.877,1071.46,1832.41,1062.674,1839.391,1058.818z"/>
				<path style="fill:#84524D;" d="M1844.613,1129.606c-6.255,22.907,11.749,57.564,11.749,57.564s66.3-32.176,66.3-57.564
					c0-6.489-17.472-11.749-39.025-11.749S1846.323,1123.346,1844.613,1129.606z"/>
				<g>
					<path style="fill:#84524D;" d="M1802.861,1078.729c6.262,11.718,42.966,6.68,42.966,6.68l32.008-24.962
						c8.34-16.727,1.541-37.048-15.187-45.388c-16.727-8.34-37.048-1.54-45.388,15.187
						C1817.261,1030.247,1796.484,1066.794,1802.861,1078.729z"/>
					<path style="fill:#84524D;" d="M1816.771,1039.946c0,0-12.933,4.665-13.652,7.24c-0.859,3.074,7.751,9.503,7.751,9.503
						S1816.534,1039.855,1816.771,1039.946z"/>
					<g>
						<path style="fill:#FFFFFF;" d="M1844.75,1052.278c0,0-3.711-5.255-9.823-8.303c-1.3-0.648-4.035,10.982-2.507,11.008
							C1839.139,1055.098,1844.75,1052.278,1844.75,1052.278z"/>
						<g>
							<defs>
								<path id="SVGID_1_" d="M1844.75,1052.278c0,0-5.458-7.729-14.038-9.876c-8.58-2.146-17.034,2.103-17.034,2.103
									s5.458,7.729,14.038,9.876C1836.296,1056.527,1844.75,1052.278,1844.75,1052.278z"/>
							</defs>
							<clipPath id="SVGID_00000158718645822822572620000004113454066427232185_">
								<use xlink:href="#SVGID_1_"  style="overflow:visible;"/>
							</clipPath>
							<path style="clip-path:url(#SVGID_00000158718645822822572620000004113454066427232185_);fill:#363E44;" d="
								M1834.801,1043.579c-2.027-6.058-8.582-9.326-14.64-7.299c-6.058,2.027-9.326,8.581-7.299,14.64
								c2.027,6.058,8.582,9.326,14.64,7.299C1833.56,1056.191,1836.828,1049.637,1834.801,1043.579z"/>
						</g>
					</g>
					<path style="fill:#363E44;" d="M1817.87,1068.374c-2.431,0-4.72-1.285-5.986-3.409c-0.623-1.046-0.281-2.397,0.765-3.021
						c1.046-0.626,2.399-0.28,3.02,0.766c0.515,0.863,1.483,1.358,2.478,1.24c0.951-0.108,1.78-0.768,2.108-1.681
						c0.411-1.145,1.673-1.741,2.819-1.33c1.145,0.413,1.74,1.674,1.328,2.819c-0.891,2.479-3.15,4.274-5.757,4.571
						C1818.386,1068.359,1818.127,1068.374,1817.87,1068.374z"/>
				</g>
				<path style="fill:#363E44;" d="M1901.953,1066.601c0,0-47.557,2.098-77.63-45.459c-30.073-47.557,52.453-44.76,86.722-28.674
					C1932.995,1002.771,1901.953,1066.601,1901.953,1066.601z"/>
				<path style="fill:#40484C;" d="M1890.171,1106.253c-3.175,0-8.528-0.641-13.125-4.321c-4.86-3.891-7.573-10.086-8.063-18.416
					c-0.747-12.677,8.091-19.615,13.939-24.204c1.549-1.216,3.631-2.851,4.077-3.66c-0.392-0.405-1.96-1.511-8.132-3.161
					c-27.374-7.325-42.603-38.17-43.238-39.479c-0.53-1.095-0.073-2.412,1.021-2.944c1.096-0.534,2.413-0.073,2.944,1.02
					c0.147,0.301,15.006,30.348,40.411,37.146c7.743,2.07,10.827,3.85,11.384,6.563c0.613,2.991-2.193,5.193-5.746,7.981
					c-5.432,4.265-12.872,10.103-12.261,20.479c0.413,7.009,2.561,12.126,6.385,15.205c5.352,4.317,12.396,3.271,12.466,3.258
					c1.213-0.2,2.329,0.63,2.521,1.827c0.191,1.201-0.619,2.328-1.817,2.524C1892.813,1106.092,1891.767,1106.253,1890.171,1106.253
					z M1887.106,1055.789h0.022H1887.106z"/>
				<g>
					<path style="fill:#363E44;" d="M1862.381,1004.936c0,0,20.054-96.288,50.011-86.559
						C1942.348,928.105,1884.158,1014.408,1862.381,1004.936z"/>
					<path style="fill:#363E44;" d="M1882.027,1013.768c0,0,42.975-113.368,79.413-95.744
						C1997.877,935.649,1908.083,1029.502,1882.027,1013.768z"/>
					<path style="fill:#363E44;" d="M1890.459,1013.609c0,0,96.599-103.072,126.056-68.74
						C2045.972,979.201,1910.08,1041.51,1890.459,1013.609z"/>
					<path style="fill:#363E44;" d="M1907.748,1027.324c0,0,86.407-67.172,106.205-36.463
						C2033.751,1021.571,1920.434,1051.697,1907.748,1027.324z"/>
					<path style="fill:#363E44;" d="M1962.845,1033.862c-14.733,0-29.973-2.068-41.981-5.907
						c-13.291-4.25-21.013-10.256-22.332-17.372l-0.335-1.808l1.717-0.654c3.103-1.184,76.332-28.812,104.627-14.601
						c5.443,2.733,8.977,6.849,10.501,12.236c1.696,5.987,0.194,11.472-4.345,15.859
						C2001.999,1030.029,1982.893,1033.862,1962.845,1033.862z M1903.406,1011.531c2.021,4.67,8.584,8.958,18.801,12.225
						c26.478,8.466,72.012,7.665,85.428-5.309c3.392-3.282,4.429-7.039,3.169-11.491c-1.192-4.205-3.886-7.312-8.238-9.498
						C1978.413,985.339,1915.244,1007.236,1903.406,1011.531z"/>
					<path style="fill:#363E44;" d="M1899.064,1008.762c-1.74,0-3.367-0.297-4.872-0.893l-1.708-0.678l0.36-1.801
						c0.65-3.258,16.231-79.958,43.314-96.355c5.211-3.155,10.579-3.953,15.948-2.38c5.971,1.752,9.816,5.944,11.117,12.122
						c4.325,20.546-19.679,60.253-42.437,79.431C1912.503,1005.188,1905.106,1008.762,1899.064,1008.762z M1897.59,1004.247
						c5.025,0.79,12.155-2.5,20.357-9.412c21.26-17.914,44.809-56.889,40.964-75.15c-0.973-4.62-3.603-7.497-8.044-8.799
						c-4.195-1.235-8.26-0.6-12.425,1.919C1915.321,926.801,1900.254,991.938,1897.59,1004.247z"/>
					<path style="fill:#363E44;" d="M1872.613,993.109c0,0,15.346-45.07-7.102-43.472
						C1843.063,951.237,1872.613,993.109,1872.613,993.109z"/>
					<path style="fill:#363E44;" d="M1922.844,1027.06c0,0,61.193-13.63,54.319,18.111
						C1970.29,1076.912,1922.844,1027.06,1922.844,1027.06z"/>
				</g>
			</g>
			<g>
				<g>
					<polygon style="fill:#E6D0BE;" points="1979.051,2035.501 1898.563,2035.501 1883.151,2147.448 2004.352,2147.448 					"/>
					<polygon style="fill:#84524D;" points="1648.039,1860.044 1771.46,1860.044 1674.661,2036.905 1593.854,2036.905 					"/>
					<polygon style="fill:#84524D;" points="1907.398,1860.044 2017.016,1860.044 1972.372,2035.501 1902.986,2035.501 					"/>
					<path style="fill:#E6D0BE;" d="M1694.324,2147.507h-232.802c0,0,40.837-106.931,132.331-110.554l80.808-0.049
						L1694.324,2147.507z"/>
					<path style="fill:#363E44;" d="M1986.885,1350.019c2.703,10.617-4.72,21.162,1.3,28.357
						c67.759,80.98,70.496,317.141,75.006,510.724l-163.552,0.001l-13.368-359.231l-92.697,359.231h-160.668l168.537-512.637
						v-26.443H1986.885z"/>
					<g>
						<path style="fill:#84524D;" d="M1921.193,2102.91c-2.223,0-4.452-0.495-6.56-1.489c-4.558-2.154-7.672-6.236-8.546-11.201
							c-0.874-4.964,0.662-9.864,4.212-13.445c3.55-3.576,8.441-5.158,13.407-4.321l36.58,6.122
							c0.921,0.155,1.645,0.872,1.806,1.792c0.161,0.919-0.273,1.84-1.087,2.301l-32.293,18.239
							C1926.354,2102.241,1923.778,2102.91,1921.193,2102.91z M1921.125,2076.647c-2.88,0-5.612,1.132-7.697,3.234
							c-2.53,2.55-3.623,6.04-3.001,9.578c0.622,3.536,2.842,6.443,6.088,7.977c3.248,1.532,6.903,1.403,10.031-0.366l26.868-15.175
							l-30.435-5.094C1922.359,2076.698,1921.739,2076.647,1921.125,2076.647z"/>
						<path style="fill:#84524D;" d="M1998.894,2089.237c-0.86,0-1.728-0.071-2.599-0.217l-36.579-6.124
							c-0.921-0.155-1.645-0.871-1.807-1.792c-0.161-0.919,0.273-1.84,1.087-2.3l32.293-18.237c4.39-2.475,9.521-2.664,14.079-0.514
							c4.559,2.154,7.674,6.236,8.547,11.203c0.874,4.962-0.662,9.862-4.21,13.441
							C2006.777,2087.647,2002.939,2089.237,1998.894,2089.237z M1966.587,2079.578l30.434,5.096
							c3.543,0.594,7.025-0.53,9.553-3.082c2.528-2.55,3.622-6.038,3-9.576c-0.622-3.536-2.842-6.445-6.089-7.979
							c-3.249-1.532-6.902-1.399-10.03,0.368L1966.587,2079.578z"/>
					</g>
					
						<rect x="1883.151" y="2147.448" transform="matrix(-1 -1.224647e-16 1.224647e-16 -1 3887.5034 4312.4478)" style="fill:#D3BBA3;" width="121.201" height="17.552"/>
					
						<rect x="1461.522" y="2147.448" transform="matrix(-1 -1.224647e-16 1.224647e-16 -1 3155.8467 4312.4478)" style="fill:#D3BBA3;" width="232.802" height="17.552"/>
					<path style="fill:#FFFFFF;" d="M1886.271,1532.072c-0.259,0-0.523-0.045-0.78-0.142c-1.138-0.43-1.712-1.702-1.281-2.84
						l10.188-26.931c0.253-0.669,0.813-1.173,1.504-1.354l23.416-6.122c1.183-0.288,2.383,0.4,2.689,1.575
						c0.309,1.177-0.397,2.382-1.574,2.69l-22.315,5.834l-9.785,25.866C1887.999,1531.53,1887.161,1532.072,1886.271,1532.072z"/>
					<g>
						<path style="fill:#84524D;" d="M1590.92,2039.174c-0.197,0-0.395-0.026-0.591-0.08l-35.732-9.937
							c-4.857-1.351-8.618-4.85-10.318-9.595c-1.7-4.745-1.017-9.834,1.876-13.961c2.893-4.127,7.444-6.507,12.486-6.529
							c0.021,0,0.044,0,0.067,0c5.014,0,9.555,2.339,12.469,6.423l21.536,30.195c0.542,0.762,0.547,1.78,0.011,2.546
							C1592.305,2038.834,1591.627,2039.174,1590.92,2039.174z M1558.707,2003.478c-0.016,0-0.032,0-0.047,0
							c-3.593,0.015-6.834,1.711-8.896,4.652c-2.061,2.939-2.548,6.565-1.336,9.944c1.212,3.381,3.891,5.873,7.351,6.834
							l29.731,8.27l-17.919-25.123C1565.515,2005.144,1562.278,2003.478,1558.707,2003.478z"/>
						<path style="fill:#84524D;" d="M1623.263,2074.962c-5.015,0-9.558-2.341-12.471-6.426l-21.536-30.195
							c-0.542-0.762-0.547-1.78-0.011-2.546s1.496-1.112,2.395-0.859l35.732,9.94c4.856,1.351,8.617,4.846,10.318,9.591
							c1.701,4.747,1.017,9.836-1.876,13.966c-2.893,4.127-7.443,6.507-12.484,6.527
							C1623.307,2074.962,1623.285,2074.962,1623.263,2074.962z M1596.461,2040.852l17.918,25.124
							c2.086,2.927,5.348,4.635,8.932,4.579c3.592-0.015,6.832-1.711,8.894-4.652c2.062-2.939,2.548-6.565,1.336-9.948
							c-1.211-3.378-3.891-5.87-7.35-6.83L1596.461,2040.852z"/>
					</g>
					<path style="fill:#FFFFFF;" d="M1975.6,1378.666h-115.739c-1.217,0-2.203-0.986-2.203-2.203c0-1.218,0.987-2.204,2.203-2.204
						H1975.6c1.217,0,2.203,0.986,2.203,2.204C1977.803,1377.68,1976.816,1378.666,1975.6,1378.666z"/>
				</g>
			</g>
		</g>
	</g>
</g>
</svg>
