<?xml version="1.0"?>
<svg width="128" height="160" xmlns="http://www.w3.org/2000/svg" xmlns:svg="http://www.w3.org/2000/svg" enable-background="new 0 0 128 128" version="1.1" xml:space="preserve">
 <title>Miscellaneous 46 solid</title>
 <g class="layer">
  <title>Layer 1</title>
  <path d="m72,41c1.1,0 2,-0.9 2,-2l0,-8c0,-1.1 -0.9,-2 -2,-2s-2,0.9 -2,2l0,8c0,1.1 0.9,2 2,2z" id="svg_1"/>
  <path d="m56,41c1.1,0 2,-0.9 2,-2l0,-8c0,-1.1 -0.9,-2 -2,-2s-2,0.9 -2,2l0,8c0,1.1 0.9,2 2,2z" id="svg_2"/>
  <path d="m64,41c1.1,0 2,-0.9 2,-2l0,-16c0,-1.1 -0.9,-2 -2,-2s-2,0.9 -2,2l0,16c0,1.1 0.9,2 2,2z" id="svg_3"/>
  <path d="m27,20c1.1,0 2,-0.9 2,-2l0,-8c0,-1.1 -0.9,-2 -2,-2s-2,0.9 -2,2l0,8c0,1.1 0.9,2 2,2z" id="svg_4"/>
  <path d="m11,20c1.1,0 2,-0.9 2,-2l0,-8c0,-1.1 -0.9,-2 -2,-2s-2,0.9 -2,2l0,8c0,1.1 0.9,2 2,2z" id="svg_5"/>
  <path d="m19,20c1.1,0 2,-0.9 2,-2l0,-16c0,-1.1 -0.9,-2 -2,-2s-2,0.9 -2,2l0,16c0,1.1 0.9,2 2,2z" id="svg_6"/>
  <path d="m38,43c0,-10.5 -8.5,-19 -19,-19s-19,8.5 -19,19s8.5,19 19,19s19,-8.5 19,-19zm-21,10l0,-0.9c-0.3,-0.1 -0.7,-0.2 -1,-0.4c-1.8,-0.7 -3.2,-2.2 -3.9,-4c-0.4,-1 0.2,-2.2 1.2,-2.6s2.2,0.2 2.6,1.2l0,0c0.3,0.8 0.9,1.4 1.7,1.7c0.9,0.4 2,0.5 3,0.1c0.4,-0.2 1.1,-0.7 0.9,-1.3s-1.1,-1 -2.9,-1.5s-4,-1.1 -5.2,-3.1c-1.1,-1.7 -1.1,-4 0,-5.8c0.8,-1.2 2.1,-2 3.6,-2.4l0,-1c0,-1.1 0.9,-2 2,-2s2,0.9 2,2l0,1.2c2.3,0.6 4.2,2.3 4.9,4.5c0.3,1.1 -0.3,2.2 -1.4,2.5s-2.2,-0.3 -2.5,-1.4c-0.4,-0.9 -1.2,-1.6 -2.2,-1.8c-1.2,-0.2 -2.6,0 -3.2,0.8c-0.3,0.4 -0.3,1 0,1.4c0.4,0.7 1.6,1 2.9,1.4c2,0.5 4.7,1.3 5.6,4.1c0.8,2.6 -0.6,5.4 -3.2,6.2c-0.4,0.1 -0.7,0.3 -1.1,0.3l0,0.8c0,1.1 -0.9,2 -2,2s-1.9,-0.9 -1.8,-2l0,0z" id="svg_7"/>
  <path d="m117,20c1.1,0 2,-0.9 2,-2l0,-8c0,-1.1 -0.9,-2 -2,-2s-2,0.9 -2,2l0,8c0,1.1 0.9,2 2,2z" id="svg_8"/>
  <path d="m101,20c1.1,0 2,-0.9 2,-2l0,-8c0,-1.1 -0.9,-2 -2,-2s-2,0.9 -2,2l0,8c0,1.1 0.9,2 2,2z" id="svg_9"/>
  <path d="m109,20c1.1,0 2,-0.9 2,-2l0,-16c0,-1.1 -0.9,-2 -2,-2s-2,0.9 -2,2l0,16c0,1.1 0.9,2 2,2z" id="svg_10"/>
  <path d="m119,89.3c-1.1,0 -2,0.9 -2,2l0,22.7c0,1.1 -0.9,2 -2,2l-102,0c-1.1,0 -2,-0.9 -2,-2l0,-23c0,-1.1 -0.9,-2 -2,-2s-2,0.9 -2,2l0,23c0,3.3 2.7,6 6,6l42,0l0,4l-8,0c-1.1,0 -2,0.9 -2,2s0.9,2 2,2l34,0c1.1,0 2,-0.9 2,-2s-0.9,-2 -2,-2l-8,0l0,-4l42,0c3.3,0 6,-2.7 6,-6l0,-22.7c0,-1.1 -0.9,-2 -2,-2zm-50,34.7l-10,0l0,-4l10,0l0,4z" id="svg_11"/>
  <path d="m64,83c10.5,0 19,-8.5 19,-19s-8.5,-19 -19,-19s-19,8.5 -19,19s8.5,19 19,19zm2.5,-15.1c-0.2,-0.7 -1.1,-1 -2.9,-1.5s-4,-1.1 -5.2,-3.1c-1.1,-1.7 -1.1,-4 0,-5.8c0.9,-1.2 2.1,-2.1 3.6,-2.4l0,-1.1c0,-1.1 0.9,-2 2,-2s2,0.9 2,2l0,1.2c2.3,0.6 4.2,2.3 4.9,4.5c0.3,1.1 -0.3,2.2 -1.4,2.5c-1.1,0.3 -2.2,-0.3 -2.5,-1.4l0,0c-0.4,-0.9 -1.2,-1.6 -2.2,-1.8c-1.2,-0.2 -2.7,0 -3.2,0.8c-0.3,0.4 -0.3,1 0,1.4c0.4,0.7 1.6,1 2.9,1.4c2,0.5 4.7,1.3 5.6,4.1c0.8,2.6 -0.6,5.4 -3.2,6.2c-0.4,0.1 -0.7,0.3 -1.1,0.3l0,0.8c0,1.1 -0.9,2 -2,2s-2,-0.9 -2,-2l0,-0.9c-0.3,-0.1 -0.7,-0.2 -1,-0.4c-1.8,-0.7 -3.2,-2.2 -3.9,-4c-0.4,-1 0.2,-2.2 1.2,-2.6c1,-0.4 2.2,0.2 2.6,1.2c0.3,0.8 0.9,1.4 1.7,1.7c0.9,0.4 2,0.5 3,0.1c0.6,-0.1 1.3,-0.6 1.1,-1.2z" id="svg_12"/>
  <path d="m109,24c-10.5,0 -19,8.5 -19,19s8.5,19 19,19s19,-8.5 19,-19s-8.5,-19 -19,-19zm-2.2,16.2c0.4,0.7 1.6,1 2.9,1.4c2,0.5 4.7,1.3 5.6,4.1c0.8,2.6 -0.6,5.4 -3.2,6.2c-0.4,0.1 -0.7,0.3 -1.1,0.3l0,0.8c0,1.1 -0.9,2 -2,2s-2,-0.9 -2,-2l0,-0.9c-0.3,-0.1 -0.7,-0.2 -1,-0.4c-1.8,-0.7 -3.2,-2.2 -3.9,-4c-0.4,-1 0.2,-2.2 1.2,-2.6c1,-0.4 2.2,0.2 2.6,1.2c0.3,0.8 0.9,1.4 1.7,1.7c0.9,0.4 2,0.5 3,0.1c0.4,-0.2 1.2,-0.7 0.9,-1.3s-1.1,-1 -2.9,-1.5s-4,-1.1 -5.2,-3.1c-1.1,-1.7 -1.1,-4 0,-5.8c0.8,-1.2 2.1,-2 3.5,-2.4l0,-1c0,-1.1 0.9,-2 2,-2s2,0.9 2,2l0,1.2c2.3,0.6 4.2,2.3 4.9,4.5c0.3,1.1 -0.3,2.2 -1.4,2.5c-1.1,0.3 -2.2,-0.3 -2.5,-1.4l0,0c-0.4,-0.9 -1.2,-1.6 -2.2,-1.8c-1.2,-0.2 -2.7,0 -3.2,0.8c0,0.4 0,0.9 0.3,1.4z" id="svg_13"/>
 </g>
</svg>