<svg width="128" height="128" viewBox="0 0 128 128" fill="none" xmlns="http://www.w3.org/2000/svg">
<g clip-path="url(#clip0_130_31)">
<path d="M72 40.7438C73.1 40.7438 74 39.8494 74 38.7563V30.8063C74 29.7131 73.1 28.8188 72 28.8188C70.9 28.8188 70 29.7131 70 30.8063V38.7563C70 39.8494 70.9 40.7438 72 40.7438Z" fill="black"/>
<path d="M56 40.7438C57.1 40.7438 58 39.8494 58 38.7563V30.8063C58 29.7131 57.1 28.8188 56 28.8188C54.9 28.8188 54 29.7131 54 30.8063V38.7563C54 39.8494 54.9 40.7438 56 40.7438Z" fill="black"/>
<path d="M64 40.7437C65.1 40.7437 66 39.8494 66 38.7562V22.8562C66 21.7631 65.1 20.8687 64 20.8687C62.9 20.8687 62 21.7631 62 22.8562V38.7562C62 39.8494 62.9 40.7437 64 40.7437Z" fill="black"/>
<path d="M27 19.875C28.1 19.875 29 18.9806 29 17.8875V9.93751C29 8.84438 28.1 7.95001 27 7.95001C25.9 7.95001 25 8.84438 25 9.93751V17.8875C25 18.9806 25.9 19.875 27 19.875Z" fill="black"/>
<path d="M11 19.875C12.1 19.875 13 18.9806 13 17.8875V9.93751C13 8.84438 12.1 7.95001 11 7.95001C9.9 7.95001 9 8.84438 9 9.93751V17.8875C9 18.9806 9.9 19.875 11 19.875Z" fill="black"/>
<path d="M19 19.875C20.1 19.875 21 18.9806 21 17.8875V1.9875C21 0.894375 20.1 0 19 0C17.9 0 17 0.894375 17 1.9875V17.8875C17 18.9806 17.9 19.875 19 19.875Z" fill="black"/>
<path d="M38 42.7313C38 32.2969 29.5 23.85 19 23.85C8.5 23.85 0 32.2969 0 42.7313C0 53.1656 8.5 61.6125 19 61.6125C29.5 61.6125 38 53.1656 38 42.7313ZM17 52.6688V51.7744C16.7 51.675 16.3 51.5756 16 51.3769C14.2 50.6813 12.8 49.1906 12.1 47.4019C11.7 46.4081 12.3 45.2156 13.3 44.8181C14.3 44.4206 15.5 45.0169 15.9 46.0106C16.2 46.8056 16.8 47.4019 17.6 47.7C18.5 48.0975 19.6 48.1969 20.6 47.7994C21 47.6006 21.7 47.1038 21.5 46.5075C21.3 45.9113 20.4 45.5138 18.6 45.0169C16.8 44.52 14.6 43.9238 13.4 41.9363C12.3 40.2469 12.3 37.9613 13.4 36.1725C14.2 34.98 15.5 34.185 17 33.7875V32.7938C17 31.7006 17.9 30.8063 19 30.8063C20.1 30.8063 21 31.7006 21 32.7938V33.9863C23.3 34.5825 25.2 36.2719 25.9 38.4581C26.2 39.5513 25.6 40.6444 24.5 40.9425C23.4 41.2406 22.3 40.6444 22 39.5513C21.6 38.6569 20.8 37.9613 19.8 37.7625C18.6 37.5638 17.2 37.7625 16.6 38.5575C16.3 38.955 16.3 39.5513 16.6 39.9488C17 40.6444 18.2 40.9425 19.5 41.34C21.5 41.8369 24.2 42.6319 25.1 45.4144C25.9 47.9981 24.5 50.7806 21.9 51.5756C21.5 51.675 21.2 51.8738 20.8 51.8738V52.6688C20.8 53.7619 19.9 54.6563 18.8 54.6563C17.7 54.6563 16.9 53.7619 17 52.6688Z" fill="black"/>
<path d="M117 19.875C118.1 19.875 119 18.9806 119 17.8875V9.93751C119 8.84438 118.1 7.95001 117 7.95001C115.9 7.95001 115 8.84438 115 9.93751V17.8875C115 18.9806 115.9 19.875 117 19.875Z" fill="black"/>
<path d="M101 19.875C102.1 19.875 103 18.9806 103 17.8875V9.93751C103 8.84438 102.1 7.95001 101 7.95001C99.9 7.95001 99 8.84438 99 9.93751V17.8875C99 18.9806 99.9 19.875 101 19.875Z" fill="black"/>
<path d="M109 19.875C110.1 19.875 111 18.9806 111 17.8875V1.9875C111 0.894375 110.1 0 109 0C107.9 0 107 0.894375 107 1.9875V17.8875C107 18.9806 107.9 19.875 109 19.875Z" fill="black"/>
<path d="M119 88.7419C117.9 88.7419 117 89.6363 117 90.7294V113.287C117 114.381 116.1 115.275 115 115.275H13C11.9 115.275 11 114.381 11 113.287V90.4312C11 89.3381 10.1 88.4437 9 88.4437C7.9 88.4437 7 89.3381 7 90.4312V113.287C7 116.567 9.7 119.25 13 119.25H55V123.225H47C45.9 123.225 45 124.119 45 125.212C45 126.306 45.9 127.2 47 127.2H81C82.1 127.2 83 126.306 83 125.212C83 124.119 82.1 123.225 81 123.225H73V119.25H115C118.3 119.25 121 116.567 121 113.287V90.7294C121 89.6363 120.1 88.7419 119 88.7419ZM69 123.225H59V119.25H69V123.225Z" fill="black"/>
<path d="M64 82.4813C74.5 82.4813 83 74.0344 83 63.6C83 53.1656 74.5 44.7188 64 44.7188C53.5 44.7188 45 53.1656 45 63.6C45 74.0344 53.5 82.4813 64 82.4813ZM66.5 67.4756C66.3 66.78 65.4 66.4819 63.6 65.985C61.8 65.4881 59.6 64.8919 58.4 62.9044C57.3 61.215 57.3 58.9294 58.4 57.1406C59.3 55.9481 60.5 55.0537 62 54.7556V53.6625C62 52.5694 62.9 51.675 64 51.675C65.1 51.675 66 52.5694 66 53.6625V54.855C68.3 55.4513 70.2 57.1406 70.9 59.3269C71.2 60.42 70.6 61.5131 69.5 61.8113C68.4 62.1094 67.3 61.5131 67 60.42C66.6 59.5256 65.8 58.83 64.8 58.6313C63.6 58.4325 62.1 58.6312 61.6 59.4262C61.3 59.8237 61.3 60.42 61.6 60.8175C62 61.5131 63.2 61.8112 64.5 62.2087C66.5 62.7056 69.2 63.5006 70.1 66.2831C70.9 68.8669 69.5 71.6494 66.9 72.4444C66.5 72.5438 66.2 72.7425 65.8 72.7425V73.5375C65.8 74.6306 64.9 75.525 63.8 75.525C62.7 75.525 61.8 74.6306 61.8 73.5375V72.6431C61.5 72.5437 61.1 72.4444 60.8 72.2456C59 71.55 57.6 70.0594 56.9 68.2706C56.5 67.2769 57.1 66.0844 58.1 65.6869C59.1 65.2894 60.3 65.8856 60.7 66.8794C61 67.6744 61.6 68.2706 62.4 68.5688C63.3 68.9663 64.4 69.0656 65.4 68.6681C66 68.5687 66.7 68.0719 66.5 67.4756Z" fill="black"/>
<path d="M109 23.85C98.5 23.85 90 32.2969 90 42.7313C90 53.1656 98.5 61.6125 109 61.6125C119.5 61.6125 128 53.1656 128 42.7313C128 32.2969 119.5 23.85 109 23.85ZM106.8 39.9488C107.2 40.6444 108.4 40.9425 109.7 41.34C111.7 41.8369 114.4 42.6319 115.3 45.4144C116.1 47.9981 114.7 50.7806 112.1 51.5756C111.7 51.675 111.4 51.8738 111 51.8738V52.6688C111 53.7619 110.1 54.6563 109 54.6563C107.9 54.6563 107 53.7619 107 52.6688V51.7744C106.7 51.675 106.3 51.5756 106 51.3769C104.2 50.6813 102.8 49.1906 102.1 47.4019C101.7 46.4081 102.3 45.2156 103.3 44.8181C104.3 44.4206 105.5 45.0169 105.9 46.0106C106.2 46.8056 106.8 47.4019 107.6 47.7C108.5 48.0975 109.6 48.1969 110.6 47.7994C111 47.6006 111.8 47.1038 111.5 46.5075C111.2 45.9113 110.4 45.5138 108.6 45.0169C106.8 44.52 104.6 43.9238 103.4 41.9363C102.3 40.2469 102.3 37.9613 103.4 36.1725C104.2 34.98 105.5 34.185 106.9 33.7875V32.7938C106.9 31.7006 107.8 30.8063 108.9 30.8063C110 30.8063 110.9 31.7006 110.9 32.7938V33.9863C113.2 34.5825 115.1 36.2719 115.8 38.4581C116.1 39.5513 115.5 40.6444 114.4 40.9425C113.3 41.2406 112.2 40.6444 111.9 39.5513C111.5 38.6569 110.7 37.9613 109.7 37.7625C108.5 37.5638 107 37.7625 106.5 38.5575C106.5 38.955 106.5 39.4519 106.8 39.9488Z" fill="black"/>
</g>
<defs>
<clipPath id="clip0_130_31">
<rect width="128" height="128" fill="white"/>
</clipPath>
</defs>
</svg>
