<svg id="visual" viewBox="0 0 900 600" width="900" height="600" xmlns="http://www.w3.org/2000/svg" xmlns:xlink="http://www.w3.org/1999/xlink" version="1.1"><g stroke-width="1" stroke-linejoin="bevel"><path d="M495 336L405 379L474 416Z" fill="#000000" stroke="#000000"></path><path d="M495 336L377 329L405 379Z" fill="#1c1c1c" stroke="#1c1c1c"></path><path d="M395 518L484 484L474 416Z" fill="#252525" stroke="#252525"></path><path d="M613 439L599 309L495 336Z" fill="#0b0b0b" stroke="#0b0b0b"></path><path d="M377 329L313 398L405 379Z" fill="#1c1c1c" stroke="#1c1c1c"></path><path d="M405 379L395 518L474 416Z" fill="#161616" stroke="#161616"></path><path d="M382 194L335 282L377 329Z" fill="#252525" stroke="#252525"></path><path d="M377 329L335 282L313 398Z" fill="#0b0b0b" stroke="#0b0b0b"></path><path d="M613 439L495 336L474 416Z" fill="#191919" stroke="#191919"></path><path d="M495 336L475 183L377 329Z" fill="#1c1c1c" stroke="#1c1c1c"></path><path d="M313 398L395 518L405 379Z" fill="#000000" stroke="#000000"></path><path d="M624 484L613 439L484 484Z" fill="#222222" stroke="#222222"></path><path d="M484 484L613 439L474 416Z" fill="#161616" stroke="#161616"></path><path d="M599 309L475 183L495 336Z" fill="#191919" stroke="#191919"></path><path d="M475 183L382 194L377 329Z" fill="#000000" stroke="#000000"></path><path d="M382 194L311 224L335 282Z" fill="#252525" stroke="#252525"></path><path d="M233 285L220 374L313 398Z" fill="#252525" stroke="#252525"></path><path d="M517 600L624 484L484 484Z" fill="#0b0b0b" stroke="#0b0b0b"></path><path d="M613 439L686 322L599 309Z" fill="#252525" stroke="#252525"></path><path d="M233 285L313 398L335 282Z" fill="#252525" stroke="#252525"></path><path d="M313 398L268 513L395 518Z" fill="#0b0b0b" stroke="#0b0b0b"></path><path d="M734 386L686 322L613 439Z" fill="#1c1c1c" stroke="#1c1c1c"></path><path d="M599 309L612 181L475 183Z" fill="#1c1c1c" stroke="#1c1c1c"></path><path d="M220 374L268 513L313 398Z" fill="#1c1c1c" stroke="#1c1c1c"></path><path d="M311 224L233 285L335 282Z" fill="#191919" stroke="#191919"></path><path d="M529 107L431 131L475 183Z" fill="#191919" stroke="#191919"></path><path d="M475 183L431 131L382 194Z" fill="#0b0b0b" stroke="#0b0b0b"></path><path d="M266 81L238 205L311 224Z" fill="#161616" stroke="#161616"></path><path d="M370 600L517 600L395 518Z" fill="#0f0f0f" stroke="#0f0f0f"></path><path d="M395 518L517 600L484 484Z" fill="#161616" stroke="#161616"></path><path d="M686 322L612 181L599 309Z" fill="#222222" stroke="#222222"></path><path d="M268 513L370 600L395 518Z" fill="#0f0f0f" stroke="#0f0f0f"></path><path d="M612 181L529 107L475 183Z" fill="#0b0b0b" stroke="#0b0b0b"></path><path d="M311 224L238 205L233 285Z" fill="#191919" stroke="#191919"></path><path d="M233 285L94 314L220 374Z" fill="#191919" stroke="#191919"></path><path d="M266 81L311 224L382 194Z" fill="#161616" stroke="#161616"></path><path d="M624 484L734 386L613 439Z" fill="#000000" stroke="#000000"></path><path d="M686 322L737 208L612 181Z" fill="#050505" stroke="#050505"></path><path d="M716 526L734 386L624 484Z" fill="#1f1f1f" stroke="#1f1f1f"></path><path d="M220 374L221 522L268 513Z" fill="#191919" stroke="#191919"></path><path d="M268 513L274 600L370 600Z" fill="#050505" stroke="#050505"></path><path d="M517 600L628 600L624 484Z" fill="#0f0f0f" stroke="#0f0f0f"></path><path d="M221 522L274 600L268 513Z" fill="#1c1c1c" stroke="#1c1c1c"></path><path d="M384 0L266 81L431 131Z" fill="#0f0f0f" stroke="#0f0f0f"></path><path d="M612 181L582 93L529 107Z" fill="#161616" stroke="#161616"></path><path d="M732 86L582 93L612 181Z" fill="#252525" stroke="#252525"></path><path d="M664 600L716 526L624 484Z" fill="#131313" stroke="#131313"></path><path d="M628 600L664 600L624 484Z" fill="#252525" stroke="#252525"></path><path d="M762 206L737 208L810 334Z" fill="#222222" stroke="#222222"></path><path d="M463 0L431 131L529 107Z" fill="#131313" stroke="#131313"></path><path d="M431 131L266 81L382 194Z" fill="#1f1f1f" stroke="#1f1f1f"></path><path d="M810 334L737 208L686 322Z" fill="#1c1c1c" stroke="#1c1c1c"></path><path d="M737 208L732 86L612 181Z" fill="#000000" stroke="#000000"></path><path d="M810 334L686 322L734 386Z" fill="#000000" stroke="#000000"></path><path d="M816 377L810 334L734 386Z" fill="#131313" stroke="#131313"></path><path d="M221 522L184 600L274 600Z" fill="#222222" stroke="#222222"></path><path d="M95 507L184 600L221 522Z" fill="#1f1f1f" stroke="#1f1f1f"></path><path d="M95 507L221 522L220 374Z" fill="#131313" stroke="#131313"></path><path d="M821 502L816 377L734 386Z" fill="#161616" stroke="#161616"></path><path d="M68 196L94 314L238 205Z" fill="#222222" stroke="#222222"></path><path d="M238 205L94 314L233 285Z" fill="#0f0f0f" stroke="#0f0f0f"></path><path d="M560 0L529 107L582 93Z" fill="#0b0b0b" stroke="#0b0b0b"></path><path d="M560 0L463 0L529 107Z" fill="#161616" stroke="#161616"></path><path d="M463 0L384 0L431 131Z" fill="#191919" stroke="#191919"></path><path d="M692 0L560 0L582 93Z" fill="#252525" stroke="#252525"></path><path d="M72 421L95 507L220 374Z" fill="#191919" stroke="#191919"></path><path d="M94 314L72 421L220 374Z" fill="#000000" stroke="#000000"></path><path d="M789 600L821 502L716 526Z" fill="#161616" stroke="#161616"></path><path d="M716 526L821 502L734 386Z" fill="#222222" stroke="#222222"></path><path d="M384 0L323 0L266 81Z" fill="#1c1c1c" stroke="#1c1c1c"></path><path d="M266 81L160 109L238 205Z" fill="#222222" stroke="#222222"></path><path d="M114 71L160 109L164 0Z" fill="#0b0b0b" stroke="#0b0b0b"></path><path d="M797 119L737 208L762 206Z" fill="#0b0b0b" stroke="#0b0b0b"></path><path d="M797 119L732 86L737 208Z" fill="#000000" stroke="#000000"></path><path d="M95 507L124 600L184 600Z" fill="#252525" stroke="#252525"></path><path d="M664 600L789 600L716 526Z" fill="#222222" stroke="#222222"></path><path d="M900 212L797 119L762 206Z" fill="#252525" stroke="#252525"></path><path d="M900 286L762 206L810 334Z" fill="#0b0b0b" stroke="#0b0b0b"></path><path d="M160 109L68 196L238 205Z" fill="#131313" stroke="#131313"></path><path d="M94 314L0 419L72 421Z" fill="#161616" stroke="#161616"></path><path d="M822 0L692 0L732 86Z" fill="#161616" stroke="#161616"></path><path d="M732 86L692 0L582 93Z" fill="#1f1f1f" stroke="#1f1f1f"></path><path d="M821 502L900 373L816 377Z" fill="#000000" stroke="#000000"></path><path d="M816 377L900 373L810 334Z" fill="#000000" stroke="#000000"></path><path d="M900 524L900 373L821 502Z" fill="#1c1c1c" stroke="#1c1c1c"></path><path d="M900 373L900 286L810 334Z" fill="#131313" stroke="#131313"></path><path d="M164 0L160 109L266 81Z" fill="#1c1c1c" stroke="#1c1c1c"></path><path d="M160 109L114 71L68 196Z" fill="#1c1c1c" stroke="#1c1c1c"></path><path d="M72 421L0 466L95 507Z" fill="#0b0b0b" stroke="#0b0b0b"></path><path d="M95 507L0 600L124 600Z" fill="#050505" stroke="#050505"></path><path d="M0 294L0 419L94 314Z" fill="#1c1c1c" stroke="#1c1c1c"></path><path d="M0 235L94 314L68 196Z" fill="#0f0f0f" stroke="#0f0f0f"></path><path d="M0 235L0 294L94 314Z" fill="#0f0f0f" stroke="#0f0f0f"></path><path d="M0 419L0 466L72 421Z" fill="#131313" stroke="#131313"></path><path d="M323 0L164 0L266 81Z" fill="#131313" stroke="#131313"></path><path d="M900 600L900 524L821 502Z" fill="#050505" stroke="#050505"></path><path d="M900 286L900 212L762 206Z" fill="#191919" stroke="#191919"></path><path d="M797 119L822 0L732 86Z" fill="#050505" stroke="#050505"></path><path d="M0 139L0 235L68 196Z" fill="#1f1f1f" stroke="#1f1f1f"></path><path d="M789 600L900 600L821 502Z" fill="#000000" stroke="#000000"></path><path d="M114 71L0 139L68 196Z" fill="#161616" stroke="#161616"></path><path d="M0 0L0 139L114 71Z" fill="#000000" stroke="#000000"></path><path d="M0 466L0 600L95 507Z" fill="#222222" stroke="#222222"></path><path d="M164 0L89 0L114 71Z" fill="#0f0f0f" stroke="#0f0f0f"></path><path d="M900 77L822 0L797 119Z" fill="#000000" stroke="#000000"></path><path d="M900 212L900 77L797 119Z" fill="#0b0b0b" stroke="#0b0b0b"></path><path d="M900 77L900 0L822 0Z" fill="#222222" stroke="#222222"></path><path d="M89 0L0 0L114 71Z" fill="#0f0f0f" stroke="#0f0f0f"></path></g></svg>