<?xml version="1.0" standalone="no"?>
<!DOCTYPE svg PUBLIC "-//W3C//DTD SVG 20010904//EN"
 "http://www.w3.org/TR/2001/REC-SVG-20010904/DTD/svg10.dtd">
<svg version="1.0" xmlns="http://www.w3.org/2000/svg"
 width="2000.000000pt" height="2000.000000pt" viewBox="0 0 2000.000000 2000.000000"
 preserveAspectRatio="xMidYMid meet">
<metadata>
Created by potrace 1.16, written by Peter Selinger 2001-2019
</metadata>
<g transform="translate(0.000000,2000.000000) scale(0.100000,-0.100000)"
fill="#000000" stroke="none">
<path d="M9400 18140 c-107 -66 -301 -183 -431 -262 -131 -79 -236 -144 -234
-146 1 -1 64 2 139 9 76 6 140 9 142 6 3 -3 -59 -92 -138 -199 -79 -106 -154
-208 -166 -225 l-23 -33 -2662 -2 -2662 -3 -58 -23 c-81 -33 -166 -114 -203
-194 l-29 -63 0 -2460 0 -2460 27 -57 c35 -76 95 -138 170 -179 l63 -34 1970
-5 1970 -5 16 -80 c9 -44 15 -81 14 -83 -1 -1 -58 -12 -126 -23 -68 -12 -204
-41 -301 -65 -1138 -281 -1833 -598 -2311 -1053 -390 -373 -605 -811 -667
-1361 -18 -163 -23 -494 -11 -710 11 -192 44 -643 56 -772 l6 -58 -488 0 -488
0 -76 -67 c-42 -38 -109 -98 -150 -134 -93 -82 -599 -533 -818 -728 -91 -80
-177 -157 -193 -171 -15 -14 -99 -88 -187 -165 -145 -127 -185 -175 -148 -175
8 0 68 48 134 107 93 85 568 506 858 763 21 19 62 56 90 81 27 25 152 136 277
247 l227 202 480 0 480 0 5 -33 c3 -17 10 -79 16 -137 38 -364 131 -835 239
-1206 209 -721 532 -1383 945 -1939 262 -352 640 -738 966 -987 710 -541 1486
-860 2460 -1012 604 -94 1241 -99 1800 -15 814 123 1575 437 2188 902 29 22
55 38 58 35 2 -3 46 -135 97 -294 l93 -289 80 -42 c385 -204 993 -422 1423
-509 102 -21 126 -23 137 -12 22 23 91 172 115 249 18 58 23 98 24 184 0 61
-4 126 -8 147 l-8 36 172 -104 173 -103 35 21 c85 50 270 176 379 257 158 118
228 177 352 296 58 56 168 156 245 222 553 476 696 607 800 738 99 123 144
196 155 252 8 43 7 50 -13 67 -75 63 -253 118 -387 119 -85 1 -103 -2 -173
-31 -104 -42 -247 -122 -577 -322 -615 -372 -866 -491 -1069 -507 l-80 -6 -73
43 c-96 57 -235 149 -317 211 -70 53 -311 267 -311 277 0 3 29 109 64 236 36
127 88 318 116 423 44 165 61 214 126 345 349 714 422 1362 222 1974 -24 76
-78 201 -130 305 -48 98 -88 184 -88 193 0 15 42 16 447 14 l448 -3 13 -105
c15 -119 28 -147 74 -155 18 -3 273 -5 565 -3 630 4 567 -13 588 149 8 57 15
107 15 111 0 4 161 9 358 10 309 3 357 5 357 18 0 13 -47 15 -352 18 -328 2
-353 4 -353 20 0 9 20 172 45 362 25 190 45 348 45 352 0 5 9 8 20 8 99 0 145
135 70 202 l-30 28 -258 0 -258 0 -58 188 -58 187 5 110 c6 130 16 160 122
380 106 220 165 350 165 362 0 17 -28 23 -39 9 -6 -7 -38 -71 -71 -142 -33
-71 -64 -136 -69 -144 -4 -8 -15 -40 -24 -70 -9 -31 -32 -78 -52 -105 -36 -50
-75 -156 -75 -202 0 -38 -17 -18 -30 37 -13 55 -13 55 -39 38 -22 -13 -31 23
90 -374 43 -143 79 -263 79 -267 0 -4 -102 -6 -227 -5 -145 2 -227 7 -227 13
1 6 15 129 30 275 l29 264 95 96 c52 52 123 119 158 148 62 54 75 78 46 89
-10 3 -29 -7 -52 -29 -20 -19 -53 -47 -72 -62 -19 -15 -65 -57 -102 -94 l-68
-66 0 90 c0 122 -24 201 -124 413 -118 250 -121 258 -106 323 18 75 55 177
107 296 33 74 43 106 35 114 -6 6 -17 8 -25 5 -16 -6 -97 -186 -129 -286 -12
-36 -24 -70 -28 -74 -4 -5 -16 33 -25 85 -13 66 -20 180 -26 393 -4 165 -12
318 -17 340 -20 88 -34 126 -82 220 -27 54 -50 103 -50 109 0 21 61 170 111
272 27 56 49 106 49 113 0 6 -9 11 -20 11 -26 0 -65 -69 -127 -222 -27 -65
-50 -118 -53 -118 -10 0 -126 189 -181 295 -32 61 -72 154 -90 208 l-33 98 23
69 c13 38 21 76 18 84 -9 23 -36 8 -52 -28 l-13 -31 -7 33 c-8 36 -30 51 -47
34 -10 -10 17 -140 43 -201 5 -13 8 -26 5 -28 -2 -2 -35 12 -74 31 -71 36 -82
36 -82 4 0 -13 26 -31 91 -63 87 -44 91 -48 112 -98 35 -86 99 -206 167 -312
35 -55 75 -121 89 -146 14 -25 40 -70 58 -99 18 -30 31 -56 29 -58 -2 -2 -59
24 -126 58 -97 48 -125 59 -136 49 -8 -6 -14 -15 -14 -20 0 -5 71 -45 158 -88
l159 -80 17 -58 c20 -69 35 -278 39 -534 l2 -187 -87 83 c-104 99 -200 175
-222 175 -37 0 -14 -40 52 -90 79 -61 282 -266 282 -285 0 -34 70 -217 142
-370 78 -166 128 -285 128 -306 0 -6 -26 23 -58 63 -115 144 -272 269 -272
216 0 -7 45 -55 100 -106 58 -54 131 -136 175 -197 l76 -104 -11 -138 c-7 -76
-15 -167 -19 -203 l-7 -65 -18 35 c-37 68 -238 340 -252 340 -32 0 -9 -51 76
-170 125 -174 148 -215 164 -295 13 -58 13 -84 3 -150 l-12 -80 -262 -5 -263
-5 -26 -26 c-70 -71 -19 -199 80 -199 18 0 27 -6 31 -22 2 -13 23 -167 45
-343 22 -176 42 -332 45 -347 l4 -28 -452 0 -453 0 -42 128 c-50 150 -135 330
-196 416 -107 150 -214 209 -493 271 l-116 26 -126 92 c-160 116 -408 278
-676 442 -115 70 -212 129 -213 131 -3 2 17 164 157 1253 36 274 44 366 36
375 -7 6 -51 24 -98 40 l-86 30 -962 -37 c-529 -21 -964 -35 -966 -33 -3 2
-11 30 -19 63 -37 143 -32 133 -80 154 -60 27 -190 54 -376 79 l-156 21 -126
84 c-215 143 -521 285 -794 368 -104 31 -115 37 -135 70 -37 61 -105 101 -229
136 l-59 17 31 42 30 42 1131 0 1131 0 77 -51 c149 -99 337 -176 521 -216 123
-26 459 -26 580 1 588 128 1025 564 1152 1149 32 145 32 446 0 590 -95 430
-355 783 -732 992 l-89 50 -1 1285 c0 708 -4 1313 -9 1347 -22 152 -114 261
-266 317 -21 8 -465 12 -1517 16 l-1488 5 109 147 c60 81 120 162 134 179 l24
31 43 -118 c24 -66 49 -135 57 -154 l15 -35 28 105 c136 509 210 794 208 801
-2 4 -91 -46 -198 -111z m-756 -902 c-4 -7 -58 -80 -119 -163 -61 -82 -133
-180 -161 -217 l-49 -68 -2604 0 -2603 0 4 108 c3 92 8 114 31 160 46 89 136
160 231 183 17 4 1211 7 2654 8 2096 1 2622 -2 2616 -11z m3367 -19 c142 -67
209 -186 209 -371 l0 -58 -1806 0 c-1444 0 -1804 3 -1797 13 6 6 83 110 171
230 l162 217 1502 -2 1503 -3 56 -26z m-3733 -477 c-1 -5 -123 -170 -270 -368
-148 -197 -442 -593 -654 -879 -212 -286 -468 -630 -568 -765 -100 -135 -250
-337 -334 -450 -315 -427 -464 -625 -477 -639 -11 -11 -66 20 -347 200 -183
117 -407 259 -496 315 l-164 103 -22 -27 c-18 -21 -556 -736 -1081 -1434 l-80
-107 -103 -1 c-93 0 -103 -2 -100 -17 3 -15 17 -19 85 -23 l83 -5 -80 -104
c-65 -86 -77 -107 -69 -123 29 -54 177 -116 204 -86 7 7 79 103 162 213 197
264 831 1105 956 1270 55 72 103 129 107 128 7 -2 390 -244 783 -496 108 -70
202 -127 207 -127 5 0 33 33 63 73 30 39 112 151 184 247 369 498 526 710 634
855 196 263 669 900 899 1210 118 160 325 439 460 620 135 182 261 351 279
378 l34 47 1824 0 1823 0 0 -1200 c0 -721 -4 -1200 -9 -1200 -5 0 -56 16 -113
35 -158 53 -267 69 -458 69 -309 0 -561 -74 -807 -237 -337 -224 -550 -539
-639 -947 -15 -68 -19 -126 -19 -285 1 -220 15 -309 75 -485 16 -48 30 -101
30 -119 0 -20 5 -31 15 -31 8 0 26 -21 41 -47 73 -132 165 -255 261 -352 57
-56 103 -105 103 -107 0 -2 -493 -4 -1095 -4 -602 0 -1095 3 -1095 8 0 4 9 30
19 58 40 104 121 539 121 647 0 27 8 48 25 69 38 45 59 129 51 207 -9 98 -38
184 -116 341 -75 153 -98 216 -119 327 -25 123 -84 259 -145 332 -25 30 -36
52 -33 65 3 12 12 48 21 81 60 222 -42 404 -214 381 -63 -8 -136 -34 -294
-102 -118 -52 -144 -59 -326 -90 -592 -100 -937 -249 -1024 -443 -59 -132 -58
-239 3 -420 59 -174 62 -188 71 -405 5 -111 16 -237 24 -281 9 -44 16 -81 16
-82 0 -2 -6 -3 -14 -3 -20 0 -26 -23 -26 -106 0 -67 2 -74 20 -74 18 0 20 7
20 83 l0 82 25 -59 c68 -165 141 -226 294 -243 50 -6 59 -11 112 -65 54 -55
123 -97 160 -98 12 0 25 -27 48 -98 17 -54 31 -101 31 -105 0 -4 -863 -7
-1918 -7 -1697 0 -1925 2 -1977 15 -100 26 -172 85 -223 180 l-27 50 -3 2333
-2 2332 2586 0 c1422 0 2584 -4 2582 -8z m3568 -2337 c152 -23 292 -68 434
-140 411 -210 684 -579 772 -1043 8 -39 13 -139 12 -242 0 -141 -4 -195 -22
-278 -46 -214 -132 -401 -263 -575 -195 -259 -447 -429 -774 -522 -163 -47
-539 32 -775 162 -264 146 -474 362 -604 622 -55 107 -112 290 -132 416 -20
130 -15 398 10 505 65 287 190 515 390 715 170 169 342 277 571 357 128 44
205 49 381 23z m-3699 -252 c-10 -59 -71 -173 -127 -235 -89 -100 -233 -179
-389 -214 -41 -10 -154 -18 -301 -22 -224 -7 -238 -9 -290 -33 -68 -32 -123
-79 -140 -119 -12 -30 -33 -39 -45 -20 -9 15 31 85 67 115 88 75 239 112 413
102 105 -6 245 6 330 28 95 24 218 90 284 151 86 79 117 130 166 272 2 6 12
12 21 12 14 0 16 -7 11 -37z m-419 -104 c4 -24 -54 -84 -115 -117 -85 -45
-134 -53 -368 -62 -173 -6 -220 -11 -268 -28 -152 -55 -259 -140 -317 -254
-33 -64 -51 -80 -64 -59 -9 14 27 91 70 147 51 67 121 124 197 162 113 55 157
63 377 72 113 5 221 12 240 16 66 13 159 63 192 105 31 39 50 45 56 18z m2993
-144 c-28 -36 -51 -70 -51 -75 0 -5 -11 -22 -26 -39 -14 -16 -25 -33 -25 -35
1 -16 -12 -35 -20 -30 -5 3 -7 -1 -4 -8 3 -7 -2 -24 -10 -38 -28 -48 -41 -79
-44 -101 0 -5 -6 -7 -13 -3 -7 4 -8 3 -4 -5 4 -6 -5 -48 -20 -94 -36 -108 -36
-108 -40 -134 -1 -13 -6 -33 -10 -45 -4 -13 -7 -36 -6 -53 1 -25 0 -27 -7 -10
-6 13 -7 -1 -4 -40 2 -33 0 -80 -4 -104 -18 -99 31 -435 81 -555 13 -31 14
-42 4 -54 -10 -12 -10 -14 -1 -9 13 8 43 -39 43 -67 0 -8 7 -21 15 -30 9 -8
23 -32 31 -53 9 -21 23 -46 31 -55 8 -9 12 -22 7 -29 -4 -7 -3 -10 3 -6 9 6
47 -47 41 -57 -2 -2 10 -14 25 -26 16 -13 26 -29 23 -36 -3 -8 -2 -13 3 -11
11 3 105 -102 97 -110 -3 -4 -13 2 -21 13 -11 14 -14 15 -9 2 6 -18 -25 -25
-121 -30 -44 -2 -50 0 -50 17 0 11 -7 20 -15 20 -24 1 -42 16 -36 32 4 9 2 11
-5 7 -7 -4 -20 4 -31 17 -49 62 -128 169 -128 174 0 4 -10 21 -22 38 -12 17
-17 27 -10 23 9 -6 10 -2 1 18 -7 14 -15 23 -20 21 -4 -3 -11 5 -14 17 -4 13
-18 47 -31 76 -14 29 -21 58 -18 64 4 7 2 8 -4 4 -16 -9 -15 7 0 22 9 9 7 16
-10 32 -12 11 -24 33 -28 48 -3 15 -10 41 -15 57 -5 17 -11 46 -14 65 -2 19
-8 60 -12 90 -15 103 -6 337 16 435 12 50 24 104 27 120 3 17 10 31 14 33 5 2
7 9 4 17 -3 7 0 16 7 21 8 5 10 3 4 -6 -5 -8 -4 -11 2 -7 6 4 8 18 6 31 -3 16
7 48 30 90 19 36 30 63 25 60 -6 -4 -5 3 2 15 6 12 16 18 22 15 7 -4 8 -3 4 5
-9 13 53 113 65 105 5 -3 6 2 3 10 -4 10 6 30 25 51 17 20 31 39 31 43 0 4 21
30 48 58 l47 51 83 2 83 2 -50 -66z m-2471 -402 c127 -128 153 -175 205 -371
19 -73 56 -190 81 -260 60 -167 78 -261 71 -378 -7 -96 -76 -455 -108 -560
-41 -133 -140 -242 -289 -318 -111 -57 -182 -79 -251 -79 -88 0 -138 40 -270
213 -53 69 -79 87 -79 53 1 -40 193 -258 253 -286 96 -46 287 3 454 116 l52
35 5 -77 c4 -42 8 -95 11 -117 4 -40 2 -43 -53 -91 -77 -67 -137 -107 -224
-149 l-73 -36 -110 6 c-176 9 -391 55 -540 116 l-30 13 -1 146 c-1 159 -24
287 -85 474 -16 49 -29 92 -29 96 0 5 19 17 42 27 51 23 108 70 108 90 0 22
-16 17 -65 -21 -43 -32 -99 -55 -138 -55 -62 0 -180 113 -238 227 -31 63 -34
75 -34 165 0 82 3 101 21 125 53 72 115 64 207 -29 32 -32 62 -58 67 -58 21 0
17 20 -10 55 -30 38 -30 38 -11 59 45 48 51 107 21 193 -27 78 -25 129 8 199
23 51 27 71 27 154 0 76 -4 104 -21 141 l-22 46 177 6 c349 12 568 72 699 193
26 24 51 43 56 44 5 0 57 -48 116 -107z m2964 -1784 c14 -7 23 -16 19 -22 -3
-6 -2 -7 4 -4 6 4 33 -5 62 -18 28 -14 57 -25 63 -25 9 0 8 -4 -2 -11 -12 -8
-10 -9 7 -4 12 3 32 1 43 -5 12 -6 29 -13 38 -15 48 -9 188 -47 192 -52 5 -6
-156 3 -195 11 -11 2 -42 7 -70 10 -77 11 -375 115 -375 131 0 1 25 3 57 4 31
0 59 3 61 6 10 9 71 5 96 -6z m-2720 -54 c146 -45 184 -78 211 -180 22 -82 31
-299 16 -360 -17 -69 -76 -183 -135 -261 -58 -78 -217 -244 -233 -244 -6 0
-32 42 -58 93 -26 50 -90 172 -142 270 -53 98 -94 180 -92 181 2 2 33 18 69
36 89 45 175 104 240 166 l55 53 -8 128 c-5 78 -13 131 -20 135 -24 15 17 8
97 -17z m-1175 -190 c2 -96 -1 -115 -13 -115 -8 0 -18 5 -21 10 -3 6 -15 10
-26 10 -41 0 -14 -35 51 -68 147 -73 389 -133 598 -148 l100 -7 6 -51 c17
-157 48 -567 43 -572 -10 -10 -216 36 -341 77 -198 65 -395 170 -540 289 -53
43 -57 50 -85 140 -42 136 -56 220 -52 306 2 44 76 124 176 190 44 29 85 53
91 54 8 0 12 -36 13 -115z m-165 71 c-77 -52 -141 -128 -152 -182 -9 -41 -8
-63 11 -197 1 -14 -38 -36 -193 -108 -261 -121 -653 -315 -770 -381 -52 -30
-151 -87 -220 -127 -140 -82 -291 -159 -363 -186 -32 -12 -49 -25 -52 -39 -8
-39 -54 -481 -70 -676 -36 -444 -41 -841 -14 -1184 10 -135 10 -222 1 -430 -7
-144 -12 -299 -12 -346 0 -153 30 -272 89 -361 48 -70 369 -332 472 -385 129
-65 295 -70 459 -15 52 18 115 43 138 56 l44 25 86 -52 c210 -124 398 -179
621 -182 l113 -1 28 -75 c78 -211 193 -401 322 -530 23 -24 27 -31 13 -26
-602 236 -1266 292 -1885 160 -226 -48 -505 -139 -505 -165 0 -22 39 -15 170
31 309 107 637 160 999 160 297 0 521 -27 801 -96 217 -54 528 -166 612 -221
12 -8 55 -28 95 -43 84 -33 101 -26 -142 -60 -272 -39 -550 -97 -550 -116 0
-7 4 -15 9 -18 5 -4 98 12 208 34 319 64 523 90 773 100 265 10 367 26 704
110 349 86 445 97 557 64 99 -30 165 -101 309 -334 340 -550 424 -664 661
-897 116 -114 216 -196 348 -285 250 -170 881 -480 1803 -886 59 -26 108 -50
108 -54 0 -4 -47 -71 -104 -148 l-105 -141 20 -56 c10 -31 19 -59 19 -63 0 -7
-200 -153 -307 -224 -230 -151 -591 -339 -828 -431 -584 -229 -1153 -339
-1816 -352 -570 -11 -1101 50 -1672 193 -1489 373 -2654 1338 -3353 2779 -298
615 -490 1257 -598 2000 -32 222 -40 304 -77 775 -78 1019 -36 1451 186 1905
276 562 773 966 1595 1297 285 115 841 283 1225 372 246 56 256 57 189 12z
m1734 -97 c240 -78 516 -205 687 -316 47 -30 84 -57 83 -58 -7 -7 -371 66
-738 148 l-145 32 -12 105 c-14 127 -14 130 -8 130 3 0 63 -19 133 -41z m149
-294 c332 -74 618 -128 848 -160 208 -29 305 -47 377 -71 46 -15 48 -18 64
-72 8 -31 20 -70 25 -86 5 -16 9 -30 9 -31 0 -3 -235 -14 -445 -20 -99 -4
-189 -8 -200 -10 -19 -4 -22 -18 -38 -222 -10 -120 -31 -378 -48 -573 -75
-916 -109 -1330 -109 -1348 0 -17 -9 -20 -92 -25 -118 -7 -222 -39 -398 -124
-216 -104 -253 -116 -331 -108 -52 5 -73 3 -98 -10 -49 -25 -108 -82 -172
-166 l-58 -76 -93 -12 c-256 -31 -348 -35 -723 -33 -412 2 -472 -3 -597 -44
-100 -33 -179 -85 -251 -165 -72 -79 -76 -86 -142 -268 -29 -80 -76 -205 -104
-278 -28 -73 -51 -139 -51 -146 0 -8 16 -25 35 -38 19 -13 34 -28 32 -32 -4
-14 -133 -67 -214 -87 -134 -35 -248 -24 -363 35 -76 38 -125 73 -243 172
-286 240 -295 259 -287 643 7 425 5 648 -8 881 -20 330 1 790 64 1379 14 135
29 248 32 251 4 4 48 25 98 46 100 44 199 98 409 222 144 86 426 232 645 335
238 112 401 186 409 186 5 0 21 -39 36 -86 25 -78 32 -89 85 -136 184 -162
501 -310 787 -367 105 -22 169 -26 176 -13 3 4 -3 97 -13 207 -10 110 -21 236
-25 280 l-6 80 23 -40 c13 -22 60 -110 105 -195 117 -224 133 -254 143 -264
11 -11 38 7 112 76 183 172 311 373 325 516 3 28 9 52 14 52 4 0 119 -25 256
-55z m3328 -404 l40 -19 -36 -1 c-107 -3 -2513 -132 -2517 -135 -4 -4 -12 -97
-77 -836 -115 -1307 -143 -1612 -151 -1620 -5 -4 -30 -11 -56 -15 l-46 -7 4
38 c2 22 22 257 44 524 122 1499 162 1976 168 1981 4 4 583 29 1287 57 704 27
1285 50 1290 50 6 1 28 -7 50 -17z m115 -68 c0 -10 -25 -214 -56 -453 -31
-239 -93 -720 -138 -1069 -75 -581 -83 -635 -101 -642 -11 -5 -473 -98 -1026
-209 l-1007 -200 -68 17 c-51 12 -114 17 -242 17 l-174 1 6 50 c3 28 42 462
86 965 44 503 90 1023 102 1155 11 132 23 242 25 245 3 4 2411 135 2546 139
39 1 47 -2 47 -16z m-53 -1689 c59 -37 149 -91 198 -122 208 -126 595 -387
609 -410 2 -4 -39 -2 -92 5 -148 18 -371 32 -649 39 l-252 7 5 26 c6 36 64
493 64 508 0 7 2 13 5 13 2 0 53 -30 112 -66z m-2916 -498 c6 -6 -25 -383 -31
-389 -3 -3 -39 -15 -80 -28 -94 -29 -300 -131 -405 -199 -132 -86 -311 -218
-645 -476 -354 -272 -410 -309 -665 -434 -132 -65 -262 -126 -290 -135 -67
-23 -261 -23 -368 0 -97 20 -231 67 -318 110 -64 33 -244 148 -253 164 -3 4
44 136 104 294 72 192 118 299 139 326 50 63 135 136 188 161 157 74 237 84
593 76 172 -4 352 -3 455 4 168 10 426 36 455 46 8 2 31 28 50 56 50 75 135
163 173 181 23 11 50 14 98 10 80 -7 98 -1 286 89 176 84 227 104 318 128 63
17 185 27 196 16z m976 -511 c217 -105 416 -306 593 -597 49 -81 56 -108 26
-108 -7 0 -39 44 -71 98 -74 124 -143 216 -243 323 -126 134 -261 228 -402
280 -49 18 -76 33 -79 44 -5 29 69 11 176 -40z m3897 -966 c174 -527 132
-1092 -126 -1714 -50 -121 -93 -207 -84 -170 48 192 120 544 151 738 59 369
48 762 -35 1252 -16 94 -31 179 -35 190 -3 11 15 -20 40 -70 24 -49 64 -151
89 -226z m-3145 137 c78 -20 238 -42 416 -57 161 -14 1012 -17 1079 -5 37 7
38 6 32 -16 -38 -128 -48 -212 -53 -433 -7 -326 32 -685 122 -1131 14 -69 24
-128 23 -130 -2 -1 -35 36 -73 84 -180 223 -313 370 -560 618 -221 221 -303
297 -520 479 -186 155 -278 248 -371 370 -76 100 -167 235 -158 235 3 0 32 -6
63 -14z m5405 -2813 c63 -15 192 -70 185 -78 -3 -2 -45 -18 -94 -36 -347 -122
-558 -338 -832 -851 -104 -195 -138 -242 -274 -373 -161 -154 -378 -321 -603
-464 -87 -55 -101 -62 -122 -52 -13 6 -24 15 -24 20 0 5 30 33 67 62 238 187
531 468 624 600 67 93 98 153 189 357 217 493 345 668 570 782 118 61 180 67
314 33z m-556 -161 c-121 -130 -207 -276 -351 -602 -152 -345 -183 -391 -417
-622 -129 -127 -409 -372 -466 -408 -24 -15 -17 -18 -294 151 -69 42 -172 104
-228 139 l-104 63 74 21 c138 40 212 102 264 221 l27 62 126 6 c69 3 134 7
145 9 14 2 22 -6 31 -32 15 -43 52 -51 46 -10 -8 59 -8 61 47 80 30 11 78 33
108 50 29 16 57 30 62 30 5 0 15 -14 23 -32 8 -17 20 -34 26 -36 22 -7 26 28
8 66 l-17 37 35 30 c20 16 72 63 116 104 57 51 81 68 81 55 0 -10 7 -44 16
-76 13 -46 21 -58 36 -58 17 0 19 5 14 28 -3 15 -11 57 -18 93 l-12 67 185
198 c264 285 293 313 389 366 47 26 87 48 89 48 2 0 -17 -22 -41 -48z m-368
-229 c-153 -165 -250 -262 -250 -251 1 24 27 148 32 154 13 12 263 160 267
157 2 -1 -20 -29 -49 -60z m-1630 -124 c100 -82 244 -183 362 -255 l97 -59 7
-64 c4 -35 4 -103 2 -151 -10 -175 -102 -294 -260 -336 -97 -26 -143 -19 -222
30 -39 24 -156 93 -261 153 -104 61 -228 133 -275 161 -47 29 -88 52 -92 52
-38 0 64 169 159 266 38 38 94 89 125 112 65 50 246 152 268 152 8 0 49 -28
90 -61z m1349 -46 c-4 -21 -9 -60 -10 -88 -2 -49 -4 -52 -88 -131 -100 -95
-146 -134 -156 -134 -11 0 -1 222 11 243 9 15 226 145 245 147 4 0 3 -17 -2
-37z m-296 -150 c-10 -34 -10 -178 0 -213 5 -21 0 -29 -27 -48 -44 -30 -187
-92 -198 -86 -15 10 -8 177 10 229 17 49 19 51 112 97 52 25 98 47 103 47 4 1
4 -11 0 -26z m-2114 -114 c251 -116 422 -203 526 -267 49 -30 153 -91 230
-135 161 -92 212 -122 465 -279 102 -63 203 -124 226 -137 42 -23 62 -62 80
-151 l7 -35 -44 40 c-140 129 -358 228 -919 417 -240 80 -354 124 -435 167
-120 63 -283 177 -383 268 l-63 58 56 68 c31 37 62 67 68 67 6 0 90 -37 186
-81z m1850 -10 c-6 -19 -11 -80 -11 -136 0 -120 12 -111 -155 -120 l-113 -6 0
104 c0 57 -3 114 -6 127 -6 21 -4 22 57 23 35 0 102 10 149 23 47 12 86 22 87
21 2 -1 -2 -17 -8 -36z m-1894 -311 c171 -114 243 -146 608 -268 363 -121 557
-197 695 -271 170 -90 272 -181 272 -242 0 -29 -21 -124 -36 -166 -3 -10 -26
9 -70 57 -174 191 -422 298 -1101 476 -261 68 -356 112 -513 235 -114 90 -172
161 -199 243 -24 72 -24 72 21 130 l29 37 87 -75 c48 -42 141 -112 207 -156z"/>
<path d="M3959 17081 c-61 -62 -17 -156 72 -153 63 2 104 75 74 132 -30 59
-98 68 -146 21z"/>
<path d="M4439 17081 c-49 -50 -37 -121 27 -147 29 -12 39 -12 68 0 41 17 56
42 56 91 0 80 -92 114 -151 56z"/>
<path d="M4935 17098 c-31 -18 -44 -40 -45 -76 0 -46 16 -71 57 -88 31 -14 38
-13 71 3 42 21 58 54 48 104 -10 56 -80 86 -131 57z"/>
<path d="M3695 16367 c-26 -14 -48 -37 -62 -67 l-23 -44 0 -653 c0 -526 3
-660 14 -686 20 -49 78 -95 128 -102 24 -3 633 -5 1353 -3 1253 3 1311 4 1340
21 17 11 42 35 55 55 l25 36 3 668 c2 651 2 669 -18 707 -11 22 -34 50 -52 63
l-33 23 -1345 2 -1345 3 -40 -23z m2735 -33 c63 -38 60 -7 60 -731 0 -642 -1
-659 -20 -691 -40 -66 43 -62 -1400 -62 -1443 0 -1360 -4 -1400 62 -20 32 -20
45 -18 701 l3 669 37 34 38 34 1336 0 c1219 0 1338 -1 1364 -16z"/>
<path d="M5370 15605 l0 -565 -85 0 -85 0 0 280 0 280 -165 0 -165 0 0 -280 0
-280 -75 0 -75 0 0 340 0 340 -165 0 -165 0 0 -341 0 -340 -47 3 -48 3 -3 148
-3 147 -159 0 -159 0 -3 -147 -3 -148 -92 -3 c-69 -2 -93 -6 -93 -16 0 -27
2529 -25 2538 2 3 9 -13 12 -57 12 l-61 0 0 560 0 560 -165 0 -165 0 0 -560 0
-560 -85 0 -85 0 0 565 0 565 -165 0 -165 0 0 -565z m290 -10 l0 -535 -125 0
-125 0 0 535 0 535 125 0 125 0 0 -535z m500 -10 l0 -535 -125 0 -125 0 0 535
0 535 125 0 125 0 0 -535z m-1480 -222 l0 -318 -125 0 -125 0 0 318 0 317 125
0 125 0 0 -317z m480 -63 l0 -260 -125 0 -125 0 0 260 0 260 125 0 125 0 0
-260z m-910 -125 l0 -125 -122 0 -123 0 0 125 0 125 123 0 122 0 0 -125z"/>
<path d="M9905 16374 c-247 -54 -461 -225 -570 -455 -55 -116 -75 -212 -75
-354 0 -142 20 -238 75 -354 99 -208 267 -359 482 -431 448 -150 920 92 1063
545 34 106 39 310 11 427 -71 297 -283 521 -578 610 -92 27 -309 34 -408 12z
m346 -39 c269 -57 499 -265 586 -530 31 -97 43 -287 23 -388 -47 -240 -207
-450 -423 -555 -134 -66 -213 -85 -352 -85 -140 0 -221 20 -353 84 -92 44
-115 62 -201 147 -83 83 -104 111 -144 192 -64 129 -87 225 -87 365 0 127 22
230 70 332 102 219 309 386 543 437 85 19 250 19 338 1z"/>
<path d="M10013 16133 c0 -53 -4 -60 -47 -80 -109 -53 -155 -203 -105 -340 19
-51 38 -74 151 -184 151 -146 168 -169 168 -226 0 -63 -34 -98 -95 -98 -60 0
-91 33 -101 105 -6 48 -8 50 -39 50 -18 0 -53 -3 -78 -6 l-46 -7 5 -56 c8
-103 70 -193 153 -222 26 -9 30 -16 33 -52 l3 -42 68 -3 67 -3 0 41 c0 38 3
42 36 56 142 59 197 220 127 372 -9 20 -80 100 -159 178 -116 115 -144 148
-149 178 -15 75 16 126 75 126 58 0 82 -26 88 -93 l5 -57 66 6 c98 8 95 6 88
72 -9 104 -65 185 -147 213 -26 10 -30 15 -30 50 l0 39 -69 0 c-58 0 -68 -3
-68 -17z"/>
<path d="M11500 14088 c-69 -17 -127 -32 -129 -34 -1 -1 5 -37 15 -79 l18 -77
-29 -21 c-58 -40 -118 -111 -146 -171 -100 -214 -28 -506 163 -669 76 -64 172
-123 343 -211 226 -115 309 -186 336 -287 30 -114 -46 -208 -169 -209 -94 0
-154 63 -183 194 -7 32 -18 60 -24 62 -12 5 -284 -93 -299 -107 -15 -13 30
-166 69 -234 76 -135 243 -245 371 -245 36 0 35 2 64 -117 6 -24 14 -43 17
-43 18 0 269 64 277 71 4 4 1 36 -8 71 -9 35 -16 69 -16 74 0 5 26 29 58 53
249 189 254 563 10 799 -74 72 -160 128 -351 228 -263 139 -334 200 -358 310
-23 102 24 175 121 189 82 12 142 -51 177 -187 l17 -66 125 45 c70 25 141 49
159 55 31 9 33 12 27 41 -14 65 -48 154 -81 215 -67 119 -169 194 -303 222
-73 15 -75 16 -83 50 -26 103 -29 110 -46 109 -9 0 -73 -14 -142 -31z m131
-33 c3 -34 6 -51 12 -65 3 -8 7 -26 9 -40 3 -23 8 -25 61 -28 32 -2 55 -7 52
-12 -3 -4 3 -6 13 -3 23 6 115 -34 107 -47 -3 -5 0 -7 8 -4 19 7 129 -106 122
-124 -3 -7 -1 -10 5 -7 5 3 14 -4 20 -16 10 -17 9 -20 -2 -13 -7 4 -5 -2 5
-13 21 -24 57 -114 57 -142 0 -13 -17 -24 -62 -41 -35 -13 -70 -23 -78 -23 -8
0 -17 -3 -20 -6 -3 -3 -19 -11 -37 -17 -30 -11 -31 -10 -35 17 -3 16 0 29 4
29 5 0 2 7 -6 16 -9 8 -19 26 -22 40 -3 13 -11 24 -17 24 -6 0 -8 3 -4 6 11
11 -55 73 -90 85 -21 7 -58 9 -92 5 -31 -4 -64 -7 -75 -7 -10 0 -16 -3 -12 -6
3 -3 -6 -15 -21 -26 -37 -29 -53 -77 -53 -154 0 -56 5 -77 30 -122 25 -45 28
-57 17 -70 -10 -14 -10 -14 4 -3 14 10 21 8 49 -18 17 -16 29 -34 26 -39 -4
-5 -2 -13 4 -16 6 -4 9 -3 8 2 -6 17 14 13 45 -10 31 -24 111 -70 194 -112 24
-12 39 -25 36 -29 -4 -4 0 -4 10 0 11 4 32 -3 55 -18 20 -13 49 -30 64 -37 22
-11 25 -17 17 -28 -9 -9 -8 -13 0 -13 8 0 9 -6 3 -17 -5 -10 -12 -45 -16 -78
-15 -137 -17 -144 -35 -138 -9 4 -41 23 -71 43 -30 20 -63 40 -73 43 -11 4
-15 12 -11 18 4 8 3 9 -5 5 -6 -4 -54 13 -107 39 -89 43 -95 47 -77 61 17 14
16 14 -6 4 -13 -7 -26 -8 -30 -4 -3 5 -12 10 -19 12 -39 8 -178 115 -188 144
-3 10 -9 16 -13 13 -13 -8 -54 42 -46 56 5 7 4 10 -3 5 -15 -9 -33 28 -26 51
4 13 3 15 -4 4 -12 -16 -27 3 -16 21 4 6 3 8 -4 5 -13 -9 -43 78 -35 100 4 10
2 14 -4 10 -8 -5 -13 24 -18 88 -8 103 -2 150 18 139 9 -5 9 -4 0 7 -15 15
-17 33 -4 24 6 -3 9 3 9 12 -2 31 33 93 83 147 37 39 51 48 57 37 6 -8 12 -9
16 -3 3 6 0 12 -6 15 -7 2 2 12 20 21 27 14 33 22 28 39 -20 68 -27 120 -19
128 5 5 33 11 63 14 30 3 57 10 60 15 4 6 14 8 23 4 10 -3 17 -1 17 5 0 17 30
13 31 -4z m40 -1535 c2 -16 4 -23 18 -62 7 -21 9 -43 5 -50 -4 -7 -4 -10 0 -6
5 4 22 -12 40 -35 38 -52 113 -91 168 -89 32 2 39 -1 34 -13 -3 -8 -1 -15 5
-15 6 0 6 -6 1 -17 -9 -17 -28 -169 -23 -187 3 -14 -120 4 -147 22 -15 9 -23
11 -19 5 10 -16 -16 -7 -83 28 -56 30 -147 124 -155 161 -4 16 -11 26 -16 23
-5 -4 -6 1 -3 9 3 9 1 16 -5 16 -13 0 -31 41 -33 79 -1 14 -7 29 -13 33 -6 5
-4 8 5 8 12 0 12 2 1 9 -12 8 27 26 164 75 51 18 55 18 56 6z"/>
<path d="M7987 13024 c-7 -8 -2 -41 25 -148 36 -146 72 -189 178 -209 l60 -12
0 -45 c-1 -27 -10 -65 -25 -95 -30 -60 -30 -65 -6 -65 28 0 63 82 69 162 l5
66 -39 11 c-22 6 -57 15 -79 21 -74 19 -93 49 -134 208 -24 97 -37 123 -54
106z"/>
<path d="M8234 12985 c-34 -52 2 -180 49 -173 50 7 60 116 16 172 -26 33 -44
33 -65 1z"/>
<path d="M7675 12890 c-24 -26 -17 -130 10 -160 39 -43 75 -18 75 51 0 58 -16
106 -40 119 -24 13 -24 13 -45 -10z"/>
<path d="M7750 12381 c0 -16 29 -78 67 -142 46 -79 115 -155 165 -180 94 -48
203 -7 288 109 27 37 50 73 50 80 0 9 -23 11 -98 6 -143 -10 -246 17 -381 98
-62 37 -91 47 -91 29z m174 -115 c89 -39 190 -59 271 -54 30 1 55 -1 55 -6 0
-5 -24 -33 -52 -61 -110 -110 -214 -89 -317 63 -54 81 -67 107 -50 99 8 -3 50
-21 93 -41z"/>
<path d="M6895 5698 c-318 -113 -585 -229 -585 -254 0 -27 22 -22 141 35 119
56 378 156 468 181 31 8 41 16 39 28 -4 21 -24 24 -63 10z"/>
<path d="M5861 9986 c-9 -11 -3 -23 30 -62 212 -244 408 -598 583 -1049 70
-182 190 -544 183 -551 -2 -3 -43 6 -89 20 -165 48 -319 58 -474 31 -94 -17
-110 -25 -101 -48 5 -13 14 -13 74 0 124 28 367 18 461 -19 25 -9 22 -11 -48
-29 -185 -48 -370 -171 -500 -334 -67 -84 -160 -233 -160 -257 0 -28 35 -22
49 10 31 67 146 224 217 295 171 171 378 266 580 267 102 0 158 -22 224 -90
30 -30 68 -83 84 -115 16 -33 30 -61 31 -63 6 -7 35 11 35 22 0 27 -67 136
-114 184 -59 61 -91 81 -160 97 l-49 11 -92 270 c-217 637 -386 982 -632 1289
-101 127 -116 140 -132 121z"/>
<path d="M11212 9754 c-71 -36 -122 -149 -130 -285 -15 -275 169 -376 272
-149 51 113 57 253 14 351 -36 85 -92 115 -156 83z"/>
<path d="M13060 16669 c-355 -59 -637 -315 -731 -664 -32 -118 -32 -327 -1
-445 45 -167 121 -297 245 -421 294 -291 762 -338 1112 -112 284 184 441 512
405 847 -43 402 -340 720 -740 792 -84 15 -208 16 -290 3z m259 -45 c18 -3 31
-7 30 -9 -2 -2 -49 -9 -104 -15 -55 -7 -109 -14 -120 -15 -11 -2 -37 -10 -57
-19 -21 -9 -44 -16 -52 -16 -7 0 -50 -21 -95 -46 -45 -25 -86 -42 -93 -38 -6
4 -8 3 -4 -4 3 -6 -10 -23 -31 -38 -21 -15 -60 -51 -88 -78 -27 -28 -53 -50
-57 -48 -4 1 -7 -1 -6 -5 3 -13 -38 -73 -45 -66 -4 3 -7 -4 -7 -16 0 -12 -7
-24 -15 -27 -8 -4 -15 -13 -15 -21 0 -8 -4 -11 -10 -8 -6 4 -7 -1 -3 -11 4
-12 3 -15 -5 -10 -8 5 -10 2 -6 -8 3 -9 1 -16 -5 -16 -7 0 -11 -6 -10 -12 2
-24 -13 -58 -24 -51 -5 3 -7 2 -4 -4 6 -10 -15 -93 -30 -116 -9 -14 -9 -21
-18 -172 -3 -60 -8 -118 -10 -128 -2 -9 1 -15 6 -11 5 3 10 -14 11 -38 1 -54
1 -52 21 -117 9 -29 14 -58 10 -64 -3 -5 -1 -7 4 -4 6 4 14 -5 17 -19 4 -14
18 -49 31 -76 14 -28 22 -55 19 -59 -3 -5 1 -9 8 -9 7 0 21 -14 31 -32 18 -31
18 -31 -22 8 -23 21 -41 45 -41 52 0 7 -7 15 -15 18 -12 5 -12 10 -3 27 10 19
9 20 -4 9 -16 -13 -25 -5 -26 22 0 5 -7 13 -16 18 -9 5 -13 15 -9 25 4 11 3
14 -5 9 -7 -4 -13 -1 -14 6 0 7 -2 18 -3 23 0 6 -11 26 -23 45 -13 19 -21 43
-18 53 2 9 1 15 -4 12 -4 -3 -10 10 -13 28 -3 17 -10 50 -16 72 -15 56 -26
219 -15 213 5 -3 10 23 10 58 1 35 7 71 14 79 7 9 10 18 8 21 -3 3 3 29 14 57
11 29 24 64 30 80 5 15 15 27 21 27 6 0 7 3 4 7 -6 5 28 71 43 83 4 3 15 20
26 38 11 19 24 30 32 27 8 -3 10 0 6 6 -8 14 66 90 79 82 6 -3 7 -1 3 5 -12
20 187 152 231 152 7 0 13 5 13 11 0 6 9 8 21 4 13 -4 19 -3 16 2 -4 6 15 15
41 21 26 6 56 14 66 18 15 6 17 4 11 -7 -7 -11 -5 -11 10 1 30 25 159 31 274
14z m198 -80 c142 -29 237 -90 341 -217 147 -181 218 -419 191 -640 -25 -214
-115 -387 -278 -539 -217 -201 -535 -274 -818 -187 -228 71 -425 350 -462 655
-42 345 150 694 469 854 67 34 180 71 250 83 63 11 237 6 307 -9z"/>
<path d="M13427 16403 c-2 -4 -10 -24 -16 -44 -11 -35 -14 -37 -65 -42 -71 -7
-124 -36 -178 -96 -85 -95 -113 -231 -74 -361 9 -30 43 -108 76 -172 80 -159
95 -204 80 -256 -21 -79 -99 -105 -155 -52 -32 30 -36 66 -15 130 10 30 16 58
12 61 -4 3 -44 16 -90 28 -45 12 -89 24 -96 27 -9 3 -21 -15 -37 -53 -46 -114
-24 -250 53 -330 30 -31 31 -34 19 -70 -7 -21 -14 -43 -17 -49 -3 -7 8 -16 23
-22 15 -6 58 -22 95 -36 l67 -25 13 41 c14 42 14 42 84 54 88 14 142 42 188
95 56 66 79 122 84 209 6 101 -11 159 -100 338 -85 170 -95 224 -56 282 19 28
31 36 60 38 72 6 96 -52 62 -152 -9 -26 -15 -48 -13 -50 14 -10 205 -54 210
-48 18 20 43 125 43 183 0 74 -36 163 -80 198 -24 19 -24 21 -9 57 8 20 15 42
15 48 0 6 -35 24 -77 40 -43 16 -83 31 -89 33 -7 2 -14 1 -17 -4z m86 -70 c9
-3 17 -9 17 -14 0 -5 8 -6 18 -3 12 4 13 3 4 -3 -7 -6 -12 -14 -11 -19 1 -5
-1 -22 -6 -37 -6 -22 -3 -32 14 -48 25 -23 29 -38 4 -18 -15 13 -15 12 -4 -10
7 -13 9 -21 4 -18 -6 4 -16 -5 -23 -18 -7 -14 -17 -25 -22 -25 -5 0 -6 -10 -2
-22 6 -20 5 -20 -19 4 -14 15 -41 31 -59 37 -34 11 -109 11 -102 0 5 -8 -27
-23 -41 -20 -5 2 -7 0 -3 -4 3 -4 -2 -25 -12 -48 -22 -50 -18 -130 11 -196 10
-24 16 -47 13 -52 -3 -5 0 -9 6 -9 7 0 5 -9 -4 -22 -9 -12 -16 -32 -17 -43 0
-11 -3 -14 -6 -7 -3 9 -13 3 -28 -17 l-22 -31 -30 57 c-55 105 -77 185 -70
260 4 37 12 70 19 74 7 5 13 19 13 31 0 13 5 22 12 21 6 -1 14 4 17 13 4 10 2
13 -7 8 -16 -10 21 34 57 67 17 15 36 24 44 21 10 -3 13 -1 8 6 -4 7 -1 12 6
13 29 1 70 8 75 12 2 3 19 1 37 -3 28 -6 33 -5 31 9 -3 22 14 53 25 46 6 -4 7
1 3 11 -5 14 -3 16 13 10 10 -5 27 -11 37 -13z m-490 -795 c14 -7 15 -13 7
-29 -6 -11 -10 -47 -9 -81 2 -40 -2 -63 -9 -66 -7 -2 -12 -8 -12 -14 0 -6 -10
-22 -23 -37 -21 -25 -24 -26 -37 -12 -8 9 -14 20 -12 25 2 4 -4 16 -12 25 -22
24 -29 72 -21 136 9 72 23 87 72 73 21 -6 46 -14 56 -20z"/>
<path d="M16194 14193 l-9 -78 -38 68 c-37 65 -62 82 -73 53 -3 -8 19 -60 50
-115 l55 -100 -20 -138 c-36 -248 -79 -394 -210 -710 -44 -109 -83 -202 -86
-206 -3 -4 -35 43 -72 105 -116 195 -255 390 -287 402 -7 3 -18 -2 -23 -11 -7
-13 3 -32 43 -82 96 -121 306 -452 306 -483 0 -6 -18 -63 -39 -127 -105 -311
-107 -447 -12 -1012 43 -252 61 -411 61 -524 0 -104 -12 -225 -21 -225 -5 0
-9 6 -9 13 0 47 -317 557 -346 557 -36 0 -22 -36 63 -162 104 -156 189 -303
243 -425 l39 -88 -14 -70 c-18 -97 -48 -213 -100 -391 -119 -404 -125 -517
-49 -836 20 -82 39 -148 44 -148 4 0 13 7 20 15 10 11 6 40 -18 142 -17 70
-33 142 -37 159 -5 26 10 62 87 215 96 189 158 286 272 423 66 78 76 99 55
111 -35 23 -253 -273 -370 -502 l-60 -118 6 90 c7 108 23 182 103 465 33 118
68 246 77 285 22 97 55 303 55 346 0 42 27 95 116 231 59 89 191 261 240 313
103 107 108 115 91 133 -16 15 -21 12 -80 -49 -91 -95 -222 -261 -291 -369
l-61 -94 -7 49 c-4 28 -12 97 -18 155 -6 58 -31 222 -55 366 -57 336 -71 495
-56 617 9 76 15 95 34 109 12 9 111 83 220 163 108 81 197 153 197 161 0 38
-38 19 -195 -98 -92 -68 -178 -131 -191 -141 -18 -14 -24 -15 -24 -5 0 22 69
221 80 232 6 6 10 18 10 27 0 9 35 101 79 205 126 303 188 489 213 635 l11 65
124 95 c149 112 151 115 131 135 -13 14 -27 6 -122 -66 -59 -45 -110 -79 -113
-76 -3 2 0 42 6 88 15 107 29 281 24 291 -2 4 -12 7 -22 7 -16 0 -20 -12 -27
-77z"/>
<path d="M2972 9923 c3 -1217 5 -1378 18 -1378 13 0 15 161 18 1378 2 1373 2
1377 -18 1377 -20 0 -20 -4 -18 -1377z"/>
<path d="M2972 8003 c3 -255 4 -278 21 -281 16 -3 17 15 17 277 0 275 0 281
-20 281 -20 0 -20 -5 -18 -277z"/>
</g>
</svg>
