<?xml version="1.0" encoding="utf-8"?>
<!-- Generator: Adobe Illustrator 27.5.0, SVG Export Plug-In . SVG Version: 6.00 Build 0)  -->
<svg version="1.1" xmlns="http://www.w3.org/2000/svg" xmlns:xlink="http://www.w3.org/1999/xlink" x="0px" y="0px"
	 viewBox="0 0 750 500" style="enable-background:new 0 0 750 500;" xml:space="preserve">
<g id="BACKGROUND">
	<rect style="fill:#FFFFFF;" width="750" height="500"/>
</g>
<g id="OBJECTS">
	<g>
		<path style="fill:#DFF1FA;" d="M131.364,468.36C76.753,416.556,61.359,250.289,87.56,171.825
			c28.073-84.072,64.9-105.708,172.214-65.367S371.357,30.533,475.522,22.23s227.712,96.076,193.583,291.963
			c-15.724,90.247-49.693,130.813-81.758,148.32L131.364,468.36z"/>
		<ellipse style="fill:#C8DEE8;" cx="378.986" cy="465.521" rx="260.775" ry="12.709"/>
		<g>
			<g>
				<polygon style="fill:#FFFFFF;" points="364.756,94.76 364.756,296.063 490.975,296.063 490.975,121.466 463.991,94.76 				"/>
				<g>
					
						<line style="fill:none;stroke:#DCEEF7;stroke-width:1.5906;stroke-linecap:round;stroke-miterlimit:10;" x1="404.101" y1="265.281" x2="454.4" y2="265.281"/>
					
						<line style="fill:none;stroke:#DCEEF7;stroke-width:1.5906;stroke-linecap:round;stroke-miterlimit:10;" x1="384.806" y1="117.953" x2="430.503" y2="117.667"/>
					
						<line style="fill:none;stroke:#DCEEF7;stroke-width:1.5906;stroke-linecap:round;stroke-miterlimit:10;" x1="384.861" y1="129.267" x2="430.558" y2="128.982"/>
					
						<line style="fill:none;stroke:#DCEEF7;stroke-width:1.5906;stroke-linecap:round;stroke-miterlimit:10;" x1="384.956" y1="148.671" x2="474.249" y2="148.113"/>
					
						<line style="fill:none;stroke:#DCEEF7;stroke-width:1.5906;stroke-linecap:round;stroke-miterlimit:10;" x1="385.014" y1="160.625" x2="474.307" y2="160.068"/>
					
						<line style="fill:none;stroke:#DCEEF7;stroke-width:1.5906;stroke-linecap:round;stroke-miterlimit:10;" x1="385.073" y1="172.58" x2="474.366" y2="172.022"/>
					
						<line style="fill:none;stroke:#DCEEF7;stroke-width:1.5906;stroke-linecap:round;stroke-miterlimit:10;" x1="385.131" y1="184.535" x2="474.424" y2="183.977"/>
					
						<line style="fill:none;stroke:#DCEEF7;stroke-width:1.5906;stroke-linecap:round;stroke-miterlimit:10;" x1="385.19" y1="196.489" x2="474.483" y2="195.932"/>
					
						<line style="fill:none;stroke:#DCEEF7;stroke-width:1.5906;stroke-linecap:round;stroke-miterlimit:10;" x1="385.248" y1="208.444" x2="474.541" y2="207.886"/>
					
						<line style="fill:none;stroke:#DCEEF7;stroke-width:1.5906;stroke-linecap:round;stroke-miterlimit:10;" x1="385.306" y1="220.398" x2="474.6" y2="219.841"/>
					
						<line style="fill:none;stroke:#DCEEF7;stroke-width:1.5906;stroke-linecap:round;stroke-miterlimit:10;" x1="385.365" y1="232.353" x2="474.658" y2="231.795"/>
					
						<line style="fill:none;stroke:#DCEEF7;stroke-width:1.5906;stroke-linecap:round;stroke-miterlimit:10;" x1="385.423" y1="244.308" x2="474.716" y2="243.75"/>
				</g>
				<polygon style="opacity:0.45;fill:#DCEEF7;" points="463.991,94.76 490.836,121.605 463.991,121.605 				"/>
			</g>
			<g>
				<path style="fill:#FF9D00;" d="M513.067,160.589h-61.466c-3.374,0-6.134,2.76-6.134,6.134v4.701c0,3.373,2.76,6.134,6.134,6.134
					h52.753l4.241,7.445c0.562,0.986,2.048,0.738,2.259-0.377l1.335-7.067h0.878c3.373,0,6.134-2.76,6.134-6.134v-4.701
					C519.201,163.349,516.441,160.589,513.067,160.589z"/>
				<polygon style="fill:#FFFFFF;" points="458.163,172.147 455.863,170.911 453.541,172.105 454.006,169.535 452.153,167.695 
					454.74,167.344 455.918,165.013 457.052,167.365 459.632,167.764 457.746,169.57 				"/>
				<polygon style="fill:#FFFFFF;" points="472.897,172.147 470.597,170.911 468.275,172.105 468.74,169.535 466.887,167.695 
					469.474,167.344 470.652,165.013 471.786,167.365 474.366,167.764 472.48,169.57 				"/>
				<polygon style="fill:#FFFFFF;" points="487.028,172.147 484.728,170.911 482.406,172.105 482.871,169.535 481.018,167.695 
					483.605,167.344 484.783,165.013 485.916,167.365 488.497,167.764 486.61,169.57 				"/>
				<polygon style="fill:#FFFFFF;" points="500.315,172.147 498.015,170.911 495.692,172.105 496.157,169.535 494.304,167.695 
					496.892,167.344 498.069,165.013 499.203,167.365 501.784,167.764 499.897,169.57 				"/>
				<polygon style="fill:#FFFFFF;" points="512.787,172.147 510.487,170.911 508.165,172.105 508.63,169.535 506.777,167.695 
					509.364,167.344 510.542,165.013 511.675,167.365 514.256,167.764 512.37,169.57 				"/>
			</g>
			<g>
				<g>
					<g>
						<g>
							<g>
								<rect x="263.493" y="135.264" style="fill:#3A7EB9;" width="119.786" height="327.276"/>
							</g>
						</g>
						<rect x="260.159" y="135.264" style="fill:#2A3B69;" width="126.456" height="12.306"/>
					</g>
					<g>
						<g>
							<g>
								<rect x="279.189" y="164.753" style="fill:#2A3B69;" width="35.161" height="23.407"/>
								<rect x="276.286" y="185.653" style="fill:#92B7FB;" width="41.315" height="5.013"/>
								<rect x="294.75" y="164.753" style="fill:#92B7FB;" width="3.118" height="20.9"/>
							</g>
							<g>
								<rect x="332.075" y="164.753" style="fill:#2A3B69;" width="35.162" height="23.407"/>
								<rect x="329.172" y="185.653" style="fill:#92B7FB;" width="41.315" height="5.013"/>
								<rect x="347.636" y="164.753" style="fill:#92B7FB;" width="3.118" height="20.9"/>
							</g>
						</g>
						<g>
							<g>
								<rect x="279.189" y="214.581" style="fill:#2A3B69;" width="35.161" height="23.407"/>
								<rect x="276.286" y="235.482" style="fill:#92B7FB;" width="41.315" height="5.013"/>
								<rect x="294.75" y="214.581" style="fill:#92B7FB;" width="3.118" height="20.901"/>
							</g>
							<g>
								<rect x="332.075" y="214.581" style="fill:#2A3B69;" width="35.162" height="23.407"/>
								<rect x="329.172" y="235.482" style="fill:#92B7FB;" width="41.315" height="5.013"/>
								<rect x="347.636" y="214.581" style="fill:#92B7FB;" width="3.118" height="20.901"/>
							</g>
						</g>
						<g>
							<g>
								<rect x="279.189" y="264.41" style="fill:#2A3B69;" width="35.161" height="23.407"/>
								<rect x="276.286" y="285.311" style="fill:#92B7FB;" width="41.315" height="5.013"/>
								<rect x="294.75" y="264.41" style="fill:#92B7FB;" width="3.118" height="20.9"/>
							</g>
							<g>
								<rect x="332.075" y="264.41" style="fill:#2A3B69;" width="35.162" height="23.407"/>
								<rect x="329.172" y="285.311" style="fill:#92B7FB;" width="41.315" height="5.013"/>
								<rect x="347.636" y="264.41" style="fill:#92B7FB;" width="3.118" height="20.9"/>
							</g>
						</g>
						<g>
							<g>
								<rect x="279.189" y="314.239" style="fill:#2A3B69;" width="35.161" height="23.407"/>
								<rect x="276.286" y="335.139" style="fill:#92B7FB;" width="41.315" height="5.013"/>
								<rect x="294.75" y="314.239" style="fill:#92B7FB;" width="3.118" height="20.901"/>
							</g>
							<g>
								<rect x="332.075" y="314.239" style="fill:#2A3B69;" width="35.162" height="23.407"/>
								<rect x="329.172" y="335.139" style="fill:#92B7FB;" width="41.315" height="5.013"/>
								<rect x="347.636" y="314.239" style="fill:#92B7FB;" width="3.118" height="20.901"/>
							</g>
						</g>
						<g>
							<g>
								<rect x="279.189" y="364.068" style="fill:#2A3B69;" width="35.161" height="23.407"/>
								<rect x="276.286" y="384.968" style="fill:#92B7FB;" width="41.315" height="5.013"/>
								<rect x="294.75" y="364.068" style="fill:#92B7FB;" width="3.118" height="20.9"/>
							</g>
							<g>
								<rect x="332.075" y="364.068" style="fill:#2A3B69;" width="35.162" height="23.407"/>
								<rect x="329.172" y="384.968" style="fill:#92B7FB;" width="41.315" height="5.013"/>
								<rect x="347.636" y="364.068" style="fill:#92B7FB;" width="3.118" height="20.9"/>
							</g>
						</g>
						<g>
							<g>
								<rect x="279.189" y="413.896" style="fill:#2A3B69;" width="35.161" height="23.407"/>
								<rect x="276.286" y="434.797" style="fill:#92B7FB;" width="41.315" height="5.013"/>
								<rect x="294.75" y="413.896" style="fill:#92B7FB;" width="3.118" height="20.901"/>
							</g>
							<g>
								<rect x="332.075" y="413.896" style="fill:#2A3B69;" width="35.162" height="23.407"/>
								<rect x="329.172" y="434.797" style="fill:#92B7FB;" width="41.315" height="5.013"/>
								<rect x="347.636" y="413.896" style="fill:#92B7FB;" width="3.118" height="20.901"/>
							</g>
						</g>
					</g>
				</g>
				<g>
					<g>
						<g>
							<rect x="532.623" y="135.264" style="fill:#3A7EB9;" width="82.863" height="327.276"/>
						</g>
					</g>
					<rect x="530.316" y="135.264" style="fill:#2A3B69;" width="87.477" height="12.306"/>
					<g>
						<g>
							<path style="fill:#3D7EBC;" d="M600.12,190.262v-13.344c0-0.582,0.472-1.054,1.054-1.054l0,0
								c0.582,0,1.055,0.472,1.055,1.054v13.344"/>
							<g>
								<rect x="551.794" y="162.187" style="fill:#2A3B69;" width="45.988" height="28.012"/>
								<rect x="549.663" y="192.889" style="fill:#356EA4;" width="50.012" height="2.914"/>
								<path style="fill:#3D7EBC;" d="M547.197,190.262v-13.344c0-0.582,0.472-1.054,1.054-1.054l0,0
									c0.582,0,1.055,0.472,1.055,1.054v13.344"/>
								<rect x="549.306" y="178.164" style="opacity:0.32;fill:#3D7EBC;" width="50.815" height="12.098"/>
								<rect x="545.529" y="190.199" style="fill:#3A7AB7;" width="58.28" height="2.914"/>
								<rect x="573.368" y="162.187" style="fill:#2F6292;" width="1.987" height="28.012"/>
							</g>
						</g>
						<g>
							<path style="fill:#3D7EBC;" d="M599.813,250.43v-13.344c0-0.582,0.472-1.054,1.055-1.054l0,0
								c0.582,0,1.054,0.472,1.054,1.054v13.344"/>
							<g>
								<rect x="551.486" y="222.355" style="fill:#2A3B69;" width="45.988" height="28.012"/>
								<rect x="549.356" y="253.056" style="fill:#356EA4;" width="50.012" height="2.914"/>
								<path style="fill:#3D7EBC;" d="M546.889,250.43v-13.344c0-0.582,0.472-1.054,1.055-1.054l0,0
									c0.582,0,1.054,0.472,1.054,1.054v13.344"/>
								<rect x="548.998" y="238.331" style="opacity:0.32;fill:#3D7EBC;" width="50.815" height="12.098"/>
								<rect x="545.222" y="250.367" style="fill:#3A7AB7;" width="58.28" height="2.914"/>
								<rect x="573.061" y="222.355" style="fill:#2F6292;" width="1.987" height="28.012"/>
							</g>
						</g>
						<g>
							<path style="fill:#3D7EBC;" d="M599.506,310.597v-13.344c0-0.582,0.472-1.054,1.054-1.054l0,0
								c0.582,0,1.055,0.472,1.055,1.054v13.344"/>
							<g>
								<rect x="551.179" y="282.522" style="fill:#2A3B69;" width="45.988" height="28.012"/>
								<rect x="549.049" y="313.224" style="fill:#356EA4;" width="50.012" height="2.914"/>
								<path style="fill:#3D7EBC;" d="M546.582,310.597v-13.344c0-0.582,0.472-1.054,1.054-1.054l0,0
									c0.582,0,1.054,0.472,1.054,1.054v13.344"/>
								<rect x="548.691" y="298.499" style="opacity:0.32;fill:#3D7EBC;" width="50.815" height="12.098"/>
								<rect x="544.915" y="310.534" style="fill:#3A7AB7;" width="58.28" height="2.914"/>
								<rect x="572.753" y="282.522" style="fill:#2F6292;" width="1.987" height="28.012"/>
							</g>
						</g>
						<g>
							<path style="fill:#3D7EBC;" d="M599.198,370.765V357.42c0-0.582,0.472-1.054,1.055-1.054l0,0
								c0.582,0,1.054,0.472,1.054,1.054v13.345"/>
							<g>
								<rect x="550.871" y="342.69" style="fill:#2A3B69;" width="45.988" height="28.012"/>
								<rect x="548.741" y="373.391" style="fill:#356EA4;" width="50.012" height="2.914"/>
								<path style="fill:#3D7EBC;" d="M546.274,370.765V357.42c0-0.582,0.472-1.054,1.054-1.054l0,0
									c0.582,0,1.054,0.472,1.054,1.054v13.345"/>
								<rect x="548.383" y="358.667" style="opacity:0.32;fill:#3D7EBC;" width="50.815" height="12.098"/>
								<rect x="544.607" y="370.702" style="fill:#3A7AB7;" width="58.28" height="2.914"/>
								<rect x="572.446" y="342.69" style="fill:#2F6292;" width="1.987" height="28.012"/>
							</g>
						</g>
						<g>
							<path style="fill:#3D7EBC;" d="M598.891,430.932v-13.344c0-0.582,0.472-1.054,1.054-1.054l0,0
								c0.582,0,1.054,0.472,1.054,1.054v13.344"/>
							<g>
								<rect x="550.564" y="402.857" style="fill:#2A3B69;" width="45.988" height="28.012"/>
								<rect x="548.434" y="433.559" style="fill:#356EA4;" width="50.012" height="2.914"/>
								<path style="fill:#3D7EBC;" d="M545.967,430.932v-13.344c0-0.582,0.472-1.054,1.054-1.054l0,0
									c0.582,0,1.054,0.472,1.054,1.054v13.344"/>
								<rect x="548.076" y="418.834" style="opacity:0.32;fill:#3D7EBC;" width="50.815" height="12.098"/>
								<rect x="544.3" y="430.869" style="fill:#3A7AB7;" width="58.28" height="2.914"/>
								<rect x="572.139" y="402.857" style="fill:#2F6292;" width="1.987" height="28.012"/>
							</g>
						</g>
					</g>
				</g>
				<g>
					<rect x="383.223" y="190.667" style="fill:#AADCF7;" width="152.183" height="271.873"/>
					<rect x="378.986" y="190.667" style="fill:#2A3B69;" width="160.657" height="10.223"/>
					<g>
						<g>
							<g>
								<path style="fill:#387EB9;" d="M426.683,237.94c0,0.675-0.582,1.223-1.299,1.223c-0.718,0-1.299-0.548-1.299-1.223
									c0-0.675,0.582-1.223,1.299-1.223C426.102,236.717,426.683,237.264,426.683,237.94z"/>
								<g>
									<rect x="397.493" y="238.303" style="fill:#387EB9;" width="0.355" height="15.966"/>
									<g>
										<rect x="399.899" y="216.125" style="fill:#2A3B69;" width="23.158" height="39.708"/>
										<rect x="396.25" y="254.269" style="fill:#3A7EB9;" width="30.317" height="3.041"/>
										<rect x="425.206" y="238.303" style="fill:#387EB9;" width="0.355" height="15.966"/>
										<ellipse style="fill:#387EB9;" cx="397.671" cy="237.94" rx="1.299" ry="1.223"/>
									</g>
									<rect x="397.671" y="238.77" style="opacity:0.47;fill:#387EB9;" width="27.536" height="15.499"/>
								</g>
							</g>
							<g>
								<ellipse style="fill:#387EB9;" cx="473.214" cy="237.94" rx="1.299" ry="1.223"/>
								<g>
									<rect x="445.323" y="238.303" style="fill:#387EB9;" width="0.355" height="15.966"/>
									<g>
										<rect x="447.729" y="216.125" style="fill:#2A3B69;" width="23.158" height="39.708"/>
										<rect x="444.08" y="254.269" style="fill:#3A7EB9;" width="30.317" height="3.041"/>
										<rect x="473.036" y="238.303" style="fill:#387EB9;" width="0.355" height="15.966"/>
										<path style="fill:#387EB9;" d="M446.8,237.94c0,0.675-0.582,1.223-1.299,1.223c-0.718,0-1.299-0.548-1.299-1.223
											c0-0.675,0.582-1.223,1.299-1.223C446.219,236.717,446.8,237.264,446.8,237.94z"/>
									</g>
									<rect x="445.501" y="238.77" style="opacity:0.47;fill:#387EB9;" width="27.536" height="15.499"/>
								</g>
							</g>
							<g>
								<ellipse style="fill:#387EB9;" cx="521.044" cy="237.94" rx="1.299" ry="1.223"/>
								<g>
									<rect x="493.153" y="238.303" style="fill:#387EB9;" width="0.355" height="15.966"/>
									<g>
										<rect x="495.559" y="216.125" style="fill:#2A3B69;" width="23.158" height="39.708"/>
										<rect x="491.91" y="254.269" style="fill:#3A7EB9;" width="30.317" height="3.041"/>
										<rect x="520.867" y="238.303" style="fill:#387EB9;" width="0.355" height="15.966"/>
										<path style="fill:#387EB9;" d="M494.63,237.94c0,0.675-0.582,1.223-1.299,1.223c-0.718,0-1.299-0.548-1.299-1.223
											c0-0.675,0.582-1.223,1.299-1.223C494.049,236.717,494.63,237.264,494.63,237.94z"/>
									</g>
									<rect x="493.331" y="238.77" style="opacity:0.47;fill:#387EB9;" width="27.535" height="15.499"/>
								</g>
							</g>
						</g>
						<g>
							<g>
								<path style="fill:#387EB9;" d="M426.695,302.421c0,0.675-0.582,1.223-1.299,1.223c-0.718,0-1.299-0.548-1.299-1.223
									s0.582-1.223,1.299-1.223C426.113,301.198,426.695,301.746,426.695,302.421z"/>
								<g>
									<rect x="397.505" y="302.784" style="fill:#387EB9;" width="0.355" height="15.966"/>
									<g>
										<rect x="399.911" y="280.606" style="fill:#2A3B69;" width="23.158" height="39.708"/>
										<rect x="396.262" y="318.75" style="fill:#3A7EB9;" width="30.317" height="3.041"/>
										<rect x="425.218" y="302.784" style="fill:#387EB9;" width="0.355" height="15.966"/>
										<path style="fill:#387EB9;" d="M398.982,302.421c0,0.675-0.582,1.223-1.299,1.223c-0.718,0-1.299-0.548-1.299-1.223
											s0.582-1.223,1.299-1.223C398.4,301.198,398.982,301.746,398.982,302.421z"/>
									</g>
									<rect x="397.683" y="303.251" style="opacity:0.47;fill:#387EB9;" width="27.536" height="15.499"/>
								</g>
							</g>
							<g>
								<ellipse style="fill:#387EB9;" cx="473.226" cy="302.421" rx="1.299" ry="1.223"/>
								<g>
									<rect x="445.335" y="302.784" style="fill:#387EB9;" width="0.355" height="15.966"/>
									<g>
										<rect x="447.741" y="280.606" style="fill:#2A3B69;" width="23.158" height="39.708"/>
										<rect x="444.092" y="318.75" style="fill:#3A7EB9;" width="30.317" height="3.041"/>
										<rect x="473.048" y="302.784" style="fill:#387EB9;" width="0.355" height="15.966"/>
										<ellipse style="fill:#387EB9;" cx="445.513" cy="302.421" rx="1.299" ry="1.223"/>
									</g>
									<rect x="445.513" y="303.251" style="opacity:0.47;fill:#387EB9;" width="27.536" height="15.499"/>
								</g>
							</g>
							<g>
								<path style="fill:#387EB9;" d="M522.355,302.421c0,0.675-0.582,1.223-1.299,1.223c-0.718,0-1.299-0.548-1.299-1.223
									s0.582-1.223,1.299-1.223C521.774,301.198,522.355,301.746,522.355,302.421z"/>
								<g>
									<rect x="493.165" y="302.784" style="fill:#387EB9;" width="0.355" height="15.966"/>
									<g>
										<rect x="495.571" y="280.606" style="fill:#2A3B69;" width="23.158" height="39.708"/>
										<rect x="491.922" y="318.75" style="fill:#3A7EB9;" width="30.317" height="3.041"/>
										<rect x="520.878" y="302.784" style="fill:#387EB9;" width="0.355" height="15.966"/>
										<path style="fill:#387EB9;" d="M494.642,302.421c0,0.675-0.582,1.223-1.299,1.223c-0.718,0-1.299-0.548-1.299-1.223
											s0.582-1.223,1.299-1.223C494.06,301.198,494.642,301.746,494.642,302.421z"/>
									</g>
									<rect x="493.343" y="303.251" style="opacity:0.47;fill:#387EB9;" width="27.536" height="15.499"/>
								</g>
							</g>
						</g>
						<g>
							<g>
								<path style="fill:#387EB9;" d="M426.707,366.902c0,0.675-0.582,1.223-1.299,1.223c-0.718,0-1.299-0.548-1.299-1.223
									s0.582-1.223,1.299-1.223C426.125,365.679,426.707,366.227,426.707,366.902z"/>
								<g>
									<rect x="397.517" y="367.266" style="fill:#387EB9;" width="0.355" height="15.966"/>
									<g>
										<rect x="399.923" y="345.087" style="fill:#2A3B69;" width="23.158" height="39.708"/>
										<rect x="396.273" y="383.231" style="fill:#3A7EB9;" width="30.317" height="3.041"/>
										<rect x="425.23" y="367.266" style="fill:#387EB9;" width="0.355" height="15.966"/>
										<ellipse style="fill:#387EB9;" cx="397.694" cy="366.902" rx="1.299" ry="1.223"/>
									</g>
									<rect x="397.694" y="367.733" style="opacity:0.47;fill:#387EB9;" width="27.536" height="15.499"/>
								</g>
							</g>
							<g>
								<ellipse style="fill:#387EB9;" cx="473.238" cy="366.902" rx="1.299" ry="1.223"/>
								<g>
									<rect x="445.347" y="367.266" style="fill:#387EB9;" width="0.355" height="15.966"/>
									<g>
										<rect x="447.753" y="345.087" style="fill:#2A3B69;" width="23.158" height="39.708"/>
										<rect x="444.103" y="383.231" style="fill:#3A7EB9;" width="30.317" height="3.041"/>
										<rect x="473.06" y="367.266" style="fill:#387EB9;" width="0.355" height="15.966"/>
										<path style="fill:#387EB9;" d="M446.824,366.902c0,0.675-0.582,1.223-1.299,1.223c-0.718,0-1.299-0.548-1.299-1.223
											s0.582-1.223,1.299-1.223C446.242,365.679,446.824,366.227,446.824,366.902z"/>
									</g>
									<rect x="445.525" y="367.733" style="opacity:0.47;fill:#387EB9;" width="27.536" height="15.499"/>
								</g>
							</g>
							<g>
								<ellipse style="fill:#387EB9;" cx="521.068" cy="366.902" rx="1.299" ry="1.223"/>
								<g>
									<rect x="493.177" y="367.266" style="fill:#387EB9;" width="0.355" height="15.966"/>
									<g>
										<rect x="495.583" y="345.087" style="fill:#2A3B69;" width="23.158" height="39.708"/>
										<rect x="491.934" y="383.231" style="fill:#3A7EB9;" width="30.317" height="3.041"/>
										<rect x="520.89" y="367.266" style="fill:#387EB9;" width="0.355" height="15.966"/>
										<path style="fill:#387EB9;" d="M494.654,366.902c0,0.675-0.582,1.223-1.299,1.223c-0.718,0-1.299-0.548-1.299-1.223
											s0.582-1.223,1.299-1.223C494.072,365.679,494.654,366.227,494.654,366.902z"/>
									</g>
									<rect x="493.355" y="367.733" style="opacity:0.47;fill:#387EB9;" width="27.536" height="15.499"/>
								</g>
							</g>
						</g>
						<g>
							<g>
								<ellipse style="fill:#387EB9;" cx="425.419" cy="431.383" rx="1.299" ry="1.223"/>
								<g>
									<rect x="397.529" y="431.747" style="fill:#387EB9;" width="0.355" height="15.966"/>
									<g>
										<rect x="399.935" y="409.568" style="fill:#2A3B69;" width="23.158" height="39.708"/>
										<rect x="396.285" y="447.712" style="fill:#3A7EB9;" width="30.317" height="3.041"/>
										<rect x="425.242" y="431.747" style="fill:#387EB9;" width="0.355" height="15.966"/>
										<path style="fill:#387EB9;" d="M399.006,431.383c0,0.675-0.582,1.223-1.299,1.223c-0.718,0-1.299-0.548-1.299-1.223
											s0.582-1.223,1.299-1.223C398.424,430.16,399.006,430.708,399.006,431.383z"/>
									</g>
									<rect x="397.706" y="432.214" style="opacity:0.47;fill:#387EB9;" width="27.536" height="15.499"/>
								</g>
							</g>
							<g>
								<path style="fill:#387EB9;" d="M474.549,431.383c0,0.675-0.582,1.223-1.299,1.223c-0.718,0-1.299-0.548-1.299-1.223
									s0.582-1.223,1.299-1.223C473.967,430.16,474.549,430.708,474.549,431.383z"/>
								<g>
									<rect x="445.359" y="431.747" style="fill:#387EB9;" width="0.355" height="15.966"/>
									<g>
										<rect x="447.765" y="409.568" style="fill:#2A3B69;" width="23.158" height="39.708"/>
										<rect x="444.115" y="447.712" style="fill:#3A7EB9;" width="30.317" height="3.041"/>
										<rect x="473.072" y="431.747" style="fill:#387EB9;" width="0.355" height="15.966"/>
										<ellipse style="fill:#387EB9;" cx="445.536" cy="431.383" rx="1.299" ry="1.223"/>
									</g>
									<rect x="445.536" y="432.214" style="opacity:0.47;fill:#387EB9;" width="27.536" height="15.499"/>
								</g>
							</g>
							<g>
								<ellipse style="fill:#387EB9;" cx="521.08" cy="431.383" rx="1.299" ry="1.223"/>
								<g>
									<rect x="493.189" y="431.747" style="fill:#387EB9;" width="0.355" height="15.966"/>
									<g>
										<rect x="495.595" y="409.568" style="fill:#2A3B69;" width="23.158" height="39.708"/>
										<rect x="491.945" y="447.712" style="fill:#3A7EB9;" width="30.317" height="3.041"/>
										<rect x="520.902" y="431.747" style="fill:#387EB9;" width="0.355" height="15.966"/>
										<path style="fill:#387EB9;" d="M494.666,431.383c0,0.675-0.582,1.223-1.299,1.223c-0.718,0-1.299-0.548-1.299-1.223
											s0.582-1.223,1.299-1.223C494.084,430.16,494.666,430.708,494.666,431.383z"/>
									</g>
									<rect x="493.366" y="432.214" style="opacity:0.47;fill:#387EB9;" width="27.536" height="15.499"/>
								</g>
							</g>
						</g>
					</g>
				</g>
				<g>
					<g>
						<rect x="134.946" y="234.518" style="fill:#92B7FB;" width="128.684" height="228.021"/>
						<polyline style="fill:#2A3B69;" points="267.212,234.518 267.212,243.092 131.364,243.092 131.364,234.518 						"/>
						<rect x="143.264" y="257.891" style="fill:#2A3B69;" width="26.103" height="49.325"/>
						<rect x="186.237" y="257.891" style="fill:#2A3B69;" width="26.103" height="49.325"/>
						<rect x="229.21" y="257.891" style="fill:#2A3B69;" width="26.103" height="49.325"/>
						<rect x="143.264" y="322.68" style="fill:#2A3B69;" width="26.103" height="49.325"/>
						<rect x="186.237" y="322.68" style="fill:#2A3B69;" width="26.103" height="49.325"/>
						<rect x="229.21" y="322.68" style="fill:#2A3B69;" width="26.103" height="49.325"/>
						<rect x="143.264" y="387.469" style="fill:#2A3B69;" width="26.103" height="49.325"/>
						<rect x="186.237" y="387.469" style="fill:#2A3B69;" width="26.103" height="49.325"/>
						<rect x="229.21" y="387.469" style="fill:#2A3B69;" width="26.103" height="49.325"/>
						<g>
							<g>
								<g>
									<path style="fill:#3A7EB9;" d="M143.246,289.077v19.253h26.139v-19.253H143.246z M147.771,307.122h-2.29v-16.837h2.29
										V307.122z M151.438,307.122h-2.279v-16.837h2.279V307.122z M155.258,307.122h-2.279v-16.837h2.279V307.122z
										 M159.046,307.122h-2.279v-16.837h2.279V307.122z M162.988,307.122h-2.279v-16.837h2.279V307.122z M167.194,307.122h-2.29
										v-16.837h2.29V307.122z"/>
								</g>
								<rect x="140.477" y="287.768" style="fill:#3A7EB9;" width="31.675" height="2.518"/>
								<rect x="140.477" y="307.072" style="fill:#3A7EB9;" width="31.675" height="2.518"/>
							</g>
							<g>
								<g>
									<path style="fill:#3A7EB9;" d="M186.219,289.077v19.253h26.139v-19.253H186.219z M190.744,307.122h-2.29v-16.837h2.29
										V307.122z M194.41,307.122h-2.279v-16.837h2.279V307.122z M198.231,307.122h-2.279v-16.837h2.279V307.122z
										 M202.019,307.122h-2.279v-16.837h2.279V307.122z M205.96,307.122h-2.279v-16.837h2.279V307.122z M210.166,307.122h-2.29
										v-16.837h2.29V307.122z"/>
								</g>
								<rect x="183.45" y="287.768" style="fill:#3A7EB9;" width="31.675" height="2.518"/>
								<rect x="183.45" y="307.072" style="fill:#3A7EB9;" width="31.675" height="2.518"/>
							</g>
							<g>
								<g>
									<path style="fill:#3A7EB9;" d="M229.191,289.077v19.253h26.139v-19.253H229.191z M233.717,307.122h-2.29v-16.837h2.29
										V307.122z M237.383,307.122h-2.279v-16.837h2.279V307.122z M241.204,307.122h-2.279v-16.837h2.279V307.122z
										 M244.992,307.122h-2.279v-16.837h2.279V307.122z M248.933,307.122h-2.279v-16.837h2.279V307.122z M253.139,307.122h-2.29
										v-16.837h2.29V307.122z"/>
								</g>
								<rect x="226.423" y="287.768" style="fill:#3A7EB9;" width="31.675" height="2.518"/>
								<rect x="226.423" y="307.072" style="fill:#3A7EB9;" width="31.675" height="2.518"/>
							</g>
							<g>
								<g>
									<path style="fill:#3A7EB9;" d="M143.246,353.866v19.253h26.139v-19.253H143.246z M147.771,371.911h-2.29v-16.837h2.29
										V371.911z M151.438,371.911h-2.279v-16.837h2.279V371.911z M155.258,371.911h-2.279v-16.837h2.279V371.911z
										 M159.046,371.911h-2.279v-16.837h2.279V371.911z M162.988,371.911h-2.279v-16.837h2.279V371.911z M167.194,371.911h-2.29
										v-16.837h2.29V371.911z"/>
								</g>
								<rect x="140.477" y="352.556" style="fill:#3A7EB9;" width="31.675" height="2.518"/>
								<rect x="140.477" y="371.861" style="fill:#3A7EB9;" width="31.675" height="2.518"/>
							</g>
							<g>
								<g>
									<path style="fill:#3A7EB9;" d="M186.219,353.866v19.253h26.139v-19.253H186.219z M190.744,371.911h-2.29v-16.837h2.29
										V371.911z M194.41,371.911h-2.279v-16.837h2.279V371.911z M198.231,371.911h-2.279v-16.837h2.279V371.911z
										 M202.019,371.911h-2.279v-16.837h2.279V371.911z M205.96,371.911h-2.279v-16.837h2.279V371.911z M210.166,371.911h-2.29
										v-16.837h2.29V371.911z"/>
								</g>
								<rect x="183.45" y="352.556" style="fill:#3A7EB9;" width="31.675" height="2.518"/>
								<rect x="183.45" y="371.861" style="fill:#3A7EB9;" width="31.675" height="2.518"/>
							</g>
							<g>
								<g>
									<path style="fill:#3A7EB9;" d="M229.191,353.866v19.253h26.139v-19.253H229.191z M233.717,371.911h-2.29v-16.837h2.29
										V371.911z M237.383,371.911h-2.279v-16.837h2.279V371.911z M241.204,371.911h-2.279v-16.837h2.279V371.911z
										 M244.992,371.911h-2.279v-16.837h2.279V371.911z M248.933,371.911h-2.279v-16.837h2.279V371.911z M253.139,371.911h-2.29
										v-16.837h2.29V371.911z"/>
								</g>
								<rect x="226.423" y="352.556" style="fill:#3A7EB9;" width="31.675" height="2.518"/>
								<rect x="226.423" y="371.861" style="fill:#3A7EB9;" width="31.675" height="2.518"/>
							</g>
							<g>
								<g>
									<path style="fill:#3A7EB9;" d="M143.246,418.655v19.253h26.139v-19.253H143.246z M147.771,436.7h-2.29v-16.837h2.29V436.7z
										 M151.438,436.7h-2.279v-16.837h2.279V436.7z M155.258,436.7h-2.279v-16.837h2.279V436.7z M159.046,436.7h-2.279v-16.837
										h2.279V436.7z M162.988,436.7h-2.279v-16.837h2.279V436.7z M167.194,436.7h-2.29v-16.837h2.29V436.7z"/>
								</g>
								<rect x="140.477" y="417.345" style="fill:#3A7EB9;" width="31.675" height="2.518"/>
								<rect x="140.477" y="436.649" style="fill:#3A7EB9;" width="31.675" height="2.518"/>
							</g>
							<g>
								<g>
									<path style="fill:#3A7EB9;" d="M186.219,418.655v19.253h26.139v-19.253H186.219z M190.744,436.7h-2.29v-16.837h2.29V436.7z
										 M194.41,436.7h-2.279v-16.837h2.279V436.7z M198.231,436.7h-2.279v-16.837h2.279V436.7z M202.019,436.7h-2.279v-16.837
										h2.279V436.7z M205.96,436.7h-2.279v-16.837h2.279V436.7z M210.166,436.7h-2.29v-16.837h2.29V436.7z"/>
								</g>
								<rect x="183.45" y="417.345" style="fill:#3A7EB9;" width="31.675" height="2.518"/>
								<rect x="183.45" y="436.649" style="fill:#3A7EB9;" width="31.675" height="2.518"/>
							</g>
							<g>
								<g>
									<path style="fill:#3A7EB9;" d="M229.191,418.655v19.253h26.139v-19.253H229.191z M233.717,436.7h-2.29v-16.837h2.29V436.7z
										 M237.383,436.7h-2.279v-16.837h2.279V436.7z M241.204,436.7h-2.279v-16.837h2.279V436.7z M244.992,436.7h-2.279v-16.837
										h2.279V436.7z M248.933,436.7h-2.279v-16.837h2.279V436.7z M253.139,436.7h-2.29v-16.837h2.29V436.7z"/>
								</g>
								<rect x="226.423" y="417.345" style="fill:#3A7EB9;" width="31.675" height="2.518"/>
								<rect x="226.423" y="436.649" style="fill:#3A7EB9;" width="31.675" height="2.518"/>
							</g>
						</g>
					</g>
					
						<line style="fill:none;stroke:#2A3B69;stroke-width:0.9259;stroke-miterlimit:10;" x1="134.946" y1="315.996" x2="263.63" y2="315.996"/>
					
						<line style="fill:none;stroke:#2A3B69;stroke-width:0.9259;stroke-miterlimit:10;" x1="134.946" y1="382.389" x2="263.63" y2="382.389"/>
				</g>
			</g>
			<g>
				<g>
					<path style="fill:#C8DEE8;" d="M222.4,274.134l-0.129-29.235l1.524-0.978l-3.859-1.864l5.292-2.915l-2.986-1.098l-0.217-48.917
						c-3.384-1.252-11.81-5.517-14.673-17.595c-0.549-2.139-0.836-4.356-0.846-6.553c-0.047-10.758,6.174-20.341,15.851-24.415
						c1.225-0.525,2.543-0.958,3.905-1.283c1.831-0.44,3.737-0.667,5.663-0.676c0,0,0.001,0,0.002,0
						c1.724-0.002,3.344,0.155,4.895,0.468c1.432,0.274,2.839,0.679,4.167,1.199c9.869,3.785,16.54,13.625,16.588,24.481
						c0.052,11.811-7.396,22.009-18.284,25.295l-0.702,83.053l-8.104,12.084L222.4,274.134z M230.955,147.273
						c-0.909,0.133-1.586,0.955-1.582,1.935c0.003,0.548,0.229,1.073,0.621,1.44c0.238,0.225,0.632,0.484,1.209,0.483
						c0.538-0.003,1.026-0.237,1.382-0.661c0.289-0.351,0.446-0.796,0.443-1.277c-0.004-0.797-0.456-1.503-1.154-1.798
						c-0.21-0.088-0.441-0.134-0.679-0.134C231.117,147.262,231.034,147.268,230.955,147.273z"/>
					<path style="fill:none;stroke:#92B7FB;stroke-width:0.6906;stroke-miterlimit:10;" d="M255.734,164.762
						c-0.046-10.446-6.448-19.335-15.417-22.775c-1.241-0.486-2.527-0.853-3.859-1.109c-1.463-0.295-2.979-0.439-4.525-0.432
						c-1.8,0.008-3.561,0.222-5.244,0.626c-1.253,0.299-2.459,0.692-3.618,1.189c-8.677,3.653-14.769,12.454-14.724,22.71
						c0.009,2.122,0.293,4.175,0.796,6.136c3.316,13.992,14.717,16.673,14.717,16.673c-0.003-0.002-0.005-0.004-0.008-0.005
						c0.002,0.001,0.003,0.002,0.005,0.002c0.001,0,0.002,0.001,0.003,0.001v0.002l0.095,21.494l0.005,1.034l0.005,1.118
						l0.112,25.331l5.576,2.05l-5.704,3.142l3.611,1.744l-3.442,2.209l0.122,27.626l6.181,8.449l6.333-9.444l0.707-83.896
						c0,0,0.001,0,0.002,0C247.982,186.101,255.785,176.357,255.734,164.762z M233.997,151.653c-0.673,0.803-1.663,1.315-2.779,1.32
						c-0.962,0.004-1.832-0.365-2.481-0.98c-0.734-0.686-1.2-1.675-1.205-2.777c-0.009-1.958,1.423-3.565,3.26-3.779
						c0.008,0,0.008,0,0.015,0c0.123-0.008,0.254-0.017,0.377-0.018c0.5-0.002,0.977,0.099,1.409,0.279
						c1.333,0.565,2.27,1.908,2.277,3.485C234.875,150.127,234.548,150.985,233.997,151.653z"/>
				</g>
				<path style="fill:#FF9D00;" d="M228.779,151.337c-0.828-0.74-1.368-1.82-1.402-3.037c-0.059-2.163,1.481-3.975,3.506-4.259
					c0.008,0,0.008,0,0.017,0c0.589,0.098,1.247,0.185,1.98,0.243c0.034-0.001,0.06,0.007,0.094,0.006
					c4.227,0.331,4.386-3.17,4.052-5.43c-0.148-1.056-0.408-1.838-0.408-1.838c-1.198-3.972-2.52-7.528-3.918-10.714
					c-3.63,6.26-6.078,11.252-6.388,12.645c-0.031,0.124-0.053,0.247-0.075,0.37c-1.376,0.362-2.699,0.828-3.967,1.406
					c0.861-5.509,4.135-12.934,7.787-19.921c-7.849-14.803-24.748-30.732-24.748-30.732l10.173,2.277c0,0,8.76,10.275,16.833,24.257
					c4.967-8.952,9.208-16.639,9.208-16.639l8.033,2.572c-4.734,5.695-10.453,13.179-14.286,19.462
					c1.015,1.961,2.06,4.071,3.108,6.337c2.125,4.577,2.98,8.453,2.94,11.644c-0.06,5.846-3.083,9.417-6.735,10.841
					C232.706,151.563,230.669,151.724,228.779,151.337z"/>
			</g>
			<g>
				<path style="fill:#FF9D00;" d="M143.566,202.007h61.761c3.39,0,6.163,2.773,6.163,6.163v4.723c0,3.389-2.773,6.163-6.163,6.163
					H152.32l-4.261,7.48c-0.564,0.991-2.058,0.742-2.269-0.379l-1.342-7.101h-0.882c-3.39,0-6.163-2.773-6.163-6.163v-4.723
					C137.403,204.78,140.176,202.007,143.566,202.007z"/>
				
					<polygon style="fill:none;stroke:#FFFFFF;stroke-width:0.4855;stroke-linecap:round;stroke-linejoin:round;stroke-miterlimit:10;" points="
					198.733,213.621 201.044,212.378 203.378,213.578 202.91,210.996 204.772,209.147 202.172,208.794 200.989,206.452 
					199.85,208.815 197.257,209.217 199.153,211.031 				"/>
				
					<polygon style="fill:none;stroke:#FFFFFF;stroke-width:0.4855;stroke-linecap:round;stroke-linejoin:round;stroke-miterlimit:10;" points="
					183.928,213.621 186.239,212.378 188.573,213.578 188.106,210.996 189.967,209.147 187.368,208.794 186.185,206.452 
					185.045,208.815 182.452,209.217 184.348,211.031 				"/>
				<polygon style="fill:#FFFFFF;" points="169.73,213.621 172.041,212.378 174.374,213.578 173.907,210.996 175.769,209.147 
					173.169,208.794 171.986,206.452 170.847,208.815 168.254,209.217 170.149,211.031 				"/>
				<polygon style="fill:#FFFFFF;" points="156.38,213.621 158.691,212.378 161.024,213.578 160.557,210.996 162.419,209.147 
					159.819,208.794 158.636,206.452 157.496,208.815 154.904,209.217 156.799,211.031 				"/>
				<polygon style="fill:#FFFFFF;" points="143.847,213.621 146.158,212.378 148.492,213.578 148.025,210.996 149.886,209.147 
					147.286,208.794 146.104,206.452 144.964,208.815 142.371,209.217 144.267,211.031 				"/>
			</g>
			<g>
				<path style="fill:#FF9D00;" d="M278.462,98.128h61.348c3.367,0,6.122,2.755,6.122,6.122v4.692c0,3.367-2.755,6.122-6.122,6.122
					h-52.652l-4.233,7.43c-0.561,0.984-2.044,0.737-2.254-0.376l-1.333-7.054h-0.876c-3.367,0-6.122-2.755-6.122-6.122v-4.692
					C272.34,100.883,275.095,98.128,278.462,98.128z"/>
				
					<polygon style="fill:none;stroke:#FFFFFF;stroke-width:0.4855;stroke-linecap:round;stroke-linejoin:round;stroke-miterlimit:10;" points="
					333.261,109.664 335.556,108.43 337.874,109.621 337.41,107.057 339.259,105.221 336.677,104.87 335.502,102.543 
					334.37,104.891 331.794,105.289 333.678,107.091 				"/>
				<polygon style="fill:#FFFFFF;" points="318.555,109.664 320.851,108.43 323.169,109.621 322.704,107.057 324.554,105.221 
					321.971,104.87 320.796,102.543 319.664,104.891 317.089,105.289 318.972,107.091 				"/>
				<polygon style="fill:#FFFFFF;" points="304.451,109.664 306.747,108.43 309.065,109.621 308.601,107.057 310.45,105.221 
					307.867,104.87 306.693,102.543 305.561,104.891 302.985,105.289 304.868,107.091 				"/>
				<polygon style="fill:#FFFFFF;" points="291.19,109.664 293.486,108.43 295.804,109.621 295.34,107.057 297.189,105.221 
					294.606,104.87 293.431,102.543 292.3,104.891 289.724,105.289 291.607,107.091 				"/>
				<polygon style="fill:#FFFFFF;" points="278.742,109.664 281.037,108.43 283.355,109.621 282.891,107.057 284.74,105.221 
					282.158,104.87 280.983,102.543 279.851,104.891 277.276,105.289 279.159,107.091 				"/>
			</g>
			<g>
				<g>
					<path style="fill:#1B2642;" d="M431.937,462.54H317.219c-8.607,0-15.584-6.977-15.584-15.584V230.166
						c0-8.607,6.977-15.584,15.584-15.584h114.718c8.607,0,15.584,6.977,15.584,15.584v216.789
						C447.521,455.562,440.544,462.54,431.937,462.54z"/>
					<path style="fill:#DCEEF7;" d="M313.766,453.799c-1.872,0-3.391-1.518-3.391-3.391V226.713c0-1.873,1.518-3.391,3.391-3.391
						h121.625c1.873,0,3.391,1.518,3.391,3.391v223.696c0,1.872-1.518,3.391-3.391,3.391H313.766z"/>
					<g>
						<defs>
							<path id="SVGID_1_" d="M313.766,453.799c-1.872,0-3.391-1.518-3.391-3.391V226.713c0-1.873,1.518-3.391,3.391-3.391h121.625
								c1.873,0,3.391,1.518,3.391,3.391v223.696c0,1.872-1.518,3.391-3.391,3.391H313.766z"/>
						</defs>
						<clipPath id="SVGID_00000016072806520571967210000003111288909102745229_">
							<use xlink:href="#SVGID_1_"  style="overflow:visible;"/>
						</clipPath>
						<g style="clip-path:url(#SVGID_00000016072806520571967210000003111288909102745229_);">
							<path style="fill:#C8DEE8;" d="M408.541,304.142h-27.63c-3.165,0-5.73-2.5-5.73-5.585v-35.668
								c0-3.084,2.565-5.585,5.73-5.585h27.63c3.165,0,5.73,2.5,5.73,5.585l0,0c0,3.084-2.566,5.585-5.73,5.585h-3.811
								c-3.165,0-5.73,2.5-5.73,5.585v12.84c0,3.084,2.565,5.585,5.73,5.585h3.811c3.165,0,5.73,2.5,5.73,5.585v0.488
								C414.271,301.641,411.706,304.142,408.541,304.142z"/>
							<path style="fill:#C8DEE8;" d="M352.629,297.239V264.29c0-3.858,3.128-6.986,6.986-6.986h3.409
								c3.858,0,6.986,3.128,6.986,6.986v32.948c0,3.858-3.128,6.986-6.986,6.986h-3.409
								C355.757,304.225,352.629,301.097,352.629,297.239z"/>
							<path style="fill:#C8DEE8;" d="M434.643,350.255v14.929c0,2.084,1.689,3.774,3.774,3.774h1.841
								c2.084,0,3.774-1.689,3.774-3.774v-14.929c0-2.084-1.69-3.774-3.774-3.774h-1.841
								C436.333,346.481,434.643,348.171,434.643,350.255z"/>
							<path style="fill:#C8DEE8;" d="M367.208,318.19v12.414c0,2.778,2.252,5.031,5.031,5.031h13.825
								c2.778,0,5.031-2.252,5.031-5.031V318.19c0-2.778-2.252-5.031-5.031-5.031h-13.825
								C369.461,313.159,367.208,315.412,367.208,318.19z"/>
							<path style="fill:#C8DEE8;" d="M439.42,307.872l0.119-8.524c0.021-1.461-0.786-2.833-2.151-3.643
								c-2.212-1.312-4.037-3.518-5.174-6.254c-0.719-1.73-2.631-2.834-4.701-2.771l-3.483,0.106
								c-3.014,0.092-5.204,2.579-4.604,5.211c1.933,8.477,6.443,15.464,12.321,19.359
								C434.892,313.44,439.372,311.361,439.42,307.872z"/>
							<path style="fill:#C8DEE8;" d="M439.507,258.182l0.119,8.524c-0.066,0.289-0.872,1.661-2.238,2.471
								c-2.212,1.312-4.037,3.518-5.174,6.253c-0.719,1.73-2.631,2.834-4.701,2.771l-3.483-0.106
								c-3.014-0.092-5.204-2.579-4.604-5.211c1.933-8.477,6.443-15.464,12.321-19.359
								C434.892,251.443,439.372,253.521,439.507,258.182z"/>
							<g>
								<g>
									<path style="fill:#C8DEE8;" d="M352.716,226.007c-0.059,0.356-0.088,0.721-0.088,1.095v15.692
										c0,4.344,3.962,7.872,8.85,7.872c2.439,0,4.645-0.878,6.245-2.303c1.6-1.425,2.595-3.397,2.595-5.57v-15.692
										c0-0.374-0.029-0.739-0.088-1.095H352.716z"/>
									<path style="fill:#C8DEE8;" d="M427.273,250.666c-4.879,0-8.84-3.528-8.84-7.872v-15.692c0-0.374,0.029-0.738,0.088-1.095
										h17.515c0.059,0.356,0.088,0.721,0.088,1.095v15.692c0,2.172-0.995,4.145-2.595,5.57S429.722,250.666,427.273,250.666z"/>
									<path style="fill:#C8DEE8;" d="M414.079,238.548v6.573c0,3.276-2.655,5.931-5.931,5.931h-27.987
										c-3.276,0-5.931-2.655-5.931-5.931v-6.573c0-3.276,2.655-5.931,5.931-5.931h27.987
										C411.424,232.617,414.079,235.273,414.079,238.548z"/>
									<path style="fill:#C8DEE8;" d="M323.039,268.951c-2.532,0-4.584-2.607-4.584-5.823c0-3.216,2.052-5.823,4.584-5.823
										c2.532,0,4.584,2.607,4.584,5.823C327.623,266.344,325.57,268.951,323.039,268.951z"/>
									<path style="fill:#C8DEE8;" d="M330.64,268.79l9.369,4.637c1.348,0.667,2.179,1.937,2.166,3.31l-0.248,26.862
										c-0.014,1.461-0.983,2.769-2.473,3.38c-0.468,0.192-0.929,0.402-1.384,0.63c-1.979,0.991-4.474,0.487-5.692-1.22
										l-17.555-24.61c-0.84-1.177-0.877-2.672-0.097-3.881l1.202-1.863c1.02-1.58,3.16-2.261,5.088-1.652
										c0.649,0.205,1.327,0.314,2.023,0.314C326.304,274.697,329.153,272.313,330.64,268.79L330.64,268.79z"/>
									<path style="fill:#C8DEE8;" d="M342.287,263.946l0.262-28.813c0.019-2.125-1.945-3.84-4.33-3.781l-20.595,0.511
										c-2.866,0.071-4.817,2.615-3.848,5.018l4.917,12.197c0.629,1.561,2.331,2.517,4.192,2.473
										c0.051-0.001,0.103-0.002,0.155-0.002c4.813,0,8.715,5.191,8.715,11.58c0,0.669-0.044,1.339-0.124,1.973
										c0.009-0.012,0.009-0.023,0.009-0.023l4.428,2.136C338.862,268.562,342.262,266.776,342.287,263.946z"/>
									<path style="fill:#C8DEE8;" d="M307.265,271.19l-5.63-7.89v-31.045l2.751-0.07c1.815-0.044,3.464,0.956,4.079,2.476
										l7.669,18.89c0.39,0.947,0.283,1.972-0.205,2.876c-1.024,1.894-1.62,4.214-1.62,6.699c0,1.642,0.263,3.197,0.722,4.605
										c0.351,1.077,0.224,2.224-0.449,3.172l-0.205,0.287C312.73,273.509,308.924,273.518,307.265,271.19z"/>
									<path style="fill:#C8DEE8;" d="M314.623,330.465l-12.987-0.043v-15.979h7.289
										C308.924,314.443,315.218,324.757,314.623,330.465z"/>
									<path style="fill:#C8DEE8;" d="M308.271,302.574l-6.635-8.993v-11.878l12.529,17.473c0.371,0.513,0.546,1.095,0.546,1.686
										c0,0.608-0.195,1.216-0.595,1.746C312.71,304.459,309.646,304.442,308.271,302.574z"/>
									<path style="fill:#C8DEE8;" d="M316.71,307.276l-2.425,2.684c-0.498,0.551-0.602,1.307-0.262,1.946
										c1.402,2.634,4.948,9.905,5.38,16.84c0.061,0.981,0.964,1.749,2.067,1.749l0,0c1.023,0,1.895-0.658,2.051-1.558
										c0.363-2.097,1.289-6.035,3.524-10.082c0.324-0.586,0.299-1.277-0.096-1.828l-6.87-9.586
										C319.316,306.373,317.601,306.29,316.71,307.276z"/>
									<g>
										<path style="fill:#C8DEE8;" d="M317.921,375.526h-16.285v-20.184h16.285c2.703,0,4.898,1.946,4.898,4.353v11.478
											C322.819,373.58,320.624,375.526,317.921,375.526z"/>
										<path style="fill:#C8DEE8;" d="M317.325,427.842h-15.69V386.5h15.69c3.152,0,5.718,2.277,5.718,5.092v31.167
											C323.043,425.565,320.477,427.842,317.325,427.842z"/>
										<path style="fill:#C8DEE8;" d="M338.518,431.089h-4.291c-1.359,0-2.46-0.981-2.46-2.19v-6.447
											c0-1.21,1.101-2.19,2.46-2.19l0,0c1.358,0,2.46-0.981,2.46-2.19v-21.832c0-1.21-1.101-2.191-2.46-2.191l0,0
											c-1.359,0-2.46-0.981-2.46-2.19v-7.681c0-1.21,1.101-2.19,2.46-2.19h4.291c1.358,0,2.46,0.981,2.46,2.19v44.721
											C340.978,430.108,339.876,431.089,338.518,431.089z"/>
										<path style="fill:#C8DEE8;" d="M330.299,446.668v-1.949c0-2.37,1.921-4.291,4.291-4.291h2.094
											c2.37,0,4.291,1.921,4.291,4.291v1.949c0,2.37-1.921,4.291-4.291,4.291h-2.094
											C332.22,450.958,330.299,449.037,330.299,446.668z"/>
										<path style="fill:#C8DEE8;" d="M313.117,446.459v-1.949c0-2.37,1.921-4.291,4.291-4.291h2.094
											c2.37,0,4.291,1.921,4.291,4.291v1.949c0,2.37-1.921,4.291-4.291,4.291h-2.094
											C315.038,450.75,313.117,448.829,313.117,446.459z"/>
										<path style="fill:#C8DEE8;" d="M330.881,370.366v-8.294c0-3.284,2.662-5.947,5.947-5.947h2.902
											c3.284,0,5.947,2.662,5.947,5.947v8.294c0,3.284-2.662,5.947-5.947,5.947h-2.902
											C333.543,376.313,330.881,373.651,330.881,370.366z"/>
										<path style="fill:#C8DEE8;" d="M400.196,328.544v-8.294c0-3.284,2.662-5.947,5.947-5.947h2.902
											c3.284,0,5.947,2.662,5.947,5.947v8.294c0,3.284-2.662,5.947-5.947,5.947h-2.902
											C402.858,334.491,400.196,331.828,400.196,328.544z"/>
									</g>
								</g>
							</g>
							<path style="fill:#C8DEE8;" d="M434.451,431.114l0.361-52.074c0.016-2.304,2.118-4.165,4.706-4.165l0,0
								c2.599,0,4.706,1.876,4.706,4.191v52.074c0,2.314-2.107,4.19-4.706,4.19h-0.361
								C436.547,435.33,434.435,433.438,434.451,431.114z"/>
							<path style="fill:#C8DEE8;" d="M384.658,374.124h-15.301c-3.205,0-5.803-2.314-5.803-5.168l0,0
								c0-2.854,2.598-5.167,5.803-5.167h15.301c3.205,0,5.803,2.314,5.803,5.167l0,0
								C390.461,371.811,387.863,374.124,384.658,374.124z"/>
							<path style="fill:#C8DEE8;" d="M384.691,450.145h-15.915c-3.035,0-5.496-2.191-5.496-4.894v-0.547
								c0-2.703,2.461-4.894,5.496-4.894h15.915c3.035,0,5.496,2.191,5.496,4.894v0.547
								C390.187,447.953,387.727,450.145,384.691,450.145z"/>
							<path style="fill:#C8DEE8;" d="M440.489,335.661h-15.915c-3.035,0-5.496-2.191-5.496-4.894v-0.547
								c0-2.703,2.461-4.894,5.496-4.894h15.915c3.035,0,5.496,2.191,5.496,4.894v0.547
								C445.985,333.47,443.524,335.661,440.489,335.661z"/>
							<path style="fill:#C8DEE8;" d="M357.154,425.421l-0.039-40.63c-0.003-2.701,2.453-4.893,5.486-4.898l0,0
								c3.038-0.005,5.504,2.185,5.507,4.89l0.039,40.63c0.003,2.701-2.453,4.893-5.486,4.898l0,0
								C359.623,430.316,357.156,428.126,357.154,425.421z"/>
							<path style="fill:#C8DEE8;" d="M375.22,425.421l-0.039-40.63c-0.003-2.701,2.452-4.893,5.486-4.898l0,0
								c3.038-0.005,5.504,2.185,5.507,4.89l0.039,40.63c0.003,2.701-2.453,4.893-5.486,4.898l0,0
								C377.688,430.316,375.222,428.126,375.22,425.421z"/>
							<path style="fill:#C8DEE8;" d="M419.357,374.124h-15.301c-3.205,0-5.803-2.314-5.803-5.168l0,0
								c0-2.854,2.598-5.167,5.803-5.167h15.301c3.205,0,5.803,2.314,5.803,5.167l0,0
								C425.16,371.811,422.562,374.124,419.357,374.124z"/>
							<path style="fill:#C8DEE8;" d="M418.439,451.114h-15.915c-3.035,0-5.496-2.191-5.496-4.894v-0.546
								c0-2.703,2.461-4.894,5.496-4.894h15.915c3.035,0,5.496,2.191,5.496,4.894v0.546
								C423.935,448.923,421.475,451.114,418.439,451.114z"/>
							<path style="fill:#C8DEE8;" d="M393.966,425.421l-0.039-40.63c-0.003-2.701,2.452-4.893,5.486-4.898l0,0
								c3.038-0.005,5.504,2.185,5.507,4.89l0.039,40.63c0.003,2.701-2.453,4.893-5.486,4.898l0,0
								C396.435,430.316,393.969,428.126,393.966,425.421z"/>
							<path style="fill:#C8DEE8;" d="M411.15,425.421l-0.039-40.63c-0.003-2.701,2.453-4.893,5.486-4.898l0,0
								c3.038-0.005,5.504,2.185,5.507,4.89l0.039,40.63c0.003,2.701-2.452,4.893-5.486,4.898l0,0
								C413.619,430.316,411.153,428.126,411.15,425.421z"/>
							<path style="fill:#C8DEE8;" d="M441.822,290.286c-3.148,0-5.699-3.387-5.699-7.565c0-4.178,2.552-7.565,5.699-7.565
								c3.148,0,5.699,3.387,5.699,7.565C447.521,286.899,444.97,290.286,441.822,290.286z"/>
							<path style="fill:#C8DEE8;" d="M384.658,357.719h-15.301c-3.205,0-5.803-2.314-5.803-5.168l0,0
								c0-2.854,2.598-5.167,5.803-5.167h15.301c3.205,0,5.803,2.314,5.803,5.167l0,0
								C390.461,355.405,387.863,357.719,384.658,357.719z"/>
							<path style="fill:#C8DEE8;" d="M419.453,357.719h-15.301c-3.205,0-5.803-2.314-5.803-5.168l0,0
								c0-2.854,2.598-5.167,5.803-5.167h15.301c3.205,0,5.803,2.314,5.803,5.167l0,0
								C425.256,355.405,422.658,357.719,419.453,357.719z"/>
							<path style="fill:#C8DEE8;" d="M343.709,347.101l0.07-5.046c0.012-0.865-0.465-1.677-1.273-2.156
								c-1.309-0.776-2.39-2.082-3.062-3.701c-0.425-1.024-1.557-1.677-2.782-1.64l-2.061,0.063
								c-1.784,0.054-3.08,1.527-2.725,3.085c1.144,5.017,3.814,9.153,7.293,11.458C341.029,350.396,343.68,349.166,343.709,347.101
								z"/>
							<path style="fill:#C8DEE8;" d="M343.709,316.996l0.07,5.046c0.012,0.865-0.465,1.677-1.273,2.156
								c-1.309,0.776-2.39,2.082-3.062,3.701c-0.425,1.024-1.557,1.677-2.782,1.64l-2.061-0.063
								c-1.784-0.054-3.08-1.527-2.725-3.085c1.144-5.017,3.814-9.153,7.293-11.458C341.029,313.701,343.68,314.931,343.709,316.996
								z"/>
							<path style="fill:#C8DEE8;" d="M345.131,336.692c-1.863,0-3.373-2.005-3.373-4.478c0-2.473,1.51-4.478,3.373-4.478
								c1.863,0,3.373,2.005,3.373,4.478C348.504,334.687,346.994,336.692,345.131,336.692z"/>
							<path style="fill:#C8DEE8;" d="M348.643,347.153l-0.138-5.044c-0.024-0.865,0.443-1.682,1.244-2.17
								c1.298-0.79,2.362-2.108,3.012-3.734c0.411-1.028,1.535-1.694,2.76-1.669l2.062,0.041c1.784,0.035,3.1,1.494,2.766,3.055
								c-1.077,5.029-3.691,9.193-7.139,11.535C351.367,350.419,348.7,349.217,348.643,347.153z"/>
							<path style="fill:#C8DEE8;" d="M349.045,316.999l-0.354,5.036c-0.061,0.863,0.37,1.695,1.151,2.21
								c1.264,0.834,2.27,2.186,2.85,3.833c0.367,1.041,1.461,1.745,2.687,1.762l2.062,0.029c1.785,0.025,3.162-1.388,2.895-2.959
								c-0.861-5.062-3.295-9.312-6.64-11.769C351.908,313.827,349.19,314.938,349.045,316.999z"/>
							<g>
								<path style="fill:#C8DEE8;" d="M439.663,448.77c-3.085,0-5.587-2.227-5.587-4.975c0-2.747,2.501-4.975,5.587-4.975
									c3.085,0,5.587,2.227,5.587,4.975C445.249,446.543,442.748,448.77,439.663,448.77z"/>
								<path style="fill:#C8DEE8;" d="M434.279,442.465c0,0,3.203,5.802,7.193,6.037c0,0-3.165,1.256-6.007-1.425
									C435.465,447.077,433.412,445.121,434.279,442.465z"/>
							</g>
						</g>
					</g>
					<path style="fill:#1B2642;" d="M404.124,227.517h-59.091c-2.942,0-5.327-2.385-5.327-5.327v-5.253h69.744v5.253
						C409.451,225.132,407.066,227.517,404.124,227.517z"/>
				</g>
				<g>
					<path style="fill:#2A3B69;" d="M334.994,297.963h-0.551c-0.134,0-0.243-0.109-0.243-0.243v-17.963
						c0-0.134,0.109-0.243,0.243-0.243h0.551c0.134,0,0.243,0.109,0.243,0.243v17.963
						C335.237,297.854,335.128,297.963,334.994,297.963z"/>
					<path style="fill:#FF9D00;" d="M339.681,276.141c0,2.661-2.227,4.819-4.975,4.819c-2.748,0-4.975-2.158-4.975-4.819
						c0-2.661,2.227-4.819,4.975-4.819C337.453,271.323,339.681,273.48,339.681,276.141z"/>
				</g>
				<g>
					<path style="fill:#2A3B69;" d="M408.383,265.563h-0.551c-0.134,0-0.243-0.109-0.243-0.243v-17.963
						c0-0.134,0.109-0.243,0.243-0.243h0.551c0.134,0,0.243,0.109,0.243,0.243v17.963
						C408.626,265.454,408.517,265.563,408.383,265.563z"/>
					<path style="fill:#FF9D00;" d="M413.07,243.742c0,2.661-2.227,4.819-4.975,4.819s-4.975-2.158-4.975-4.819
						s2.227-4.819,4.975-4.819S413.07,241.08,413.07,243.742z"/>
				</g>
				<g>
					<path style="fill:#2A3B69;" d="M336.816,426.565h-0.551c-0.134,0-0.243-0.109-0.243-0.243v-17.963
						c0-0.134,0.109-0.243,0.243-0.243h0.551c0.134,0,0.243,0.109,0.243,0.243v17.963
						C337.06,426.456,336.95,426.565,336.816,426.565z"/>
					<path style="fill:#FF9D00;" d="M341.503,404.743c0,2.661-2.227,4.819-4.975,4.819s-4.975-2.158-4.975-4.819
						c0-2.661,2.227-4.819,4.975-4.819S341.503,402.082,341.503,404.743z"/>
				</g>
			</g>
			<g>
				<g>
					<path style="fill:#FF9D00;" d="M475.658,397.369c22.24-33.132,16.179-79.049-14.884-105.035l0,0.001
						c-15.881-13.285-35.832-19.456-56.181-17.378c-20.345,2.079-38.637,12.155-51.499,28.374
						c-26.459,33.361-21.413,82.731,11.248,110.053c15.881,13.285,35.833,19.457,56.181,17.378
						c10.867-1.11,21.147-4.501,30.326-9.892c6.191-3.635,11.874-8.189,16.907-13.555l77.098,64.497
						c2.115,1.769,5.041,1.927,7.29,0.606c0.611-0.359,1.173-0.827,1.654-1.403c2.25-2.689,1.893-6.694-0.796-8.944L475.658,397.369
						z M419.232,418.129c-16.912,1.728-33.512-3.416-46.742-14.486c-27.43-22.946-31.668-64.406-9.447-92.423
						c4.999-6.304,10.978-11.493,17.652-15.412c7.629-4.48,16.168-7.299,25.189-8.22c16.911-1.728,33.512,3.417,46.742,14.486
						c27.43,22.946,31.668,64.407,9.446,92.424C451.357,408.009,436.143,416.402,419.232,418.129z"/>
					
						<line style="opacity:0.43;fill:none;stroke:#FFFFFF;stroke-width:1.0581;stroke-linecap:round;stroke-linejoin:round;stroke-miterlimit:10;" x1="478.342" y1="412.99" x2="538.993" y2="463.42"/>
					
						<path style="opacity:0.43;fill:none;stroke:#FFFFFF;stroke-width:1.0581;stroke-linecap:round;stroke-linejoin:round;stroke-miterlimit:10;" d="
						M346.202,320.839c0,0-14.673,30.147,0,64.039"/>
				</g>
				<g>
					<g>
						<path style="fill:#FF9D00;" d="M445.806,344.993c0-18.362-14.886-33.248-33.248-33.248s-33.248,14.886-33.248,33.248
							c0,15.821,11.054,29.052,25.858,32.414l7.391,6.862l7.391-6.862C434.752,374.045,445.806,360.814,445.806,344.993z"/>
						<path style="fill:#FFFFFF;" d="M430.31,335.9h3.933c0.323,0,0.453-0.416,0.189-0.6l-21.686-15.123
							c-0.113-0.079-0.264-0.079-0.377,0l-21.686,15.123c-0.265,0.185-0.134,0.6,0.189,0.6h3.933c0.182,0,0.33,0.148,0.33,0.33
							v23.393c0,0.182-0.148,0.33-0.33,0.33h-4.652c-0.182,0-0.33,0.148-0.33,0.33v2.024c0,0.182,0.148,0.33,0.33,0.33h44.811
							c0.182,0,0.33-0.148,0.33-0.33v-2.024c0-0.182-0.148-0.33-0.33-0.33h-4.652c-0.182,0-0.33-0.148-0.33-0.33v-23.393
							C429.98,336.047,430.128,335.9,430.31,335.9z M421.67,339.079h5.094c0.182,0,0.33,0.148,0.33,0.33v7.416
							c0,0.182-0.148,0.33-0.33,0.33h-5.094c-0.182,0-0.33-0.148-0.33-0.33v-7.416C421.34,339.227,421.488,339.079,421.67,339.079z
							 M398.351,339.079h5.094c0.182,0,0.33,0.148,0.33,0.33v7.416c0,0.182-0.148,0.33-0.33,0.33h-5.094
							c-0.182,0-0.33-0.148-0.33-0.33v-7.416C398.021,339.227,398.169,339.079,398.351,339.079z M408.547,346.651h8.022
							c0.182,0,0.33,0.148,0.33,0.33v12.642c0,0.182-0.148,0.33-0.33,0.33h-8.022c-0.182,0-0.33-0.148-0.33-0.33V346.98
							C408.217,346.798,408.364,346.651,408.547,346.651z"/>
					</g>
					<path style="fill:#FF9D00;" d="M415.338,390.444c0,1.536-1.245,2.78-2.781,2.78c-1.536,0-2.781-1.245-2.781-2.78
						c0-1.536,1.245-2.781,2.781-2.781C414.093,387.663,415.338,388.908,415.338,390.444z"/>
				</g>
				
					<path style="fill:none;stroke:#FFFFFF;stroke-width:5.2906;stroke-linecap:round;stroke-linejoin:round;stroke-miterlimit:10;" d="
					M370.487,391.818c-9.288-10.478-14.927-24.263-14.927-39.366c0-8.075,1.612-15.773,4.532-22.79"/>
			</g>
			<g>
				<path style="fill:#FF9D00;" d="M319.274,378.514l-24.917,4.37l-42.007,58.726l28.831,20.623l41.625-58.192L319.274,378.514z
					 M312.415,389.102c-1.932-0.894-2.348-3.404-0.809-4.874c0.855-0.816,2.18-1.036,3.253-0.54
					c1.931,0.894,2.348,3.404,0.809,4.874C314.814,389.378,313.488,389.598,312.415,389.102z"/>
				<g>
					
						<text transform="matrix(0.5722 -0.8201 0.8201 0.5722 279.9265 451.0294)" style="fill:#FFFFFF; font-family:'SpartanMB-Bold'; font-size:22.1413px;">RENT</text>
				</g>
				<path style="fill:none;stroke:#001246;stroke-width:0.5291;stroke-miterlimit:10;" d="M313.637,386.395
					c0,0,20.76-22.898,17.862-24.971c-2.765-1.978-11.15,9.386-15.759,16.783"/>
			</g>
		</g>
	</g>
</g>
</svg>
