<?xml version="1.0"?>
<svg width="750" height="500" xmlns="http://www.w3.org/2000/svg" xmlns:svg="http://www.w3.org/2000/svg" enable-background="new 0 0 750 500" version="1.1" xml:space="preserve">
 <g class="layer">
  <title>Layer 1</title>
  <g id="BACKGROUND">
   <rect fill="#e9edf0" height="500" id="svg_1" width="750"/>
  </g>
  <g id="OBJECTS">
   <g id="svg_2">
    <g id="svg_3">
     <g id="svg_4">
      <g id="svg_5">
       <path d="m303.69,378.42c-4.88,-3.72 -10.3,-6.56 -15.68,-9.47c-2.48,-1.34 -4.66,-3.02 -4.22,-6.15c0.37,-2.72 2.02,-5.19 3.28,-7.57c5.28,-9.99 3.74,-22.53 -4.23,-30.65c-3.61,-3.68 -8.29,-6.29 -13.34,-7.35c-2.77,-0.57 -5.6,-0.78 -8.34,-1.49c-2.86,-0.74 -5.17,-2.18 -7.02,-4.49c-1.92,-2.41 -3.42,-5.21 -4.94,-7.88c-1.6,-2.83 -3.12,-5.7 -4.54,-8.61c-2.78,-5.68 -4.94,-11.58 -7.4,-17.4c-1.12,-2.65 -2.41,-5.23 -4.2,-7.51c-1.67,-2.13 -3.74,-3.87 -5.98,-5.38c-4.56,-3.06 -9.75,-5.03 -14.32,-8.07c-2.23,-1.48 -4.37,-3.24 -5.99,-5.39c-1.81,-2.41 -2.59,-5.08 -2.96,-8.03c-0.36,-2.82 -0.82,-5.47 -1.99,-8.08c-1.06,-2.35 -2.56,-4.5 -4.3,-6.4c-8.07,-8.85 -20.26,-11.15 -31.55,-12.95c-2.75,-0.44 -5.43,-0.64 -7.42,1.67c-1.91,2.22 -3.35,5.02 -4.62,7.63c-1.29,2.66 -2.38,5.43 -3.22,8.26c-0.86,2.88 -1.58,5.95 -0.82,8.92c1.26,4.94 5.82,7.97 8.08,12.36c2.81,5.43 1.21,12.01 -0.9,17.37c-2.23,5.65 -5.28,11.06 -6.13,17.15c-0.68,4.92 0.06,9.96 1.98,14.53c1.94,4.6 5.03,8.66 9.03,11.66c4.29,3.21 10.26,4.53 12.58,9.85c1.97,4.52 0.96,9.85 -0.56,14.33c-1.86,5.48 -5.08,10.36 -7.26,15.71c-2.17,5.31 -3.42,11.31 -1.16,16.81c1.45,3.53 4.07,6.29 7.08,8.57c6.19,4.67 14.09,7.14 19.57,12.76c1.25,1.28 2.31,2.75 3.04,4.4c1.09,2.48 1.17,5.19 1.18,7.86c0.01,2.93 -0.01,5.94 1.02,8.72c0.78,2.12 2.02,4.03 3.61,5.64c7.55,7.62 18.89,7.48 28.79,8.22c5.86,0.44 11.63,1.44 16.59,4.77c2.58,1.73 4.93,3.78 7.6,5.36c2.54,1.49 5.28,2.66 8.1,3.5c10.84,3.23 22.75,1.57 32.6,-3.87c4.62,-2.56 8.77,-5.95 12.19,-9.98c0.18,-0.21 2.81,-3.85 3.98,-5.41c3.38,-4.5 6.34,-9.6 7.2,-15.25c1.77,-11.61 -5.6,-21.97 -14.41,-28.67z" fill="#D5F3FF" id="svg_6"/>
       <path d="m303.61,416.19c-4.92,-3.44 -10.34,-6.04 -15.67,-8.77c3.59,-2.4 5.02,-6.95 5.47,-11.43c0.36,-3.54 0.56,-7.09 0.82,-10.63c0.13,-1.75 0.25,-3.49 0.38,-5.23c0.06,-0.91 0.12,-1.82 0.2,-2.73c0.03,-0.41 0.08,-0.67 0.16,-1.06c0.07,-0.35 0.37,-0.25 0.03,-0.33c1.18,0.28 1.88,-1.32 0.83,-1.96c-1.03,-0.62 -2.07,-0.24 -2.74,0.68c-0.89,1.21 -0.84,2.73 -0.96,4.16c-0.3,3.73 -0.61,7.46 -0.9,11.19c-0.27,3.4 -0.28,6.97 -1.31,10.25c-0.69,2.23 -2.38,4.95 -4.81,5.61c-3.09,-1.66 -6.13,-3.42 -8.98,-5.49c-3.85,-2.81 -7.39,-6.22 -9.79,-10.38c-2.3,-3.98 -3.25,-8.51 -3.71,-13.04c-0.87,-8.53 -0.11,-18.1 -4.75,-25.72c-3.97,-6.52 -10.69,-8.83 -17.52,-10.83c-0.27,-0.62 -0.89,-1.07 -1.74,-0.83c-0.19,0.05 -0.39,0.1 -0.59,0.15c-1.52,-0.44 -3.03,-0.89 -4.5,-1.39c-4.2,-1.41 -8.65,-3.48 -11.31,-7.18c-2.78,-3.89 -2.76,-8.79 -2.96,-13.37c-0.09,-1.87 -0.22,-3.76 -0.55,-5.6c0.34,-0.46 0.61,-1.04 0.87,-1.5c0.83,-1.45 2.3,-2.53 3.28,-3.9c2.05,-2.84 3.07,-6.31 3.51,-9.74c0.52,-4.11 0.22,-8.26 0.01,-12.38c-0.1,-2.14 -0.22,-4.28 -0.34,-6.42c-0.07,-1.16 -0.13,-2.31 -0.21,-3.47c-0.03,-0.48 -0.04,-1 -0.12,-1.48c-0.08,-0.5 -0.31,-0.93 -0.41,-1.42c-0.2,-1.03 -1.61,-0.68 -1.7,0.23c-0.04,0.4 -0.23,0.78 -0.27,1.19c-0.04,0.48 0.01,1.01 0.02,1.49c0.02,0.9 0.06,1.81 0.09,2.71c0.08,1.9 0.14,3.8 0.23,5.69c0.17,3.67 0.44,7.36 0.26,11.03c-0.06,1.18 -0.18,2.36 -0.37,3.52c-0.4,-0.13 -0.8,-0.26 -1.18,-0.37c-0.95,-0.26 -1.87,-0.65 -2.74,-1.13c-1.67,-0.89 -3.14,-2.09 -4.48,-3.43c-2.64,-2.65 -4.78,-5.81 -6.42,-9.17c-1.64,-3.36 -2.74,-7.02 -3.26,-10.72c-0.26,-1.82 -0.38,-3.67 -0.37,-5.51c0.01,-1.96 0.29,-3.91 0.27,-5.86c-0.02,-1.13 -1.5,-1.21 -1.88,-0.25c-0.72,1.87 -0.89,4.11 -0.95,6.11c-0.07,2.08 0.07,4.16 0.37,6.22c0.6,4.13 1.89,8.16 3.77,11.88c1.87,3.71 4.39,7.21 7.48,9.99c1.56,1.4 3.29,2.64 5.22,3.49c0.93,0.41 1.91,0.7 2.91,0.86c0.28,0.04 0.54,0.06 0.78,0.06c-0.36,1.32 -0.84,2.6 -1.5,3.81c-0.71,1.3 -1.61,2.4 -2.64,3.47c-0.43,0.44 -0.84,0.9 -1.22,1.39c-0.51,-1.32 -1.19,-2.58 -2.13,-3.74c-2.93,-3.65 -7.46,-5.36 -11.3,-7.82c-1.19,-0.76 -2.28,-1.62 -3.29,-2.55c-0.12,-0.2 -0.29,-0.37 -0.53,-0.48c-5.01,-4.86 -7.81,-11.61 -8.99,-18.53c-0.74,-4.35 -0.87,-8.8 -0.55,-13.2c0.16,-2.08 0.51,-4.17 0.83,-6.26c0.06,-0.09 0.11,-0.2 0.13,-0.33c0.07,-0.31 0.07,-0.58 0.04,-0.83c0.36,-2.64 0.58,-5.28 0.16,-7.93c-0.36,-2.26 -1.14,-4.32 -2.23,-6.21c1,-1.02 1.28,-2.85 1.29,-4.23c0.01,-3.02 0.1,-6.15 -0.33,-9.15c-0.1,-0.7 -1.33,-0.71 -1.43,0c-0.37,2.6 -0.27,5.25 -0.29,7.87c-0.01,0.92 0.04,1.87 -0.2,2.76c-0.09,0.33 -0.2,0.57 -0.35,0.76c-3.25,-4.44 -8.15,-7.85 -12.83,-10.5c-1.86,-1.06 -3.77,-2.02 -5.71,-2.94c-1.12,-0.53 -2.1,1.09 -0.98,1.67c6.41,3.35 13.82,7.18 18,13.39c0,0.05 -0.02,0.1 -0.01,0.16c0.06,0.37 0.31,0.72 0.65,0.88c0.37,0.63 0.72,1.27 1.02,1.94c1.43,3.22 1.41,6.47 1.02,9.76c-0.87,-0.18 -1.82,-0.22 -2.51,-0.26c-1.64,-0.11 -3.1,-0.86 -4.51,-1.66c-1.6,-0.91 -3.17,-1.87 -4.76,-2.8c-6.22,-3.66 -12.34,-7.54 -18.6,-11.1c-0.81,-0.46 -1.82,0.72 -1.04,1.33c5.28,4.14 11.23,7.48 16.96,10.95c2.7,1.64 5.4,3.54 8.29,4.83c1.27,0.56 2.55,0.89 3.95,0.96c0.48,0.02 0.99,0 1.47,0.1c0.16,0.03 0.29,0.08 0.4,0.14c-0.14,0.95 -0.3,1.9 -0.44,2.86c-0.61,4.29 -0.83,8.64 -0.52,12.97c0.58,8 2.96,16.14 8.16,22.38c-5.75,-0.19 -11.41,-0.64 -16.89,-2.71c-1.54,-0.58 -3.02,-1.31 -4.46,-2.1c0.03,-0.05 0.06,-0.09 0.08,-0.15c0.92,-3.07 0.74,-6.51 -0.07,-9.58c-0.4,-1.51 -0.93,-3.08 -1.72,-4.44c-0.81,-1.39 -1.65,-2.82 -2.93,-3.8c-0.8,-0.61 -1.58,0.52 -1.24,1.24c0.6,1.29 1.49,2.42 2.07,3.73c0.58,1.33 1.11,2.65 1.46,4.07c0.65,2.62 0.69,5.23 0.51,7.9c-1.02,-0.59 -2.02,-1.2 -3.04,-1.79c-1.57,-0.91 -3.16,-1.79 -4.75,-2.67c-0.87,-0.48 -1.77,-0.89 -2.66,-1.33c-0.75,-0.36 -1.36,-0.74 -2.22,-0.63c-0.29,0.03 -0.62,0.3 -0.49,0.64c0.57,1.45 2.45,2.37 3.7,3.2c1.66,1.08 3.35,2.12 5.05,3.15c3.16,1.91 6.31,3.84 9.75,5.21c6.4,2.54 13.72,3.34 20.58,2.86c2.68,2.33 5.75,4.03 8.87,5.84c1.97,1.16 3.93,2.44 5.38,4.24c1.43,1.8 2.15,4 2.53,6.24c0.79,4.62 0.23,9.38 1.29,13.98c1.02,4.42 3.71,7.94 7.45,10.44c2.43,1.62 5.08,2.71 7.82,3.61c-7.9,1.35 -16.07,1.06 -23.87,-0.78c-0.22,-1.28 -0.86,-2.55 -1.38,-3.67c-0.78,-1.65 -1.76,-3.2 -2.79,-4.7c-1.91,-2.8 -4.03,-5.47 -6.32,-7.98c-2.31,-2.52 -4.79,-4.88 -7.42,-7.05c-2.63,-2.17 -5.44,-4.39 -8.56,-5.77c-0.87,-0.38 -1.98,0.71 -1.11,1.44c2.49,2.1 5.23,3.87 7.74,5.96c2.51,2.1 4.9,4.36 7.12,6.77c2.19,2.38 4.24,4.91 6.09,7.57c1.01,1.43 1.93,2.91 2.76,4.45c0.38,0.7 0.69,1.47 1.02,2.24c-2.98,-0.86 -5.89,-1.95 -8.69,-3.27c-1.75,-0.82 -3.47,-1.72 -5.14,-2.69c-1.77,-1.04 -3.45,-2.29 -5.29,-3.21c-1.03,-0.52 -2.04,0.73 -1.24,1.6c2.42,2.65 6.01,4.58 9.17,6.19c3.26,1.66 6.68,3.03 10.17,4.09c7.14,2.16 14.7,3.04 22.15,2.54c3.94,-0.27 7.85,-0.93 11.67,-1.95c4.23,1.18 8.41,2.46 12.05,4.98c7.65,5.32 8.06,15.16 8.58,23.6c0.28,4.47 0.57,9 1.73,13.35c1.19,4.46 3.45,8.47 6.5,11.92c4.28,4.85 9.66,8.3 15.28,11.36c0.2,0.6 0.76,1.07 1.63,0.88c2.73,1.44 5.49,2.82 8.19,4.24c8.77,4.59 18.1,10.51 21.7,20.25c0.8,2.16 1.3,4.44 1.44,6.74c0.1,1.59 2.44,1.61 2.49,0c0.31,-10.01 -6.93,-18.48 -14.69,-23.9z" fill="#A5DDEF" id="svg_7"/>
      </g>
      <g id="svg_8">
       <path d="m310.24,446.74c-0.4,-3.03 -2.6,-5.05 -4.7,-6.91c-3.89,-3.45 -8.34,-6.67 -12.27,-9.67c-6.91,-5.3 -14.42,-9.81 -22.33,-13.45c-15.41,-7.11 -32.07,-10.89 -48.88,-12.83c-17.13,-1.98 -34.42,-2.07 -51.64,-1.9c-17.18,0.17 -34.39,0.54 -51.54,-0.8c-17.01,-1.33 -34.11,-4.39 -49.86,-11.16c-1.95,-0.83 -3.87,-1.73 -5.76,-2.67c-0.9,-0.44 -2.13,0.3 -1.79,1.37c5.54,17.6 16.88,33.03 32.01,43.57c15.83,11.03 34.68,16.54 53.16,21.26c10.12,2.59 20.49,5.7 31.02,5.66c5.44,-0.02 10.73,-1.18 15.98,-2.5c5.23,-1.32 10.44,-2.52 15.78,-3.25c21.61,-2.97 43.46,-0.21 65.1,0.91c5.49,0.29 10.99,0.48 16.5,0.45c4.42,-0.02 9.3,0.31 13.55,-1.13c3.07,-1.05 6.14,-3.33 5.67,-6.95z" fill="#3C6EA5" id="svg_9"/>
       <path d="m261.58,436.51c-11.91,-6.38 -25.96,-6.34 -38.93,-3.9c-6.98,1.32 -13.69,3.6 -20.59,5.22c-3.25,0.77 -6.56,1.14 -9.89,0.7c-3.07,-0.4 -6.05,-1.37 -8.93,-2.47c-6.02,-2.28 -11.79,-5.17 -18.17,-6.33c-6.53,-1.18 -13.18,-0.97 -19.77,-0.62c-2.9,0.15 -5.8,0.33 -8.7,0.43c-0.01,-0.08 -0.01,-0.16 -0.03,-0.24c-0.83,-3.19 -3.85,-5.63 -5.95,-8.03c-2.38,-2.72 -4.64,-5.59 -7.48,-7.85c-2.64,-2.1 -5.57,-3.87 -8.45,-5.6c-3,-1.81 -6.09,-3.62 -9.48,-4.58c-0.71,-0.21 -1.19,0.86 -0.51,1.21c2.92,1.52 5.82,3.05 8.6,4.83c2.74,1.76 5.59,3.48 8.13,5.53c2.51,2.02 4.53,4.55 6.59,7c1.15,1.38 2.28,2.77 3.41,4.16c0.92,1.13 1.91,2.24 2.34,3.64c-2.82,0.04 -5.63,-0.04 -8.44,-0.34c-6.66,-0.71 -12.78,-3.06 -18.57,-6.38c-6.3,-3.61 -12.37,-7.8 -18.26,-12.05c-5.94,-4.29 -11.45,-9.08 -16.1,-14.76c-0.4,-0.48 -1.21,0.15 -0.86,0.66c3.49,5.26 8.18,9.6 13.12,13.46c5.13,4.01 10.53,7.69 15.95,11.28c3.1,2.05 6.32,4 9.67,5.63c-0.16,0.07 -0.33,0.13 -0.51,0.18c-0.88,0.24 -1.78,0.35 -2.7,0.37c-2,0.05 -3.99,-0.31 -5.94,-0.8c-2.04,-0.5 -4.02,-1.19 -6.05,-1.75c-1.02,-0.29 -2.05,-0.58 -3.08,-0.85c-1.03,-0.28 -2.19,-0.79 -3.26,-0.68c-0.37,0.04 -0.68,0.52 -0.34,0.81c0.81,0.71 1.97,0.95 2.96,1.32c1.15,0.43 2.3,0.83 3.45,1.25c2.21,0.79 4.47,1.53 6.76,2.08c2.04,0.49 4.16,0.82 6.26,0.67c1.52,-0.1 3.74,-0.36 4.98,-1.45c1.8,0.76 3.64,1.42 5.53,1.94c6.37,1.72 13.04,1.84 19.59,1.61c6.68,-0.24 13.36,-0.87 20.05,-0.51c2.55,0.14 5.09,0.44 7.59,0.95c-1.08,2.58 -2.5,4.49 -4.86,6.06c-2.42,1.6 -5.14,2.75 -7.8,3.88c-2.74,1.18 -5.57,2.24 -8.47,2.98c-3.07,0.78 -6.1,0.94 -9.24,1.09c-1.04,0.05 -1.36,1.64 -0.26,1.89c3.18,0.71 6.59,0.27 9.73,-0.42c3.38,-0.75 6.63,-1.96 9.81,-3.32c2.99,-1.27 6.06,-2.55 8.67,-4.52c2.18,-1.64 4.54,-4.13 4.99,-6.95c0,-0.02 0,-0.04 0,-0.06c3.06,0.85 6.01,2.04 8.93,3.26c5.76,2.4 11.67,4.95 18.02,5.03c0.93,0.01 1.86,-0.03 2.79,-0.12c-0.01,0.02 -0.02,0.03 -0.03,0.04c-0.49,0.69 -1.07,1.31 -1.64,1.93c-1.2,1.3 -2.41,2.59 -3.7,3.8c-1.21,1.13 -2.53,2.13 -4,2.89c-0.75,0.39 -1.52,0.7 -2.33,0.95c-0.77,0.23 -1.59,0.33 -2.32,0.68c-0.61,0.29 -0.33,1.09 0.17,1.3c1.55,0.62 3.7,-0.11 5.15,-0.73c1.66,-0.7 3.14,-1.73 4.53,-2.88c1.44,-1.19 2.71,-2.56 3.98,-3.93c0.62,-0.67 1.25,-1.33 1.81,-2.05c0.26,-0.33 0.52,-0.67 0.75,-1.02c0.17,-0.25 0.31,-0.6 0.5,-0.84c0.12,-0.09 0.23,-0.19 0.31,-0.32c0.05,-0.09 0.08,-0.19 0.11,-0.28c4.83,-0.89 9.59,-2.62 14.27,-3.8c14.75,-3.72 30.89,-5.34 44.87,1.88c1.43,0.73 2.69,-1.4 1.27,-2.16z" fill="#A5DDEF" id="svg_10"/>
      </g>
      <g id="svg_11">
       <path d="m328.34,374.39c-1.59,-1.12 -3.28,-2.14 -4.77,-3.41c-1.75,-1.5 -3.2,-3.3 -4.43,-5.25c-2.56,-4.02 -4.3,-8.52 -6.18,-12.88c-2.2,-5.11 -4.41,-10.22 -6.61,-15.32c-8.43,-19.53 -17.6,-39.08 -22.19,-59.96c-2.24,-10.15 -2.59,-20.78 -6.01,-30.66c-3.22,-9.3 -9.51,-16.91 -14.63,-25.17c-5.21,-8.43 -8.85,-17.69 -16.04,-24.75c-3.47,-3.4 -7.37,-6.31 -11.26,-9.2c-4.13,-3.07 -8.22,-6.19 -12.23,-9.43c-8.11,-6.56 -15.92,-13.49 -23.4,-20.76c-3.68,-3.57 -7.28,-7.24 -10.8,-10.98c-3.13,-3.34 -6.25,-6.73 -9.9,-9.52c-1.85,-1.42 -3.8,-2.66 -5.92,-3.64c-0.92,-0.43 -2.3,0.53 -1.56,1.56c6.11,8.6 10.22,18.34 12.4,28.64c2.18,10.27 3.05,20.91 7.51,30.54c4.14,8.95 11.17,16.41 14.27,25.87c1.67,5.1 2.24,10.46 3.19,15.72c0.95,5.21 2.58,10.02 4.8,14.81c2.31,4.99 4.41,9.86 5.52,15.28c1.09,5.33 1.63,10.76 3,16.04c1.35,5.21 3.53,10.16 5.82,15.02c2.42,5.17 4.89,10.32 7.34,15.48c4.58,9.64 8.87,19.51 14.26,28.73c4.98,8.53 11.18,16.06 19.17,21.94c7.65,5.63 16.35,9.64 25.16,13.08c4.53,1.76 9.12,3.37 13.72,4.97c5.1,1.77 10.3,3.51 15.72,3.91c2.64,0.2 5.28,0.02 7.86,-0.59c0.39,-0.09 0.62,-0.32 0.73,-0.61c0.72,0.23 1.61,-0.13 1.53,-1.09c-0.35,-3.83 -3.1,-6.28 -6.07,-8.37z" fill="#3C6EA5" id="svg_12"/>
       <path d="m346.75,387.66c-9.27,-3.22 -19.03,-5.96 -26.37,-12.83c-3.98,-3.72 -7,-8.29 -10.38,-12.52c-3.3,-4.15 -6.84,-8.11 -10.5,-11.95c-7.43,-7.81 -15.36,-15.13 -23.03,-22.71c-1.26,-1.25 -2.53,-2.51 -3.77,-3.8c2.23,-1.82 4.33,-3.63 6.13,-5.95c1.97,-2.54 3.55,-5.33 4.69,-8.34c1.25,-3.3 1.92,-6.83 2.01,-10.36c0.04,-1.77 -0.07,-3.53 -0.33,-5.28c-0.14,-0.96 -0.32,-1.92 -0.55,-2.87c-0.11,-0.44 -0.24,-0.87 -0.38,-1.3c-0.07,-0.19 -0.25,-0.97 -0.38,-0.86c0.75,-0.67 -0.06,-1.71 -0.9,-1.55c-1.53,0.28 -1.27,1.92 -1.01,3.04c0.41,1.8 0.77,3.6 0.91,5.44c0.28,3.72 -0.08,7.45 -1.17,11.03c-0.94,3.1 -2.42,6.02 -4.32,8.65c-1.73,2.39 -3.96,4.83 -6.49,6.47c-5.13,-5.53 -9.57,-11.6 -11.04,-19.26c-1.03,-5.37 -0.8,-10.9 -0.75,-16.34c0.05,-5.2 -0.18,-10.35 -1.02,-15.49c-0.08,-0.46 -0.18,-0.92 -0.26,-1.38c1.32,-1.16 2.49,-2.72 3.57,-4.04c1.25,-1.53 1.36,-3.09 1.41,-5.01c0.12,-4.07 -0.19,-8.15 -0.54,-12.21c-0.34,-4.05 -0.74,-8.1 -0.79,-12.17c-0.03,-2.01 0.01,-4.02 0.17,-6.02c0.18,-2.14 0.8,-4.24 0.96,-6.37c0.07,-0.93 -1.39,-1.34 -1.79,-0.49c-0.81,1.71 -1.04,3.78 -1.3,5.65c-0.25,1.86 -0.4,3.72 -0.43,5.6c-0.07,3.98 0.23,7.96 0.54,11.92c0.31,3.91 0.65,7.83 0.66,11.75c0.01,1.8 0.37,4.23 -0.84,5.71c-0.69,0.84 -1.51,1.63 -2.28,2.46c-1.96,-8.65 -5.43,-16.97 -10.2,-24.44c-2.76,-4.31 -5.88,-8.5 -6.71,-13.67c-0.84,-5.21 0.21,-10.53 -0.7,-15.74c-1.08,-6.17 -5.17,-10.32 -9.96,-13.71c0.24,-1.74 -0.2,-3.65 -0.58,-5.34c-0.43,-1.9 -1.04,-3.73 -1.85,-5.49c-0.78,-1.7 -1.79,-3.24 -2.81,-4.81c-1.04,-1.59 -1.67,-3.09 -2.17,-4.92c-0.09,-0.36 -0.69,-0.5 -0.85,-0.12c-1.4,3.28 1.95,6.75 3.34,9.44c0.89,1.72 1.55,3.55 2.01,5.43c0.24,1.01 0.41,2.02 0.49,3.05c0.04,0.39 0.05,0.79 0.07,1.18c-1.59,-1.01 -3.2,-1.97 -4.78,-2.91c-8.38,-5 -15.58,-11.39 -20.84,-19.68c-5.01,-7.89 -7.57,-17.17 -13.26,-24.65c-1.34,-1.77 -2.82,-3.34 -4.56,-4.74c-0.6,-0.49 -1.44,0.29 -0.87,0.87c6.66,6.86 9.67,15.97 13.86,24.35c4.35,8.72 10.66,16.29 18.49,22.09c1.29,0.95 2.63,1.83 3.98,2.68c-0.54,-0.17 -1.1,-0.32 -1.64,-0.5c-2.95,-0.98 -5.85,-2.11 -8.68,-3.38c-2.72,-1.23 -5.39,-2.58 -8,-4.04c-2.61,-1.46 -5.13,-3.35 -7.91,-4.45c-0.54,-0.21 -0.83,0.53 -0.52,0.89c1.95,2.25 4.85,3.85 7.39,5.35c2.69,1.6 5.47,3.03 8.32,4.33c2.74,1.24 5.54,2.36 8.39,3.34c1.51,0.52 3.04,1 4.58,1.45c1.35,0.38 3.07,1.14 4.49,1c0.33,0.21 0.66,0.41 0.99,0.63c3.47,2.29 6.85,4.98 8.79,8.74c2.42,4.67 1.69,10.1 1.7,15.16c0,2.25 0.16,4.54 0.68,6.74c-0.66,0.01 -1.34,0.07 -2,-0.08c-1.51,-0.33 -2.86,-1.1 -4.15,-1.94c-2.71,-1.79 -5.23,-3.89 -7.82,-5.84c-2.69,-2.05 -5.38,-4.1 -8.08,-6.13c-2.73,-2.05 -5.42,-4.39 -8.36,-6.14c-0.81,-0.48 -1.7,0.65 -1.01,1.32c2.63,2.54 5.81,4.65 8.7,6.9c2.88,2.23 5.77,4.44 8.65,6.66c2.69,2.06 5.31,4.4 8.29,6.05c1.45,0.8 4.51,2.23 6.51,1.63c0.72,1.94 1.69,3.78 2.75,5.54c2.68,4.44 5.57,8.66 7.77,13.37c2.21,4.72 3.9,9.69 5.07,14.76c1.19,5.17 1.81,10.45 1.89,15.75c0.07,4.06 -0.11,8.13 -0.02,12.19c-2.73,-1.26 -5.3,-2.57 -7.65,-4.57c-2.71,-2.29 -5,-5.03 -6.74,-8.12c-1.85,-3.28 -2.48,-6.96 -4.1,-10.32c-0.8,-1.66 -1.99,-3.11 -3.27,-4.42c-0.65,-0.67 -1.34,-1.32 -2.02,-1.96c-0.21,-0.21 -1.57,-1.3 -1.84,-1.76c0.31,-0.57 -0.04,-1.45 -0.8,-1.41c-1.25,0.05 -1.62,1.27 -1.12,2.3c0.66,1.39 2.26,2.52 3.31,3.59c1.19,1.21 2.33,2.47 3.17,3.96c0.9,1.58 1.36,3.34 1.89,5.07c1.85,6 5.37,11.4 10.24,15.39c2.62,2.16 5.78,4.26 9.06,5.25c0.03,0.41 0.05,0.81 0.08,1.21c0.45,5.2 1.71,10.19 4.26,14.76c2.43,4.34 5.72,8.16 9.16,11.74c6.5,6.76 13.4,13.14 20.1,19.71c-1.21,0.03 -2.43,0.12 -3.61,0.08c-1.9,-0.07 -3.8,-0.23 -5.68,-0.5c-3.67,-0.53 -7.27,-1.41 -10.76,-2.65c-3.52,-1.24 -6.9,-2.85 -10.09,-4.78c-1.6,-0.98 -3.16,-2.04 -4.67,-3.16c-1.5,-1.11 -2.88,-2.39 -4.44,-3.42c-0.68,-0.45 -1.68,0.48 -1.16,1.16c2.3,3.08 5.84,5.46 9.08,7.46c3.29,2.04 6.8,3.73 10.43,5.06c3.66,1.35 7.46,2.33 11.32,2.87c1.98,0.28 3.97,0.47 5.97,0.55c1.92,0.06 4.08,0.24 5.96,-0.22c0.04,-0.01 0.06,-0.04 0.1,-0.05c0.17,0.17 0.35,0.34 0.52,0.51c3.8,3.81 7.52,7.71 11.04,11.77c3.58,4.12 6.74,8.54 10.19,12.75c3.27,4 7.09,7.36 11.57,9.95c4.25,2.46 8.86,4.26 13.5,5.82c2.32,0.78 4.64,1.47 7,2.11c1.64,0.44 2.27,-1.97 0.7,-2.52z" fill="#A5DDEF" id="svg_13"/>
      </g>
      <g id="svg_14">
       <path d="m308.37,449.65c1.94,-4.93 2.19,-10.6 0.5,-15.71c-3.14,-9.47 -11.2,-16.28 -19.92,-20.54c-4.98,-2.43 -10.25,-4.19 -15.53,-5.84c-4.78,-1.49 -9.48,-3.24 -11.05,-8.48c-1.66,-5.49 -1.74,-11.47 -2.51,-17.13c-0.71,-5.1 -1.84,-10.16 -4.23,-14.76c-2.15,-4.12 -5.35,-7.8 -9.55,-9.87c-3.85,-1.91 -8.17,-2.45 -12.42,-2.42c-8.43,0.06 -17.58,2.7 -25.79,-0.17c-8.94,-3.13 -11.01,-14.09 -19.63,-17.71c-9.58,-4.03 -20.12,1.43 -29.98,0.91c-10.99,-0.58 -20.58,-6.81 -31.13,-9.21c-8.69,-1.98 -19.67,-1.96 -25.93,5.47c-1.5,1.78 -2.62,3.89 -2.9,6.22c-0.33,2.66 0.65,5.14 1.96,7.41c1.27,2.17 2.81,4.2 4.55,6.01c1.74,1.81 3.78,3.14 5.66,4.77c4.34,3.79 -2.44,7.73 -4.69,10.5c-2.62,3.24 -4.06,7.18 -4.51,11.3c-0.95,8.77 2.67,17.45 8.97,23.48c7.05,6.73 16.55,10.31 25.95,12.24c5.1,1.04 10.44,1.51 14.79,4.63c3.44,2.47 5.95,6.03 8.39,9.42c2.46,3.4 4.93,6.92 8.23,9.58c3.81,3.09 8.4,4.62 13.27,4.96c5.1,0.36 10.21,-0.46 15.23,-1.23c2.6,-0.4 5.21,-0.81 7.83,-1.06c2.63,-0.26 5.51,-0.54 7.97,0.64c3.79,1.82 5.88,5.91 8.99,8.57c3.84,3.28 8.39,3.52 13.18,2.78c2.5,-0.38 4.97,-0.96 7.49,-1.13c2.93,-0.2 5.64,0.44 8.4,1.38c5.56,1.89 11.13,3.4 16.92,4.41c5.78,1.01 11.64,1.78 17.48,2.41c5.36,0.58 10.97,0.68 15.99,-1.54c3.94,-1.74 5.68,-4.35 8.02,-10.29z" fill="#81BBC1" id="svg_15"/>
       <path d="m311.02,454.49c-5.07,-3.78 -10.39,-7.21 -15.92,-10.26c-0.85,-6.04 -3.64,-11.69 -7.84,-16.09c0.03,-0.16 0.02,-0.33 -0.03,-0.49c0.57,-2.13 0.95,-4.33 0.84,-6.54c-0.06,-1.07 -0.22,-2.13 -0.53,-3.16c-0.15,-0.5 -0.34,-0.99 -0.55,-1.48c-0.21,-0.47 -0.71,-1.07 -0.77,-1.58c-0.11,-0.86 -1.31,-0.9 -1.38,0c-0.07,1.02 0.65,2 0.93,2.96c0.29,0.99 0.43,2.01 0.48,3.04c0.08,1.89 -0.23,3.74 -0.7,5.56c-3.95,-3.6 -8.56,-6.61 -11.1,-11.46c-0.58,-1.12 -2.53,-0.34 -2.07,0.87c2.11,5.52 7.1,8.78 11.27,12.63c4.14,3.81 6.98,8.61 8.24,14.02c-8.03,-4.16 -16.45,-7.55 -25.16,-10.07c-4.01,-1.15 -8.12,-1.94 -12.12,-3.1c-4.13,-1.2 -7.41,-3.34 -10.79,-5.92c-1.73,-1.32 -3.48,-2.51 -5.34,-3.5c0.3,-0.47 0.56,-0.96 0.84,-1.42c0.66,-1.08 1.32,-2.17 1.97,-3.26c1.16,-1.92 2.3,-3.87 3.31,-5.87c1.99,-3.93 3.59,-8.16 3.76,-12.61c0.3,-8 -4.82,-14.26 -8.21,-21.05c-1.84,-3.69 -3.85,-8.82 -1.51,-12.7c0.56,-0.93 -0.77,-2 -1.52,-1.18c-2.6,2.84 -1.89,7.44 -0.85,10.8c1.1,3.56 3.02,6.8 4.83,10.04c1.6,2.85 3.17,5.76 4.01,8.92c-1.06,-0.21 -2.13,-0.38 -3.14,-0.71c-1.66,-0.54 -3.25,-1.25 -4.77,-2.09c-3.08,-1.68 -5.84,-3.84 -8.36,-6.26c-2.62,-2.53 -4.98,-5.31 -7.24,-8.16c-2.15,-2.73 -5.43,-5.84 -4.99,-9.6c0.12,-1.08 -1.44,-1.12 -1.77,-0.24c-1.41,3.77 1.78,7.54 3.88,10.37c2.42,3.25 4.95,6.44 7.81,9.31c2.74,2.74 5.8,5.22 9.18,7.13c1.68,0.94 3.44,1.75 5.26,2.38c1.39,0.48 3.12,1.1 4.69,1.19c0.24,3.87 -0.92,7.76 -2.53,11.26c-1.07,2.32 -2.34,4.54 -3.64,6.73c-0.71,1.2 -1.44,2.39 -2.17,3.59c-0.44,0.73 -0.95,1.47 -1.36,2.25c-0.57,-0.24 -1.16,-0.45 -1.76,-0.64c-3.24,-1.03 -6.6,-1.57 -9.87,-2.48c-3.14,-0.87 -6.24,-2.13 -8.42,-4.65c-2.51,-2.9 -3.39,-6.87 -4.92,-10.3c-2.97,-6.63 -8.39,-11.85 -14.48,-15.66c-4.91,-3.07 -10.31,-5.19 -15.83,-6.87c3.3,-5.42 4.23,-12.11 2.51,-18.23c-0.41,-1.45 -0.97,-2.87 -1.67,-4.21c-0.81,-1.56 -1.96,-2.92 -2.75,-4.49c-1.82,-3.61 -0.24,-7.15 0.16,-10.85c0.09,-0.81 -1.21,-1.15 -1.56,-0.42c-1.38,2.92 -2.02,6.75 -1.36,9.92c0.67,3.26 3.22,5.74 4.36,8.83c2.21,6.02 1.55,12.94 -1.98,18.31c-0.09,0.14 -0.14,0.28 -0.17,0.42c-1.55,-0.43 -3.1,-0.84 -4.65,-1.23c-4.34,-1.07 -8.7,-2.02 -13.02,-3.1c-3.85,-0.96 -7.85,-1.84 -10.75,-4.74c-2.53,-2.52 -4.11,-5.81 -5.81,-8.9c-1.73,-3.13 -3.69,-6.07 -6.19,-8.64c-0.99,-1.02 -2.07,-1.96 -3.18,-2.85c0.32,-0.82 0.31,-1.93 0.33,-2.63c0.04,-1.38 -0.22,-2.78 -0.72,-4.07c-0.48,-1.21 -1.12,-2.33 -1.9,-3.37c-0.38,-0.5 -0.77,-0.99 -1.2,-1.45c-0.23,-0.24 -0.47,-0.48 -0.71,-0.71c-0.13,-0.13 -0.26,-0.26 -0.4,-0.39c-0.01,-0.01 -0.03,-0.03 -0.05,-0.04c0.21,-0.12 0.35,-0.34 0.25,-0.64c-0.18,-0.53 -0.68,-0.78 -1.22,-0.62c-0.65,0.2 -0.86,0.9 -0.66,1.49c0.24,0.66 0.91,1.19 1.35,1.72c0.53,0.62 1.04,1.27 1.49,1.95c0.89,1.34 1.58,2.83 1.81,4.43c0.12,0.78 0.18,1.7 -0.03,2.47c-0.05,0.17 -0.11,0.33 -0.18,0.49c-4.11,-2.89 -8.83,-4.93 -13.76,-5.82c-1.73,-0.31 -3.46,-0.48 -5.21,-0.49c-1.53,-0.01 -1.49,2.24 0,2.35c7.22,0.51 14.21,3.18 19.74,7.91c2.73,2.34 5.03,5.09 6.86,8.2c1.78,3.04 3.23,6.28 5.32,9.13c2.16,2.95 4.84,5.06 8.29,6.32c4.06,1.48 8.41,2.31 12.61,3.3c6.23,1.47 12.56,2.93 18.56,5.22c-0.7,0.06 -1.38,0.14 -2.05,0.23c-2.76,0.38 -5.44,1.13 -7.99,2.24c-5.03,2.2 -9.27,5.76 -14.59,7.32c-1.16,0.34 -2.34,0.6 -3.52,0.8c-0.84,-1.5 -2.3,-2.66 -3.6,-3.73c-1.5,-1.23 -3.01,-2.46 -4.54,-3.68c-3.19,-2.54 -6.44,-5.04 -9.86,-7.28c-3.31,-2.17 -6.76,-4.08 -10.42,-5.58c-1.82,-0.75 -3.69,-1.41 -5.6,-1.87c-1.5,-0.35 -3.99,-1.2 -5.42,-0.5c-0.34,0.17 -0.39,0.71 -0.12,0.96c0.62,0.56 1.42,0.62 2.22,0.81c0.93,0.22 1.85,0.47 2.76,0.75c1.86,0.56 3.7,1.19 5.48,1.98c3.4,1.49 6.62,3.36 9.7,5.42c3.16,2.12 6.18,4.45 9.12,6.87c1.5,1.23 2.99,2.49 4.47,3.75c0.74,0.63 1.48,1.25 2.17,1.94c0.17,0.18 0.33,0.36 0.49,0.55c-3.21,0.25 -6.46,0.07 -9.62,-0.45c-5.6,-0.93 -10.72,-3.14 -16.1,-4.86c-5.64,-1.81 -12.29,-2.92 -17.7,0.18c-0.86,0.5 -0.29,2.02 0.7,1.66c5.34,-1.97 10.81,-1.16 16.09,0.6c5.28,1.76 10.36,3.95 15.86,4.95c5.12,0.93 10.38,1.08 15.5,0.09c5.35,-1.05 9.74,-3.71 14.41,-6.38c2.74,-1.56 5.6,-2.76 8.69,-3.4c1.47,-0.31 2.95,-0.48 4.45,-0.53c1.62,-0.06 3.23,0.15 4.85,0.12c0.19,-0.01 0.36,-0.05 0.51,-0.11c6.2,3.25 11.94,7.77 15.48,13.91c1.9,3.29 2.8,7 4.54,10.35c1.61,3.1 4.09,5.5 7.25,6.99c6.09,2.87 13.23,2.69 19.09,6.09c0.54,0.32 1.06,0.66 1.58,1c-8.08,-0.47 -15.9,2.07 -23.75,4.18c-4.67,1.25 -9.43,2.33 -14.29,2.32c-4.68,-0.02 -9.05,-1.45 -13.48,-2.7c-0.18,-1.05 -0.67,-2.06 -1.1,-3.02c-0.52,-1.14 -1.1,-2.27 -1.79,-3.33c-1.35,-2.12 -3.02,-4.04 -5,-5.59c-3.98,-3.13 -8.85,-4.61 -13.68,-5.83c-0.8,-0.2 -1.4,1.03 -0.58,1.39c4.21,1.83 8.66,3.54 12.31,6.4c1.8,1.41 3.31,3.11 4.55,5.03c0.66,1.01 1.26,2.05 1.8,3.13c0.16,0.33 0.31,0.68 0.46,1.02c-5.41,-1.29 -11.58,-1.77 -16.77,0.36c-0.63,0.26 -0.65,1.41 0.18,1.32c2.71,-0.28 5.37,-0.7 8.11,-0.66c2.78,0.04 5.49,0.48 8.16,1.2c4.99,1.35 9.81,3.32 15.01,3.74c9.53,0.77 18.68,-3.04 27.81,-5.11c5.13,-1.16 10.57,-1.87 15.74,-0.58c0.26,0.07 0.5,0.05 0.71,-0.01c1.2,0.9 2.41,1.77 3.72,2.51c3.65,2.08 7.77,2.96 11.82,3.92c11.16,2.64 21.99,6.69 32.15,12.01c-0.09,0.03 -0.18,0.06 -0.27,0.09c-0.98,0.29 -1.99,0.5 -3,0.68c-2.05,0.36 -4.12,0.59 -6.2,0.74c-4.3,0.3 -8.65,0.18 -12.92,-0.39c-8.28,-1.11 -16.18,-4.37 -24.63,-4.19c-4.76,0.1 -9.26,1.16 -13.74,2.73c-0.73,0.25 -0.44,1.37 0.33,1.17c4.11,-1.07 8.45,-1.67 12.71,-1.71c4.34,-0.04 8.52,0.82 12.7,1.94c4.08,1.09 8.12,2.19 12.32,2.76c4.22,0.58 8.49,0.78 12.75,0.54c2.35,-0.13 4.69,-0.39 7,-0.78c1.87,-0.3 4.49,-0.6 5.94,-1.97c3.45,1.92 6.81,3.98 10.08,6.19c1.68,1.14 3.34,2.32 4.97,3.52c1.46,1.08 2.85,-1.36 1.42,-2.43z" fill="#D5F3FF" id="svg_16"/>
      </g>
     </g>
     <g id="svg_17">
      <g id="svg_18">
       <path d="m656.95,101c-2.96,6.09 -9.93,8.33 -15.97,10.09c-7.66,2.25 -15.42,4.14 -23.17,6.03c-15.37,3.73 -30.83,7.44 -45.4,13.71c-25.36,10.91 -46.7,30.54 -59.68,54.92c-6.52,12.26 -10.24,25.67 -15.69,38.39c-2.67,6.22 -5.8,12.31 -9.92,17.71c-4.42,5.78 -10.13,10 -15.69,14.59c-2.82,2.32 -5.5,4.79 -7.73,7.69c-2.26,2.92 -4.06,6.16 -5.55,9.54c-3.17,7.2 -5.35,14.89 -6.67,22.64c-1.35,7.89 -1.81,15.93 -1.32,23.93c0.5,8.16 2.33,15.99 3.99,23.96c0.87,4.2 1.56,8.46 1.48,12.76c-0.07,3.91 -0.9,7.71 -2.17,11.41c-1.3,3.81 -3,7.47 -4.61,11.16c-0.66,1.51 -1.31,3.03 -1.92,4.57c-0.71,1.78 -1.59,3.68 -1.66,5.62c-0.12,3.56 3.08,5.67 5.98,6.95c3.11,1.36 6.53,1.92 9.92,1.8c7.39,-0.27 16.93,-3.75 25.54,-8.87c16.69,-9.93 29.76,-22.83 40.7,-37.75c7.26,-9.9 14.52,-19.83 20.93,-30.31c6.31,-10.32 11.48,-21.18 15.72,-32.5c8.45,-22.53 13.77,-46.2 23.91,-68.08c9.23,-19.93 21.97,-37.92 34.51,-55.85c12.44,-17.8 24.91,-35.82 33.46,-55.89c1.04,-2.44 2.02,-4.91 2.95,-7.4c0.42,-1.12 -1.41,-1.9 -1.94,-0.82z" fill="#3C6EA5" id="svg_19"/>
       <path d="m650.27,110.29c-8.24,11.09 -18.98,19.86 -30.91,26.71c-12.65,7.26 -26.29,12.03 -39.79,17.38c-4.33,1.71 -8.66,3.58 -12.84,5.71c-0.01,-0.05 -0.02,-0.11 -0.02,-0.17c-0.04,-0.72 -0.03,-1.45 0,-2.17c0.08,-1.48 0.31,-2.95 0.65,-4.4c0.66,-2.82 1.73,-5.53 3.09,-8.08c1.37,-2.58 2.99,-5.01 4.73,-7.35c0.92,-1.24 1.88,-2.45 2.84,-3.65c0.88,-1.09 1.96,-2.23 2.55,-3.5c0.35,-0.78 -0.45,-1.93 -1.32,-1.32c-1.27,0.89 -2.26,2.24 -3.24,3.44c-0.97,1.18 -1.91,2.38 -2.84,3.6c-1.94,2.56 -3.74,5.23 -5.23,8.07c-1.4,2.7 -2.53,5.56 -3.2,8.52c-0.35,1.53 -0.58,3.1 -0.68,4.67c-0.07,1.13 -0.21,2.55 -0.02,3.76c-7.41,4.07 -14.22,9.1 -19.5,15.85c-4.34,5.57 -7.02,11.87 -8.48,18.75c-1.52,7.22 -2.3,14.54 -4.82,21.52c-2.78,7.66 -7.07,14.69 -12.51,20.71c-0.09,-0.11 -0.18,-0.21 -0.27,-0.32c-0.61,-0.74 -1.16,-1.53 -1.67,-2.34c-1.02,-1.61 -1.85,-3.33 -2.45,-5.14c-1.31,-3.99 -1.42,-8.05 -0.83,-12.18c1,-6.97 3.32,-16.15 -3.25,-21.21c-0.68,-0.52 -1.3,0.53 -0.85,1.09c5.45,6.79 1.65,15.7 1.15,23.34c-0.25,3.8 0.36,7.65 1.73,11.2c0.67,1.75 1.49,3.43 2.5,5.01c0.55,0.85 1.18,1.86 1.93,2.68c-3.1,3.13 -6.52,5.95 -10.21,8.39c-5.96,3.93 -12.2,7.35 -17.48,12.21c-4.44,4.07 -8.22,8.84 -11.33,13.99c-4.83,7.99 -8.06,16.87 -10.18,25.97c-0.02,-0.03 -0.05,-0.06 -0.08,-0.09c-0.73,-0.85 -1.47,-1.68 -2.16,-2.54c-1.24,-1.53 -2.17,-3.19 -2.67,-5.1c-0.47,-1.83 -0.56,-3.71 -0.51,-5.59c0.07,-1.97 0.47,-4.06 0.28,-6.02c-0.08,-0.89 -1.17,-1.01 -1.5,-0.21c-0.76,1.88 -0.96,4.23 -1.08,6.23c-0.13,2.15 -0.04,4.33 0.47,6.42c0.51,2.11 1.5,3.96 2.82,5.66c0.71,0.91 1.47,1.79 2.21,2.67c0.5,0.6 0.99,1.24 1.52,1.82c-0.38,1.89 -0.72,3.79 -1.02,5.69c-0.98,6.29 -1.54,12.66 -1.74,19.03c-0.25,7.59 0.17,15.18 -0.13,22.77c-0.54,13.92 -4.81,27.03 -12.38,38.72c-3.6,5.57 -7.83,10.7 -12.52,15.39c-4.56,4.56 -9.65,9.24 -15.25,12.51c-2.28,1.33 -5.85,2.95 -8.18,0.9c-1.31,-1.15 -3.17,0.67 -1.92,1.92c4.9,4.93 12.02,-0.22 16.26,-3.42c5.38,-4.07 10.41,-8.6 14.92,-13.61c8.82,-9.8 15.82,-21.39 19.41,-34.13c4.07,-14.42 2.28,-29.31 3.01,-44.07c1.15,0.05 2.37,-0.17 3.39,-0.28c1.79,-0.21 3.57,-0.52 5.32,-0.94c3.66,-0.89 7.2,-2.27 10.58,-3.94c6.77,-3.37 12.79,-8.09 18.37,-13.16c1.61,-1.46 3.2,-2.96 4.76,-4.48c1.57,-1.52 3.27,-3.02 4.58,-4.77c0.67,-0.9 -0.66,-2.19 -1.55,-1.55c-1.9,1.36 -3.54,3.15 -5.23,4.75c-1.75,1.66 -3.52,3.29 -5.33,4.88c-3.52,3.08 -7.2,5.98 -11.15,8.49c-3.84,2.43 -7.94,4.48 -12.27,5.88c-2.2,0.71 -4.47,1.27 -6.76,1.61c-1.15,0.18 -2.32,0.28 -3.48,0.34c-0.35,0.02 -0.7,0.02 -1.05,0.03c0.82,-11.78 2.93,-23.56 7.23,-34.58c1.98,-5.08 4.5,-9.96 7.55,-14.45c2.06,1.46 4.87,1.95 7.29,2.26c3.09,0.39 6.22,0.48 9.33,0.49c6.29,0.01 12.57,-0.56 18.76,-1.66c12.32,-2.17 24.23,-6.55 35.01,-12.9c3.16,-1.86 6.19,-3.93 9.16,-6.09c3.15,-2.29 6.48,-4.51 9.34,-7.15c0.82,-0.75 -0.22,-1.81 -1.09,-1.42c-3.04,1.34 -5.76,3.46 -8.46,5.37c-2.62,1.86 -5.27,3.68 -8.02,5.36c-5.13,3.14 -10.53,5.86 -16.14,8.05c-11.28,4.41 -23.23,6.96 -35.34,7.31c-3.35,0.1 -6.72,0.04 -10.06,-0.21c-1.66,-0.12 -3.31,-0.3 -4.93,-0.72c-1.08,-0.27 -2.08,-0.71 -3.08,-1.16c3.69,-4.92 8.09,-9.3 13.22,-12.85c6.16,-4.25 12.79,-7.71 18.45,-12.68c4.97,-4.36 9.26,-9.52 12.71,-15.17c3.54,-5.77 6.2,-12.13 7.79,-18.71c0.96,-3.95 1.53,-7.99 2.25,-11.99c7.65,4.85 17.53,4.88 26.08,2.6c10.77,-2.86 20.21,-9.03 30.62,-12.82c2.89,-1.05 5.86,-1.92 8.88,-2.5c3.2,-0.6 6.44,-0.77 9.68,-0.88c0.88,-0.03 1.13,-1.37 0.21,-1.58c-5.25,-1.23 -10.84,-0.24 -15.95,1.25c-5.27,1.55 -10.29,3.81 -15.25,6.13c-9.31,4.35 -18.94,9.11 -29.47,8.88c-5.06,-0.11 -9.99,-1.46 -14.15,-4.37c0.57,-2.65 1.27,-5.28 2.26,-7.83c5.18,-13.3 17.67,-22.04 30.11,-27.91c7.24,-3.42 14.79,-6.1 22.23,-9.01c6.56,-2.56 13.01,-5.35 19.27,-8.57c12.11,-6.21 23.82,-14.03 32.84,-24.33c2.17,-2.48 4.16,-5.08 5.98,-7.83c0.62,-0.95 -0.85,-1.75 -1.5,-0.88z" fill="#A5DDEF" id="svg_20"/>
      </g>
      <g id="svg_21">
       <path d="m686.74,176.52c1.35,-3.17 2.01,-6.69 1.81,-10.15c-0.42,-6.87 -4.2,-13.11 -9.88,-16.95c-6.5,-4.39 -14.54,-4.5 -21.83,-2.2c-8.09,2.55 -14.94,7.59 -22.15,11.87c-3.62,2.15 -7.36,4.11 -11.38,5.39c-4.39,1.39 -8.98,2 -13.55,2.49c-7.66,0.83 -15.38,1.47 -22.44,4.81c-6.03,2.86 -11.2,7.68 -12.85,14.33c-1.84,7.43 0.67,16.15 -3.92,22.79c-3.92,5.67 -11.38,7.6 -17.72,9.03c-6.41,1.45 -13.13,2.79 -18.48,6.87c-2.38,1.81 -4.31,4.14 -5.41,6.94c-1.32,3.35 -1.29,7.03 -1.11,10.56c0.18,3.43 0.63,7.01 -0.18,10.4c-0.84,3.53 -3.26,6.1 -6.66,7.31c-6.26,2.23 -13.22,1.07 -19.35,3.87c-5.47,2.5 -9.56,7.46 -11.67,13.01c-2.21,5.84 -1.99,12.25 0.84,17.83c1.9,3.73 4.4,7.05 5.33,11.21c0.77,3.45 0.62,7.09 -0.34,10.49c-1.02,3.63 -2.97,6.89 -5.71,9.48c-2.81,2.65 -6.23,4.54 -9.62,6.35c-6.31,3.38 -13.32,6.97 -16.71,13.66c-6.32,12.46 6.63,21.95 11.29,32.2c1.26,2.77 1.88,5.83 1.38,8.87c-0.64,3.86 -2.59,7.34 -4.11,10.89c-1.47,3.42 -2.54,6.94 -2.3,10.7c0.27,4.13 2.76,7.72 3.53,11.75c1.68,8.87 3.32,20.34 11.84,25.01c13.79,7.56 30.87,12.76 45.87,5.26c5.93,-2.96 11.07,-7.79 13.59,-14c1.52,-3.74 1.45,-7.7 2.36,-11.57c0.76,-3.27 2.62,-6.03 5.34,-8c10.97,-7.96 25.95,-3.5 37.92,-8.78c6.23,-2.76 9.86,-7.98 11.05,-14.61c1.15,-6.44 0.33,-14.21 4.62,-19.64c4.28,-5.44 11.96,-6.27 18.14,-8.21c6.73,-2.11 12.15,-6.12 15.93,-12.11c4.26,-6.76 5.8,-14.76 5.85,-22.66c0.03,-4.46 -0.4,-8.9 -0.99,-13.32c-0.49,-3.66 -1.09,-7.58 -0.1,-11.21c1.12,-4.14 4.49,-5.84 7.98,-7.78c3.24,-1.79 6.15,-4.17 8.56,-6.99c2.25,-2.64 4.05,-5.63 5.34,-8.85c1.34,-3.37 2.47,-7.45 0.52,-10.81c-0.91,-1.55 -2.33,-2.73 -3.23,-4.29c-1,-1.73 -1.19,-3.74 -0.83,-5.69c0.73,-4.02 3.32,-7.18 6.23,-9.89c2.74,-2.55 5.73,-4.86 8.03,-7.85c2.24,-2.9 3.65,-6.31 4.35,-9.9c1.55,-8 -0.2,-15.91 -2.1,-23.69c-1.1,-4.53 -2.27,-9.08 -2.68,-13.74c-0.38,-4.27 -0.16,-8.35 2.95,-11.59c2.68,-2.78 5.11,-5.26 6.65,-8.89z" fill="#D5F3FF" id="svg_22"/>
       <path d="m679.03,173.62c-3.46,0.53 -6.36,2.47 -9.03,4.64c-3.12,2.54 -6.03,5.36 -9.05,8.03c-2.89,2.55 -5.7,5.5 -9.44,6.75c-1.82,0.61 -3.72,1 -5.6,1.33c-1.88,0.34 -3.81,0.43 -5.68,0.75c0.25,-2.01 0.47,-4.03 0.68,-6.03c0.3,-2.93 0.7,-5.98 1.99,-8.66c1.27,-2.64 3.36,-4.64 5.61,-6.45c4.66,-3.74 9.79,-6.92 15.1,-9.66c2.69,-1.39 5.45,-2.64 8.26,-3.76c1.57,-0.62 0.9,-3.18 -0.7,-2.56c-5.71,2.2 -11.19,4.9 -16.36,8.16c-2.52,1.59 -4.97,3.31 -7.33,5.13c-2.16,1.68 -4.23,3.47 -5.81,5.73c-3.37,4.84 -3.38,11.05 -4.03,16.68c-0.62,5.48 -1.62,10.98 -3.66,16.12c-2.11,5.32 -5.53,9.88 -10.12,13.31c-2.43,1.82 -5.04,3.36 -7.72,4.78c-2.96,-2.35 -4.93,-5.43 -5.89,-9.08c-1.02,-3.9 -1.41,-7.97 -2.03,-11.94c-1.22,-7.78 -2.71,-15.62 -5.99,-22.83c-1.63,-3.58 -4.12,-7.36 -8.45,-7.58c-1.06,-0.05 -1.3,1.65 -0.25,1.88c3.84,0.82 5.51,4.65 6.84,7.94c1.45,3.6 2.48,7.36 3.27,11.15c0.79,3.76 1.34,7.55 1.9,11.35c0.56,3.74 0.93,7.59 1.94,11.25c1,3.62 2.96,6.87 5.75,9.36c-1.45,0.73 -2.9,1.44 -4.34,2.16c-6.14,3.05 -12.27,6.1 -18.4,9.16c-5.42,2.7 -10.87,5.44 -15.74,9.08c-3.91,2.92 -7.47,6.42 -10.07,10.57c-0.07,-0.02 -0.13,-0.03 -0.2,-0.03c-0.21,-0.22 -0.62,-0.51 -0.71,-0.59c-0.31,-0.28 -0.6,-0.56 -0.9,-0.84c-0.69,-0.65 -1.37,-1.32 -2.02,-2.02c-1.22,-1.28 -2.39,-2.63 -3.42,-4.07c-2.17,-3.01 -3.8,-6.31 -4.61,-9.94c-0.84,-3.7 -1.09,-7.67 -3.25,-10.92c-0.84,-1.27 -1.9,-2.42 -3.19,-3.25c-1.32,-0.84 -2.95,-1.02 -4.48,-0.9c-0.87,0.06 -0.87,1.27 0,1.34c1.68,0.13 3.26,1.38 4.36,2.61c1.13,1.26 1.84,2.79 2.31,4.4c1.08,3.72 1.25,7.63 2.64,11.27c1.28,3.34 3.15,6.34 5.39,9.11c1.11,1.38 2.3,2.69 3.56,3.93c0.76,0.76 1.82,2.11 2.97,2.76c-2.27,4.75 -2.92,9.77 -2.5,15.04c0.46,5.7 1.94,11.76 0.26,17.39c-1.45,4.84 -5.41,8.03 -9.53,10.62c-0.33,0.21 -0.65,0.41 -0.98,0.61c0,0 0,-0.01 0,-0.01c-0.65,-0.64 -1.38,-0.82 -2.22,-1.09c-0.9,-0.28 -1.76,-0.65 -2.59,-1.09c-1.69,-0.88 -3.28,-1.98 -4.77,-3.17c-3.23,-2.58 -6.29,-5.39 -9.41,-8.11c-3.4,-2.96 -6.8,-5.93 -10.2,-8.89c-3.01,-2.63 -6.01,-5.31 -9.41,-7.44c-3.55,-2.22 -8.39,-4.46 -12.68,-3.66c-1.08,0.19 -1.09,1.99 0,2.18c1.98,0.35 3.91,0.48 5.83,1.12c1.94,0.65 3.77,1.59 5.49,2.69c3.45,2.21 6.47,5.03 9.52,7.75c3.25,2.88 6.49,5.77 9.74,8.65c3.07,2.73 6.07,5.57 9.28,8.14c1.59,1.27 3.24,2.47 5.04,3.43c0.87,0.46 2.01,1.09 3.16,1.46c-2.94,1.78 -5.84,3.59 -8.47,5.86c-3.74,3.22 -6.91,7.06 -9.61,11.18c-5.64,8.62 -9.18,18.48 -12.2,28.27c-5.79,18.74 -10.27,40.31 -26.1,53.52c-1.87,1.56 -3.89,2.91 -6.01,4.11c-1.64,0.93 -0.16,3.45 1.48,2.52c17.97,-10.13 25.26,-31.15 30.69,-49.83c5.52,-19.03 11.55,-40.53 29.42,-51.67c4.19,-2.61 8.71,-4.85 12.33,-8.27c3.51,-3.31 5.37,-7.54 5.81,-12.24c11.63,5.29 24.64,3.75 36.96,2.14c6.33,-0.83 12.69,-1.69 18.86,-3.39c5.93,-1.63 11.35,-4.21 16.62,-7.33c2.74,-1.61 5.45,-3.25 8.26,-4.74c2.93,-1.54 5.96,-2.7 9.11,-3.73c1.15,-0.38 1.04,-2.38 -0.31,-2.24c-5.54,0.56 -10.62,3.46 -15.35,6.22c-5.07,2.97 -10.05,5.96 -15.66,7.82c-5.95,1.97 -12.16,3 -18.35,3.83c-6.52,0.88 -13.09,1.81 -19.67,1.93c-6.88,0.12 -13.88,-0.79 -20.08,-3.93c-0.1,-0.05 -0.2,-0.09 -0.3,-0.12c-0.17,-5.24 -1.41,-10.42 -1.12,-15.67c0.29,-5.47 2.77,-10.57 6.26,-14.72c3.8,-4.49 8.65,-7.86 13.73,-10.74c2.68,-1.51 5.42,-2.93 8.17,-4.31c0.01,0 0.01,0 0.01,0.01c4.87,3.38 10.57,5.19 16.18,6.93c2.88,0.89 5.79,1.69 8.8,2.04c3.07,0.37 6.15,0.1 9.21,-0.28c6.14,-0.77 12.37,-1.58 18.19,-3.75c5.1,-1.88 9.68,-4.81 14.13,-7.87c5.12,-3.53 10.17,-7.14 15.85,-9.73c1.17,-0.54 0.33,-2.57 -0.89,-2.1c-9.88,3.82 -17.49,11.66 -27.12,15.98c-5.46,2.44 -11.47,3.41 -17.36,4.17c-2.97,0.39 -5.96,0.81 -8.96,0.77c-3.01,-0.04 -5.91,-0.73 -8.78,-1.58c-5.46,-1.62 -11.06,-3.27 -15.96,-6.23c1.99,-0.98 3.98,-1.95 5.96,-2.94c5.65,-2.82 11.36,-5.54 16.93,-8.52c4.92,-2.65 9.76,-5.77 13.35,-10.12c5.28,-6.37 7.44,-14.19 8.66,-22.17c0.08,0.02 0.16,0.06 0.25,0.06c2.01,0.08 4.17,-0.39 6.14,-0.74c1.97,-0.35 3.95,-0.76 5.84,-1.39c3.68,-1.22 6.36,-3.66 9.19,-6.2c3.04,-2.72 6.02,-5.49 9.03,-8.24c2.74,-2.51 5.65,-4.83 9.27,-5.89c1.26,-0.38 0.71,-2.11 -0.52,-1.92z" fill="#A5DDEF" id="svg_23"/>
      </g>
      <g id="svg_24">
       <path d="m678.18,343.94c-2.66,-3.15 -6.86,-6.14 -7.82,-10.35c-1.03,-4.52 3.57,-7.44 5.77,-10.72c6.34,-9.43 -6.26,-18.43 -14.15,-20.63c-5.49,-1.53 -11.09,-0.95 -16.6,0.14c-5.78,1.14 -11.39,2.36 -17.3,2.53c-11.08,0.32 -22.33,-1.44 -33.27,0.93c-5.32,1.15 -10.14,3.48 -14.66,6.46c-4.38,2.89 -8.5,6.2 -13.06,8.81c-9.83,5.61 -21.15,5.71 -32.08,7.15c-9.66,1.28 -21.33,3.89 -26.37,13.25c-2.46,4.57 -2.89,9.89 -2.79,14.98c0.11,5.95 0.64,11.91 1,17.85l0.56,9.4c0.18,2.88 0.6,5.94 -0.25,8.75c-1.4,4.64 -5.93,7.53 -9.84,9.9c-5.31,3.21 -10.65,6.37 -15.98,9.56c-4,2.4 -8.84,4.86 -10.87,9.33c-1.12,2.46 -1.08,5.08 -0.62,7.7c0.53,2.97 1.34,5.9 2.13,8.81c1.31,4.83 2.57,9.93 5.19,14.25c2.05,3.38 5.04,6.1 9.09,6.48c10.29,3.16 20.84,6.12 31.65,6.39c5.52,0.13 11.11,-0.5 16.37,-2.24c5.33,-1.77 10.16,-5.45 16.02,-4.9c2.88,0.27 5.65,1.28 8.41,2.12c2.42,0.74 4.85,1.31 7.37,1.63c4.72,0.58 9.62,0.24 14.16,-1.21c4.58,-1.46 8.5,-4.04 11.75,-7.57c1.67,-1.82 3.25,-3.81 5.29,-5.22c2.29,-1.57 4.97,-2.11 7.7,-2.3c5.49,-0.36 10.91,-0.31 16.33,-1.44c5.12,-1.06 10.21,-2.95 14.45,-6.06c3.87,-2.83 7.1,-6.59 9.03,-11.01c2.06,-4.73 2.2,-9.56 1.03,-14.55c-0.65,-2.8 -1.57,-5.58 -1.75,-8.47c-0.14,-2.4 0.24,-4.78 1.09,-7.03c1.82,-4.86 5.64,-8.33 10.4,-10.24c4.81,-1.92 9.75,-3.15 14.17,-5.97c4,-2.56 7.51,-5.94 9.95,-10.02c4.89,-8.2 4.77,-19.06 -1.5,-26.49z" fill="#A5DDEF" id="svg_25"/>
       <path d="m669.58,352.58c-1.35,1.09 -2.66,2.04 -4.3,2.63c-1.69,0.61 -3.49,0.97 -5.26,1.22c-4.08,0.58 -8.32,0.44 -12.35,-0.36c-3.04,-0.6 -5.89,-1.66 -8.65,-2.9c0.17,-0.23 0.35,-0.44 0.53,-0.63c0.77,-0.83 1.58,-1.63 2.43,-2.38c1.72,-1.53 3.59,-2.88 5.57,-4.04c1.93,-1.14 3.96,-2.1 6.07,-2.86c1.07,-0.38 2.15,-0.71 3.25,-0.99c1.02,-0.26 2.4,-0.35 3.13,-1.17c0.26,-0.3 0.26,-0.83 -0.14,-1.03c-0.97,-0.51 -2.18,-0.16 -3.2,0.07c-1.23,0.27 -2.43,0.64 -3.62,1.05c-2.28,0.81 -4.49,1.82 -6.58,3.06c-2.03,1.2 -3.96,2.6 -5.73,4.16c-0.94,0.82 -1.84,1.7 -2.69,2.62c-0.33,0.36 -0.73,0.75 -1.1,1.16c-3.37,-1.64 -6.66,-3.49 -10.08,-5.08c-3.17,-1.48 -6.42,-2.65 -9.84,-3.22c0.4,-0.59 0.81,-1.19 1.21,-1.77c4.64,-6.73 10.16,-12.57 17.03,-17.04c6.45,-4.2 13.68,-7.14 21.24,-8.58c1.93,-0.36 3.87,-0.69 5.82,-0.9c1.53,-0.17 1.6,-2.52 0,-2.44c-15.04,0.79 -29.7,8.15 -39.9,19.14c-5.73,6.18 -9.47,13.92 -15.41,19.92c-3.7,3.73 -8.1,6.75 -12.88,8.92c-2.48,-8.66 0.38,-17.68 4.79,-25.29c1.5,-2.57 3.28,-4.97 4.95,-7.42c1.74,0.18 3.64,-0.14 5.3,-0.37c1.88,-0.27 3.73,-0.67 5.54,-1.24c1.78,-0.55 3.52,-1.24 5.19,-2.05c1.67,-0.81 3.75,-1.78 4.93,-3.25c0.59,-0.73 0.07,-2.1 -1.01,-1.74c-1.71,0.57 -3.26,1.77 -4.88,2.6c-1.63,0.84 -3.31,1.56 -5.06,2.14c-1.73,0.58 -3.51,1.05 -5.31,1.38c-1.07,0.19 -2.23,0.29 -3.36,0.48c0.42,-0.65 0.82,-1.31 1.2,-1.99c2.27,-4.08 2.95,-8.7 2.4,-13.31c-0.17,-1.5 -2.48,-1.59 -2.42,0c0.2,5.03 -0.73,9.52 -3.51,13.75c-2.53,3.85 -5.3,7.48 -7.48,11.55c-4.22,7.85 -6.61,17.15 -3.96,25.87c-1.54,0.58 -3.1,1.09 -4.7,1.49c-4.58,1.13 -9.3,1.53 -13.96,2.16c-4.26,0.58 -8.46,1.41 -12.53,2.79c-7.69,2.59 -14.83,6.73 -20.89,12.13c-8.31,7.41 -14.34,16.83 -21.2,25.52c-0.77,-0.26 -1.55,-0.43 -2.31,-0.4c-1.2,0.04 -1.58,1.56 -0.6,2.21c0.33,0.22 0.67,0.38 1.02,0.54c-2.48,3.01 -5.1,5.9 -8,8.55c-12.47,11.41 -28.56,17.84 -43.82,24.56c-0.99,0.44 -2.02,1.02 -3.09,1.22c-0.73,0.14 -2,-0.08 -1.91,-1.05c0.08,-1.03 -1.53,-1.46 -1.97,-0.53c-0.72,1.52 -0.17,3.38 1.35,4.2c1.98,1.07 4.19,0.06 6.05,-0.76c4.06,-1.79 8.12,-3.57 12.16,-5.4c7.75,-3.5 15.44,-7.22 22.57,-11.88c7.02,-4.6 13.19,-10.13 18.53,-16.6c0.29,-0.35 0.57,-0.7 0.85,-1.05c0.72,0.4 1.42,0.83 2.08,1.32c1.8,1.35 3.37,3.03 4.74,4.8c2.98,3.86 4.8,8.29 7.24,12.46c2.62,4.48 7.28,7.36 11.46,10.24c4.3,2.97 8.85,5.64 13.79,7.39c2.99,1.05 6.09,1.66 9.24,1.98c3.13,0.31 6.69,0.62 9.77,-0.12c0.87,-0.2 0.85,-1.51 0,-1.73c-2.74,-0.71 -5.76,-0.53 -8.58,-0.77c-2.81,-0.23 -5.58,-0.71 -8.27,-1.55c-5.05,-1.57 -9.65,-4.29 -14,-7.25c-4.32,-2.96 -8.98,-5.85 -11.51,-10.58c-2.22,-4.16 -4.21,-8.34 -7.14,-12.08c-1.51,-1.92 -3.2,-3.66 -5.16,-5.13c-0.56,-0.42 -1.18,-0.85 -1.84,-1.27c4.17,-5.35 8.05,-10.93 12.38,-16.15c5.32,-6.42 11.38,-12.04 18.72,-16.07c2.59,-1.42 5.29,-2.62 8.07,-3.63c0.07,3.12 1.67,5.87 3.27,8.49c1.89,3.12 3.79,6.23 5.69,9.34c3.34,5.48 6.63,10.96 11.76,14.97c2.15,1.68 4.43,3.07 6.81,4.26c-0.5,1.76 -0.49,3.83 -0.46,5.53c0.04,2.51 0.38,5.06 1.04,7.49c1.33,4.92 3.71,9.43 7.6,12.77c0.74,0.64 2.13,-0.22 1.46,-1.12c-2.77,-3.71 -5.2,-7.9 -6.44,-12.38c-0.61,-2.21 -0.98,-4.46 -1.08,-6.76c-0.06,-1.46 0.14,-2.96 0.22,-4.44c8.37,3.62 17.72,4.99 26.64,6.73c3.88,0.75 7.74,1.57 11.51,2.75c2.78,0.88 5.53,2.08 6.9,4.81c0.57,1.16 2.07,0.27 1.91,-0.8c-0.37,-2.55 -2.51,-4.28 -4.69,-5.34c-2.78,-1.35 -5.87,-2.12 -8.86,-2.85c-6.75,-1.66 -13.66,-2.58 -20.44,-4.15c-5.81,-1.34 -11.59,-3.19 -16.74,-6.27c-5.2,-3.11 -8.87,-7.41 -12.06,-12.44c0.52,0.12 1.05,0.34 1.5,0.48c0.97,0.32 1.96,0.59 2.95,0.83c1.86,0.45 3.75,0.75 5.66,0.93c3.89,0.37 7.81,0.17 11.67,-0.51c3.82,-0.67 7.57,-1.86 11.06,-3.56c1.71,-0.83 3.36,-1.79 4.93,-2.87c1.45,-1 3.71,-2.31 4.28,-4.05c0.3,-0.9 -0.62,-1.63 -1.45,-1.45c-0.97,0.21 -1.7,1.01 -2.48,1.59c-0.81,0.61 -1.63,1.2 -2.49,1.76c-1.59,1.04 -3.27,1.94 -5,2.74c-3.52,1.63 -7.31,2.71 -11.15,3.27c-3.85,0.56 -7.8,0.54 -11.66,0.07c-1.93,-0.23 -3.79,-0.64 -5.67,-1.08c-1.12,-0.25 -2.31,-0.38 -3.28,0.04c-1.88,-3.06 -3.73,-6.13 -5.6,-9.19c-1.88,-3.09 -4.63,-6.49 -4.43,-10.29c0,-0.09 0,-0.17 -0.01,-0.24c0.26,-0.08 0.51,-0.17 0.77,-0.25c4.37,-1.25 8.84,-1.85 13.34,-2.41c4.55,-0.57 9.11,-1.18 13.48,-2.6c3.77,-1.22 7.4,-2.94 10.73,-5.09c3.39,-2.18 6.51,-4.81 9.21,-7.8c1.72,-1.91 3.24,-3.96 4.72,-6.06c7.75,0.75 14.39,5.36 21.25,8.63c7.63,3.64 15.79,5.23 24.21,3.97c3.68,-0.55 8.82,-1.74 10.59,-5.46c0.5,-1.06 -0.68,-1.93 -1.57,-1.22z" fill="#D5F3FF" id="svg_26"/>
      </g>
      <g id="svg_27">
       <path d="m620.03,278.17c-19.74,0.07 -39.79,0.31 -59.06,5.11c-9.56,2.38 -18.82,5.97 -27.29,11.04c-4.58,2.75 -8.94,5.86 -13.24,9.02c-4.29,3.15 -8.59,6.3 -12.77,9.6c-7.83,6.18 -14.84,13.12 -20.86,21.08c-5.84,7.72 -10.75,16.12 -15.06,24.79c-9.11,18.3 -15.52,37.76 -23.5,56.55c-2.07,4.88 -4.26,9.71 -6.62,14.46c-1.16,2.34 -2.36,4.66 -3.62,6.95c-1.24,2.26 -2.73,4.46 -3.72,6.85c-0.85,2.05 -1.12,4.32 -0.03,6.34c0.83,1.54 2.33,2.55 3.92,3.19c1.74,0.7 3.6,0.99 5.46,1.17c2.73,0.27 5.47,0.49 8.21,0.73c2.79,0.25 5.59,0.5 8.38,0.74c0.23,0.02 0.43,-0.02 0.59,-0.09c13.97,3.06 28.95,3.28 42.42,-1.87c7.42,-2.85 13.97,-7.31 19.55,-12.95c5.72,-5.79 10.39,-12.51 14.79,-19.31c5.11,-7.88 10.09,-15.84 15.13,-23.76c4.88,-7.67 9.47,-15.35 12.81,-23.83c3.27,-8.29 5.99,-16.76 10.33,-24.58c4.01,-7.23 8.89,-13.93 13.92,-20.47c5.02,-6.53 10.2,-12.93 14.94,-19.67c5.16,-7.32 9.45,-15.07 13.22,-23.19c0.97,-2.09 2.09,-4.11 3.08,-6.19c0.36,-0.76 -0.06,-1.72 -0.98,-1.71z" fill="#3C6EA5" id="svg_28"/>
       <path d="m611.36,282.41c-8.37,3.97 -16.78,7.77 -25.54,10.81c-8.26,2.86 -16.7,5.14 -24.92,8.12c-7.97,2.89 -15.6,6.53 -22.46,11.54c-6.6,4.83 -12.46,10.57 -17.84,16.69c-3.81,4.34 -7.45,8.84 -10.96,13.43c-0.77,-1.94 -1.51,-3.83 -1.89,-5.95c-0.48,-2.68 -0.52,-5.47 -0.15,-8.16c0.36,-2.63 1.11,-5.3 2.23,-7.71c1.13,-2.44 2.67,-5.44 5.07,-6.83c1.01,-0.58 0.13,-1.97 -0.89,-1.53c-2.77,1.23 -4.74,4.19 -6.15,6.77c-1.54,2.84 -2.57,5.92 -3.03,9.12c-0.46,3.17 -0.43,6.35 0.12,9.5c0.27,1.57 0.69,3.1 1.25,4.59c0.3,0.81 0.67,2.14 1.35,2.95c-0.94,1.25 -1.88,2.5 -2.8,3.76c-5.26,7.21 -10.09,14.72 -14.11,22.7c-5.97,11.83 -10.55,24.44 -17.11,35.96c-2.16,-1.6 -3.23,-3.9 -3.91,-6.46c-0.77,-2.91 -1.31,-5.88 -1.7,-8.87c-0.68,-5.26 -1.34,-11.27 1.3,-16.11c0.32,-0.59 -0.46,-1.24 -0.95,-0.73c-1.94,2.03 -2.64,4.81 -2.91,7.54c-0.32,3.29 -0.16,6.66 0.15,9.94c0.31,3.36 0.85,6.79 1.78,10.04c0.83,2.92 2.35,5.32 4.77,7.15c-1.44,2.37 -2.96,4.7 -4.62,6.94c-4.79,6.49 -10.54,12.36 -16.95,17.25c-3.15,2.4 -6.48,4.51 -9.87,6.54c-3.2,1.91 -6.44,3.88 -9.12,6.5c-1.31,1.29 -2.45,2.74 -3.38,4.34c-0.94,1.62 1.53,3.05 2.51,1.46c4,-6.44 11.59,-9.5 17.6,-13.66c1.83,-1.27 3.61,-2.61 5.35,-4c0.05,0.03 0.09,0.07 0.15,0.1c10.8,5.72 23.39,5.94 35.1,3.33c5.98,-1.33 11.95,-3.25 17.53,-5.8c5.16,-2.35 9.6,-5.79 13.92,-9.41c2.3,-1.94 4.57,-3.91 6.93,-5.77c2.5,-1.96 5.2,-3.57 7.81,-5.36c0.88,-0.6 0.36,-2.26 -0.78,-1.84c-4.82,1.78 -9.01,5.57 -12.9,8.82c-4.1,3.43 -8.17,6.95 -12.86,9.56c-5.18,2.88 -11.04,4.73 -16.77,6.19c-5.77,1.48 -11.71,2.33 -17.67,2.14c-6.12,-0.2 -12.21,-1.55 -17.7,-4.27c3.43,-2.98 6.64,-6.2 9.58,-9.66c9.75,-11.48 15.54,-25.15 21.57,-38.74c4.21,2.35 8.94,3.31 13.63,4.18c5.29,0.98 10.67,1.99 16.07,1.68c5.13,-0.3 10.09,-1.79 14.82,-3.73c4.86,-2 9.77,-4.21 14.02,-7.34c2.35,-1.73 4.59,-3.6 7.08,-5.13c2.56,-1.56 5.26,-2.84 7.9,-4.23c1.42,-0.74 0.18,-2.75 -1.24,-2.11c-4.57,2.06 -8.87,4.48 -12.86,7.54c-4.05,3.12 -8.33,5.5 -13,7.58c-4.51,2.02 -9.23,3.79 -14.15,4.41c-5.19,0.65 -10.4,-0.11 -15.5,-1.08c-5.28,-0.99 -10.8,-1.85 -15.48,-4.67c0.4,-0.88 0.8,-1.76 1.2,-2.64c7.27,-15.92 17.14,-30.38 28.2,-43.9c3.19,-3.9 6.51,-7.69 10.06,-11.27c8.92,4.91 19.47,6.1 29.49,5.46c9.91,-0.63 20.52,-2.43 27.95,-9.55c3.97,-3.81 7.12,-8.41 11.36,-11.95c0.46,-0.39 -0.17,-1.22 -0.66,-0.85c-3.64,2.76 -6.65,6.17 -9.89,9.36c-3.53,3.46 -7.31,6.26 -12.07,7.78c-4.67,1.49 -9.66,2.2 -14.54,2.59c-4.88,0.39 -9.8,0.28 -14.65,-0.4c-5.22,-0.72 -10.15,-2.26 -14.86,-4.54c1.53,-1.47 3.11,-2.9 4.73,-4.28c6.47,-5.48 13.7,-9.79 21.55,-12.99c8.01,-3.27 16.35,-5.59 24.57,-8.24c8.5,-2.73 16.94,-5.91 24.97,-9.85c2.06,-1.01 4.09,-2.06 6.1,-3.18c1.04,-0.57 0.12,-2.07 -0.93,-1.57z" fill="#A5DDEF" id="svg_29"/>
      </g>
     </g>
    </g>
    <g id="svg_30">
     <g id="svg_31">
      <path d="m501.97,462.38l-217.56,0c-9.94,0 -18,-8.06 -18,-18l0,-391.31c0,-9.94 8.06,-18 18,-18l217.56,0c9.94,0 18,8.06 18,18l0,391.31c0,9.94 -8.06,18 -18,18z" fill="#9B72B0" id="svg_32"/>
      <g id="svg_33">
       <path d="m483.97,462.38l-217.56,0c-9.94,0 -18,-8.06 -18,-18l0,-391.31c0,-9.94 8.06,-18 18,-18l217.56,0c9.94,0 18,8.06 18,18l0,391.31c0,9.94 -8.06,18 -18,18z" fill="#AF8FBF" id="svg_34"/>
       <g id="svg_35">
        <path d="m413.01,54.9l-75.64,0c-3.53,0 -6.39,-2.86 -6.39,-6.39l0,0c0,-3.53 2.86,-6.39 6.39,-6.39l75.64,0c3.53,0 6.39,2.86 6.39,6.39l0,0c0,3.53 -2.86,6.39 -6.39,6.39z" fill="#D7C7DF" id="svg_36"/>
        <g id="svg_37">
         <path d="m407.89,50.6l-19.23,0c-1.02,0 -1.86,-0.84 -1.86,-1.86l0,-0.46c0,-1.02 0.84,-1.86 1.86,-1.86l19.23,0c1.03,0 1.86,0.84 1.86,1.86l0,0.46c0,1.02 -0.83,1.86 -1.86,1.86z" fill="#9B72B0" id="svg_38"/>
         <path d="m361.72,50.6l-19.23,0c-1.03,0 -1.86,-0.84 -1.86,-1.86l0,-0.46c0,-1.02 0.83,-1.86 1.86,-1.86l19.23,0c1.02,0 1.86,0.84 1.86,1.86l0,0.46c0,1.02 -0.84,1.86 -1.86,1.86z" fill="#9B72B0" id="svg_39"/>
         <ellipse cx="375.19" cy="48.51" fill="#9B72B0" id="svg_40" rx="4.04" ry="4.04" transform="matrix(0.3827 -0.9239 0.9239 0.3827 186.794 376.5769)"/>
        </g>
       </g>
       <g id="svg_41">
        <circle cx="375.19" cy="444.94" fill="#D7C7DF" id="svg_42" r="12"/>
        <path d="m443.67,439.95l-37.79,0c-2.75,0 -4.99,2.24 -4.99,4.99l0,0c0,2.76 2.24,4.99 4.99,4.99l37.79,0c2.76,0 4.99,-2.23 4.99,-4.99l0,0c0,-2.75 -2.23,-4.99 -4.99,-4.99z" fill="#D7C7DF" id="svg_43"/>
        <path d="m306.71,439.95l37.79,0c2.75,0 4.99,2.24 4.99,4.99l0,0c0,2.76 -2.24,4.99 -4.99,4.99l-37.79,0c-2.76,0 -4.99,-2.23 -4.99,-4.99l0,0c0,-2.75 2.23,-4.99 4.99,-4.99z" fill="#D7C7DF" id="svg_44"/>
       </g>
      </g>
      <g id="svg_45">
       <path d="m468.7,429.73l-187.02,0c-8.54,0 -15.47,-6.93 -15.47,-15.48l0,-336.35c0,-8.55 6.93,-15.48 15.47,-15.48l187.02,0c8.54,0 15.47,6.93 15.47,15.48l0,336.35c0,8.55 -6.93,15.48 -15.47,15.48z" fill="#D7C7DF" id="svg_46"/>
       <path d="m474.27,150.96c-5.62,4.11 -10.03,9.26 -13.94,14.98c-3.74,5.46 -7.12,11.27 -11.72,16.08c-2.16,2.25 -4.57,4.22 -7.34,5.67c-3.75,1.96 -7.97,2.42 -11.92,3.82c-5.41,1.91 -9.89,5.54 -13.48,9.97c-7.42,9.15 -11.44,20.66 -19.45,29.35c-4.34,4.72 -9.81,7.38 -15.4,10.33c-5.84,3.08 -11.18,6.86 -13.32,13.39c-1.29,3.91 -1.63,8.08 -4.2,11.46c-2.34,3.08 -5.69,5.43 -8.81,7.65c-6.59,4.68 -13.67,8.24 -20.94,11.72c-6.13,2.94 -12.41,6.42 -16.09,12.37c-2.04,3.32 -3.04,7.15 -5.09,10.47c-1.54,2.49 -3.5,4.67 -5.69,6.6c-9.37,8.22 -22.09,11.51 -32.99,17.11c-2.66,1.38 -5.24,2.91 -7.68,4.63l0,77.7c0,8.54 6.93,15.47 15.47,15.47l187.02,0c8.54,0 15.47,-6.93 15.47,-15.47l0,-268.99c-3.48,1.53 -6.81,3.43 -9.9,5.69z" fill="#BDA1CA" id="svg_47"/>
      </g>
     </g>
     <g id="svg_48">
      <g id="svg_49">
       <g id="svg_50">
        <path d="m278.41,65.08l-169.57,0c-8.5,0 -15.39,6.89 -15.39,15.39l0,115.3c0,8.5 6.89,15.39 15.39,15.39l111.97,0c7.33,0 14.49,2.21 20.55,6.33l31.43,21.42c2.57,1.75 5.89,-0.8 4.86,-3.73l-6.41,-18.3c-0.98,-2.79 1.09,-5.72 4.06,-5.72l3.11,0c8.5,0 15.39,-6.89 15.39,-15.39l0,-115.3c0,-8.5 -6.89,-15.39 -15.39,-15.39z" fill="#FDFBCC" id="svg_51"/>
        <path d="m278.41,65.08l-4.36,0l-163.47,146.08l110.24,0c7.32,0 14.48,2.21 20.54,6.33l31.43,21.42c2.57,1.75 5.89,-0.8 4.86,-3.73l-6.41,-18.3c-0.98,-2.79 1.09,-5.72 4.06,-5.72l3.11,0c8.5,0 15.39,-6.89 15.39,-15.39l0,-115.3c0,-8.5 -6.89,-15.39 -15.39,-15.39z" fill="#FAF37A" id="svg_52"/>
       </g>
       <g id="svg_53">
        <ellipse cx="193.63" cy="137.44" fill="#D5F3FF" id="svg_54" rx="64.61" ry="64.61" transform="matrix(0.2055 -0.9787 0.9787 0.2055 19.332 298.6998)"/>
        <g id="svg_55">
         <path d="m154.16,86.29c-13.03,10.07 -22.1,24.99 -24.5,42.06l63.97,9.09l-39.47,-51.15z" fill="#3F79C5" id="svg_56"/>
         <path d="m129.66,128.35c-0.42,2.97 -0.64,6.01 -0.64,9.09c0,5.41 0.67,10.66 1.92,15.68l62.69,-15.68l-63.97,-9.09z" fill="#D95574" id="svg_57"/>
         <path d="m130.94,153.12c1.66,6.66 4.35,12.91 7.89,18.57l54.8,-34.25l-62.69,15.68z" fill="#FC9769" id="svg_58"/>
         <path d="m256.03,120.67c-5.8,-21.63 -22.55,-38.78 -43.94,-45.15l-18.46,61.92l62.4,-16.77z" fill="#7A4495" id="svg_59"/>
         <path d="m228.7,191.71c17.77,-11.51 29.53,-31.51 29.53,-54.27c0,-5.8 -0.77,-11.42 -2.2,-16.77l-62.4,16.77l35.07,54.27z" fill="#FFC564" id="svg_60"/>
         <path d="m138.83,171.69c11.42,18.23 31.69,30.36 54.8,30.36c12.93,0 24.96,-3.8 35.07,-10.34l-35.07,-54.27l-54.8,34.25z" fill="#81BBC1" id="svg_61"/>
        </g>
       </g>
      </g>
      <g id="svg_62">
       <g id="svg_63">
        <path d="m535.3,260.21l-74.87,0c-5.58,0 -10.11,4.52 -10.11,10.1l0,37.96c0,5.59 4.53,10.11 10.11,10.11l0,0c1.29,0 2.24,1.2 1.94,2.46l-5.33,22.39c-0.45,1.87 1.87,3.12 3.18,1.72l20.85,-22.19c2.62,-2.79 6.29,-4.38 10.12,-4.38l44.11,0c5.58,0 10.11,-4.52 10.11,-10.11l0,-37.95c0,-5.59 -4.53,-10.11 -10.11,-10.11z" fill="#FDFBCC" id="svg_64"/>
        <path d="m535.3,260.21l-7.98,0l-73.14,56c1.72,1.35 3.89,2.17 6.25,2.17c1.29,0 2.24,1.2 1.94,2.46l-5.33,22.39c-0.45,1.87 1.87,3.12 3.18,1.72l20.85,-22.19c2.62,-2.8 6.29,-4.38 10.12,-4.38l44.11,0c5.58,0 10.11,-4.53 10.11,-10.11l0,-37.96c0,-5.58 -4.53,-10.1 -10.11,-10.1z" fill="#FAF37A" id="svg_65"/>
       </g>
       <g id="svg_66">
        <ellipse cx="497.86" cy="288.64" fill="#D5F3FF" id="svg_67" rx="24.98" ry="24.98" transform="matrix(0.9135 -0.4068 0.4068 0.9135 -74.365 227.5191)"/>
        <g id="svg_68">
         <path d="m485.25,267.08c-7.39,4.33 -12.36,12.37 -12.36,21.56l24.97,0l-12.61,-21.56z" fill="#FFC564" id="svg_69"/>
         <path d="m472.89,288.64c0,11.37 7.6,20.97 18,23.99l6.98,-23.99l-24.98,0z" fill="#7A4495" id="svg_70"/>
         <path d="m490.89,312.63c2.21,0.64 4.55,0.99 6.97,0.99c9.41,0 17.6,-5.2 21.86,-12.87l-21.85,-12.11l-6.98,23.99z" fill="#D95574" id="svg_71"/>
         <path d="m519.72,300.75c1.99,-3.59 3.12,-7.72 3.12,-12.11l-24.98,0l21.86,12.11z" fill="#FC9769" id="svg_72"/>
        </g>
       </g>
      </g>
      <g id="svg_73">
       <g id="svg_74">
        <path d="m604.5,249.75l-282.27,0c-7.34,0 -13.3,-5.96 -13.3,-13.31l0,-134.06c0,-7.35 5.96,-13.3 13.3,-13.3l282.27,0c7.34,0 13.3,5.95 13.3,13.3l0,134.06c0,7.35 -5.96,13.31 -13.3,13.31z" fill="#FDFBCC" id="svg_75"/>
        <path d="m604.5,89.08l-50.53,0l-245.04,131.45l0,15.91c0,7.35 5.96,13.3 13.3,13.3l282.27,0c7.34,0 13.3,-5.95 13.3,-13.3l0,-134.06c0,-7.35 -5.96,-13.3 -13.3,-13.3z" fill="#FAF37A" id="svg_76"/>
       </g>
       <g id="svg_77">
        <g id="svg_78">
         <polyline fill="none" id="svg_79" points="         315.721,129.953 344.4,96.785 376.544,128.592 389.921,133.571 408.641,168.944 432.115,140.718 451.584,138.065          482.79,112.784 494.527,121.399 536.044,142.578 552.744,119.963 572.914,117.502 593.084,93.503        " stroke="#7A4495" stroke-linecap="round" stroke-linejoin="round" stroke-miterlimit="10"/>
         <polyline fill="none" id="svg_80" points="         317.811,101.092 352.694,111.759 389.171,111.759 434.859,151.347 442.593,149.501 466.212,102.938 517.862,101.913          533.465,126.252 556.249,126.252 570.719,107.041 602.803,107.041        " stroke="#303270" stroke-linecap="round" stroke-linejoin="round" stroke-miterlimit="10"/>
        </g>
        <g id="svg_81">
         <line fill="none" id="svg_82" stroke="#FA6886" stroke-linecap="round" stroke-linejoin="round" stroke-miterlimit="10" x1="327.99" x2="327.99" y1="147.01" y2="205.64"/>
         <line fill="none" id="svg_83" stroke="#52328D" stroke-linecap="round" stroke-linejoin="round" stroke-miterlimit="10" x1="344.4" x2="344.4" y1="126.52" y2="185.15"/>
         <line fill="none" id="svg_84" stroke="#52328D" stroke-linecap="round" stroke-linejoin="round" stroke-miterlimit="10" x1="360.81" x2="360.81" y1="147.01" y2="194.98"/>
         <line fill="none" id="svg_85" stroke="#FA6886" stroke-linecap="round" stroke-linejoin="round" stroke-miterlimit="10" x1="377.22" x2="377.22" y1="150.91" y2="197.84"/>
         <line fill="none" id="svg_86" stroke="#FA6886" stroke-linecap="round" stroke-linejoin="round" stroke-miterlimit="10" x1="393.63" x2="393.63" y1="167.5" y2="226.13"/>
         <line fill="none" id="svg_87" stroke="#52328D" stroke-linecap="round" stroke-linejoin="round" stroke-miterlimit="10" x1="410.04" x2="410.04" y1="195.27" y2="245.32"/>
         <line fill="none" id="svg_88" stroke="#FA6886" stroke-linecap="round" stroke-linejoin="round" stroke-miterlimit="10" x1="426.44" x2="426.44" y1="172.92" y2="231.54"/>
         <line fill="none" id="svg_89" stroke="#52328D" stroke-linecap="round" stroke-linejoin="round" stroke-miterlimit="10" x1="442.85" x2="442.85" y1="181.55" y2="234.11"/>
         <line fill="none" id="svg_90" stroke="#FA6886" stroke-linecap="round" stroke-linejoin="round" stroke-miterlimit="10" x1="459.26" x2="459.26" y1="157.7" y2="212.1"/>
         <line fill="none" id="svg_91" stroke="#FA6886" stroke-linecap="round" stroke-linejoin="round" stroke-miterlimit="10" x1="475.67" x2="475.67" y1="148.79" y2="207.41"/>
         <line fill="none" id="svg_92" stroke="#52328D" stroke-linecap="round" stroke-linejoin="round" stroke-miterlimit="10" x1="492.08" x2="492.08" y1="164.63" y2="223.26"/>
         <line fill="none" id="svg_93" stroke="#52328D" stroke-linecap="round" stroke-linejoin="round" stroke-miterlimit="10" x1="508.49" x2="508.49" y1="142.7" y2="201.32"/>
         <line fill="none" id="svg_94" stroke="#52328D" stroke-linecap="round" stroke-linejoin="round" stroke-miterlimit="10" x1="524.9" x2="524.9" y1="154.81" y2="213.44"/>
         <line fill="none" id="svg_95" stroke="#FA6886" stroke-linecap="round" stroke-linejoin="round" stroke-miterlimit="10" x1="541.31" x2="541.31" y1="163.28" y2="221.9"/>
         <line fill="none" id="svg_96" stroke="#FA6886" stroke-linecap="round" stroke-linejoin="round" stroke-miterlimit="10" x1="557.72" x2="557.72" y1="157.37" y2="196.27"/>
         <line fill="none" id="svg_97" stroke="#52328D" stroke-linecap="round" stroke-linejoin="round" stroke-miterlimit="10" x1="574.12" x2="574.12" y1="139.05" y2="187.82"/>
         <line fill="none" id="svg_98" stroke="#52328D" stroke-linecap="round" stroke-linejoin="round" stroke-miterlimit="10" x1="590.53" x2="590.53" y1="138.68" y2="197.3"/>
         <line fill="none" id="svg_99" stroke="#FA6886" stroke-linecap="round" stroke-linejoin="round" stroke-miterlimit="10" x1="606.94" x2="606.94" y1="118" y2="169.76"/>
         <path d="m331.62,196.81l-7.25,0c-0.25,0 -0.44,-0.19 -0.44,-0.44l0,-40.09c0,-0.25 0.19,-0.44 0.44,-0.44l7.25,0c0.24,0 0.44,0.19 0.44,0.44l0,40.09c0,0.25 -0.2,0.44 -0.44,0.44z" fill="#FA6886" id="svg_100"/>
         <path d="m348.09,171l-7.38,0c-0.21,0 -0.38,-0.17 -0.38,-0.38l0,-29.57c0,-0.21 0.17,-0.38 0.38,-0.38l7.38,0c0.21,0 0.38,0.17 0.38,0.38l0,29.57c-0.01,0.21 -0.17,0.38 -0.38,0.38z" fill="#7A4495" id="svg_101"/>
         <path d="m364.5,186.16l-7.38,0c-0.21,0 -0.38,-0.17 -0.38,-0.38l0,-29.57c0,-0.21 0.17,-0.38 0.38,-0.38l7.38,0c0.2,0 0.37,0.17 0.37,0.38l0,29.57c0,0.21 -0.17,0.38 -0.37,0.38z" fill="#7A4495" id="svg_102"/>
         <path d="m380.91,189.12l-7.38,0c-0.21,0 -0.38,-0.17 -0.38,-0.38l0,-28.73c0,-0.21 0.17,-0.38 0.38,-0.38l7.38,0c0.21,0 0.37,0.17 0.37,0.38l0,28.73c0,0.21 -0.16,0.38 -0.37,0.38z" fill="#FA6886" id="svg_103"/>
         <path d="m397.27,215.98l-7.28,0c-0.24,0 -0.43,-0.19 -0.43,-0.43l0,-37.48c0,-0.23 0.19,-0.42 0.43,-0.42l7.28,0c0.23,0 0.42,0.19 0.42,0.42l0,37.48c0,0.24 -0.19,0.43 -0.42,0.43z" fill="#FA6886" id="svg_104"/>
         <path d="m413.72,235.46l-7.37,0c-0.21,0 -0.38,-0.17 -0.38,-0.38l0,-29.57c0,-0.21 0.17,-0.38 0.38,-0.38l7.37,0c0.21,0 0.38,0.17 0.38,0.38l0,29.57c0,0.21 -0.17,0.38 -0.38,0.38z" fill="#7A4495" id="svg_105"/>
         <path d="m430.1,220.34l-7.31,0c-0.23,0 -0.41,-0.18 -0.41,-0.41l0,-35.39c0,-0.23 0.18,-0.41 0.41,-0.41l7.31,0c0.22,0 0.41,0.18 0.41,0.41l0,35.39c0,0.23 -0.19,0.41 -0.41,0.41z" fill="#FA6886" id="svg_106"/>
         <path d="m446.54,222.99l-7.37,0c-0.21,0 -0.38,-0.17 -0.38,-0.38l0,-29.56c0,-0.21 0.17,-0.38 0.38,-0.38l7.37,0c0.21,0 0.38,0.17 0.38,0.38l0,29.56c0,0.21 -0.17,0.38 -0.38,0.38z" fill="#7A4495" id="svg_107"/>
         <path d="m462.95,200.06l-7.38,0c-0.2,0 -0.37,-0.17 -0.37,-0.38l0,-29.56c0,-0.21 0.17,-0.38 0.37,-0.38l7.38,0c0.21,0 0.38,0.17 0.38,0.38l0,29.56c0,0.21 -0.17,0.38 -0.38,0.38z" fill="#FA6886" id="svg_108"/>
         <path d="m479.31,197.37l-7.28,0c-0.23,0 -0.42,-0.19 -0.42,-0.43l0,-37.67c0,-0.24 0.19,-0.43 0.42,-0.43l7.28,0c0.24,0 0.43,0.19 0.43,0.43l0,37.67c0,0.23 -0.19,0.43 -0.43,0.43z" fill="#FA6886" id="svg_109"/>
         <path d="m495.71,213.93l-7.26,0c-0.24,0 -0.44,-0.19 -0.44,-0.43l0,-39.11c0,-0.24 0.2,-0.43 0.44,-0.43l7.26,0c0.24,0 0.44,0.19 0.44,0.43l0,39.11c-0.01,0.24 -0.2,0.43 -0.44,0.43z" fill="#7A4495" id="svg_110"/>
         <path d="m512.18,187.17l-7.38,0c-0.21,0 -0.38,-0.17 -0.38,-0.38l0,-29.56c0,-0.21 0.17,-0.38 0.38,-0.38l7.38,0c0.2,0 0.38,0.17 0.38,0.38l0,29.56c-0.01,0.21 -0.18,0.38 -0.38,0.38z" fill="#7A4495" id="svg_111"/>
         <path d="m528.54,203.4l-7.28,0c-0.24,0 -0.43,-0.19 -0.43,-0.43l0,-37.69c0,-0.24 0.19,-0.43 0.43,-0.43l7.28,0c0.23,0 0.42,0.19 0.42,0.43l0,37.69c0,0.24 -0.19,0.43 -0.42,0.43z" fill="#7A4495" id="svg_112"/>
         <path d="m544.94,212.33l-7.27,0c-0.24,0 -0.43,-0.2 -0.43,-0.43l0,-38.62c0,-0.24 0.19,-0.43 0.43,-0.43l7.27,0c0.24,0 0.43,0.19 0.43,0.43l0,38.62c0,0.23 -0.19,0.43 -0.43,0.43z" fill="#FA6886" id="svg_113"/>
         <path d="m603.25,158.84l7.38,0c0.21,0 0.38,-0.17 0.38,-0.38l0,-29.16c0,-0.21 -0.17,-0.38 -0.38,-0.38l-7.38,0c-0.2,0 -0.37,0.17 -0.37,0.38l0,29.16c0,0.21 0.16,0.38 0.37,0.38z" fill="#FA6886" id="svg_114"/>
         <path d="m586.89,187.17l7.28,0c0.24,0 0.43,-0.19 0.43,-0.42l0,-37.52c0,-0.24 -0.19,-0.43 -0.43,-0.43l-7.28,0c-0.23,0 -0.42,0.19 -0.42,0.43l0,37.52c0,0.23 0.19,0.42 0.42,0.42z" fill="#7A4495" id="svg_115"/>
         <path d="m570.44,178.5l7.37,0c0.21,0 0.38,-0.17 0.38,-0.38l0,-29.37c0,-0.21 -0.17,-0.38 -0.38,-0.38l-7.37,0c-0.21,0 -0.38,0.17 -0.38,0.38l0,29.37c0,0.21 0.17,0.38 0.38,0.38z" fill="#7A4495" id="svg_116"/>
         <path d="m553.99,188.84l7.45,0c0.19,0 0.34,-0.15 0.34,-0.34l0,-23.36c0,-0.19 -0.15,-0.34 -0.34,-0.34l-7.45,0c-0.19,0 -0.34,0.15 -0.34,0.34l0,23.36c0,0.19 0.15,0.34 0.34,0.34z" fill="#FA6886" id="svg_117"/>
        </g>
       </g>
      </g>
      <g id="svg_118">
       <g id="svg_119">
        <path d="m403.1,382.29l-213.91,0c-7.06,0 -12.78,-5.72 -12.78,-12.78l0,-96.52c0,-7.06 5.72,-12.79 12.78,-12.79l213.91,0c7.06,0 12.79,5.73 12.79,12.79l0,96.52c0,7.06 -5.73,12.78 -12.79,12.78z" fill="#FDFBCC" id="svg_120"/>
        <path d="m403.1,260.21l-32.69,0l-194,93.08l0,16.22c0,7.06 5.72,12.78 12.78,12.78l213.91,0c7.06,0 12.79,-5.72 12.79,-12.78l0,-96.52c0,-7.06 -5.73,-12.78 -12.79,-12.78z" fill="#FAF37A" id="svg_121"/>
       </g>
       <g id="svg_122">
        <polyline fill="none" id="svg_123" points="        185.408,301.358 203.016,301.358 222.973,342.053 265.234,342.053 300.451,309.771 371.473,309.771 399.06,334.619         405.97,334.619       " stroke="#7A4495" stroke-linecap="round" stroke-linejoin="round" stroke-miterlimit="10"/>
        <g id="svg_124">
         <polyline fill="none" id="svg_125" points="         185.408,332.858 221.799,313.619 260.538,357.51 296.147,326.988 334.886,321.249 352.495,301.13 399.843,294.693          405.97,277.858        " stroke="#303270" stroke-linecap="round" stroke-linejoin="round" stroke-miterlimit="10"/>
         <path d="m220.07,313.62c0,-0.95 0.77,-1.73 1.73,-1.73c0.95,0 1.73,0.78 1.73,1.73s-0.78,1.73 -1.73,1.73c-0.96,0 -1.73,-0.78 -1.73,-1.73z" fill="#303270" id="svg_126"/>
         <path d="m258.71,357.51c0,-0.95 0.78,-1.73 1.73,-1.73s1.73,0.78 1.73,1.73s-0.78,1.73 -1.73,1.73s-1.73,-0.78 -1.73,-1.73z" fill="#303270" id="svg_127"/>
         <path d="m294.42,327.13c0,-0.95 0.77,-1.72 1.73,-1.72s1.73,0.77 1.73,1.72s-0.78,1.73 -1.73,1.73s-1.73,-0.77 -1.73,-1.73z" fill="#303270" id="svg_128"/>
         <path d="m333.22,321.25c0,-0.95 0.78,-1.73 1.73,-1.73s1.73,0.78 1.73,1.73s-0.77,1.73 -1.73,1.73s-1.73,-0.78 -1.73,-1.73z" fill="#303270" id="svg_129"/>
         <path d="m350.81,301.03c0,-0.95 0.77,-1.73 1.73,-1.73c0.95,0 1.72,0.78 1.72,1.73s-0.77,1.73 -1.72,1.73c-0.96,0 -1.73,-0.77 -1.73,-1.73z" fill="#303270" id="svg_130"/>
         <path d="m398.09,294.71c0,-0.96 0.78,-1.73 1.73,-1.73s1.73,0.77 1.73,1.73c0,0.95 -0.78,1.72 -1.73,1.72s-1.73,-0.77 -1.73,-1.72z" fill="#303270" id="svg_131"/>
        </g>
        <g id="svg_132">
         <path d="m341.63,374.79l7.05,-10.81c0.38,-0.57 -0.03,-1.33 -0.72,-1.33l-1.92,0c-0.48,0 -0.87,-0.38 -0.87,-0.86l0,-24.55c0,-0.48 -0.38,-0.86 -0.86,-0.86l-6.81,0c-0.47,0 -0.86,0.38 -0.86,0.86l0,24.55c0,0.47 -0.38,0.86 -0.86,0.86l-1.93,0c-0.68,0 -1.09,0.76 -0.72,1.33l7.06,10.81c0.34,0.52 1.1,0.52 1.44,0z" fill="#52328D" id="svg_133"/>
         <path d="m363.7,374.79l7.05,-10.81c0.38,-0.57 -0.03,-1.33 -0.72,-1.33l-1.93,0c-0.47,0 -0.86,-0.38 -0.86,-0.86l0,-17.38c0,-0.47 -0.38,-0.86 -0.86,-0.86l-6.81,0c-0.47,0 -0.86,0.39 -0.86,0.86l0,17.38c0,0.47 -0.38,0.86 -0.86,0.86l-1.93,0c-0.68,0 -1.09,0.76 -0.72,1.33l7.06,10.81c0.34,0.52 1.1,0.52 1.44,0z" fill="#52328D" id="svg_134"/>
         <path d="m385.77,374.79l7.05,-10.81c0.38,-0.57 -0.03,-1.33 -0.72,-1.33l-1.93,0c-0.47,0 -0.86,-0.38 -0.86,-0.86l0,-10.76c0,-0.47 -0.38,-0.86 -0.86,-0.86l-6.81,0c-0.47,0 -0.86,0.39 -0.86,0.86l0,10.76c0,0.47 -0.39,0.86 -0.86,0.86l-1.93,0c-0.68,0 -1.09,0.76 -0.72,1.33l7.05,10.81c0.35,0.52 1.11,0.52 1.45,0z" fill="#52328D" id="svg_135"/>
        </g>
        <g id="svg_136">
         <path d="m244.88,266.66l-7.06,10.81c-0.37,0.58 0.04,1.33 0.72,1.33l1.93,0c0.47,0 0.86,0.39 0.86,0.87l0,24.54c0,0.48 0.39,0.86 0.86,0.86l6.81,0c0.48,0 0.86,-0.38 0.86,-0.86l0,-24.54c0,-0.48 0.39,-0.87 0.86,-0.87l1.93,0c0.69,0 1.1,-0.75 0.72,-1.33l-7.05,-10.81c-0.34,-0.52 -1.1,-0.52 -1.44,0z" fill="#52328D" id="svg_137"/>
         <path d="m222.81,266.66l-7.06,10.81c-0.37,0.58 0.04,1.33 0.72,1.33l1.93,0c0.48,0 0.86,0.39 0.86,0.87l0,17.37c0,0.48 0.39,0.86 0.86,0.86l6.81,0c0.48,0 0.86,-0.38 0.86,-0.86l0,-17.37c0,-0.48 0.39,-0.87 0.87,-0.87l1.92,0c0.69,0 1.1,-0.75 0.72,-1.33l-7.05,-10.81c-0.34,-0.52 -1.1,-0.52 -1.44,0z" fill="#52328D" id="svg_138"/>
         <path d="m200.74,266.66l-7.06,10.81c-0.37,0.58 0.04,1.33 0.72,1.33l1.93,0c0.48,0 0.86,0.39 0.86,0.87l0,10.75c0,0.48 0.39,0.86 0.86,0.86l6.81,0c0.48,0 0.86,-0.38 0.86,-0.86l0,-10.75c0,-0.48 0.39,-0.87 0.87,-0.87l1.92,0c0.69,0 1.1,-0.75 0.72,-1.33l-7.05,-10.81c-0.34,-0.52 -1.1,-0.52 -1.44,0z" fill="#52328D" id="svg_139"/>
        </g>
       </g>
      </g>
     </g>
    </g>
    <g id="svg_140">
     <g id="svg_141">
      <path d="m155.99,228.03c-1.43,-3.33 -4.91,-5.51 -8.44,-5.82c-0.02,0 -0.02,0.01 -0.04,0c-0.02,-0.07 -0.04,-0.14 -0.07,-0.2c-0.4,-1.02 -1.11,-1.87 -1.96,-2.55c-1.82,-1.46 -3.94,-2.49 -6.27,-2.79c-2.17,-0.27 -4.48,-0.34 -6.6,0.27c-2.03,0.58 -3.7,1.91 -5.14,3.42c-1.26,0.09 -2.54,0.7 -3.52,1.36c-0.81,0.54 -1.54,1.17 -2.28,1.8c-0.75,0.64 -1.54,1.21 -2.31,1.82c-1.45,1.15 -2.15,2.95 -2.57,4.7c-0.43,1.82 -0.16,3.56 0.7,5.21c0.02,0.04 0.05,0.07 0.07,0.12c-0.22,0.31 -0.43,0.64 -0.6,0.99c-0.49,1 -0.78,2.05 -0.91,3.15c-0.26,2.15 0.09,4.98 1.84,6.46c0.87,0.74 1.96,1.06 3.07,1.19c0.29,0.03 0.58,0.05 0.87,0.06c0.25,0.01 0.6,-0.05 0.85,0.01c0.13,0.03 0.02,-0.04 0.14,0.08c0.07,0.07 0.14,0.23 0.2,0.32c0.2,0.29 0.42,0.57 0.65,0.82c0.82,0.88 1.87,1.51 2.97,1.97c0.59,0.25 1.2,0.45 1.82,0.62c0.7,0.21 1.46,0.46 2.2,0.44c1.2,-0.02 2.38,-0.86 3.4,-1.54c3.54,1.06 7.41,-0.35 9.45,-3.47c0,-0.01 0,-0.01 0,-0.02c1.97,-0.17 3.96,-1.01 5.53,-2.01c1.35,-0.84 2.55,-2 3.23,-3.45c0.77,-1.63 0.73,-3.41 0.63,-5.17c-0.01,-0.16 -0.08,-0.28 -0.18,-0.36c1.02,-0.61 1.96,-1.33 2.67,-2.31c1.13,-1.53 1.35,-3.37 0.6,-5.12z" fill="#BF583A" id="svg_142"/>
      <g id="svg_143">
       <path d="m128.93,240.56c-0.33,6.25 -0.77,12.2 -1.83,16.36c-0.21,0.83 -0.86,1.47 -1.69,1.68l-9.1,2.31l24.1,15.01l6.77,-13.45l-4.85,-2.76c-0.49,-0.28 -0.79,-0.8 -0.78,-1.36c0.03,-1.49 0.14,-3.48 0.12,-4.83l-12.74,-12.96z" fill="#FFC7AE" id="svg_144"/>
       <path d="m141.67,253.52l-10.35,-10.53c0,0 -1.78,7.48 2.68,12.16c2.25,2.35 5.35,3.01 7.55,3.15c0.04,-1.48 0.14,-3.44 0.12,-4.78z" fill="#FCAD97" id="svg_145"/>
      </g>
      <g id="svg_146">
       <path d="m141.03,225.51c8.95,0.99 8.67,8.35 6.62,17.87c-1.46,6.73 -2.22,10.7 -7.09,11.65c-5.11,1 -11.37,-4.66 -11.61,-10.58c-0.25,-5.92 -0.02,-20.28 12.08,-18.94z" fill="#FFC7AE" id="svg_147"/>
       <path d="m153.05,227.88c-0.9,-1.56 -2.55,-2.45 -4.31,-2.66c-0.58,-0.08 -1.17,-0.06 -1.75,0.02c-0.96,-1.47 -2.9,-1.99 -4.58,-2.18c-2.28,-0.26 -4.65,0.02 -6.82,0.77c-1.62,0.57 -2.99,1.36 -3.77,2.79c-0.92,-0.21 -1.91,-0.2 -2.76,-0.07c-1.78,0.27 -3.47,1.18 -4.65,2.55c-1.09,1.28 -2.08,3.18 -1.86,4.91c0.21,1.6 1.8,2.49 3.32,2.61c1.39,0.84 3.03,1.48 4.6,1.81c1.67,0.36 3.64,0.46 5.33,0.18c1.58,-0.27 3.13,-1.23 4.4,-2.17c0.21,-0.16 0.46,-0.34 0.72,-0.54c0.8,0.39 1.78,0.41 2.64,0.16c1.07,-0.3 1.99,-0.98 2.86,-1.66c0.27,-0.21 0.51,-0.43 0.73,-0.66c0.27,0.16 0.55,0.32 0.85,0.44c0.79,0.31 1.67,0.45 2.51,0.32c0.91,-0.15 1.59,-0.74 2.09,-1.48c1.06,-1.57 1.42,-3.44 0.45,-5.14z" fill="#BF583A" id="svg_148"/>
       <path d="m130.3,246.22c0,0 -2.12,0.58 -3.55,-0.92c-1.44,-1.5 -4.11,-6.71 -1.28,-8.25c2.84,-1.53 4.43,1.25 4.43,1.25l0.4,7.92z" fill="#FFC7AE" id="svg_149"/>
      </g>
     </g>
     <g id="svg_150">
      <g id="svg_151">
       <g id="svg_152">
        <g id="svg_153">
         <path d="m155.21,447.38c0.3,4.05 0.43,8.04 0.24,11.9c-0.09,1.68 1.24,3.1 2.93,3.1l27.95,0c0.64,0 1.11,-0.58 0.99,-1.21l0,0c-0.09,-0.45 -0.47,-0.77 -0.93,-0.8c-6.26,-0.37 -11.99,-1.81 -18.79,-5.16c-2.75,-1.36 -4.36,-5.96 -6,-10.44l-6.39,2.61z" fill="#FFC7AE" id="svg_154"/>
         <path d="m155.51,457.32c3.18,-0.42 6.86,-1.6 10.76,-3.1c-1.77,-1.76 -3.03,-4.97 -4.24,-8.28l-6.77,2.14c0.21,3.13 0.32,6.22 0.25,9.24z" fill="#FCAD97" id="svg_155"/>
        </g>
        <path d="m154.96,456.52c-0.1,0.8 -0.2,1.6 -0.28,2.37c-0.19,1.87 1.3,3.49 3.18,3.49l29,0c0.72,0 1.28,-0.65 1.16,-1.37l0,0c-0.1,-0.56 -0.59,-0.97 -1.16,-0.97c-6.76,-0.05 -12.56,-1.91 -17.6,-4.83c-0.59,-0.35 -1.3,-0.46 -1.96,-0.26c-2.06,0.61 -4.01,1.32 -5.34,2.01c-0.54,0.28 -1.15,0.37 -1.73,0.22l-4.58,-1.13c-0.33,-0.09 -0.65,0.14 -0.69,0.47z" fill="#01265A" id="svg_156"/>
       </g>
       <g id="svg_157">
        <path d="m159.5,336.87c0,0 3.9,26.8 4.19,36.78c0.29,9.98 1.47,54.3 1.56,60.26c0.09,5.06 1.36,14.33 1.75,17.04c0.06,0.43 -0.23,0.83 -0.66,0.9c-5.12,0.88 -10.11,1.89 -14.07,1.39c-0.26,-0.03 -0.49,-0.19 -0.61,-0.43c-1.3,-2.6 -8.84,-18.01 -9.2,-27.21c-0.22,-5.65 0.18,-10.42 0.57,-13.53c0.35,-2.77 0.01,-5.58 -0.98,-8.2c-1.46,-3.84 -3.66,-9.2 -5.46,-11.73c-6.06,-8.51 -13.51,-13.01 -13.51,-13.01l-4.98,-35.61l41.4,-6.65z" fill="#7A4495" id="svg_158"/>
        <path d="m159.5,336.87l-41.4,6.65l4.98,35.61c0,0 7.45,4.5 13.51,13.01c1.8,2.53 4,7.88 5.46,11.72c0.95,-3 2.54,-8.05 5.11,-16.22c3.54,-11.24 11.09,-21.79 15.4,-27.21c-1.25,-11.09 -3.06,-23.56 -3.06,-23.56z" fill="#52328D" id="svg_159"/>
       </g>
      </g>
      <g id="svg_160">
       <g id="svg_161">
        <g id="svg_162">
         <path d="m99.19,444.6l-1.04,14.11c-0.14,1.98 1.43,3.67 3.41,3.67l25.32,0c0.62,0 1.1,-0.57 0.99,-1.19l0,0c-0.08,-0.45 -0.47,-0.79 -0.94,-0.82c-4.53,-0.24 -8.93,-1.15 -13.2,-2.73c-2.08,-0.76 -3.56,-2.63 -3.92,-4.82l-1.35,-8.31c-0.08,-0.49 -0.5,-0.85 -1,-0.85l-7.27,0c-0.53,0 -0.96,0.41 -1,0.94z" fill="#FFC7AE" id="svg_163"/>
         <path d="m111.12,455.75c-0.67,-0.83 -1.13,-1.84 -1.3,-2.93l-1.36,-8.31c-0.08,-0.49 -0.5,-0.85 -1,-0.85l-7.27,0c-0.53,0 -0.96,0.41 -1,0.94l-0.83,11.31c3.64,0.26 8.02,0.14 12.76,-0.16z" fill="#FCAD97" id="svg_164"/>
        </g>
        <path d="m97.72,457.53c-0.08,0.78 -0.17,1.57 -0.24,2.31c-0.13,1.36 0.95,2.54 2.32,2.54l27.57,0c0.63,0 1.14,-0.51 1.14,-1.14l0,0c0,-0.61 -0.48,-1.1 -1.08,-1.13c-5.48,-0.35 -10.32,-1.58 -14.5,-3.67c-0.69,-0.34 -1.47,-0.48 -2.23,-0.32c-1.94,0.4 -3.78,0.98 -5.52,1.76c-0.52,0.24 -1.11,0.31 -1.67,0.17l-4.82,-1.2c-0.46,-0.11 -0.91,0.21 -0.97,0.68z" fill="#01265A" id="svg_165"/>
       </g>
       <g id="svg_166">
        <path d="m151.13,332.6c0,0 -1.33,19.3 -5.9,28.04c-2.2,4.22 -3.64,6.61 -4.55,7.96c-0.9,1.34 -1.5,2.85 -1.78,4.44c-1.16,6.65 -4.41,23.64 -8.4,30.9c-5.03,9.15 -10.96,23.94 -12.59,33.07c-1.35,7.53 -2.11,13.86 -2.34,15.85c-0.05,0.38 -0.36,0.67 -0.74,0.7c-7.25,0.57 -13.94,0.62 -19.18,-0.61c-0.37,-0.09 -0.62,-0.42 -0.61,-0.81c0.14,-4.19 0.98,-27.63 1.87,-37.76c0.81,-9.25 1.67,-16.26 1.93,-18.38c0.06,-0.45 0.08,-0.89 0.05,-1.34c-0.17,-3.4 -0.92,-18.97 -0.66,-27.83c0.31,-9.97 2.95,-30.65 2.95,-30.65l49.95,-3.58z" fill="#7A4495" id="svg_167"/>
        <path d="m98.24,366.82c9.26,-0.83 24.04,-2.35 36.3,-4.48c3.96,-0.7 7.77,-1.78 11.33,-3.05c4.05,-9.22 5.26,-26.69 5.26,-26.69l-49.95,3.58c0,0 -2.64,20.65 -2.94,30.64z" fill="#52328D" id="svg_168"/>
       </g>
      </g>
     </g>
     <g id="svg_169">
      <g id="svg_170">
       <g id="svg_171">
        <g id="svg_172">
         <path d="m203.87,284.94l7.88,-5.2c0.79,-0.74 1.23,-1.77 1.21,-2.86c-0.02,-0.96 0.02,-2.1 0.28,-2.79c0.34,-0.96 1.28,-3.76 1.81,-5.33c0.31,-0.94 1.73,-0.83 1.83,0.16c0,0.01 0,0.02 0,0.03c0.09,1.22 -0.44,4.37 -0.19,5.03c0.25,0.67 0.25,0.67 0.25,0.67s2.55,-3.17 3.74,-4.44c1.19,-1.27 3.39,-5.4 5.03,-4.62c1.5,0.71 -1.95,5.83 -2.57,6.74c-0.07,0.09 -0.08,0.19 -0.05,0.3l2.31,7.83c0.16,0.52 0.08,1.08 -0.21,1.53c-0.6,0.95 -1.74,2.55 -2.88,3.1c-0.84,0.4 -1.55,0.59 -2.06,0.69c-0.59,0.1 -1.15,0.31 -1.64,0.65l-6.14,6.31l-8.6,-7.8z" fill="#FFC7AE" id="svg_173"/>
         <g id="svg_174">
          <path d="m212.31,279.07c-0.16,0.24 -0.35,0.47 -0.56,0.67l-7.88,5.2l8.6,7.8l4.86,-5c-2.08,-2.84 -3.82,-5.72 -5.02,-8.67z" fill="#FCAD97" id="svg_175"/>
          <path d="m225.4,280.46c0.16,0.52 0.08,1.07 -0.21,1.53c-0.6,0.95 -1.74,2.55 -2.88,3.1c-0.84,0.4 -1.56,0.6 -2.07,0.69c-0.58,0.1 -1.14,0.31 -1.63,0.64c-0.72,-1.01 -1.49,-3.37 -1.85,-6.22c-0.78,-6.28 6.38,-7.87 6.38,-7.87c-0.07,0.09 -0.08,0.19 -0.05,0.3l2.31,7.83z" fill="#FCAD97" id="svg_176"/>
         </g>
        </g>
        <path d="m223.04,272.46c1.18,-0.26 1.34,1.99 2.06,3.65c0.72,1.66 1.41,4.49 0.39,5.21c-1.02,0.72 -3.33,2.24 -4.29,1.71c-0.47,-0.26 -0.6,-0.56 -0.62,-0.81c-0.01,-0.2 -0.21,-0.34 -0.42,-0.31c-0.43,0.06 -1.03,0.04 -1.46,-0.41c-0.33,-0.34 -0.18,-0.71 0.1,-1.01c0.2,-0.23 0.06,-0.59 -0.24,-0.61c-0.43,-0.03 -0.84,-0.14 -1.01,-0.45c-0.39,-0.72 1.05,-1.82 1.05,-1.82s-1.04,0.39 -1.45,-0.3c-0.74,-1.22 2.29,-4.05 5.89,-4.85z" fill="#FFC7AE" id="svg_177"/>
       </g>
       <g id="svg_178">
        <path d="m151.71,262.31c4.48,0.83 5.76,0.94 9.14,3.96c9.23,8.22 16.08,18.13 18.59,29.71c8,-6.77 15.52,-13.19 29.47,-15.85c0.28,-0.05 0.58,0.05 0.77,0.28l6.96,8.37c0.26,0.31 0.25,0.76 -0.03,1.06c-2.04,2.14 -9.89,10.58 -13.11,17.19c-3.71,7.63 -14.78,18.42 -27.09,19.18c-12.77,0.78 -20.55,-2.35 -20.55,-2.35s-3.58,-51.39 -4.15,-61.55z" fill="#9CBC50" id="svg_179"/>
        <path d="m189.94,321.49c-2.88,-0.65 -6.29,-1.79 -10.01,-3.81c-10.7,-5.78 -19.44,-36.87 -19.44,-36.87l-7.55,0.49c1.24,18.46 2.92,42.56 2.92,42.56s7.78,3.13 20.55,2.34c4.82,-0.29 9.45,-2.13 13.53,-4.71z" fill="#809B34" id="svg_180"/>
       </g>
      </g>
      <g id="svg_181">
       <path d="m135.81,267.02c-4.04,-1.86 -7.43,-4.8 -10.47,-8.33c-0.24,-0.28 -0.61,-0.42 -0.97,-0.36c-2.75,0.43 -14.41,2.3 -17.47,3.85c-3.47,1.76 -8.57,6.51 -8.57,6.51s4.12,39.78 3.86,47.6c-0.26,7.83 -4.3,22.05 -4.7,28.96c-0.23,4.09 -0.19,6.17 -0.11,7.18c0.03,0.51 0.45,0.91 0.97,0.93c23.31,0.8 44.62,-1.2 61.94,-8.75c0.22,-0.1 0.4,-0.28 0.51,-0.5c0.99,-2.16 6.15,-13.96 4.14,-22.4c-2.22,-9.33 -9.14,-16.89 -7.32,-27.72s2.87,-13.17 2.87,-13.17l-3.98,-17.35c0,0 -6.17,-1.42 -8.41,-2.15c-1.27,-0.42 -2.58,-1.02 -3.42,-1.44c-0.58,-0.28 -1.27,-0.24 -1.79,0.16c-2.18,1.67 -4.1,3.88 -5.8,6.58c-0.27,0.43 -0.82,0.62 -1.28,0.4z" fill="#9CBC50" id="svg_182"/>
       <path d="m120.84,323.73c1.57,-19.83 -6.85,-32.95 -6.85,-32.95l-13.39,1.5c0.91,10.11 1.71,20.42 1.59,24.01c-0.26,7.83 -4.3,22.05 -4.7,28.96c-0.23,4.09 -0.18,6.16 -0.11,7.18c0.04,0.51 0.45,0.91 0.97,0.93c4.96,0.17 9.84,0.2 14.6,0.09c2.86,-6.34 6.91,-17.22 7.89,-29.72z" fill="#809B34" id="svg_183"/>
      </g>
      <g id="svg_184">
       <g id="svg_185">
        <path d="m96.05,358.93c1.26,1.98 2.55,3.97 4.84,6.25c0.57,0.57 0.95,1.32 1.06,2.11l0.5,3.38c5.29,-1.51 9.08,-4.71 12.17,-8.71c-1.73,-2.75 -3.16,-5.86 -4.44,-9.15l-14.13,6.12z" fill="#FFC7AE" id="svg_186"/>
        <path d="m112.93,358.96c-1,-1.95 -1.91,-4 -2.75,-6.15l-14.13,6.12c1.26,1.98 2.55,3.97 4.84,6.25c0.58,0.57 0.95,1.32 1.07,2.11l0.23,1.63c4.4,-3.26 8.23,-6.56 10.74,-9.96z" fill="#FCAD97" id="svg_187"/>
       </g>
       <path d="m111.7,260.7c-5.73,1.48 -11.66,2.99 -16.62,11.96c-5.87,10.63 -11.73,32.41 -15.95,48.98c-2.27,8.94 -0.71,18.42 4.26,26.2c5.27,8.27 10.48,14.93 15.51,17.38c0.21,0.1 0.44,0.11 0.65,0.03c4.37,-1.64 8.58,-4.4 13.41,-8.12c0.26,-0.2 0.38,-0.55 0.28,-0.87c-3.61,-11.7 -7.44,-23.4 -12.71,-34.19c-0.08,-0.16 -0.06,-0.36 0.05,-0.51c6.72,-8.81 11.04,-19.17 13.41,-30.77c0.01,0 -1.56,-20.88 -2.29,-30.09z" fill="#9CBC50" id="svg_188"/>
      </g>
     </g>
    </g>
    <g id="svg_189">
     <g id="svg_190">
      <g id="svg_191">
       <path d="m564.25,317.65c-1.67,-3.22 -5.57,-3.87 -8.75,-2.84c-1.29,-0.61 -2.77,-0.33 -4.05,0.42c-1.44,0.85 -3.03,2 -3.8,3.53c-0.43,0.84 -0.5,1.72 -0.65,2.63c-0.12,0.72 -2.14,2.63 -1.66,3.09c1.38,1.31 2.82,2.6 4.34,3.74c0.71,0.54 1.46,1.03 2.25,1.43c0.4,0.2 3.01,1.8 3.87,2.1c1.6,0.58 3.4,0.64 4.99,-0.03c1.47,-0.63 2.67,-1.89 3.02,-3.48c0.14,-0.65 0.13,-1.32 0,-1.94c0.16,-0.19 0.31,-0.4 0.43,-0.58c0.49,-0.76 0.75,-1.64 0.86,-2.53c0.23,-1.83 0.01,-3.89 -0.85,-5.54z" fill="#01265A" id="svg_192"/>
       <path d="m553.98,325.86c-0.9,-1.51 -2.64,-2.23 -4.34,-2.3c-1.31,-0.56 -2.29,-1.67 -3.36,-2.59c-1.37,-1.18 -2.89,-1.96 -4.69,-2.22c-2.9,-0.42 -6.25,0.08 -8.94,1.53c-1.19,-0.07 -2.39,0.06 -3.54,0.38c-3,0.84 -6.35,3.03 -7.06,6.27c-0.35,1.56 -0.13,3.45 1.14,4.48c1.03,0.84 1.92,1.17 2.58,1.29c1.56,0.29 3.15,0.44 4.74,0.37c0.14,0.4 0.29,0.8 0.44,1.19c0.4,1.06 0.8,2.12 1.2,3.18c0.65,1.72 1.37,3.47 2.57,4.89c1.32,1.57 3.16,2.29 5.11,2.73c2.08,0.47 4.56,1.04 6.68,0.51c0.19,-0.05 1.99,-0.93 2.62,-1.28c1.22,-0.69 2.37,-1.58 3.18,-2.74c0.83,-1.2 1.13,-2.69 0.98,-4.12c-0.06,-0.53 -0.17,-1.06 -0.31,-1.6c0.94,-0.99 1.29,-2.77 1.45,-3.92c0.29,-1.99 0.64,-4.23 -0.45,-6.05z" fill="#01265A" id="svg_193"/>
      </g>
      <g id="svg_194">
       <path d="m538.85,351.4c1.67,2.4 3.29,6.94 4.89,11.98l14.58,-11c0,0 -8.22,-9.08 -10.03,-12.42c-1.81,-3.33 -6.4,-10.95 -6.4,-10.95l-3.04,22.39z" fill="#D57141" id="svg_195"/>
       <path d="m543.84,353.04c1.66,-4.24 0.35,-10.15 0.35,-10.15l-4.45,1.99l-0.89,6.52c0.89,1.28 1.77,3.18 2.63,5.43c0.8,-0.84 1.68,-2.05 2.36,-3.79z" fill="#BF583A" id="svg_196"/>
      </g>
      <g id="svg_197">
       <path d="m530.15,322.94c-6.4,2.7 -7.05,8.22 -5.55,12.98c1.5,4.76 6.87,16.41 10.74,17.01c3.87,0.6 6.29,-1.55 7.59,-3.96c1.3,-2.42 2.5,-6.59 1.45,-12.07c-1.06,-5.48 -4.78,-17.93 -14.23,-13.96z" fill="#D57141" id="svg_198"/>
       <path d="m546.37,326.45c-0.56,-1.61 -2.17,-2.9 -3.58,-3.76c-1.58,-0.95 -3.42,-1.5 -5.27,-1.47c-0.54,0.01 -1.06,0.08 -1.57,0.19c-0.91,-0.36 -1.92,-0.53 -2.8,-0.54c-1.88,-0.01 -3.7,0.68 -5.33,1.57c-1.59,0.88 -3.36,1.91 -4.51,3.35c-0.57,0.71 -0.86,1.71 -0.57,3.05c0.36,1.69 1.8,3.07 3.16,4.03c1.81,1.28 3.99,2.07 6.19,2.26c0.97,0.08 2.02,-0.01 3.05,-0.26c0.38,0.15 0.78,0.27 1.18,0.34c1.82,0.32 3.69,-0.11 5.4,-0.73c1.56,-0.57 3.01,-1.47 3.67,-3.06c0.28,-0.69 0.41,-1.43 0.39,-2.17c0.69,-0.69 0.89,-1.9 0.59,-2.8z" fill="#01265A" id="svg_199"/>
       <path d="m544.33,340.26c0,0 2.11,-0.55 3.23,-1.79c1.59,-1.76 2.05,-4.41 0.78,-7.37c-1.05,-2.46 -3.96,-3.26 -6.13,-0.36c-1.37,1.82 -1.15,4.39 -1.15,4.39l3.27,5.13z" fill="#D57141" id="svg_200"/>
      </g>
     </g>
     <g id="svg_201">
      <g id="svg_202">
       <g id="svg_203">
        <g id="svg_204">
         <path d="m404.95,457.7c-2.61,0.14 -6.92,-0.85 -9.16,-1.99c-1.35,-0.68 -2.94,-0.71 -4.31,-0.1c-1.76,0.79 -3.58,1.49 -5.44,2.11c-1.78,0.59 -3.72,-0.29 -4.49,-2l-11.32,-25.31c-0.35,-0.79 0.08,-1.71 0.91,-1.95l0,0c0.51,-0.14 1.04,0.01 1.4,0.39c4.52,4.69 9.07,8.91 13.65,12.34c2.12,1.58 4.6,2.58 7.22,2.87c5.22,0.57 10.6,0.28 16.08,-0.52l-4.54,14.16z" fill="#BF583A" id="svg_205"/>
        </g>
        <path d="m369.44,430.5l11.81,26.13c0.73,1.62 2.53,2.45 4.26,2.01c1.35,-0.35 2.8,-0.87 4.28,-1.45c0.35,-0.14 0.5,-0.56 0.32,-0.89c-1.39,-2.41 -2.86,-4.52 -4.48,-6.17c-0.45,-0.46 -0.6,-1.11 -0.41,-1.72c0.7,-2.19 1,-4.7 1.01,-7.44c0,-0.44 -0.21,-0.84 -0.57,-1.09c-3.71,-2.59 -8.25,-6.81 -13.05,-11.57c-0.53,-0.52 -1.3,-0.71 -2,-0.48l0,0c-1.1,0.37 -1.64,1.61 -1.17,2.67z" fill="#52328D" id="svg_206"/>
       </g>
       <path d="m537.43,424.34l-5.55,4.05c0,0 -24.04,-8.39 -46.15,-7.35c-22.11,1.03 -55.95,21.66 -69.84,22.11c-13.9,0.45 -18.76,-0.78 -18.76,-0.78l0,14.24c0,0 25.12,5.9 38.63,5.77c13.52,-0.13 25.26,-7.8 36.47,-6.7c11.22,1.09 9.42,6.77 33.87,6.7c24.45,-0.06 33.54,-2.92 33.54,-2.92l16.59,-17.09l-18.8,-18.03z" fill="#D95574" id="svg_207"/>
      </g>
      <g id="svg_208">
       <g id="svg_209">
        <path d="m450.95,414.37l58.22,5.19c0.29,0.02 0.5,0.27 0.49,0.56l-0.22,3.54c-0.01,0.3 -0.27,0.52 -0.56,0.5l-53.92,-3.25c-1.09,-0.06 -2.03,-0.78 -2.38,-1.8l-1.63,-4.74z" fill="#B7E4F2" id="svg_210"/>
        <path d="m454.96,420.91l53.92,3.25c0.29,0.02 0.55,-0.21 0.56,-0.5l0,0l-29.98,-6.75l-28.51,-2.54l1.63,4.74c0.35,1.02 1.29,1.74 2.38,1.8z" fill="#A5DDEF" id="svg_211"/>
       </g>
       <g id="svg_212">
        <path d="m442.55,383.15l-1.56,-0.09c-0.38,-0.02 -0.66,0.35 -0.54,0.71l12.12,35.33c0.35,1.03 1.29,1.75 2.38,1.81l1.95,0.12l-13.88,-37.53c-0.07,-0.2 -0.25,-0.33 -0.47,-0.35z" fill="#B7E4F2" id="svg_213"/>
        <path d="m453.18,417.87c0.02,-0.35 0.32,-0.62 0.67,-0.6c0.35,0.02 0.62,0.32 0.6,0.67c-0.03,0.36 -0.33,0.62 -0.68,0.6c-0.35,-0.02 -0.61,-0.32 -0.59,-0.67z" fill="#81BBC1" id="svg_214"/>
       </g>
      </g>
      <g id="svg_215">
       <g id="svg_216">
        <g id="svg_217">
         <path d="m384.71,458.1c-2.79,-0.48 -5.54,-1.09 -7.97,-1.75c-1.45,-0.4 -3.01,-0.11 -4.24,0.77c-1.57,1.13 -3.2,2.18 -4.9,3.16c-1.63,0.94 -3.71,0.47 -4.8,-1.05l-16.19,-22.51c-0.51,-0.71 -0.27,-1.7 0.5,-2.09l0,0c0.47,-0.24 1.02,-0.2 1.45,0.09c5.37,3.68 10.68,6.91 15.86,9.34c2.39,1.12 5.02,1.6 7.64,1.36c5.23,-0.5 10.44,-1.86 15.65,-3.76l-3,16.44z" fill="#D57141" id="svg_218"/>
         <path d="m375.84,456.2c0.31,0.03 0.61,0.07 0.9,0.15c2.43,0.66 5.18,1.27 7.97,1.75l3,-16.44c-3.04,1.11 -6.08,2.03 -9.12,2.7c-1.18,3.63 -2.09,7.59 -2.75,11.84z" fill="#BF583A" id="svg_219"/>
        </g>
        <path d="m345.86,436.96l16.83,23.22c1.04,1.44 2.97,1.89 4.57,1.11c1.26,-0.62 2.57,-1.42 3.91,-2.28c0.31,-0.21 0.38,-0.65 0.13,-0.94c-1.84,-2.08 -3.71,-3.85 -5.64,-5.14c-0.53,-0.36 -0.81,-0.97 -0.74,-1.6c0.25,-2.28 0.04,-4.8 -0.51,-7.49c-0.09,-0.43 -0.38,-0.78 -0.78,-0.96c-4.15,-1.78 -9.45,-5.01 -15.12,-8.7c-0.61,-0.4 -1.41,-0.43 -2.04,-0.06l0,0c-1.01,0.58 -1.29,1.9 -0.61,2.84z" fill="#52328D" id="svg_220"/>
       </g>
       <g id="svg_221">
        <path d="m565.85,460.23c0,0 -21.51,2.19 -42.1,2.15c-20.59,-0.04 -57.48,-14.58 -67.07,-12.82c-9.59,1.76 -34.63,12.04 -53.61,10.86c-14.82,-0.91 -19.54,-1.91 -20.89,-2.3c-0.31,-0.09 -0.53,-0.34 -0.58,-0.66c-0.86,-5.57 -1.09,-10.84 -0.22,-15.56c0.06,-0.33 0.33,-0.59 0.67,-0.64c4.19,-0.63 30.72,-4.73 43.23,-9.5c13.59,-5.19 29.28,-12.26 42.08,-12.44c12.8,-0.18 41.46,10.23 53.98,10.16c12.52,-0.07 13.79,-1.54 13.79,-1.54l3.43,-5.38l34.24,13.21l-6.95,24.46z" fill="#FA6886" id="svg_222"/>
        <path d="m535.14,427.94c0,0 -0.56,0.64 -4.53,1.1c4.71,4.76 10.9,12.23 13.49,20.69c1.22,3.97 1.77,8.09 1.92,11.99c11.38,-0.63 19.83,-1.49 19.83,-1.49l6.95,-24.46l-34.24,-13.21l-3.42,5.38z" fill="#D95574" id="svg_223"/>
       </g>
      </g>
     </g>
     <g id="svg_224">
      <g id="svg_225">
       <path d="m546.5,354.03c6.44,-5.29 17.3,-4.74 23.85,8.08c6.56,12.81 4.95,21.24 6.93,28.96c1.97,7.72 14.3,37.01 13.52,50.57c-0.78,13.57 -17.35,20.74 -32.09,20.74c0.13,-10.86 -26.83,-33.99 -26.83,-33.99s4.76,-15.9 4.89,-23.63c0.13,-7.73 0,-8.33 0,-8.33s-4.86,-1.49 -5.19,-6.18c-0.32,-4.7 2.08,-6.13 4.63,-12.78c2.55,-6.66 3.5,-17.85 10.29,-23.44z" fill="#9CBC50" id="svg_226"/>
       <path d="m577.28,391.07c-1.98,-7.72 -0.37,-16.15 -6.93,-28.96c-3.01,-5.89 -6.93,-9.18 -10.91,-10.52l3.38,11.09c-12.91,-3.21 -24.21,14.02 -25.7,28.68c-0.19,1.84 -0.46,3.46 -0.78,4.91c0.26,0.11 0.43,0.16 0.43,0.16s0.12,0.6 0,8.33c-0.11,6.42 -3.41,18.48 -4.53,22.38c5.39,2.9 13.37,6.21 22.48,6.72c16.71,0.93 15.34,-27.44 22.58,-33.7c0.8,-0.69 1.57,-1.31 2.32,-1.87c-1.08,-3.1 -1.93,-5.63 -2.34,-7.22z" fill="#809B34" id="svg_227"/>
      </g>
      <g id="svg_228">
       <g id="svg_229">
        <path d="m502.95,391.75c0,0 -13.63,-0.52 -17.28,-1.17c-3.65,-0.66 -9.52,-2.22 -11.48,-0.79c-1.96,1.44 -3.72,4.8 -4.24,8.69c-0.52,3.9 -0.4,4.32 -0.4,4.32s0.84,-0.08 1.38,-0.47c0.54,-0.39 0.88,-0.81 0.88,-0.81s0.34,2.64 0.51,3.4c0.16,0.77 2.41,3.93 2.41,3.93s0.54,-0.24 0.68,-0.67c0.15,-0.42 0.15,-0.55 0.15,-0.55l1.08,1.3c0,0 0.44,-0.13 0.65,-0.93c0.21,-0.79 -0.05,-1.45 -0.05,-1.45l0.51,0.77c0,0 0.55,-0.33 0.6,-1.03c0.03,-0.5 -0.13,-1.31 -0.23,-1.73c-0.03,-0.14 0.08,-0.26 0.22,-0.24c0.9,0.13 3.74,0.44 6.79,-0.47c1.6,-0.48 2.54,-0.93 3.09,-1.28c0.67,-0.43 1.48,-0.55 2.24,-0.36c1.3,0.31 3.65,0.81 7.74,1.52c7.63,1.32 9.59,1.32 9.59,1.32l-4.84,-13.3z" fill="#D57141" id="svg_230"/>
        <path d="m498.21,403.73c7.63,1.32 9.58,1.32 9.58,1.32l-4.84,-13.3c0,0 -3.86,-0.15 -8.02,-0.38c-0.03,3.41 -0.64,7.36 -1.41,11.5c1.23,0.24 2.76,0.53 4.69,0.86z" fill="#BF583A" id="svg_231"/>
       </g>
       <g id="svg_232">
        <path d="m552.93,350.88c17.81,-0.83 16.09,14.33 14.26,30.89c-1.83,16.57 -2.12,30.03 -8.87,34.24c-9.26,5.77 -20.09,4.85 -30.98,1.74c-10.89,-3.11 -20.67,-8.33 -24.19,-9.89c-2.4,-1.07 -3.65,-1.77 -4.2,-2.11c-0.23,-0.14 -0.37,-0.38 -0.38,-0.65c-0.05,-1.55 -0.24,-7.12 -0.73,-9.96c-0.3,-1.79 -0.54,-3.02 -0.69,-3.76c-0.1,-0.5 0.27,-0.95 0.77,-0.96c3.44,-0.05 15.44,-0.03 25.38,2.39c8.71,2.12 11.91,3.08 12.98,3.44c0.25,0.08 0.51,-0.09 0.52,-0.35c0.2,-3.04 1.22,-18.38 2.84,-26.19c1.79,-8.7 4.45,-18.41 13.29,-18.83z" fill="#9CBC50" id="svg_233"/>
        <path d="m545.41,397.42c-3.37,-6.42 -4.55,-25.22 -4.86,-31.76c-0.34,1.35 -0.64,2.71 -0.91,4.04c-1.62,7.82 -2.65,23.16 -2.84,26.2c-0.01,0.26 -0.27,0.43 -0.52,0.35l15.43,10.38c0,0 -2.19,-1.38 -6.3,-9.21z" fill="#809B34" id="svg_234"/>
       </g>
      </g>
     </g>
    </g>
   </g>
  </g>
 </g>
</svg>