<?xml version="1.0" encoding="utf-8"?>
<!-- Generator: Adobe Illustrator 27.5.0, SVG Export Plug-In . SVG Version: 6.00 Build 0)  -->
<svg version="1.1" xmlns="http://www.w3.org/2000/svg" xmlns:xlink="http://www.w3.org/1999/xlink" x="0px" y="0px"
	 viewBox="0 0 750 500" style="enable-background:new 0 0 750 500;" xml:space="preserve">
<g id="BACKGROUND">
	<rect style="fill:#FFFFFF;" width="750" height="500"/>
</g>
<g id="OBJECTS">
	<g>
		<g>
			<g>
				<g>
					<path style="fill:#D5F3FF;" d="M303.689,378.415c-4.879-3.713-10.303-6.558-15.68-9.462c-2.482-1.341-4.655-3.028-4.222-6.154
						c0.377-2.722,2.023-5.186,3.282-7.567c5.285-9.99,3.74-22.531-4.225-30.651c-3.612-3.682-8.294-6.293-13.346-7.348
						c-2.765-0.577-5.601-0.779-8.34-1.492c-2.86-0.745-5.172-2.177-7.022-4.494c-1.921-2.406-3.418-5.211-4.934-7.881
						c-1.602-2.822-3.118-5.693-4.544-8.607c-2.782-5.682-4.942-11.576-7.395-17.395c-1.12-2.658-2.412-5.237-4.201-7.514
						c-1.67-2.126-3.74-3.874-5.978-5.376c-4.562-3.063-9.751-5.03-14.325-8.072c-2.233-1.485-4.368-3.241-5.99-5.396
						c-1.811-2.407-2.594-5.072-2.964-8.029c-0.352-2.814-0.814-5.469-1.986-8.073c-1.06-2.355-2.561-4.505-4.298-6.409
						c-8.071-8.847-20.26-11.145-31.548-12.946c-2.753-0.439-5.431-0.639-7.423,1.671c-1.91,2.216-3.347,5.017-4.62,7.633
						c-1.294,2.659-2.38,5.426-3.225,8.261c-0.855,2.871-1.577,5.942-0.817,8.917c1.263,4.942,5.821,7.966,8.086,12.356
						c2.801,5.429,1.204,12.008-0.909,17.375c-2.221,5.643-5.275,11.061-6.123,17.146c-0.686,4.923,0.059,9.957,1.981,14.531
						c1.932,4.599,5.024,8.662,9.023,11.656c4.298,3.216,10.261,4.537,12.585,9.858c1.971,4.515,0.957,9.847-0.566,14.331
						c-1.86,5.475-5.071,10.359-7.254,15.701c-2.171,5.314-3.419,11.316-1.16,16.819c1.449,3.53,4.065,6.29,7.076,8.561
						c6.195,4.673,14.093,7.14,19.569,12.762c1.252,1.285,2.317,2.754,3.04,4.402c1.089,2.482,1.176,5.187,1.184,7.856
						c0.009,2.932-0.013,5.94,1.019,8.729c0.785,2.12,2.025,4.027,3.615,5.634c7.542,7.622,18.881,7.482,28.786,8.221
						c5.86,0.437,11.628,1.442,16.592,4.774c2.576,1.729,4.924,3.772,7.601,5.353c2.533,1.497,5.278,2.666,8.097,3.506
						c10.84,3.232,22.753,1.563,32.595-3.875c4.624-2.555,8.779-5.945,12.195-9.974c0.179-0.211,2.806-3.853,3.976-5.409
						c3.386-4.501,6.348-9.607,7.207-15.252C319.872,395.479,312.503,385.122,303.689,378.415z"/>
					<path style="fill:#A5DDEF;" d="M303.607,416.189c-4.921-3.44-10.337-6.035-15.668-8.772c3.595-2.399,5.024-6.952,5.475-11.429
						c0.356-3.534,0.558-7.09,0.815-10.633c0.126-1.741,0.252-3.481,0.378-5.222c0.066-0.911,0.123-1.824,0.198-2.735
						c0.034-0.411,0.083-0.667,0.161-1.054c0.073-0.358,0.369-0.259,0.035-0.338c1.174,0.279,1.877-1.314,0.825-1.956
						c-1.023-0.625-2.064-0.245-2.741,0.681c-0.885,1.211-0.837,2.728-0.953,4.159c-0.304,3.729-0.617,7.458-0.907,11.189
						c-0.264,3.401-0.277,6.973-1.301,10.255c-0.694,2.224-2.387,4.946-4.811,5.602c-3.098-1.654-6.132-3.416-8.983-5.491
						c-3.855-2.805-7.386-6.22-9.786-10.372c-2.303-3.985-3.25-8.509-3.713-13.045c-0.87-8.532-0.11-18.102-4.751-25.717
						c-3.972-6.518-10.687-8.832-17.521-10.835c-0.27-0.619-0.894-1.069-1.735-0.83c-0.196,0.056-0.395,0.1-0.591,0.153
						c-1.52-0.441-3.033-0.889-4.506-1.386c-4.2-1.417-8.645-3.482-11.303-7.188c-2.787-3.885-2.76-8.789-2.967-13.365
						c-0.085-1.872-0.221-3.765-0.552-5.602c0.344-0.461,0.616-1.042,0.877-1.499c0.832-1.454,2.301-2.534,3.282-3.9
						c2.041-2.844,3.069-6.305,3.505-9.743c0.521-4.107,0.217-8.255,0.015-12.373c-0.105-2.143-0.225-4.285-0.346-6.428
						c-0.065-1.154-0.125-2.308-0.208-3.461c-0.035-0.486-0.042-1.002-0.12-1.483c-0.081-0.499-0.314-0.935-0.41-1.424
						c-0.203-1.029-1.613-0.673-1.703,0.231c-0.04,0.398-0.229,0.785-0.266,1.194c-0.044,0.477,0.01,1.005,0.021,1.483
						c0.021,0.907,0.057,1.813,0.092,2.719c0.072,1.895,0.138,3.791,0.224,5.686c0.167,3.67,0.444,7.36,0.263,11.034
						c-0.058,1.173-0.177,2.353-0.375,3.519c-0.399-0.13-0.795-0.264-1.172-0.369c-0.957-0.267-1.875-0.659-2.749-1.13
						c-1.667-0.898-3.139-2.093-4.472-3.431c-2.644-2.654-4.786-5.816-6.423-9.178c-1.637-3.36-2.736-7.011-3.259-10.712
						c-0.258-1.826-0.381-3.672-0.372-5.517c0.009-1.956,0.289-3.904,0.267-5.852c-0.013-1.133-1.497-1.219-1.872-0.253
						c-0.726,1.866-0.894,4.112-0.956,6.105c-0.064,2.083,0.071,4.163,0.37,6.223c0.599,4.135,1.888,8.156,3.77,11.885
						c1.87,3.703,4.391,7.208,7.484,9.988c1.56,1.402,3.291,2.642,5.217,3.486c0.935,0.409,1.906,0.697,2.913,0.861
						c0.28,0.045,0.534,0.061,0.776,0.057c-0.359,1.321-0.842,2.604-1.5,3.81c-0.712,1.306-1.608,2.402-2.635,3.47
						c-0.429,0.446-0.842,0.906-1.219,1.396c-0.511-1.323-1.199-2.581-2.131-3.741c-2.935-3.649-7.459-5.363-11.3-7.823
						c-1.19-0.762-2.279-1.621-3.292-2.548c-0.117-0.204-0.295-0.374-0.532-0.483c-5.012-4.854-7.807-11.611-8.989-18.524
						c-0.744-4.35-0.873-8.804-0.546-13.202c0.154-2.084,0.509-4.171,0.822-6.259c0.061-0.094,0.111-0.2,0.137-0.328
						c0.063-0.313,0.067-0.587,0.032-0.833c0.365-2.641,0.588-5.285,0.167-7.933c-0.359-2.257-1.147-4.318-2.234-6.208
						c0.999-1.024,1.282-2.849,1.288-4.226c0.013-3.023,0.107-6.155-0.327-9.151c-0.102-0.708-1.33-0.71-1.431,0
						c-0.368,2.594-0.268,5.251-0.292,7.866c-0.008,0.919,0.045,1.868-0.201,2.763c-0.089,0.324-0.2,0.563-0.342,0.758
						c-3.252-4.445-8.15-7.846-12.83-10.499c-1.867-1.058-3.777-2.026-5.716-2.944c-1.113-0.527-2.095,1.09-0.978,1.673
						c6.415,3.345,13.825,7.184,17.997,13.389c0,0.054-0.014,0.102-0.006,0.159c0.056,0.373,0.309,0.718,0.651,0.883
						c0.368,0.626,0.716,1.266,1.015,1.939c1.431,3.221,1.412,6.472,1.022,9.762c-0.868-0.186-1.816-0.222-2.507-0.266
						c-1.643-0.106-3.102-0.856-4.507-1.657c-1.6-0.912-3.177-1.866-4.764-2.8c-6.219-3.661-12.336-7.539-18.605-11.104
						c-0.807-0.459-1.817,0.722-1.032,1.337c5.277,4.137,11.23,7.481,16.956,10.952c2.703,1.639,5.397,3.532,8.288,4.821
						c1.277,0.569,2.554,0.895,3.951,0.962c0.485,0.023,0.989,0.002,1.467,0.1c0.168,0.035,0.294,0.085,0.408,0.142
						c-0.146,0.95-0.301,1.904-0.439,2.862c-0.618,4.291-0.837,8.637-0.523,12.964c0.581,8.006,2.961,16.142,8.155,22.383
						c-5.745-0.186-11.409-0.641-16.888-2.709c-1.541-0.582-3.015-1.309-4.459-2.096c0.027-0.053,0.064-0.095,0.083-0.156
						c0.915-3.063,0.736-6.506-0.07-9.574c-0.398-1.516-0.936-3.087-1.727-4.445c-0.807-1.385-1.641-2.816-2.928-3.798
						c-0.8-0.61-1.574,0.523-1.24,1.24c0.602,1.292,1.495,2.417,2.071,3.732c0.581,1.329,1.111,2.65,1.461,4.063
						c0.65,2.626,0.695,5.232,0.513,7.902c-1.018-0.59-2.027-1.194-3.041-1.784c-1.569-0.913-3.159-1.793-4.748-2.671
						c-0.872-0.482-1.769-0.896-2.664-1.33c-0.754-0.366-1.363-0.745-2.219-0.636c-0.291,0.037-0.623,0.3-0.49,0.643
						c0.566,1.455,2.447,2.373,3.704,3.197c1.656,1.084,3.348,2.128,5.041,3.151c3.162,1.911,6.311,3.846,9.756,5.213
						c6.394,2.536,13.723,3.343,20.574,2.855c2.681,2.337,5.758,4.03,8.874,5.849c1.975,1.153,3.934,2.432,5.379,4.237
						c1.436,1.794,2.15,3.999,2.531,6.236c0.787,4.627,0.235,9.386,1.291,13.985c1.015,4.418,3.713,7.936,7.449,10.434
						c2.429,1.624,5.084,2.718,7.821,3.613c-7.897,1.351-16.069,1.06-23.871-0.783c-0.215-1.278-0.855-2.543-1.384-3.671
						c-0.771-1.646-1.759-3.193-2.782-4.691c-1.915-2.804-4.033-5.478-6.325-7.983c-2.305-2.52-4.786-4.883-7.422-7.054
						c-2.631-2.166-5.432-4.385-8.561-5.767c-0.863-0.381-1.973,0.706-1.108,1.436c2.492,2.101,5.233,3.875,7.739,5.967
						c2.516,2.1,4.899,4.354,7.119,6.765c2.195,2.385,4.245,4.91,6.099,7.569c1.001,1.436,1.926,2.914,2.758,4.454
						c0.378,0.699,0.687,1.472,1.014,2.234c-2.976-0.86-5.886-1.948-8.69-3.267c-1.749-0.823-3.468-1.715-5.136-2.693
						c-1.77-1.038-3.455-2.289-5.288-3.208c-1.035-0.519-2.041,0.729-1.24,1.607c2.416,2.65,6.011,4.578,9.171,6.189
						c3.254,1.659,6.673,3.024,10.167,4.083c7.142,2.165,14.698,3.047,22.145,2.542c3.944-0.268,7.855-0.928,11.672-1.952
						c4.229,1.185,8.413,2.462,12.051,4.988c7.655,5.314,8.066,15.157,8.585,23.593c0.275,4.471,0.565,9.006,1.725,13.352
						c1.191,4.462,3.454,8.468,6.505,11.921c4.281,4.845,9.656,8.298,15.272,11.36c0.206,0.599,0.767,1.065,1.637,0.879
						c2.725,1.443,5.488,2.819,8.192,4.236c8.761,4.592,18.091,10.512,21.696,20.258c0.798,2.158,1.302,4.441,1.444,6.738
						c0.098,1.587,2.433,1.61,2.484,0C318.613,430.085,311.367,421.614,303.607,416.189z"/>
				</g>
				<g>
					<path style="fill:#3C6EA5;" d="M310.236,446.742c-0.395-3.029-2.594-5.047-4.697-6.911c-3.889-3.447-8.343-6.673-12.267-9.675
						c-6.917-5.293-14.419-9.805-22.329-13.45c-15.416-7.104-32.076-10.886-48.88-12.825c-17.135-1.977-34.42-2.075-51.647-1.904
						c-17.18,0.171-34.389,0.545-51.536-0.794c-17.012-1.329-34.11-4.395-49.862-11.161c-1.945-0.836-3.864-1.73-5.762-2.669
						c-0.895-0.442-2.121,0.296-1.783,1.371c5.534,17.6,16.878,33.027,32.012,43.57c15.821,11.021,34.68,16.535,53.152,21.256
						c10.119,2.586,20.49,5.699,31.023,5.657c5.444-0.022,10.729-1.176,15.983-2.5c5.222-1.317,10.44-2.517,15.781-3.251
						c21.604-2.97,43.46-0.206,65.092,0.916c5.496,0.285,10.998,0.474,16.502,0.449c4.417-0.02,9.303,0.311,13.548-1.135
						C307.636,452.639,310.707,450.361,310.236,446.742z"/>
					<path style="fill:#A5DDEF;" d="M261.576,436.51c-11.908-6.381-25.957-6.342-38.922-3.899
						c-6.988,1.316-13.69,3.596-20.594,5.221c-3.252,0.766-6.557,1.139-9.886,0.701c-3.07-0.404-6.054-1.374-8.939-2.468
						c-6.014-2.282-11.788-5.178-18.17-6.332c-6.525-1.18-13.174-0.971-19.764-0.626c-2.897,0.152-5.801,0.332-8.706,0.436
						c-0.006-0.081-0.002-0.164-0.021-0.24c-0.831-3.191-3.857-5.635-5.951-8.03c-2.379-2.72-4.642-5.598-7.486-7.858
						c-2.639-2.098-5.569-3.861-8.451-5.599c-2.998-1.808-6.089-3.613-9.474-4.579c-0.711-0.203-1.191,0.861-0.512,1.214
						c2.924,1.518,5.818,3.053,8.596,4.83c2.748,1.758,5.592,3.482,8.136,5.529c2.51,2.02,4.528,4.547,6.587,7.003
						c1.152,1.374,2.283,2.764,3.414,4.155c0.921,1.133,1.907,2.241,2.341,3.643c-2.82,0.036-5.638-0.036-8.448-0.336
						c-6.659-0.71-12.781-3.063-18.562-6.381c-6.303-3.617-12.373-7.803-18.262-12.057c-5.939-4.29-11.45-9.079-16.106-14.755
						c-0.392-0.478-1.202,0.147-0.859,0.663c3.497,5.254,8.178,9.595,13.127,13.46c5.124,4.001,10.524,7.687,15.944,11.274
						c3.106,2.055,6.318,4.003,9.676,5.632c-0.168,0.065-0.336,0.131-0.51,0.179c-0.884,0.241-1.786,0.352-2.701,0.373
						c-2.008,0.046-3.998-0.315-5.94-0.798c-2.04-0.508-4.028-1.19-6.052-1.754c-1.026-0.286-2.052-0.577-3.081-0.852
						c-1.028-0.275-2.192-0.786-3.26-0.678c-0.372,0.037-0.678,0.516-0.337,0.813c0.809,0.706,1.966,0.948,2.96,1.319
						c1.144,0.427,2.297,0.832,3.447,1.244c2.213,0.792,4.473,1.533,6.76,2.082c2.038,0.489,4.163,0.82,6.263,0.676
						c1.518-0.104,3.738-0.367,4.975-1.458c1.799,0.76,3.637,1.426,5.532,1.939c6.37,1.724,13.035,1.843,19.589,1.61
						c6.678-0.237,13.36-0.865,20.046-0.504c2.552,0.138,5.092,0.434,7.59,0.953c-1.071,2.574-2.498,4.489-4.858,6.052
						c-2.415,1.6-5.138,2.752-7.794,3.887c-2.748,1.174-5.573,2.234-8.471,2.975c-3.069,0.784-6.098,0.937-9.243,1.089
						c-1.037,0.05-1.36,1.639-0.255,1.888c3.175,0.715,6.582,0.272,9.724-0.42c3.386-0.745,6.628-1.957,9.811-3.314
						c2.986-1.272,6.063-2.555,8.671-4.52c2.182-1.643,4.544-4.132,4.985-6.948c0.003-0.022,0.002-0.042,0.005-0.064
						c3.057,0.848,6.005,2.042,8.93,3.26c5.764,2.398,11.668,4.955,18.02,5.029c0.932,0.011,1.862-0.033,2.789-0.116
						c-0.009,0.013-0.017,0.028-0.026,0.041c-0.493,0.687-1.076,1.308-1.648,1.929c-1.198,1.301-2.407,2.591-3.7,3.799
						c-1.21,1.13-2.522,2.133-3.999,2.89c-0.751,0.385-1.517,0.701-2.325,0.946c-0.769,0.233-1.589,0.337-2.318,0.679
						c-0.617,0.29-0.334,1.097,0.17,1.299c1.546,0.621,3.697-0.108,5.142-0.723c1.661-0.707,3.149-1.731,4.535-2.878
						c1.44-1.191,2.713-2.561,3.981-3.93c0.621-0.67,1.244-1.338,1.809-2.056c0.262-0.333,0.519-0.67,0.753-1.023
						c0.164-0.247,0.305-0.591,0.501-0.835c0.118-0.09,0.225-0.194,0.302-0.323c0.055-0.091,0.089-0.184,0.114-0.276
						c4.832-0.89,9.587-2.622,14.275-3.803c14.745-3.714,30.883-5.343,44.869,1.878C261.739,439.404,263,437.273,261.576,436.51z"/>
				</g>
				<g>
					<path style="fill:#3C6EA5;" d="M328.344,374.395c-1.597-1.125-3.286-2.141-4.771-3.417c-1.749-1.502-3.199-3.302-4.432-5.244
						c-2.556-4.024-4.301-8.524-6.182-12.885c-2.203-5.108-4.407-10.216-6.61-15.324c-8.424-19.529-17.595-39.076-22.189-59.951
						c-2.235-10.153-2.586-20.788-6.005-30.661c-3.22-9.299-9.514-16.908-14.631-25.174c-5.216-8.426-8.852-17.693-16.045-24.751
						c-3.464-3.399-7.369-6.311-11.257-9.198c-4.134-3.07-8.224-6.191-12.229-9.428c-8.113-6.558-15.927-13.489-23.407-20.76
						c-3.68-3.577-7.276-7.239-10.791-10.979c-3.138-3.339-6.251-6.729-9.901-9.523c-1.852-1.418-3.802-2.663-5.922-3.643
						c-0.925-0.427-2.3,0.535-1.566,1.566c6.116,8.594,10.225,18.34,12.409,28.642c2.176,10.261,3.044,20.903,7.502,30.536
						c4.142,8.951,11.176,16.409,14.272,25.869c1.669,5.101,2.242,10.461,3.194,15.721c0.943,5.209,2.576,10.017,4.795,14.814
						c2.309,4.99,4.408,9.858,5.521,15.272c1.095,5.329,1.631,10.767,2.997,16.04c1.35,5.212,3.539,10.163,5.82,15.023
						c2.427,5.171,4.897,10.323,7.347,15.484c4.575,9.635,8.865,19.503,14.254,28.722c4.987,8.531,11.188,16.067,19.177,21.944
						c7.65,5.627,16.346,9.643,25.159,13.077c4.531,1.766,9.12,3.376,13.714,4.971c5.106,1.773,10.3,3.508,15.726,3.916
						c2.639,0.198,5.277,0.011,7.855-0.591c0.392-0.091,0.622-0.327,0.728-0.609c0.728,0.224,1.617-0.137,1.53-1.098
						C334.063,378.932,331.308,376.482,328.344,374.395z"/>
					<path style="fill:#A5DDEF;" d="M346.748,387.66c-9.264-3.218-19.027-5.961-26.373-12.833c-3.971-3.715-7-8.286-10.373-12.518
						c-3.306-4.148-6.841-8.108-10.498-11.949c-7.436-7.812-15.364-15.13-23.031-22.711c-1.264-1.25-2.532-2.51-3.777-3.794
						c2.235-1.823,4.334-3.635,6.138-5.957c1.97-2.537,3.545-5.332,4.686-8.336c1.253-3.299,1.915-6.833,2.008-10.359
						c0.046-1.769-0.07-3.53-0.325-5.281c-0.141-0.966-0.32-1.926-0.554-2.873c-0.108-0.439-0.236-0.869-0.38-1.298
						c-0.064-0.191-0.249-0.972-0.377-0.857c0.747-0.672-0.064-1.709-0.905-1.554c-1.529,0.282-1.263,1.925-1.008,3.042
						c0.411,1.802,0.767,3.596,0.908,5.442c0.282,3.72-0.078,7.449-1.164,11.022c-0.944,3.106-2.426,6.022-4.328,8.651
						c-1.729,2.39-3.96,4.834-6.483,6.477c-5.134-5.533-9.576-11.606-11.042-19.266c-1.027-5.37-0.798-10.9-0.749-16.338
						c0.047-5.2-0.183-10.354-1.022-15.493c-0.075-0.461-0.178-0.916-0.261-1.375c1.321-1.16,2.491-2.719,3.57-4.04
						c1.253-1.533,1.359-3.094,1.413-5.009c0.115-4.077-0.188-8.151-0.537-12.21c-0.348-4.052-0.741-8.106-0.798-12.176
						c-0.029-2.003,0.015-4.015,0.177-6.012c0.175-2.148,0.801-4.248,0.956-6.379c0.067-0.93-1.387-1.339-1.791-0.485
						c-0.808,1.711-1.04,3.783-1.294,5.646c-0.253,1.859-0.405,3.728-0.438,5.604c-0.07,3.981,0.233,7.955,0.547,11.921
						c0.31,3.909,0.644,7.825,0.661,11.749c0.008,1.802,0.364,4.231-0.843,5.705c-0.689,0.841-1.513,1.633-2.277,2.463
						c-1.968-8.65-5.432-16.968-10.209-24.438c-2.754-4.307-5.872-8.505-6.706-13.675c-0.84-5.206,0.209-10.525-0.702-15.737
						c-1.078-6.168-5.166-10.317-9.955-13.705c0.236-1.741-0.204-3.656-0.586-5.344c-0.428-1.895-1.04-3.727-1.85-5.494
						c-0.778-1.698-1.788-3.24-2.804-4.801c-1.04-1.598-1.674-3.096-2.168-4.928c-0.096-0.355-0.692-0.498-0.857-0.112
						c-1.4,3.271,1.949,6.747,3.341,9.44c0.889,1.72,1.556,3.546,2.012,5.426c0.243,1.005,0.406,2.02,0.494,3.05
						c0.034,0.392,0.046,0.787,0.061,1.182c-1.582-1.014-3.197-1.974-4.772-2.914c-8.383-5.002-15.579-11.392-20.842-19.681
						c-5.007-7.887-7.572-17.17-13.257-24.643c-1.349-1.774-2.828-3.347-4.563-4.748c-0.605-0.489-1.439,0.29-0.873,0.873
						c6.665,6.865,9.675,15.966,13.864,24.354c4.351,8.712,10.656,16.288,18.487,22.086c1.289,0.954,2.63,1.827,3.983,2.68
						c-0.546-0.17-1.098-0.321-1.641-0.501c-2.949-0.98-5.849-2.106-8.683-3.383c-2.721-1.226-5.392-2.577-7.995-4.035
						c-2.609-1.461-5.132-3.346-7.918-4.449c-0.538-0.213-0.827,0.53-0.517,0.888c1.954,2.253,4.85,3.853,7.387,5.353
						c2.697,1.594,5.475,3.032,8.329,4.325c2.74,1.241,5.538,2.36,8.382,3.34c1.515,0.521,3.043,1.004,4.582,1.448
						c1.353,0.389,3.071,1.142,4.488,1.002c0.329,0.211,0.664,0.412,0.991,0.628c3.47,2.29,6.852,4.987,8.797,8.747
						c2.416,4.671,1.687,10.095,1.696,15.155c0.004,2.257,0.162,4.539,0.679,6.743c-0.661,0.01-1.335,0.066-1.997-0.08
						c-1.513-0.334-2.867-1.1-4.151-1.945c-2.709-1.782-5.236-3.881-7.818-5.84c-2.693-2.043-5.381-4.093-8.083-6.123
						c-2.734-2.053-5.416-4.393-8.358-6.139c-0.811-0.481-1.701,0.647-1.013,1.313c2.633,2.547,5.814,4.657,8.705,6.903
						c2.872,2.231,5.763,4.439,8.646,6.656c2.686,2.066,5.314,4.405,8.287,6.054c1.45,0.804,4.517,2.226,6.514,1.633
						c0.721,1.934,1.687,3.778,2.751,5.541c2.678,4.435,5.565,8.655,7.769,13.365c2.208,4.72,3.894,9.687,5.067,14.763
						c1.195,5.171,1.812,10.445,1.895,15.75c0.063,4.059-0.117,8.126-0.024,12.185c-2.73-1.257-5.298-2.571-7.654-4.569
						c-2.702-2.291-4.992-5.029-6.732-8.116c-1.852-3.284-2.484-6.963-4.103-10.326c-0.798-1.658-1.994-3.105-3.27-4.417
						c-0.654-0.673-1.337-1.317-2.017-1.963c-0.217-0.206-1.571-1.297-1.847-1.758c0.317-0.569-0.04-1.446-0.796-1.412
						c-1.255,0.056-1.621,1.273-1.125,2.309c0.661,1.381,2.261,2.512,3.318,3.589c1.186,1.209,2.331,2.469,3.168,3.952
						c0.894,1.585,1.358,3.346,1.889,5.073c1.845,6.004,5.372,11.397,10.236,15.393c2.623,2.155,5.779,4.256,9.066,5.253
						c0.026,0.403,0.047,0.807,0.082,1.21c0.443,5.192,1.707,10.181,4.256,14.751c2.426,4.349,5.719,8.167,9.156,11.741
						c6.504,6.766,13.403,13.142,20.105,19.712c-1.207,0.028-2.427,0.121-3.616,0.08c-1.899-0.065-3.798-0.227-5.679-0.499
						c-3.662-0.53-7.27-1.413-10.759-2.646c-3.516-1.242-6.896-2.854-10.085-4.788c-1.607-0.975-3.166-2.035-4.675-3.156
						c-1.499-1.114-2.88-2.388-4.437-3.42c-0.682-0.451-1.681,0.477-1.165,1.165c2.303,3.075,5.847,5.451,9.083,7.455
						c3.292,2.039,6.798,3.726,10.431,5.064c3.658,1.347,7.461,2.324,11.321,2.871c1.979,0.28,3.968,0.47,5.965,0.541
						c1.928,0.069,4.087,0.24,5.969-0.22c0.038-0.009,0.06-0.031,0.095-0.042c0.172,0.171,0.348,0.338,0.519,0.51
						c3.799,3.81,7.517,7.705,11.044,11.769c3.573,4.117,6.738,8.538,10.188,12.751c3.272,3.997,7.088,7.355,11.566,9.945
						c4.25,2.458,8.861,4.259,13.505,5.82c2.315,0.778,4.643,1.472,7,2.108C347.691,390.618,348.32,388.207,346.748,387.66z"/>
				</g>
				<g>
					<path style="fill:#81BBC1;" d="M308.366,449.648c1.94-4.932,2.194-10.596,0.501-15.71c-3.135-9.471-11.2-16.276-19.919-20.534
						c-4.982-2.433-10.247-4.198-15.53-5.846c-4.781-1.491-9.474-3.243-11.05-8.475c-1.655-5.495-1.734-11.471-2.511-17.129
						c-0.702-5.107-1.832-10.166-4.231-14.768c-2.143-4.112-5.341-7.792-9.544-9.871c-3.855-1.906-8.167-2.449-12.424-2.419
						c-8.43,0.06-17.577,2.706-25.785-0.164c-8.946-3.128-11.013-14.093-19.632-17.717c-9.583-4.029-20.122,1.43-29.984,0.91
						c-10.983-0.579-20.576-6.803-31.129-9.209c-8.687-1.981-19.67-1.954-25.926,5.477c-1.497,1.778-2.62,3.888-2.903,6.218
						c-0.324,2.662,0.648,5.14,1.965,7.405c1.263,2.173,2.808,4.202,4.548,6.014c1.736,1.808,3.782,3.137,5.654,4.771
						c4.34,3.788-2.436,7.726-4.682,10.499c-2.622,3.238-4.065,7.178-4.512,11.297c-0.953,8.769,2.666,17.457,8.973,23.481
						c7.045,6.729,16.545,10.316,25.947,12.242c5.094,1.043,10.442,1.507,14.791,4.63c3.436,2.468,5.943,6.029,8.388,9.419
						c2.456,3.405,4.934,6.92,8.225,9.581c3.819,3.088,8.409,4.621,13.277,4.963c5.095,0.359,10.204-0.467,15.226-1.234
						c2.604-0.398,5.209-0.806,7.832-1.061c2.629-0.255,5.513-0.539,7.97,0.642c3.792,1.823,5.88,5.91,8.994,8.574
						c3.831,3.277,8.381,3.517,13.179,2.778c2.493-0.384,4.964-0.967,7.487-1.135c2.933-0.195,5.642,0.446,8.404,1.383
						c5.558,1.886,11.122,3.398,16.911,4.409c5.786,1.01,11.641,1.783,17.481,2.411c5.361,0.576,10.969,0.679,15.997-1.542
						C304.289,458.203,306.028,455.592,308.366,449.648z"/>
					<path style="fill:#D5F3FF;" d="M311.02,454.494c-5.071-3.785-10.391-7.214-15.915-10.267
						c-0.853-6.037-3.643-11.687-7.846-16.09c0.027-0.159,0.017-0.323-0.032-0.487c0.569-2.126,0.949-4.332,0.84-6.536
						c-0.053-1.07-0.216-2.134-0.524-3.162c-0.151-0.505-0.339-0.997-0.551-1.479c-0.21-0.477-0.712-1.07-0.775-1.583
						c-0.106-0.865-1.311-0.902-1.375,0c-0.073,1.022,0.65,1.997,0.929,2.96c0.286,0.988,0.433,2.01,0.478,3.036
						c0.082,1.889-0.233,3.741-0.701,5.56c-3.948-3.601-8.557-6.607-11.095-11.457c-0.584-1.116-2.533-0.341-2.07,0.873
						c2.103,5.521,7.096,8.781,11.272,12.629c4.137,3.812,6.978,8.609,8.233,14.018c-8.023-4.164-16.448-7.547-25.158-10.065
						c-4.009-1.159-8.115-1.945-12.121-3.105c-4.128-1.196-7.406-3.338-10.788-5.921c-1.731-1.321-3.477-2.509-5.337-3.501
						c0.292-0.467,0.558-0.953,0.839-1.417c0.657-1.085,1.315-2.17,1.97-3.257c1.16-1.927,2.293-3.87,3.309-5.878
						c1.989-3.93,3.585-8.16,3.756-12.607c0.306-7.998-4.816-14.262-8.208-21.048c-1.844-3.689-3.849-8.822-1.509-12.705
						c0.56-0.929-0.769-1.997-1.521-1.174c-2.597,2.838-1.893,7.436-0.852,10.795c1.105,3.567,3.022,6.807,4.837,10.046
						c1.593,2.843,3.164,5.762,4.002,8.922c-1.052-0.214-2.127-0.381-3.139-0.712c-1.656-0.541-3.243-1.251-4.77-2.088
						c-3.074-1.684-5.835-3.84-8.354-6.269c-2.621-2.528-4.987-5.304-7.242-8.159c-2.152-2.726-5.427-5.833-4.993-9.598
						c0.124-1.075-1.436-1.115-1.765-0.239c-1.417,3.773,1.777,7.545,3.877,10.369c2.415,3.248,4.952,6.438,7.813,9.308
						c2.737,2.746,5.792,5.226,9.177,7.131c1.676,0.943,3.443,1.749,5.26,2.38c1.391,0.483,3.119,1.099,4.691,1.191
						c0.241,3.876-0.925,7.765-2.535,11.259c-1.068,2.318-2.332,4.538-3.635,6.73c-0.715,1.203-1.443,2.397-2.168,3.594
						c-0.442,0.731-0.951,1.47-1.365,2.244c-0.573-0.231-1.154-0.45-1.757-0.64c-3.238-1.022-6.6-1.566-9.869-2.475
						c-3.14-0.873-6.238-2.134-8.421-4.653c-2.51-2.896-3.392-6.87-4.925-10.297c-2.964-6.627-8.387-11.855-14.473-15.659
						c-4.916-3.072-10.309-5.192-15.838-6.871c3.302-5.417,4.238-12.108,2.515-18.226c-0.409-1.453-0.971-2.871-1.669-4.21
						c-0.814-1.561-1.958-2.924-2.75-4.494c-1.822-3.609-0.242-7.15,0.161-10.847c0.089-0.817-1.212-1.151-1.558-0.422
						c-1.38,2.914-2.023,6.746-1.366,9.921c0.674,3.26,3.224,5.738,4.363,8.832c2.213,6.015,1.552,12.932-1.98,18.307
						c-0.093,0.142-0.145,0.282-0.176,0.419c-1.546-0.432-3.097-0.845-4.65-1.229c-4.331-1.072-8.692-2.017-13.02-3.101
						c-3.85-0.965-7.846-1.836-10.749-4.736c-2.523-2.52-4.11-5.813-5.811-8.901c-1.724-3.129-3.682-6.072-6.185-8.639
						c-0.995-1.02-2.069-1.96-3.183-2.853c0.324-0.817,0.312-1.932,0.333-2.628c0.042-1.38-0.217-2.786-0.722-4.07
						c-0.476-1.212-1.12-2.336-1.903-3.376c-0.377-0.501-0.77-0.992-1.2-1.448c-0.229-0.243-0.464-0.48-0.702-0.714
						c-0.133-0.13-0.268-0.256-0.402-0.384c-0.016-0.015-0.032-0.03-0.048-0.046c0.21-0.112,0.346-0.332,0.242-0.64
						c-0.176-0.523-0.679-0.775-1.217-0.612c-0.647,0.196-0.862,0.893-0.654,1.488c0.231,0.66,0.904,1.19,1.344,1.714
						c0.527,0.626,1.037,1.27,1.49,1.952c0.892,1.344,1.578,2.829,1.815,4.436c0.115,0.778,0.173,1.697-0.035,2.464
						c-0.045,0.168-0.108,0.331-0.174,0.492c-4.114-2.886-8.83-4.93-13.768-5.821c-1.727-0.312-3.455-0.476-5.209-0.486
						c-1.523-0.008-1.49,2.237,0,2.344c7.221,0.517,14.215,3.181,19.738,7.91c2.739,2.345,5.039,5.098,6.865,8.206
						c1.782,3.033,3.228,6.279,5.318,9.124c2.166,2.95,4.84,5.066,8.293,6.323c4.063,1.479,8.411,2.309,12.612,3.299
						c6.231,1.468,12.554,2.93,18.552,5.22c-0.695,0.061-1.379,0.143-2.042,0.233c-2.766,0.375-5.439,1.126-7.997,2.243
						c-5.023,2.193-9.266,5.753-14.585,7.316c-1.158,0.341-2.337,0.599-3.525,0.802c-0.834-1.501-2.294-2.659-3.593-3.729
						c-1.504-1.238-3.015-2.468-4.539-3.681c-3.198-2.547-6.445-5.038-9.866-7.281c-3.306-2.168-6.761-4.079-10.421-5.582
						c-1.817-0.746-3.688-1.413-5.602-1.866c-1.494-0.353-3.988-1.207-5.411-0.501c-0.344,0.171-0.399,0.704-0.123,0.957
						c0.617,0.565,1.422,0.617,2.216,0.808c0.929,0.223,1.849,0.469,2.763,0.748c1.861,0.568,3.697,1.199,5.48,1.982
						c3.396,1.491,6.624,3.365,9.702,5.427c3.161,2.118,6.178,4.446,9.117,6.861c1.504,1.236,2.988,2.495,4.469,3.757
						c0.737,0.628,1.485,1.249,2.167,1.938c0.175,0.176,0.337,0.361,0.493,0.549c-3.207,0.247-6.454,0.071-9.616-0.454
						c-5.599-0.93-10.727-3.136-16.098-4.854c-5.648-1.807-12.293-2.922-17.703,0.179c-0.866,0.496-0.289,2.019,0.698,1.656
						c5.344-1.964,10.815-1.154,16.093,0.602c5.278,1.757,10.358,3.954,15.862,4.953c5.118,0.928,10.371,1.083,15.491,0.085
						c5.356-1.045,9.748-3.706,14.416-6.373c2.74-1.565,5.595-2.759,8.693-3.405c1.464-0.305,2.948-0.48,4.443-0.533
						c1.624-0.058,3.235,0.154,4.853,0.12c0.188-0.004,0.356-0.043,0.505-0.108c6.208,3.254,11.94,7.777,15.486,13.914
						c1.899,3.286,2.797,6.997,4.538,10.353c1.608,3.099,4.094,5.498,7.252,6.986c6.086,2.867,13.23,2.694,19.091,6.093
						c0.54,0.313,1.062,0.652,1.578,1.001c-8.085-0.476-15.9,2.066-23.746,4.173c-4.673,1.255-9.434,2.332-14.298,2.318
						c-4.673-0.014-9.044-1.442-13.48-2.697c-0.172-1.05-0.663-2.06-1.098-3.015c-0.522-1.147-1.102-2.277-1.784-3.338
						c-1.357-2.115-3.023-4.033-5.002-5.586c-3.981-3.126-8.85-4.614-13.683-5.827c-0.796-0.2-1.4,1.03-0.584,1.385
						c4.21,1.833,8.66,3.541,12.311,6.398c1.801,1.41,3.318,3.115,4.557,5.034c0.654,1.013,1.256,2.054,1.792,3.134
						c0.165,0.331,0.315,0.672,0.465,1.014c-5.409-1.286-11.578-1.77-16.774,0.366c-0.628,0.258-0.649,1.407,0.179,1.32
						c2.717-0.287,5.376-0.703,8.119-0.665c2.771,0.039,5.482,0.485,8.153,1.206c4.997,1.347,9.811,3.318,15.017,3.738
						c9.53,0.768,18.674-3.046,27.806-5.111c5.128-1.159,10.568-1.871,15.742-0.581c0.262,0.065,0.498,0.053,0.71-0.007
						c1.195,0.898,2.411,1.765,3.713,2.505c3.652,2.078,7.778,2.961,11.824,3.919c11.157,2.641,21.991,6.692,32.155,12.015
						c-0.091,0.029-0.18,0.06-0.272,0.087c-0.984,0.293-1.991,0.503-3.002,0.679c-2.052,0.358-4.125,0.595-6.202,0.74
						c-4.302,0.299-8.644,0.178-12.92-0.393c-8.283-1.106-16.178-4.367-24.632-4.184c-4.758,0.103-9.26,1.162-13.734,2.726
						c-0.733,0.256-0.444,1.375,0.324,1.175c4.116-1.073,8.454-1.674,12.71-1.712c4.347-0.039,8.528,0.815,12.707,1.937
						c4.079,1.095,8.121,2.189,12.314,2.765c4.226,0.581,8.495,0.776,12.755,0.536c2.345-0.132,4.684-0.393,7.001-0.775
						c1.862-0.307,4.487-0.601,5.935-1.969c3.449,1.916,6.816,3.977,10.084,6.187c1.681,1.137,3.335,2.314,4.965,3.522
						C311.058,458.002,312.454,455.564,311.02,454.494z"/>
				</g>
			</g>
			<g>
				<g>
					<path style="fill:#3C6EA5;" d="M656.953,101.004c-2.961,6.084-9.937,8.322-15.975,10.091
						c-7.66,2.244-15.417,4.139-23.171,6.021c-15.367,3.73-30.826,7.44-45.396,13.711c-25.362,10.917-46.7,30.541-59.677,54.925
						c-6.524,12.259-10.239,25.668-15.695,38.385c-2.669,6.223-5.795,12.317-9.918,17.713c-4.419,5.782-10.129,9.997-15.693,14.586
						c-2.813,2.32-5.496,4.796-7.73,7.689c-2.26,2.926-4.054,6.166-5.544,9.544c-3.177,7.204-5.353,14.887-6.677,22.64
						c-1.349,7.893-1.809,15.933-1.32,23.927c0.499,8.163,2.334,15.99,3.99,23.967c0.871,4.196,1.567,8.454,1.487,12.754
						c-0.073,3.917-0.907,7.712-2.169,11.409c-1.303,3.814-3.003,7.472-4.615,11.16c-0.662,1.515-1.314,3.035-1.924,4.572
						c-0.707,1.78-1.582,3.679-1.651,5.626c-0.127,3.556,3.074,5.67,5.976,6.943c3.114,1.366,6.527,1.919,9.918,1.799
						c7.389-0.262,16.936-3.747,25.545-8.87c16.686-9.929,29.753-22.824,40.696-37.741c7.264-9.901,14.522-19.832,20.932-30.316
						c6.31-10.32,11.478-21.182,15.723-32.503c8.445-22.524,13.768-46.192,23.907-68.08c9.231-19.929,21.97-37.913,34.51-55.848
						c12.441-17.795,24.907-35.821,33.455-55.885c1.042-2.445,2.027-4.913,2.956-7.402
						C659.309,100.702,657.478,99.925,656.953,101.004z"/>
					<path style="fill:#A5DDEF;" d="M650.267,110.293c-8.24,11.084-18.974,19.857-30.907,26.708
						c-12.648,7.261-26.289,12.032-39.795,17.378c-4.327,1.713-8.657,3.579-12.839,5.711c-0.005-0.055-0.013-0.11-0.017-0.166
						c-0.042-0.724-0.031-1.451,0.006-2.176c0.076-1.483,0.304-2.95,0.643-4.395c0.663-2.824,1.737-5.529,3.095-8.088
						c1.367-2.575,2.989-5.006,4.724-7.346c0.92-1.24,1.88-2.449,2.846-3.653c0.873-1.088,1.961-2.224,2.543-3.498
						c0.357-0.779-0.444-1.925-1.315-1.315c-1.271,0.891-2.263,2.238-3.239,3.434c-0.967,1.184-1.916,2.382-2.839,3.601
						c-1.938,2.558-3.744,5.227-5.228,8.076c-1.401,2.691-2.536,5.557-3.209,8.519c-0.348,1.531-0.58,3.097-0.676,4.665
						c-0.069,1.127-0.214,2.549-0.017,3.763c-7.409,4.067-14.22,9.1-19.498,15.852c-4.348,5.563-7.021,11.863-8.48,18.751
						c-1.528,7.217-2.301,14.535-4.826,21.512c-2.774,7.667-7.071,14.695-12.505,20.709c-0.092-0.106-0.184-0.209-0.275-0.32
						c-0.609-0.738-1.161-1.521-1.67-2.331c-1.014-1.614-1.849-3.335-2.444-5.147c-1.31-3.988-1.423-8.045-0.83-12.178
						c1-6.968,3.314-16.145-3.259-21.21c-0.675-0.52-1.291,0.532-0.842,1.092c5.444,6.792,1.65,15.696,1.145,23.338
						c-0.251,3.799,0.358,7.648,1.728,11.199c0.674,1.747,1.493,3.433,2.507,5.008c0.55,0.854,1.172,1.863,1.924,2.684
						c-3.099,3.13-6.517,5.95-10.207,8.387c-5.956,3.933-12.196,7.349-17.485,12.208c-4.431,4.07-8.212,8.848-11.321,13.992
						c-4.834,7.997-8.067,16.871-10.18,25.974c-0.028-0.032-0.059-0.064-0.086-0.096c-0.724-0.842-1.464-1.673-2.162-2.536
						c-1.235-1.526-2.171-3.194-2.666-5.104c-0.473-1.821-0.564-3.708-0.506-5.582c0.061-1.971,0.463-4.065,0.279-6.026
						c-0.083-0.885-1.177-1.01-1.504-0.204c-0.761,1.874-0.958,4.223-1.079,6.23c-0.129,2.142-0.039,4.324,0.468,6.417
						c0.51,2.105,1.501,3.956,2.823,5.659c0.709,0.913,1.464,1.789,2.208,2.673c0.505,0.599,0.989,1.236,1.524,1.816
						c-0.383,1.891-0.726,3.788-1.022,5.687c-0.982,6.299-1.542,12.66-1.745,19.031c-0.242,7.59,0.172,15.185-0.123,22.774
						c-0.543,13.924-4.817,27.027-12.382,38.72c-3.601,5.567-7.833,10.703-12.521,15.388c-4.562,4.559-9.655,9.238-15.249,12.507
						c-2.277,1.33-5.852,2.953-8.184,0.904c-1.304-1.146-3.169,0.67-1.922,1.922c4.904,4.928,12.023-0.225,16.264-3.426
						c5.381-4.063,10.406-8.592,14.92-13.604c8.824-9.797,15.816-21.391,19.412-34.13c4.072-14.426,2.278-29.31,3.008-44.071
						c1.148,0.045,2.373-0.168,3.393-0.285c1.789-0.206,3.565-0.511,5.316-0.937c3.662-0.89,7.205-2.264,10.577-3.94
						c6.778-3.369,12.792-8.085,18.374-13.155c1.614-1.466,3.197-2.967,4.764-4.485c1.565-1.515,3.263-3.019,4.573-4.767
						c0.673-0.898-0.653-2.191-1.55-1.55c-1.898,1.356-3.532,3.153-5.225,4.753c-1.75,1.653-3.52,3.286-5.331,4.871
						c-3.519,3.081-7.197,5.989-11.153,8.494c-3.84,2.432-7.935,4.48-12.264,5.88c-2.206,0.714-4.47,1.271-6.764,1.615
						c-1.153,0.173-2.316,0.28-3.481,0.337c-0.352,0.017-0.7,0.019-1.044,0.028c0.816-11.778,2.926-23.558,7.225-34.58
						c1.983-5.083,4.496-9.963,7.552-14.454c2.058,1.467,4.87,1.958,7.291,2.265c3.084,0.392,6.222,0.478,9.328,0.485
						c6.287,0.013,12.574-0.56,18.764-1.653c12.316-2.176,24.228-6.551,35.004-12.902c3.165-1.865,6.194-3.934,9.166-6.092
						c3.147-2.284,6.477-4.511,9.339-7.15c0.813-0.75-0.22-1.812-1.098-1.423c-3.038,1.343-5.757,3.463-8.455,5.375
						c-2.625,1.86-5.272,3.684-8.018,5.362c-5.136,3.139-10.534,5.853-16.142,8.045c-11.278,4.409-23.228,6.965-35.342,7.312
						c-3.353,0.096-6.715,0.036-10.061-0.207c-1.659-0.121-3.312-0.304-4.926-0.719c-1.082-0.278-2.081-0.717-3.084-1.163
						c3.696-4.922,8.093-9.299,13.223-12.846c6.16-4.259,12.789-7.716,18.448-12.683c4.971-4.364,9.265-9.526,12.715-15.167
						c3.535-5.779,6.197-12.13,7.789-18.716c0.953-3.944,1.528-7.984,2.252-11.986c7.65,4.847,17.525,4.876,26.078,2.6
						c10.764-2.863,20.21-9.035,30.622-12.819c2.89-1.05,5.855-1.927,8.878-2.501c3.193-0.607,6.436-0.77,9.677-0.883
						c0.877-0.031,1.129-1.367,0.214-1.581c-5.253-1.225-10.848-0.236-15.949,1.256c-5.272,1.542-10.291,3.81-15.257,6.13
						c-9.304,4.347-18.942,9.106-29.468,8.875c-5.061-0.111-9.993-1.457-14.149-4.366c0.567-2.658,1.265-5.282,2.257-7.831
						c5.179-13.304,17.674-22.046,30.117-27.916c7.236-3.414,14.784-6.094,22.23-9.003c6.551-2.559,13.007-5.355,19.266-8.569
						c12.11-6.218,23.818-14.032,32.84-24.337c2.169-2.478,4.161-5.081,5.976-7.829C652.391,110.22,650.918,109.418,650.267,110.293
						z"/>
				</g>
				<g>
					<path style="fill:#D5F3FF;" d="M686.742,176.524c1.353-3.178,2.013-6.695,1.804-10.15c-0.417-6.879-4.191-13.118-9.874-16.958
						c-6.498-4.389-14.544-4.496-21.835-2.195c-8.088,2.553-14.939,7.588-22.151,11.87c-3.613,2.145-7.356,4.111-11.373,5.387
						c-4.397,1.396-8.985,1.999-13.555,2.493c-7.655,0.828-15.382,1.468-22.436,4.812c-6.035,2.861-11.197,7.676-12.848,14.329
						c-1.843,7.424,0.664,16.144-3.924,22.783c-3.919,5.671-11.378,7.601-17.72,9.036c-6.409,1.45-13.132,2.784-18.48,6.865
						c-2.383,1.818-4.305,4.143-5.412,6.948c-1.319,3.344-1.285,7.022-1.103,10.555c0.176,3.431,0.625,7.014-0.183,10.396
						c-0.845,3.535-3.265,6.101-6.666,7.315c-6.26,2.234-13.219,1.07-19.348,3.872c-5.465,2.499-9.556,7.458-11.664,13.011
						c-2.217,5.841-1.989,12.243,0.839,17.823c1.893,3.736,4.393,7.053,5.324,11.211c0.773,3.452,0.619,7.095-0.337,10.494
						c-1.02,3.625-2.969,6.891-5.709,9.477c-2.812,2.654-6.231,4.544-9.618,6.356c-6.315,3.378-13.32,6.968-16.71,13.656
						c-6.318,12.463,6.627,21.951,11.284,32.196c1.263,2.778,1.885,5.836,1.383,8.875c-0.639,3.86-2.59,7.335-4.113,10.888
						c-1.464,3.417-2.539,6.941-2.296,10.699c0.268,4.137,2.757,7.721,3.526,11.755c1.688,8.862,3.319,20.34,11.845,25.011
						c13.792,7.556,30.873,12.758,45.871,5.26c5.928-2.964,11.068-7.798,13.587-14.004c1.518-3.741,1.446-7.695,2.357-11.573
						c0.768-3.272,2.628-6.024,5.344-7.995c10.967-7.96,25.952-3.498,37.921-8.786c6.229-2.752,9.862-7.978,11.045-14.602
						c1.15-6.444,0.333-14.211,4.622-19.648c4.286-5.434,11.96-6.266,18.139-8.203c6.728-2.109,12.153-6.124,15.931-12.118
						c4.257-6.754,5.8-14.76,5.854-22.653c0.031-4.462-0.4-8.902-0.992-13.32c-0.49-3.663-1.094-7.582-0.106-11.216
						c1.124-4.135,4.491-5.84,7.982-7.774c3.239-1.795,6.157-4.168,8.559-6.988c2.253-2.644,4.056-5.629,5.341-8.856
						c1.341-3.368,2.476-7.446,0.52-10.806c-0.904-1.553-2.322-2.736-3.223-4.289c-1.006-1.732-1.193-3.748-0.838-5.695
						c0.733-4.02,3.325-7.177,6.232-9.886c2.739-2.553,5.732-4.862,8.03-7.848c2.238-2.908,3.654-6.312,4.351-9.905
						c1.554-8.003-0.201-15.91-2.095-23.686c-1.104-4.532-2.271-9.085-2.685-13.744c-0.38-4.273-0.161-8.349,2.953-11.586
						C682.769,182.629,685.2,180.146,686.742,176.524z"/>
					<path style="fill:#A5DDEF;" d="M679.03,173.621c-3.464,0.532-6.362,2.465-9.031,4.636c-3.124,2.54-6.027,5.366-9.046,8.029
						c-2.897,2.555-5.702,5.504-9.446,6.756c-1.818,0.608-3.714,0.996-5.599,1.332c-1.878,0.335-3.806,0.423-5.681,0.747
						c0.258-2.016,0.474-4.033,0.68-6.031c0.302-2.929,0.707-5.98,1.995-8.663c1.264-2.633,3.356-4.639,5.604-6.444
						c4.663-3.744,9.795-6.927,15.104-9.667c2.691-1.389,5.449-2.641,8.264-3.755c1.566-0.62,0.898-3.179-0.706-2.561
						c-5.703,2.197-11.189,4.898-16.359,8.161c-2.523,1.592-4.965,3.307-7.326,5.132c-2.165,1.674-4.235,3.467-5.811,5.727
						c-3.376,4.84-3.382,11.047-4.027,16.684c-0.626,5.472-1.625,10.979-3.664,16.117c-2.112,5.323-5.534,9.877-10.122,13.312
						c-2.427,1.817-5.04,3.354-7.718,4.779c-2.965-2.351-4.927-5.429-5.886-9.087c-1.02-3.892-1.41-7.962-2.034-11.931
						c-1.225-7.78-2.708-15.626-5.992-22.838c-1.628-3.576-4.123-7.359-8.444-7.572c-1.064-0.053-1.309,1.647-0.253,1.872
						c3.836,0.82,5.511,4.649,6.84,7.942c1.452,3.598,2.474,7.359,3.269,11.152c0.787,3.756,1.337,7.552,1.9,11.346
						c0.555,3.744,0.925,7.598,1.935,11.255c1.001,3.623,2.961,6.87,5.755,9.362c-1.448,0.727-2.901,1.44-4.344,2.158
						c-6.132,3.053-12.265,6.103-18.396,9.158c-5.42,2.7-10.867,5.444-15.736,9.078c-3.918,2.924-7.471,6.419-10.071,10.572
						c-0.069-0.014-0.138-0.027-0.207-0.03c-0.211-0.217-0.621-0.512-0.71-0.592c-0.302-0.274-0.6-0.552-0.896-0.833
						c-0.691-0.656-1.367-1.328-2.024-2.019c-1.221-1.285-2.382-2.633-3.42-4.071c-2.171-3.009-3.794-6.312-4.611-9.941
						c-0.834-3.704-1.089-7.673-3.245-10.926c-0.842-1.27-1.905-2.415-3.193-3.244c-1.313-0.845-2.951-1.025-4.482-0.907
						c-0.864,0.067-0.864,1.275,0,1.344c1.68,0.134,3.267,1.38,4.364,2.607c1.13,1.264,1.844,2.79,2.311,4.406
						c1.075,3.721,1.251,7.632,2.641,11.272c1.273,3.333,3.151,6.338,5.384,9.108c1.11,1.378,2.308,2.683,3.561,3.93
						c0.766,0.762,1.824,2.112,2.968,2.755c-2.268,4.748-2.916,9.772-2.494,15.039c0.457,5.702,1.938,11.76,0.26,17.389
						c-1.446,4.849-5.414,8.036-9.533,10.629c-0.323,0.203-0.648,0.402-0.973,0.602c-0.001-0.001-0.002-0.003-0.003-0.004
						c-0.654-0.64-1.381-0.824-2.225-1.092c-0.897-0.285-1.753-0.653-2.587-1.088c-1.694-0.883-3.275-1.979-4.766-3.169
						c-3.235-2.582-6.295-5.398-9.415-8.116c-3.399-2.962-6.799-5.924-10.196-8.888c-3.011-2.626-6.017-5.314-9.414-7.441
						c-3.546-2.221-8.388-4.455-12.679-3.663c-1.077,0.199-1.086,1.992,0,2.185c1.979,0.351,3.909,0.482,5.834,1.121
						c1.94,0.644,3.762,1.591,5.482,2.689c3.457,2.209,6.47,5.031,9.527,7.746c3.246,2.884,6.491,5.77,9.735,8.655
						c3.07,2.729,6.074,5.566,9.283,8.134c1.588,1.271,3.237,2.479,5.036,3.437c0.868,0.462,2.011,1.09,3.164,1.455
						c-2.938,1.78-5.839,3.595-8.47,5.862c-3.737,3.219-6.914,7.056-9.611,11.176c-5.644,8.623-9.181,18.48-12.205,28.272
						c-5.786,18.738-10.268,40.315-26.096,53.519c-1.868,1.559-3.89,2.918-6.007,4.115c-1.637,0.925-0.167,3.448,1.475,2.523
						c17.974-10.134,25.265-31.158,30.69-49.84c5.526-19.029,11.557-40.525,29.425-51.664c4.189-2.611,8.704-4.849,12.324-8.267
						c3.512-3.316,5.379-7.548,5.817-12.248c11.63,5.291,24.635,3.752,36.956,2.141c6.332-0.828,12.691-1.688,18.86-3.384
						c5.931-1.631,11.347-4.21,16.626-7.329c2.734-1.615,5.448-3.259,8.259-4.741c2.931-1.546,5.958-2.706,9.103-3.735
						c1.152-0.377,1.043-2.378-0.303-2.241c-5.542,0.565-10.627,3.46-15.352,6.225c-5.071,2.968-10.055,5.956-15.664,7.815
						c-5.946,1.971-12.157,3.007-18.351,3.837c-6.518,0.874-13.085,1.807-19.67,1.922c-6.876,0.12-13.88-0.784-20.076-3.93
						c-0.1-0.051-0.199-0.086-0.298-0.116c-0.174-5.236-1.408-10.416-1.127-15.673c0.292-5.467,2.773-10.572,6.268-14.714
						c3.792-4.493,8.644-7.864,13.728-10.742c2.679-1.516,5.416-2.932,8.171-4.314c0.004,0.003,0.007,0.007,0.012,0.01
						c4.867,3.378,10.564,5.196,16.172,6.931c2.886,0.893,5.791,1.687,8.798,2.043c3.071,0.364,6.157,0.1,9.212-0.283
						c6.138-0.769,12.368-1.581,18.198-3.744c5.091-1.888,9.673-4.814,14.126-7.876c5.123-3.524,10.167-7.137,15.848-9.73
						c1.171-0.534,0.332-2.57-0.885-2.099c-9.883,3.824-17.495,11.662-27.124,15.978c-5.457,2.446-11.47,3.411-17.358,4.176
						c-2.968,0.385-5.963,0.811-8.963,0.771c-3.01-0.04-5.908-0.733-8.78-1.585c-5.46-1.619-11.061-3.268-15.962-6.227
						c1.989-0.98,3.98-1.957,5.961-2.945c5.648-2.82,11.366-5.533,16.928-8.52c4.923-2.644,9.76-5.769,13.357-10.114
						c5.28-6.376,7.436-14.19,8.654-22.174c0.086,0.02,0.162,0.057,0.256,0.06c2.007,0.076,4.169-0.387,6.139-0.738
						c1.965-0.35,3.945-0.757,5.841-1.389c3.677-1.225,6.354-3.661,9.189-6.2c3.036-2.718,6.016-5.497,9.025-8.244
						c2.743-2.504,5.658-4.824,9.277-5.893C680.812,175.164,680.265,173.432,679.03,173.621z"/>
				</g>
				<g>
					<path style="fill:#A5DDEF;" d="M678.176,343.936c-2.657-3.148-6.856-6.133-7.819-10.349c-1.032-4.517,3.571-7.438,5.776-10.716
						c6.341-9.427-6.264-18.432-14.157-20.63c-5.486-1.527-11.089-0.946-16.597,0.139c-5.777,1.137-11.393,2.36-17.303,2.531
						c-11.073,0.321-22.321-1.442-33.266,0.928c-5.32,1.152-10.141,3.478-14.664,6.464c-4.38,2.892-8.492,6.193-13.056,8.803
						c-9.825,5.618-21.152,5.717-32.078,7.157c-9.661,1.273-21.336,3.888-26.372,13.252c-2.457,4.567-2.895,9.882-2.795,14.978
						c0.117,5.952,0.642,11.91,1.001,17.851l0.568,9.397c0.174,2.879,0.599,5.943-0.25,8.753c-1.4,4.637-5.931,7.522-9.842,9.892
						c-5.31,3.217-10.655,6.379-15.983,9.567c-4,2.394-8.843,4.86-10.869,9.327c-1.116,2.462-1.078,5.083-0.617,7.701
						c0.522,2.966,1.337,5.904,2.124,8.808c1.309,4.83,2.572,9.931,5.193,14.251c2.053,3.385,5.041,6.098,9.087,6.48
						c10.29,3.158,20.839,6.12,31.658,6.387c5.519,0.136,11.11-0.493,16.363-2.239c5.328-1.771,10.166-5.448,16.019-4.9
						c2.885,0.27,5.655,1.28,8.409,2.119c2.423,0.738,4.858,1.316,7.374,1.629c4.715,0.586,9.62,0.243,14.157-1.203
						c4.585-1.461,8.506-4.045,11.755-7.578c1.665-1.811,3.248-3.809,5.291-5.216c2.285-1.573,4.967-2.114,7.694-2.296
						c5.492-0.368,10.908-0.314,16.331-1.441c5.118-1.064,10.212-2.956,14.455-6.063c3.867-2.833,7.1-6.594,9.022-11.007
						c2.063-4.736,2.202-9.561,1.037-14.549c-0.654-2.801-1.572-5.586-1.749-8.474c-0.146-2.4,0.239-4.784,1.082-7.033
						c1.822-4.86,5.648-8.327,10.405-10.232c4.813-1.927,9.752-3.154,14.171-5.979c3.995-2.555,7.506-5.933,9.946-10.02
						C684.57,362.229,684.447,351.367,678.176,343.936z"/>
					<path style="fill:#D5F3FF;" d="M669.58,352.583c-1.349,1.082-2.656,2.037-4.302,2.631c-1.689,0.609-3.488,0.966-5.262,1.219
						c-4.078,0.579-8.313,0.441-12.35-0.362c-3.041-0.605-5.885-1.658-8.648-2.905c0.175-0.222,0.349-0.437,0.527-0.627
						c0.772-0.832,1.585-1.626,2.433-2.381c1.719-1.529,3.589-2.878,5.573-4.043c1.929-1.133,3.958-2.099,6.065-2.852
						c1.07-0.382,2.157-0.71,3.257-0.991c1.016-0.26,2.399-0.355,3.124-1.175c0.266-0.301,0.262-0.823-0.133-1.031
						c-0.971-0.51-2.184-0.16-3.209,0.069c-1.222,0.273-2.43,0.642-3.611,1.057c-2.286,0.803-4.499,1.821-6.586,3.054
						c-2.032,1.201-3.954,2.602-5.728,4.159c-0.943,0.828-1.843,1.704-2.694,2.626c-0.331,0.359-0.73,0.746-1.097,1.161
						c-3.371-1.644-6.66-3.493-10.081-5.084c-3.168-1.473-6.419-2.644-9.841-3.219c0.404-0.592,0.808-1.184,1.214-1.774
						c4.634-6.728,10.156-12.561,17.029-17.038c6.448-4.2,13.676-7.138,21.24-8.572c1.932-0.366,3.869-0.694,5.824-0.906
						c1.524-0.165,1.594-2.522,0-2.438c-15.041,0.792-29.7,8.147-39.902,19.138c-5.735,6.178-9.47,13.925-15.408,19.917
						c-3.706,3.739-8.1,6.756-12.883,8.926c-2.486-8.667,0.378-17.682,4.792-25.29c1.493-2.573,3.274-4.968,4.948-7.425
						c1.734,0.185,3.639-0.132,5.297-0.366c1.88-0.266,3.733-0.667,5.545-1.237c1.773-0.557,3.515-1.247,5.188-2.058
						c1.669-0.809,3.752-1.779,4.929-3.247c0.588-0.733,0.074-2.097-1.011-1.737c-1.714,0.569-3.264,1.772-4.876,2.601
						c-1.633,0.84-3.316,1.559-5.059,2.139c-1.736,0.578-3.512,1.045-5.312,1.375c-1.077,0.198-2.235,0.296-3.359,0.487
						c0.414-0.655,0.818-1.315,1.195-1.992c2.271-4.078,2.947-8.704,2.405-13.308c-0.177-1.505-2.484-1.594-2.422,0
						c0.196,5.024-0.731,9.518-3.512,13.75c-2.527,3.845-5.301,7.478-7.484,11.547c-4.213,7.854-6.608,17.148-3.958,25.874
						c-1.538,0.576-3.102,1.085-4.699,1.481c-4.582,1.135-9.296,1.538-13.963,2.167c-4.26,0.573-8.451,1.409-12.529,2.786
						c-7.689,2.596-14.825,6.727-20.883,12.129c-8.315,7.413-14.346,16.832-21.207,25.527c-0.768-0.266-1.545-0.433-2.306-0.407
						c-1.202,0.041-1.584,1.566-0.599,2.213c0.326,0.214,0.67,0.38,1.019,0.535c-2.482,3.013-5.101,5.907-7.997,8.557
						c-12.469,11.411-28.567,17.837-43.824,24.559c-0.989,0.436-2.017,1.013-3.087,1.217c-0.734,0.14-1.998-0.078-1.916-1.05
						c0.087-1.026-1.523-1.462-1.965-0.532c-0.725,1.521-0.174,3.378,1.344,4.202c1.98,1.074,4.197,0.06,6.055-0.76
						c4.058-1.791,8.12-3.573,12.162-5.399c7.748-3.499,15.438-7.219,22.563-11.883c7.024-4.597,13.192-10.129,18.538-16.597
						c0.287-0.347,0.565-0.701,0.849-1.051c0.719,0.4,1.421,0.832,2.08,1.324c1.799,1.344,3.372,3.028,4.742,4.801
						c2.979,3.857,4.796,8.287,7.238,12.456c2.621,4.476,7.275,7.361,11.453,10.244c4.301,2.967,8.85,5.639,13.794,7.384
						c2.99,1.055,6.089,1.66,9.24,1.978c3.132,0.316,6.689,0.628,9.773-0.112c0.866-0.208,0.846-1.513,0-1.733
						c-2.746-0.714-5.767-0.535-8.587-0.771c-2.806-0.235-5.575-0.707-8.267-1.547c-5.051-1.576-9.648-4.292-13.996-7.258
						c-4.326-2.952-8.982-5.841-11.508-10.574c-2.22-4.159-4.215-8.345-7.143-12.078c-1.508-1.923-3.205-3.667-5.163-5.134
						c-0.555-0.416-1.179-0.854-1.838-1.268c4.169-5.352,8.048-10.929,12.379-16.155c5.318-6.415,11.377-12.034,18.717-16.062
						c2.593-1.423,5.293-2.627,8.07-3.631c0.074,3.119,1.676,5.869,3.271,8.488c1.896,3.114,3.795,6.227,5.692,9.341
						c3.34,5.481,6.63,10.961,11.761,14.97c2.149,1.679,4.435,3.066,6.81,4.253c-0.503,1.769-0.487,3.836-0.462,5.537
						c0.037,2.512,0.383,5.057,1.038,7.483c1.33,4.924,3.71,9.433,7.601,12.779c0.741,0.637,2.134-0.224,1.46-1.127
						c-2.77-3.707-5.196-7.894-6.434-12.376c-0.611-2.212-0.988-4.465-1.081-6.758c-0.059-1.468,0.14-2.967,0.215-4.448
						c8.37,3.628,17.726,4.99,26.647,6.73c3.872,0.755,7.735,1.578,11.502,2.758c2.787,0.873,5.529,2.073,6.901,4.81
						c0.577,1.152,2.071,0.27,1.913-0.807c-0.373-2.543-2.507-4.273-4.695-5.338c-2.777-1.352-5.867-2.119-8.853-2.852
						c-6.755-1.658-13.662-2.58-20.438-4.144c-5.819-1.343-11.596-3.191-16.746-6.272c-5.195-3.108-8.865-7.415-12.06-12.438
						c0.526,0.12,1.047,0.333,1.503,0.481c0.972,0.316,1.959,0.587,2.952,0.826c1.861,0.447,3.748,0.754,5.654,0.935
						c3.897,0.37,7.815,0.167,11.668-0.51c3.824-0.672,7.572-1.864,11.064-3.565c1.712-0.834,3.363-1.794,4.931-2.874
						c1.448-0.997,3.706-2.309,4.28-4.047c0.298-0.903-0.622-1.63-1.451-1.451c-0.972,0.209-1.697,1.013-2.475,1.592
						c-0.815,0.606-1.639,1.201-2.491,1.756c-1.597,1.04-3.273,1.949-5.004,2.748c-3.523,1.626-7.308,2.707-11.145,3.265
						c-3.858,0.561-7.8,0.537-11.665,0.074c-1.927-0.23-3.787-0.647-5.674-1.078c-1.119-0.255-2.301-0.383-3.277,0.036
						c-1.878-3.057-3.732-6.129-5.597-9.194c-1.877-3.084-4.635-6.488-4.432-10.288c0.005-0.086-0.003-0.164-0.011-0.242
						c0.258-0.078,0.511-0.17,0.77-0.245c4.368-1.255,8.844-1.854,13.343-2.414c4.547-0.566,9.109-1.174,13.482-2.596
						c3.771-1.226,7.397-2.94,10.729-5.09c3.386-2.185,6.509-4.807,9.207-7.802c1.717-1.906,3.244-3.962,4.718-6.058
						c7.752,0.752,14.393,5.36,21.252,8.632c7.633,3.64,15.795,5.227,24.212,3.964c3.677-0.552,8.819-1.736,10.591-5.459
						C671.653,352.74,670.47,351.869,669.58,352.583z"/>
				</g>
				<g>
					<path style="fill:#3C6EA5;" d="M620.026,278.165c-19.736,0.074-39.79,0.31-59.052,5.111
						c-9.562,2.383-18.825,5.977-27.29,11.048c-4.585,2.747-8.941,5.852-13.246,9.014c-4.292,3.152-8.588,6.304-12.768,9.602
						c-7.832,6.179-14.836,13.115-20.859,21.077c-5.845,7.726-10.747,16.125-15.06,24.789c-9.111,18.303-15.52,37.761-23.503,56.55
						c-2.073,4.88-4.255,9.715-6.614,14.463c-1.162,2.339-2.367,4.656-3.623,6.946c-1.242,2.265-2.732,4.461-3.72,6.853
						c-0.846,2.048-1.123,4.319-0.032,6.339c0.832,1.54,2.335,2.549,3.92,3.192c1.736,0.703,3.604,0.992,5.458,1.175
						c2.734,0.27,5.474,0.486,8.21,0.728c2.795,0.247,5.589,0.499,8.384,0.742c0.231,0.02,0.424-0.022,0.586-0.098
						c13.977,3.063,28.953,3.283,42.418-1.871c7.425-2.842,13.979-7.304,19.558-12.95c5.714-5.783,10.382-12.504,14.789-19.306
						c5.105-7.88,10.092-15.839,15.13-23.762c4.877-7.669,9.467-15.346,12.811-23.826c3.271-8.295,5.988-16.757,10.331-24.586
						c4.009-7.227,8.888-13.926,13.915-20.469c5.016-6.529,10.202-12.93,14.945-19.663c5.159-7.325,9.446-15.072,13.217-23.191
						c0.971-2.09,2.092-4.109,3.076-6.193C621.367,279.12,620.947,278.161,620.026,278.165z"/>
					<path style="fill:#A5DDEF;" d="M611.362,282.409c-8.369,3.974-16.783,7.769-25.545,10.808
						c-8.254,2.862-16.701,5.139-24.915,8.12c-7.969,2.892-15.603,6.53-22.465,11.547c-6.597,4.824-12.454,10.564-17.841,16.691
						c-3.809,4.332-7.441,8.836-10.956,13.422c-0.768-1.939-1.506-3.83-1.889-5.949c-0.483-2.674-0.518-5.466-0.152-8.158
						c0.359-2.634,1.108-5.298,2.228-7.711c1.133-2.441,2.672-5.443,5.078-6.83c1.008-0.581,0.124-1.973-0.891-1.525
						c-2.779,1.227-4.743,4.185-6.15,6.767c-1.546,2.84-2.573,5.924-3.037,9.123c-0.46,3.167-0.428,6.344,0.121,9.499
						c0.272,1.564,0.689,3.099,1.248,4.585c0.305,0.811,0.671,2.138,1.355,2.95c-0.938,1.251-1.877,2.501-2.798,3.762
						c-5.268,7.21-10.092,14.723-14.116,22.702c-5.967,11.831-10.551,24.439-17.108,35.956c-2.16-1.598-3.225-3.901-3.905-6.454
						c-0.775-2.912-1.313-5.884-1.702-8.871c-0.687-5.268-1.346-11.275,1.297-16.115c0.32-0.586-0.46-1.236-0.945-0.729
						c-1.942,2.031-2.647,4.814-2.913,7.542c-0.32,3.286-0.164,6.661,0.144,9.941c0.315,3.358,0.857,6.787,1.783,10.034
						c0.834,2.925,2.353,5.322,4.771,7.157c-1.435,2.371-2.956,4.694-4.616,6.941c-4.791,6.483-10.544,12.358-16.957,17.246
						c-3.147,2.399-6.472,4.507-9.864,6.537c-3.2,1.916-6.44,3.881-9.119,6.506c-1.317,1.29-2.456,2.74-3.381,4.335
						c-0.942,1.624,1.524,3.053,2.509,1.467c4.001-6.44,11.589-9.502,17.602-13.665c1.83-1.268,3.611-2.606,5.347-4
						c0.05,0.033,0.093,0.069,0.15,0.099c10.795,5.724,23.387,5.943,35.1,3.331c5.983-1.334,11.949-3.248,17.529-5.795
						c5.157-2.354,9.6-5.792,13.917-9.418c2.302-1.934,4.57-3.911,6.936-5.768c2.501-1.963,5.194-3.568,7.805-5.358
						c0.878-0.602,0.365-2.263-0.777-1.842c-4.824,1.779-9.009,5.57-12.902,8.823c-4.099,3.425-8.168,6.946-12.856,9.556
						c-5.186,2.887-11.041,4.731-16.771,6.197c-5.767,1.476-11.707,2.322-17.668,2.132c-6.121-0.195-12.21-1.542-17.708-4.262
						c3.43-2.98,6.647-6.203,9.588-9.668c9.743-11.48,15.532-25.145,21.565-38.732c4.207,2.346,8.938,3.309,13.633,4.177
						c5.284,0.977,10.668,1.986,16.067,1.677c5.132-0.294,10.091-1.787,14.821-3.733c4.86-1.999,9.775-4.204,14.022-7.333
						c2.352-1.733,4.586-3.6,7.083-5.13c2.551-1.563,5.252-2.84,7.898-4.228c1.421-0.745,0.174-2.754-1.238-2.118
						c-4.578,2.062-8.873,4.488-12.859,7.547c-4.06,3.116-8.335,5.494-13.004,7.58c-4.509,2.014-9.228,3.782-14.154,4.405
						c-5.186,0.656-10.397-0.111-15.493-1.074c-5.286-0.999-10.802-1.859-15.481-4.672c0.396-0.882,0.793-1.762,1.195-2.642
						c7.272-15.919,17.146-30.377,28.206-43.901c3.185-3.895,6.51-7.693,10.052-11.271c8.924,4.908,19.472,6.105,29.492,5.466
						c9.916-0.632,20.526-2.438,27.953-9.555c3.973-3.807,7.121-8.409,11.355-11.953c0.464-0.388-0.164-1.218-0.653-0.847
						c-3.638,2.761-6.653,6.166-9.896,9.356c-3.526,3.468-7.308,6.26-12.067,7.782c-4.669,1.493-9.664,2.199-14.539,2.59
						c-4.885,0.393-9.798,0.284-14.655-0.393c-5.212-0.727-10.143-2.269-14.86-4.543c1.535-1.473,3.11-2.905,4.735-4.281
						c6.473-5.48,13.702-9.793,21.551-12.995c8.005-3.265,16.345-5.584,24.564-8.231c8.505-2.739,16.941-5.918,24.97-9.855
						c2.062-1.011,4.097-2.056,6.101-3.175C613.325,283.407,612.411,281.911,611.362,282.409z"/>
				</g>
			</g>
		</g>
		<g>
			<g>
				<path style="fill:#9B72B0;" d="M501.973,462.38H284.408c-9.941,0-18-8.059-18-18V53.075c0-9.941,8.059-18,18-18h217.565
					c9.941,0,18,8.059,18,18V444.38C519.973,454.321,511.914,462.38,501.973,462.38z"/>
				<g>
					<path style="fill:#AF8FBF;" d="M483.973,462.38H266.408c-9.941,0-18-8.059-18-18V53.075c0-9.941,8.059-18,18-18h217.565
						c9.941,0,18,8.059,18,18V444.38C501.973,454.321,493.914,462.38,483.973,462.38z"/>
					<g>
						<path style="fill:#D7C7DF;" d="M413.008,54.901h-75.634c-3.53,0-6.391-2.861-6.391-6.391l0,0c0-3.53,2.861-6.391,6.391-6.391
							h75.634c3.53,0,6.391,2.861,6.391,6.391l0,0C419.399,52.04,416.537,54.901,413.008,54.901z"/>
						<g>
							<path style="fill:#9B72B0;" d="M407.89,50.597h-19.225c-1.027,0-1.861-0.833-1.861-1.861v-0.453
								c0-1.028,0.833-1.861,1.861-1.861h19.225c1.028,0,1.861,0.833,1.861,1.861v0.453C409.75,49.764,408.917,50.597,407.89,50.597
								z"/>
							<path style="fill:#9B72B0;" d="M361.716,50.597h-19.225c-1.027,0-1.861-0.833-1.861-1.861v-0.453
								c0-1.028,0.833-1.861,1.861-1.861h19.225c1.028,0,1.861,0.833,1.861,1.861v0.453
								C363.577,49.764,362.744,50.597,361.716,50.597z"/>
							
								<ellipse transform="matrix(0.3827 -0.9239 0.9239 0.3827 186.794 376.5769)" style="fill:#9B72B0;" cx="375.19" cy="48.51" rx="4.043" ry="4.044"/>
						</g>
					</g>
					<g>
						<circle style="fill:#D7C7DF;" cx="375.19" cy="444.942" r="12"/>
						<path style="fill:#D7C7DF;" d="M443.67,439.95h-37.788c-2.757,0-4.992,2.235-4.992,4.992l0,0c0,2.757,2.235,4.992,4.992,4.992
							h37.788c2.757,0,4.992-2.235,4.992-4.992l0,0C448.662,442.185,446.427,439.95,443.67,439.95z"/>
						<path style="fill:#D7C7DF;" d="M306.71,439.95h37.788c2.757,0,4.992,2.235,4.992,4.992l0,0c0,2.757-2.235,4.992-4.992,4.992
							H306.71c-2.757,0-4.992-2.235-4.992-4.992l0,0C301.718,442.185,303.953,439.95,306.71,439.95z"/>
					</g>
				</g>
				<g>
					<path style="fill:#D7C7DF;" d="M468.698,429.727H281.682c-8.545,0-15.473-6.927-15.473-15.473V77.896
						c0-8.545,6.927-15.472,15.473-15.472h187.016c8.545,0,15.472,6.927,15.472,15.472v336.359
						C484.171,422.8,477.243,429.727,468.698,429.727z"/>
					<path style="fill:#BDA1CA;" d="M474.267,150.956c-5.62,4.111-10.023,9.265-13.938,14.983
						c-3.741,5.463-7.119,11.272-11.722,16.079c-2.156,2.252-4.569,4.225-7.34,5.673c-3.746,1.957-7.97,2.423-11.916,3.819
						c-5.416,1.915-9.892,5.544-13.483,9.97c-7.417,9.145-11.435,20.656-19.445,29.353c-4.348,4.721-9.81,7.38-15.401,10.327
						c-5.841,3.079-11.182,6.856-13.326,13.389c-1.285,3.913-1.628,8.083-4.199,11.462c-2.342,3.078-5.682,5.429-8.803,7.645
						c-6.591,4.681-13.677,8.242-20.942,11.723c-6.128,2.937-12.417,6.425-16.089,12.376c-2.045,3.315-3.039,7.149-5.096,10.466
						c-1.542,2.486-3.493,4.674-5.689,6.6c-9.367,8.215-22.087,11.508-32.983,17.113c-2.667,1.372-5.245,2.904-7.685,4.622v77.699
						c0,8.545,6.927,15.472,15.473,15.472h187.016c8.545,0,15.472-6.927,15.472-15.472V145.27
						C480.686,146.804,477.355,148.697,474.267,150.956z"/>
				</g>
			</g>
			<g>
				<g>
					<g>
						<path style="fill:#FDFBCC;" d="M278.408,65.075H108.842c-8.5,0-15.391,6.891-15.391,15.391v115.304
							c0,8.5,6.891,15.391,15.391,15.391h111.973c7.328,0,14.486,2.207,20.542,6.332l31.436,21.416
							c2.569,1.75,5.882-0.794,4.854-3.728l-6.411-18.296c-0.98-2.797,1.096-5.724,4.06-5.724h3.112
							c8.5,0,15.391-6.891,15.391-15.391V80.467C293.799,71.966,286.908,65.075,278.408,65.075z"/>
						<path style="fill:#FAF37A;" d="M278.408,65.075h-4.362L110.581,211.162h110.235c7.328,0,14.486,2.207,20.542,6.332
							l31.436,21.415c2.569,1.75,5.882-0.794,4.854-3.728l-6.411-18.296c-0.98-2.797,1.096-5.724,4.06-5.724h3.112
							c8.5,0,15.391-6.891,15.391-15.391V80.467C293.799,71.966,286.908,65.075,278.408,65.075z"/>
					</g>
					<g>
						
							<ellipse transform="matrix(0.2055 -0.9787 0.9787 0.2055 19.332 298.6998)" style="fill:#D5F3FF;" cx="193.625" cy="137.444" rx="64.608" ry="64.608"/>
						<g>
							<path style="fill:#3F79C5;" d="M154.16,86.292c-13.025,10.064-22.099,24.991-24.503,42.061l63.968,9.091L154.16,86.292z"/>
							<path style="fill:#D95574;" d="M129.657,128.353c-0.418,2.971-0.64,6.005-0.64,9.091c0,5.406,0.668,10.655,1.919,15.674
								l62.689-15.674L129.657,128.353z"/>
							<path style="fill:#FC9769;" d="M130.936,153.118c1.66,6.659,4.352,12.909,7.898,18.57l54.791-34.244L130.936,153.118z"/>
							<path style="fill:#7A4495;" d="M256.03,120.674c-5.799-21.635-22.547-38.787-43.943-45.157l-18.462,61.926L256.03,120.674z"
								/>
							<path style="fill:#FFC564;" d="M228.696,191.711c17.774-11.511,29.537-31.514,29.537-54.267
								c0-5.801-0.769-11.421-2.203-16.77l-62.405,16.77L228.696,191.711z"/>
							<path style="fill:#81BBC1;" d="M138.834,171.688c11.421,18.235,31.688,30.364,54.791,30.364c12.93,0,24.97-3.8,35.071-10.341
								l-35.071-54.267L138.834,171.688z"/>
						</g>
					</g>
				</g>
				<g>
					<g>
						<path style="fill:#FDFBCC;" d="M535.299,260.206h-74.87c-5.583,0-10.109,4.526-10.109,10.109v37.957
							c0,5.583,4.526,10.109,10.109,10.109l0,0c1.288,0,2.238,1.203,1.94,2.456l-5.333,22.396c-0.445,1.867,1.873,3.115,3.187,1.716
							l20.844-22.188c2.626-2.795,6.29-4.38,10.125-4.38h44.107c5.583,0,10.109-4.526,10.109-10.109v-37.956
							C545.408,264.731,540.882,260.206,535.299,260.206z"/>
						<path style="fill:#FAF37A;" d="M535.299,260.206h-7.974l-73.145,56.001c1.721,1.357,3.888,2.173,6.249,2.173
							c1.288,0,2.238,1.203,1.94,2.456l-5.333,22.396c-0.445,1.867,1.873,3.115,3.187,1.716l20.844-22.189
							c2.626-2.795,6.29-4.38,10.125-4.38h44.107c5.583,0,10.109-4.526,10.109-10.109v-37.956
							C545.408,264.732,540.882,260.206,535.299,260.206z"/>
					</g>
					<g>
						
							<ellipse transform="matrix(0.9135 -0.4068 0.4068 0.9135 -74.365 227.5191)" style="fill:#D5F3FF;" cx="497.864" cy="288.64" rx="24.978" ry="24.978"/>
						<g>
							<path style="fill:#FFC564;" d="M485.255,267.076c-7.399,4.336-12.369,12.369-12.369,21.565h24.978L485.255,267.076z"/>
							<path style="fill:#7A4495;" d="M472.886,288.64c0,11.374,7.602,20.97,18.002,23.99l6.977-23.99H472.886z"/>
							<path style="fill:#D95574;" d="M490.888,312.63c2.214,0.643,4.555,0.989,6.977,0.989c9.403,0,17.591-5.197,21.852-12.873
								l-21.852-12.105L490.888,312.63z"/>
							<path style="fill:#FC9769;" d="M519.717,300.745c1.991-3.586,3.126-7.713,3.126-12.105h-24.978L519.717,300.745z"/>
						</g>
					</g>
				</g>
				<g>
					<g>
						<path style="fill:#FDFBCC;" d="M604.495,249.745H322.234c-7.348,0-13.304-5.957-13.304-13.304V102.38
							c0-7.348,5.957-13.304,13.304-13.304h282.261c7.348,0,13.304,5.957,13.304,13.304V236.44
							C617.799,243.788,611.842,249.745,604.495,249.745z"/>
						<path style="fill:#FAF37A;" d="M604.495,89.075h-50.529L308.93,220.535v15.906c0,7.348,5.957,13.304,13.304,13.304h282.261
							c7.348,0,13.304-5.957,13.304-13.304V102.38C617.799,95.032,611.842,89.075,604.495,89.075z"/>
					</g>
					<g>
						<g>
							<polyline style="fill:none;stroke:#7A4495;stroke-linecap:round;stroke-linejoin:round;stroke-miterlimit:10;" points="
								315.721,129.953 344.4,96.785 376.544,128.592 389.921,133.571 408.641,168.944 432.115,140.718 451.584,138.065 
								482.79,112.784 494.527,121.399 536.044,142.578 552.744,119.963 572.914,117.502 593.084,93.503 							"/>
							<polyline style="fill:none;stroke:#303270;stroke-linecap:round;stroke-linejoin:round;stroke-miterlimit:10;" points="
								317.811,101.092 352.694,111.759 389.171,111.759 434.859,151.347 442.593,149.501 466.212,102.938 517.862,101.913 
								533.465,126.252 556.249,126.252 570.719,107.041 602.803,107.041 							"/>
						</g>
						<g>
							
								<line style="fill:none;stroke:#FA6886;stroke-linecap:round;stroke-linejoin:round;stroke-miterlimit:10;" x1="327.991" y1="147.013" x2="327.991" y2="205.636"/>
							
								<line style="fill:none;stroke:#52328D;stroke-linecap:round;stroke-linejoin:round;stroke-miterlimit:10;" x1="344.4" y1="126.524" x2="344.4" y2="185.147"/>
							
								<line style="fill:none;stroke:#52328D;stroke-linecap:round;stroke-linejoin:round;stroke-miterlimit:10;" x1="360.809" y1="147.013" x2="360.809" y2="194.979"/>
							
								<line style="fill:none;stroke:#FA6886;stroke-linecap:round;stroke-linejoin:round;stroke-miterlimit:10;" x1="377.217" y1="150.906" x2="377.217" y2="197.845"/>
							
								<line style="fill:none;stroke:#FA6886;stroke-linecap:round;stroke-linejoin:round;stroke-miterlimit:10;" x1="393.626" y1="167.502" x2="393.626" y2="226.125"/>
							
								<line style="fill:none;stroke:#52328D;stroke-linecap:round;stroke-linejoin:round;stroke-miterlimit:10;" x1="410.035" y1="195.273" x2="410.035" y2="245.317"/>
							
								<line style="fill:none;stroke:#FA6886;stroke-linecap:round;stroke-linejoin:round;stroke-miterlimit:10;" x1="426.444" y1="172.921" x2="426.444" y2="231.544"/>
							
								<line style="fill:none;stroke:#52328D;stroke-linecap:round;stroke-linejoin:round;stroke-miterlimit:10;" x1="442.853" y1="181.55" x2="442.853" y2="234.107"/>
							
								<line style="fill:none;stroke:#FA6886;stroke-linecap:round;stroke-linejoin:round;stroke-miterlimit:10;" x1="459.262" y1="157.701" x2="459.262" y2="212.104"/>
							
								<line style="fill:none;stroke:#FA6886;stroke-linecap:round;stroke-linejoin:round;stroke-miterlimit:10;" x1="475.671" y1="148.79" x2="475.671" y2="207.414"/>
							
								<line style="fill:none;stroke:#52328D;stroke-linecap:round;stroke-linejoin:round;stroke-miterlimit:10;" x1="492.08" y1="164.633" x2="492.08" y2="223.256"/>
							
								<line style="fill:none;stroke:#52328D;stroke-linecap:round;stroke-linejoin:round;stroke-miterlimit:10;" x1="508.489" y1="142.701" x2="508.489" y2="201.324"/>
							
								<line style="fill:none;stroke:#52328D;stroke-linecap:round;stroke-linejoin:round;stroke-miterlimit:10;" x1="524.898" y1="154.814" x2="524.898" y2="213.437"/>
							
								<line style="fill:none;stroke:#FA6886;stroke-linecap:round;stroke-linejoin:round;stroke-miterlimit:10;" x1="541.307" y1="163.276" x2="541.307" y2="221.9"/>
							
								<line style="fill:none;stroke:#FA6886;stroke-linecap:round;stroke-linejoin:round;stroke-miterlimit:10;" x1="557.716" y1="157.367" x2="557.716" y2="196.271"/>
							
								<line style="fill:none;stroke:#52328D;stroke-linecap:round;stroke-linejoin:round;stroke-miterlimit:10;" x1="574.124" y1="139.048" x2="574.124" y2="187.825"/>
							
								<line style="fill:none;stroke:#52328D;stroke-linecap:round;stroke-linejoin:round;stroke-miterlimit:10;" x1="590.533" y1="138.676" x2="590.533" y2="197.299"/>
							
								<line style="fill:none;stroke:#FA6886;stroke-linecap:round;stroke-linejoin:round;stroke-miterlimit:10;" x1="606.942" y1="117.997" x2="606.942" y2="169.764"/>
							<path style="fill:#FA6886;" d="M331.616,196.814h-7.251c-0.243,0-0.44-0.197-0.44-0.44v-40.098c0-0.243,0.197-0.44,0.44-0.44
								h7.251c0.243,0,0.44,0.197,0.44,0.44v40.098C332.056,196.617,331.859,196.814,331.616,196.814z"/>
							<path style="fill:#7A4495;" d="M348.087,170.996h-7.374c-0.209,0-0.379-0.17-0.379-0.379v-29.564
								c0-0.209,0.17-0.379,0.379-0.379h7.374c0.209,0,0.379,0.169,0.379,0.379v29.564
								C348.465,170.826,348.296,170.996,348.087,170.996z"/>
							<path style="fill:#7A4495;" d="M364.495,186.156h-7.374c-0.209,0-0.379-0.17-0.379-0.379v-29.564
								c0-0.209,0.17-0.379,0.379-0.379h7.374c0.209,0,0.379,0.169,0.379,0.379v29.564
								C364.874,185.987,364.705,186.156,364.495,186.156z"/>
							<path style="fill:#FA6886;" d="M380.91,189.118h-7.384c-0.206,0-0.374-0.167-0.374-0.374v-28.738
								c0-0.206,0.167-0.373,0.374-0.373h7.384c0.206,0,0.374,0.167,0.374,0.373v28.738
								C381.283,188.951,381.116,189.118,380.91,189.118z"/>
							<path style="fill:#FA6886;" d="M397.266,215.98h-7.28c-0.235,0-0.426-0.191-0.426-0.426v-37.48
								c0-0.235,0.191-0.426,0.426-0.426h7.28c0.235,0,0.426,0.191,0.426,0.426v37.48
								C397.692,215.789,397.501,215.98,397.266,215.98z"/>
							<path style="fill:#7A4495;" d="M413.722,235.456h-7.374c-0.209,0-0.379-0.17-0.379-0.379v-29.564
								c0-0.209,0.17-0.379,0.379-0.379h7.374c0.209,0,0.379,0.169,0.379,0.379v29.564
								C414.101,235.286,413.931,235.456,413.722,235.456z"/>
							<path style="fill:#FA6886;" d="M430.096,220.34h-7.303c-0.229,0-0.414-0.185-0.414-0.414v-35.387
								c0-0.229,0.185-0.414,0.414-0.414h7.303c0.229,0,0.414,0.185,0.414,0.414v35.387
								C430.51,220.155,430.325,220.34,430.096,220.34z"/>
							<path style="fill:#7A4495;" d="M446.54,222.989h-7.374c-0.209,0-0.379-0.17-0.379-0.379v-29.564
								c0-0.209,0.17-0.379,0.379-0.379h7.374c0.209,0,0.379,0.17,0.379,0.379v29.564
								C446.919,222.819,446.749,222.989,446.54,222.989z"/>
							<path style="fill:#FA6886;" d="M462.949,200.063h-7.374c-0.209,0-0.379-0.17-0.379-0.379V170.12
								c0-0.209,0.17-0.379,0.379-0.379h7.374c0.209,0,0.379,0.169,0.379,0.379v29.564
								C463.328,199.893,463.158,200.063,462.949,200.063z"/>
							<path style="fill:#FA6886;" d="M479.31,197.366h-7.277c-0.236,0-0.427-0.191-0.427-0.427v-37.673
								c0-0.236,0.191-0.427,0.427-0.427h7.277c0.236,0,0.427,0.191,0.427,0.427v37.673
								C479.737,197.174,479.546,197.366,479.31,197.366z"/>
							<path style="fill:#7A4495;" d="M495.711,213.931h-7.262c-0.24,0-0.435-0.195-0.435-0.435v-39.105
								c0-0.24,0.195-0.435,0.435-0.435h7.262c0.24,0,0.435,0.195,0.435,0.435v39.105
								C496.145,213.737,495.951,213.931,495.711,213.931z"/>
							<path style="fill:#7A4495;" d="M512.176,187.173h-7.374c-0.209,0-0.379-0.17-0.379-0.379v-29.564
								c0-0.209,0.169-0.379,0.379-0.379h7.374c0.209,0,0.379,0.17,0.379,0.379v29.564
								C512.554,187.004,512.385,187.173,512.176,187.173z"/>
							<path style="fill:#7A4495;" d="M528.536,203.4h-7.277c-0.236,0-0.427-0.191-0.427-0.427v-37.695
								c0-0.236,0.191-0.427,0.427-0.427h7.277c0.236,0,0.427,0.191,0.427,0.427v37.695
								C528.963,203.209,528.772,203.4,528.536,203.4z"/>
							<path style="fill:#FA6886;" d="M544.94,212.327h-7.267c-0.239,0-0.432-0.194-0.432-0.432v-38.613
								c0-0.239,0.193-0.432,0.432-0.432h7.267c0.239,0,0.432,0.193,0.432,0.432v38.613
								C545.372,212.133,545.179,212.327,544.94,212.327z"/>
							<path style="fill:#FA6886;" d="M603.253,158.838h7.379c0.208,0,0.376-0.168,0.376-0.376v-29.164
								c0-0.208-0.168-0.376-0.376-0.376h-7.379c-0.208,0-0.376,0.168-0.376,0.376v29.164
								C602.877,158.67,603.045,158.838,603.253,158.838z"/>
							<path style="fill:#7A4495;" d="M586.894,187.173h7.279c0.235,0,0.426-0.191,0.426-0.426v-37.519
								c0-0.235-0.191-0.426-0.426-0.426h-7.279c-0.235,0-0.426,0.191-0.426,0.426v37.519
								C586.468,186.983,586.659,187.173,586.894,187.173z"/>
							<path style="fill:#7A4495;" d="M570.436,178.498h7.376c0.208,0,0.378-0.169,0.378-0.377v-29.369
								c0-0.209-0.169-0.378-0.378-0.378h-7.376c-0.208,0-0.378,0.169-0.378,0.378v29.369
								C570.059,178.329,570.228,178.498,570.436,178.498z"/>
							<path style="fill:#FA6886;" d="M553.987,188.839h7.457c0.186,0,0.337-0.151,0.337-0.337v-23.366
								c0-0.186-0.151-0.337-0.337-0.337h-7.457c-0.186,0-0.337,0.151-0.337,0.337v23.366
								C553.65,188.688,553.801,188.839,553.987,188.839z"/>
						</g>
					</g>
				</g>
				<g>
					<g>
						<path style="fill:#FDFBCC;" d="M403.103,382.293H189.19c-7.06,0-12.783-5.723-12.783-12.783v-96.522
							c0-7.06,5.723-12.783,12.783-12.783h213.913c7.06,0,12.783,5.723,12.783,12.783v96.522
							C415.886,376.57,410.163,382.293,403.103,382.293z"/>
						<path style="fill:#FAF37A;" d="M403.103,260.206h-32.694l-194.001,93.08v16.224c0,7.06,5.723,12.783,12.783,12.783h213.913
							c7.06,0,12.783-5.723,12.783-12.783v-96.522C415.886,265.929,410.163,260.206,403.103,260.206z"/>
					</g>
					<g>
						<polyline style="fill:none;stroke:#7A4495;stroke-linecap:round;stroke-linejoin:round;stroke-miterlimit:10;" points="
							185.408,301.358 203.016,301.358 222.973,342.053 265.234,342.053 300.451,309.771 371.473,309.771 399.06,334.619 
							405.97,334.619 						"/>
						<g>
							<polyline style="fill:none;stroke:#303270;stroke-linecap:round;stroke-linejoin:round;stroke-miterlimit:10;" points="
								185.408,332.858 221.799,313.619 260.538,357.51 296.147,326.988 334.886,321.249 352.495,301.13 399.843,294.693 
								405.97,277.858 							"/>
							<path style="fill:#303270;" d="M220.071,313.619c0-0.954,0.774-1.728,1.728-1.728c0.954,0,1.728,0.774,1.728,1.728
								s-0.774,1.728-1.728,1.728C220.845,315.347,220.071,314.573,220.071,313.619z"/>
							<path style="fill:#303270;" d="M258.712,357.51c0-0.954,0.774-1.728,1.728-1.728s1.728,0.774,1.728,1.728
								s-0.774,1.728-1.728,1.728S258.712,358.465,258.712,357.51z"/>
							<path style="fill:#303270;" d="M294.419,327.135c0-0.954,0.774-1.728,1.728-1.728s1.728,0.774,1.728,1.728
								s-0.774,1.728-1.728,1.728S294.419,328.09,294.419,327.135z"/>
							<path style="fill:#303270;" d="M333.223,321.249c0-0.954,0.774-1.728,1.728-1.728s1.728,0.774,1.728,1.728
								s-0.774,1.728-1.728,1.728S333.223,322.204,333.223,321.249z"/>
							<path style="fill:#303270;" d="M350.808,301.032c0-0.954,0.774-1.728,1.728-1.728c0.954,0,1.728,0.774,1.728,1.728
								s-0.774,1.728-1.728,1.728C351.582,302.76,350.808,301.986,350.808,301.032z"/>
							<path style="fill:#303270;" d="M398.091,294.706c0-0.954,0.774-1.728,1.728-1.728s1.728,0.774,1.728,1.728
								c0,0.955-0.774,1.728-1.728,1.728S398.091,295.66,398.091,294.706z"/>
						</g>
						<g>
							<path style="fill:#52328D;" d="M341.629,374.794l7.055-10.812c0.374-0.572-0.037-1.331-0.721-1.331h-1.928
								c-0.475,0-0.861-0.385-0.861-0.861V337.24c0-0.475-0.385-0.861-0.861-0.861h-6.811c-0.475,0-0.861,0.385-0.861,0.861v24.549
								c0,0.475-0.385,0.861-0.861,0.861h-1.928c-0.684,0-1.095,0.759-0.721,1.331l7.055,10.812
								C340.527,375.314,341.289,375.314,341.629,374.794z"/>
							<path style="fill:#52328D;" d="M363.698,374.794l7.055-10.812c0.374-0.572-0.037-1.331-0.721-1.331h-1.928
								c-0.475,0-0.861-0.385-0.861-0.861v-17.376c0-0.475-0.385-0.861-0.861-0.861h-6.811c-0.475,0-0.861,0.385-0.861,0.861v17.376
								c0,0.475-0.385,0.861-0.861,0.861h-1.928c-0.684,0-1.094,0.759-0.721,1.331l7.055,10.812
								C362.596,375.314,363.359,375.314,363.698,374.794z"/>
							<path style="fill:#52328D;" d="M385.767,374.794l7.055-10.812c0.374-0.572-0.037-1.331-0.721-1.331h-1.928
								c-0.475,0-0.861-0.385-0.861-0.861v-10.756c0-0.475-0.385-0.861-0.861-0.861h-6.811c-0.475,0-0.861,0.385-0.861,0.861v10.756
								c0,0.475-0.385,0.861-0.861,0.861h-1.928c-0.684,0-1.094,0.759-0.721,1.331l7.055,10.812
								C384.665,375.314,385.428,375.314,385.767,374.794z"/>
						</g>
						<g>
							<path style="fill:#52328D;" d="M244.876,266.661l-7.055,10.812c-0.374,0.573,0.037,1.331,0.721,1.331h1.928
								c0.475,0,0.861,0.385,0.861,0.861v24.549c0,0.475,0.385,0.861,0.861,0.861h6.811c0.475,0,0.861-0.385,0.861-0.861v-24.549
								c0-0.475,0.385-0.861,0.861-0.861h1.928c0.684,0,1.094-0.759,0.721-1.331l-7.055-10.812
								C245.978,266.141,245.215,266.141,244.876,266.661z"/>
							<path style="fill:#52328D;" d="M222.807,266.661l-7.055,10.812c-0.374,0.573,0.037,1.331,0.721,1.331h1.928
								c0.475,0,0.861,0.385,0.861,0.861v17.376c0,0.475,0.385,0.861,0.861,0.861h6.811c0.475,0,0.861-0.385,0.861-0.861v-17.376
								c0-0.475,0.385-0.861,0.861-0.861h1.928c0.684,0,1.094-0.759,0.721-1.331l-7.055-10.812
								C223.909,266.141,223.146,266.141,222.807,266.661z"/>
							<path style="fill:#52328D;" d="M200.737,266.661l-7.055,10.812c-0.374,0.573,0.037,1.331,0.721,1.331h1.928
								c0.475,0,0.861,0.385,0.861,0.861v10.756c0,0.475,0.385,0.861,0.861,0.861h6.811c0.475,0,0.861-0.385,0.861-0.861v-10.756
								c0-0.475,0.385-0.861,0.861-0.861h1.928c0.684,0,1.094-0.759,0.721-1.331l-7.055-10.812
								C201.839,266.141,201.077,266.141,200.737,266.661z"/>
						</g>
					</g>
				</g>
			</g>
		</g>
		<g>
			<g>
				<path style="fill:#BF583A;" d="M155.987,228.025c-1.422-3.329-4.904-5.508-8.438-5.815c-0.014-0.001-0.023,0.005-0.036,0.004
					c-0.024-0.07-0.048-0.142-0.074-0.208c-0.402-1.017-1.108-1.862-1.954-2.543c-1.822-1.466-3.945-2.497-6.271-2.79
					c-2.177-0.274-4.479-0.346-6.608,0.266c-2.029,0.584-3.698,1.913-5.138,3.422c-1.258,0.088-2.54,0.699-3.521,1.358
					c-0.803,0.54-1.541,1.17-2.277,1.797c-0.75,0.639-1.538,1.217-2.309,1.828c-1.449,1.149-2.153,2.944-2.571,4.699
					c-0.432,1.815-0.161,3.56,0.701,5.206c0.021,0.04,0.05,0.076,0.072,0.116c-0.224,0.317-0.433,0.643-0.605,0.995
					c-0.488,0.999-0.781,2.051-0.911,3.153c-0.253,2.151,0.09,4.974,1.847,6.458c0.869,0.734,1.958,1.059,3.071,1.186
					c0.286,0.033,0.573,0.052,0.861,0.063c0.257,0.009,0.606-0.053,0.857,0.007c0.127,0.03,0.016-0.042,0.14,0.08
					c0.072,0.071,0.14,0.235,0.201,0.327c0.192,0.287,0.412,0.564,0.647,0.817c0.819,0.883,1.87,1.509,2.973,1.969
					c0.591,0.247,1.198,0.448,1.814,0.624c0.706,0.201,1.464,0.454,2.206,0.438c1.195-0.024,2.38-0.859,3.392-1.547
					c3.549,1.069,7.41-0.35,9.451-3.466c0.003-0.005,0.003-0.009,0.006-0.014c1.967-0.173,3.956-1.016,5.531-2.01
					c1.342-0.847,2.543-2.002,3.227-3.453c0.769-1.631,0.728-3.412,0.632-5.172c-0.009-0.163-0.081-0.283-0.183-0.363
					c1.02-0.608,1.961-1.329,2.675-2.305C156.516,231.618,156.735,229.775,155.987,228.025z"/>
				<g>
					<path style="fill:#FFC7AE;" d="M128.925,240.558c-0.327,6.253-0.762,12.199-1.826,16.362c-0.211,0.827-0.858,1.466-1.685,1.676
						l-9.1,2.312l24.093,15.016l6.777-13.451l-4.851-2.765c-0.489-0.279-0.791-0.799-0.78-1.362c0.029-1.485,0.14-3.474,0.118-4.824
						L128.925,240.558z"/>
					<path style="fill:#FCAD97;" d="M141.672,253.521l-10.351-10.527c0,0-1.782,7.479,2.679,12.153
						c2.247,2.354,5.347,3.013,7.554,3.155C141.585,256.821,141.693,254.858,141.672,253.521z"/>
				</g>
				<g>
					<path style="fill:#FFC7AE;" d="M141.027,225.51c8.956,0.99,8.674,8.348,6.62,17.87c-1.453,6.733-2.219,10.699-7.088,11.652
						c-5.108,1-11.364-4.666-11.613-10.582C128.697,238.533,128.926,224.173,141.027,225.51z"/>
					<path style="fill:#BF583A;" d="M153.048,227.885c-0.902-1.567-2.551-2.452-4.311-2.669c-0.577-0.071-1.165-0.057-1.744,0.02
						c-0.968-1.463-2.898-1.989-4.58-2.177c-2.282-0.255-4.65,0.018-6.818,0.774c-1.62,0.565-2.995,1.353-3.771,2.783
						c-0.922-0.206-1.916-0.194-2.76-0.066c-1.784,0.269-3.476,1.183-4.653,2.555c-1.092,1.273-2.082,3.177-1.859,4.906
						c0.206,1.6,1.802,2.494,3.322,2.605c1.389,0.846,3.028,1.485,4.593,1.816c1.676,0.355,3.64,0.462,5.334,0.178
						c1.583-0.266,3.128-1.227,4.395-2.173c0.212-0.158,0.461-0.339,0.72-0.539c0.806,0.396,1.786,0.409,2.639,0.166
						c1.078-0.308,1.996-0.983,2.865-1.665c0.266-0.209,0.505-0.431,0.729-0.662c0.274,0.163,0.551,0.323,0.854,0.444
						c0.782,0.312,1.671,0.45,2.506,0.316c0.913-0.147,1.59-0.733,2.093-1.481C153.659,231.447,154.024,229.58,153.048,227.885z"/>
					<path style="fill:#FFC7AE;" d="M130.299,246.217c0,0-2.12,0.587-3.554-0.913c-1.435-1.5-4.109-6.717-1.272-8.25
						c2.837-1.533,4.426,1.244,4.426,1.244L130.299,246.217z"/>
				</g>
			</g>
			<g>
				<g>
					<g>
						<g>
							<path style="fill:#FFC7AE;" d="M155.212,447.38c0.294,4.047,0.433,8.035,0.236,11.897c-0.086,1.686,1.24,3.103,2.928,3.103
								h27.955c0.637,0,1.114-0.582,0.989-1.207l0,0c-0.09-0.449-0.474-0.776-0.932-0.803c-6.261-0.372-11.991-1.813-18.786-5.164
								c-2.748-1.355-4.364-5.951-6-10.435L155.212,447.38z"/>
							<path style="fill:#FCAD97;" d="M155.507,457.321c3.184-0.418,6.866-1.597,10.761-3.104c-1.766-1.759-3.024-4.965-4.237-8.275
								l-6.775,2.141C155.469,451.211,155.576,454.299,155.507,457.321z"/>
						</g>
						<path style="fill:#01265A;" d="M154.958,456.523c-0.095,0.794-0.196,1.597-0.274,2.362c-0.192,1.874,1.292,3.495,3.176,3.495
							h28.998c0.726,0,1.278-0.652,1.159-1.368l0,0c-0.094-0.566-0.587-0.97-1.161-0.974c-6.751-0.047-12.559-1.911-17.594-4.833
							c-0.595-0.345-1.301-0.453-1.961-0.258c-2.059,0.609-4.007,1.319-5.341,2.013c-0.535,0.278-1.146,0.367-1.732,0.221
							l-4.576-1.136C155.323,455.962,154.998,456.187,154.958,456.523z"/>
					</g>
					<g>
						<path style="fill:#7A4495;" d="M159.501,336.869c0,0,3.896,26.804,4.189,36.783c0.294,9.978,1.467,54.293,1.565,60.261
							c0.083,5.055,1.359,14.322,1.747,17.037c0.061,0.429-0.231,0.825-0.657,0.898c-5.121,0.883-10.118,1.895-14.074,1.395
							c-0.265-0.034-0.489-0.196-0.609-0.435c-1.301-2.594-8.844-18.005-9.201-27.211c-0.219-5.649,0.176-10.421,0.566-13.524
							c0.349-2.777,0.016-5.585-0.977-8.202c-1.457-3.84-3.657-9.202-5.459-11.73c-6.065-8.511-13.509-13.011-13.509-13.011
							l-4.98-35.609L159.501,336.869z"/>
						<path style="fill:#52328D;" d="M159.501,336.869l-41.397,6.652l4.98,35.609c0,0,7.444,4.5,13.509,13.011
							c1.799,2.525,3.997,7.878,5.454,11.717c0.949-3.003,2.542-8.051,5.112-16.217c3.538-11.244,11.091-21.788,15.401-27.208
							C161.313,349.337,159.501,336.869,159.501,336.869z"/>
					</g>
				</g>
				<g>
					<g>
						<g>
							<path style="fill:#FFC7AE;" d="M99.187,444.597l-1.033,14.113c-0.145,1.982,1.424,3.67,3.411,3.67h25.311
								c0.628,0,1.103-0.568,0.992-1.186l0,0c-0.082-0.459-0.471-0.794-0.937-0.82c-4.528-0.248-8.929-1.158-13.204-2.73
								c-2.079-0.765-3.555-2.634-3.912-4.82l-1.357-8.315c-0.08-0.488-0.501-0.846-0.995-0.846h-7.271
								C99.664,443.662,99.226,444.07,99.187,444.597z"/>
							<path style="fill:#FCAD97;" d="M111.116,455.751c-0.667-0.833-1.123-1.841-1.3-2.928l-1.357-8.315
								c-0.08-0.488-0.501-0.846-0.995-0.846h-7.271c-0.528,0-0.967,0.408-1.005,0.935l-0.828,11.312
								C102.004,456.168,106.378,456.053,111.116,455.751z"/>
						</g>
						<path style="fill:#01265A;" d="M97.724,457.526c-0.087,0.783-0.178,1.575-0.248,2.311c-0.13,1.365,0.954,2.542,2.326,2.542
							h27.564c0.63,0,1.14-0.51,1.14-1.14l0,0c0-0.605-0.476-1.095-1.079-1.133c-5.473-0.342-10.314-1.578-14.492-3.662
							c-0.693-0.346-1.476-0.489-2.234-0.329c-1.936,0.407-3.782,0.984-5.516,1.77c-0.528,0.239-1.115,0.309-1.677,0.169
							l-4.819-1.199C98.23,456.742,97.776,457.057,97.724,457.526z"/>
					</g>
					<g>
						<path style="fill:#7A4495;" d="M151.129,332.597c0,0-1.33,19.304-5.895,28.043c-2.203,4.217-3.646,6.612-4.551,7.961
							c-0.899,1.341-1.502,2.847-1.78,4.437c-1.163,6.656-4.411,23.638-8.408,30.907c-5.027,9.142-10.957,23.935-12.587,33.065
							c-1.344,7.528-2.112,13.86-2.34,15.85c-0.044,0.381-0.354,0.674-0.737,0.703c-7.254,0.565-13.938,0.62-19.183-0.614
							c-0.371-0.087-0.622-0.424-0.609-0.805c0.145-4.193,0.98-27.631,1.869-37.765c0.812-9.252,1.668-16.259,1.936-18.379
							c0.057-0.447,0.074-0.886,0.05-1.336c-0.174-3.408-0.927-18.979-0.659-27.829c0.303-9.978,2.945-30.652,2.945-30.652
							L151.129,332.597z"/>
						<path style="fill:#52328D;" d="M98.236,366.818c9.26-0.828,24.048-2.344,36.302-4.482c3.961-0.691,7.772-1.771,11.335-3.046
							c4.049-9.224,5.255-26.693,5.255-26.693l-49.949,3.587C101.18,336.184,98.541,356.833,98.236,366.818z"/>
					</g>
				</g>
			</g>
			<g>
				<g>
					<g>
						<g>
							<path style="fill:#FFC7AE;" d="M203.872,284.939l7.873-5.197c0.795-0.737,1.231-1.777,1.212-2.861
								c-0.017-0.957,0.028-2.105,0.279-2.796c0.346-0.953,1.286-3.755,1.81-5.323c0.314-0.939,1.736-0.832,1.831,0.154
								c0.001,0.012,0.002,0.024,0.003,0.036c0.09,1.22-0.443,4.368-0.191,5.032c0.252,0.664,0.252,0.664,0.252,0.664
								s2.554-3.173,3.744-4.441c1.19-1.268,3.385-5.402,5.027-4.621c1.495,0.711-1.949,5.831-2.575,6.739
								c-0.062,0.09-0.077,0.199-0.047,0.304l2.313,7.831c0.153,0.518,0.079,1.075-0.21,1.531c-0.604,0.952-1.741,2.548-2.884,3.098
								c-0.835,0.401-1.551,0.595-2.059,0.688c-0.585,0.107-1.147,0.316-1.64,0.648l-6.144,6.313L203.872,284.939z"/>
							<g>
								<path style="fill:#FCAD97;" d="M212.309,279.071c-0.162,0.242-0.346,0.469-0.563,0.671l-7.873,5.197l8.593,7.799
									l4.865-4.999C215.245,284.903,213.509,282.022,212.309,279.071z"/>
								<path style="fill:#FCAD97;" d="M225.403,280.46c0.153,0.518,0.079,1.075-0.211,1.532c-0.604,0.953-1.741,2.548-2.883,3.097
									c-0.839,0.403-1.558,0.597-2.067,0.69c-0.581,0.106-1.138,0.316-1.628,0.645c-0.727-1.014-1.493-3.374-1.85-6.225
									c-0.787-6.279,6.373-7.873,6.373-7.873c-0.062,0.09-0.077,0.198-0.046,0.303L225.403,280.46z"/>
							</g>
						</g>
						<path style="fill:#FFC7AE;" d="M223.042,272.462c1.183-0.264,1.335,1.993,2.057,3.651c0.722,1.658,1.407,4.482,0.387,5.205
							c-1.02,0.723-3.321,2.246-4.286,1.711c-0.469-0.26-0.604-0.563-0.619-0.805c-0.012-0.207-0.215-0.342-0.421-0.312
							c-0.429,0.063-1.034,0.043-1.464-0.41c-0.324-0.342-0.172-0.71,0.101-1.014c0.206-0.23,0.066-0.583-0.242-0.605
							c-0.421-0.03-0.838-0.145-1.007-0.452c-0.393-0.718,1.055-1.822,1.055-1.822s-1.046,0.389-1.457-0.297
							C216.415,276.094,219.443,273.264,223.042,272.462z"/>
					</g>
					<g>
						<path style="fill:#9CBC50;" d="M151.709,262.307c4.481,0.833,5.758,0.948,9.144,3.964c9.228,8.217,16.076,18.13,18.587,29.707
							c8-6.768,15.517-13.193,29.465-15.846c0.287-0.055,0.586,0.052,0.773,0.276l6.966,8.367c0.26,0.313,0.247,0.767-0.034,1.062
							c-2.041,2.141-9.886,10.586-13.106,17.196c-3.717,7.63-14.789,18.419-27.098,19.174c-12.766,0.783-20.544-2.348-20.544-2.348
							S152.277,272.467,151.709,262.307z"/>
						<path style="fill:#809B34;" d="M189.94,321.485c-2.88-0.648-6.289-1.789-10.011-3.801
							c-10.696-5.782-19.435-36.87-19.435-36.87l-7.555,0.489c1.243,18.455,2.925,42.554,2.925,42.554s7.777,3.13,20.544,2.348
							C181.232,325.91,185.864,324.069,189.94,321.485z"/>
					</g>
				</g>
				<g>
					<path style="fill:#9CBC50;" d="M135.813,267.024c-4.04-1.862-7.432-4.805-10.475-8.33c-0.242-0.281-0.604-0.421-0.971-0.364
						c-2.751,0.427-14.408,2.299-17.465,3.849c-3.473,1.761-8.573,6.51-8.573,6.51s4.122,39.778,3.861,47.604
						c-0.261,7.826-4.304,22.044-4.696,28.957c-0.231,4.087-0.189,6.165-0.116,7.181c0.037,0.512,0.456,0.91,0.969,0.928
						c23.318,0.802,44.622-1.199,61.94-8.751c0.228-0.1,0.408-0.274,0.513-0.5c0.995-2.161,6.148-13.958,4.141-22.4
						c-2.217-9.326-9.142-16.892-7.316-27.718s2.87-13.174,2.87-13.174l-3.987-17.348c0,0-6.165-1.421-8.404-2.152
						c-1.27-0.415-2.579-1.017-3.424-1.433c-0.579-0.285-1.274-0.24-1.786,0.154c-2.18,1.677-4.108,3.887-5.805,6.586
						C136.819,267.05,136.274,267.236,135.813,267.024z"/>
					<path style="fill:#809B34;" d="M120.842,323.727c1.565-19.826-6.848-32.942-6.848-32.942l-13.391,1.494
						c0.904,10.112,1.706,20.424,1.587,24.013c-0.261,7.826-4.304,22.044-4.696,28.957c-0.231,4.087-0.189,6.165-0.116,7.181
						c0.037,0.512,0.456,0.91,0.969,0.928c4.968,0.171,9.838,0.205,14.604,0.095C115.809,347.112,119.856,336.227,120.842,323.727z"
						/>
				</g>
				<g>
					<g>
						<path style="fill:#FFC7AE;" d="M96.052,358.928c1.254,1.978,2.55,3.968,4.841,6.253c0.571,0.57,0.943,1.314,1.061,2.113
							l0.497,3.373c5.288-1.502,9.075-4.709,12.166-8.706c-1.727-2.748-3.154-5.86-4.438-9.147L96.052,358.928z"/>
						<path style="fill:#FCAD97;" d="M112.929,358.956c-1.003-1.942-1.912-3.999-2.749-6.142l-14.127,6.114
							c1.254,1.978,2.55,3.968,4.841,6.253c0.571,0.57,0.943,1.314,1.061,2.113l0.239,1.624
							C106.59,365.658,110.424,362.355,112.929,358.956z"/>
					</g>
					<path style="fill:#9CBC50;" d="M111.705,260.697c-5.732,1.482-11.669,2.993-16.623,11.965
						c-5.87,10.63-11.729,32.413-15.947,48.976c-2.278,8.946-0.713,18.418,4.252,26.201c5.275,8.268,10.483,14.931,15.517,17.382
						c0.202,0.099,0.436,0.106,0.647,0.027c4.369-1.64,8.575-4.398,13.408-8.113c0.266-0.204,0.381-0.557,0.282-0.878
						c-3.613-11.699-7.443-23.398-12.712-34.183c-0.081-0.166-0.061-0.362,0.051-0.509c6.72-8.816,11.039-19.174,13.415-30.779
						C113.995,290.785,112.429,269.907,111.705,260.697z"/>
				</g>
			</g>
		</g>
		<g>
			<g>
				<g>
					<path style="fill:#01265A;" d="M564.25,317.65c-1.67-3.22-5.571-3.874-8.755-2.838c-1.282-0.613-2.767-0.329-4.041,0.421
						c-1.445,0.851-3.029,1.997-3.806,3.526c-0.426,0.839-0.495,1.722-0.647,2.634c-0.119,0.713-2.145,2.624-1.657,3.086
						c1.38,1.309,2.816,2.601,4.336,3.746c0.71,0.535,1.456,1.026,2.25,1.427c0.401,0.202,3.014,1.797,3.866,2.103
						c1.607,0.577,3.408,0.636,4.994-0.038c1.473-0.626,2.675-1.887,3.017-3.479c0.14-0.651,0.134-1.314-0.001-1.943
						c0.164-0.19,0.31-0.392,0.432-0.579c0.495-0.756,0.751-1.635,0.864-2.524C565.334,321.364,565.105,319.3,564.25,317.65z"/>
					<path style="fill:#01265A;" d="M553.981,325.855c-0.903-1.508-2.64-2.23-4.342-2.295c-1.309-0.563-2.291-1.668-3.361-2.592
						c-1.367-1.182-2.885-1.954-4.686-2.215c-2.897-0.421-6.256,0.081-8.937,1.522c-1.191-0.062-2.39,0.066-3.544,0.389
						c-2.997,0.84-6.355,3.021-7.065,6.265c-0.341,1.557-0.126,3.452,1.144,4.484c1.033,0.84,1.917,1.168,2.585,1.29
						c1.553,0.284,3.15,0.435,4.731,0.371c0.147,0.398,0.299,0.793,0.445,1.186c0.395,1.06,0.796,2.117,1.195,3.175
						c0.653,1.728,1.378,3.47,2.578,4.897c1.317,1.566,3.157,2.283,5.104,2.725c2.079,0.472,4.565,1.046,6.682,0.512
						c0.188-0.047,1.993-0.926,2.619-1.281c1.224-0.693,2.367-1.581,3.178-2.742c0.832-1.192,1.13-2.682,0.981-4.116
						c-0.055-0.528-0.166-1.065-0.309-1.595c0.942-0.99,1.294-2.779,1.455-3.926C554.715,329.921,555.071,327.676,553.981,325.855z"
						/>
				</g>
				<g>
					<path style="fill:#D57141;" d="M538.853,351.396c1.667,2.402,3.285,6.948,4.891,11.984l14.576-11.005
						c0,0-8.217-9.079-10.027-12.415c-1.81-3.335-6.399-10.947-6.399-10.947L538.853,351.396z"/>
					<path style="fill:#BF583A;" d="M543.842,353.035c1.663-4.231,0.35-10.15,0.35-10.15l-4.454,1.998l-0.885,6.513
						c0.889,1.281,1.764,3.184,2.631,5.435C542.281,355.994,543.158,354.776,543.842,353.035z"/>
				</g>
				<g>
					<path style="fill:#D57141;" d="M530.147,322.945c-6.398,2.692-7.044,8.217-5.544,12.978c1.5,4.761,6.865,16.412,10.737,17.011
						c3.872,0.598,6.285-1.554,7.589-3.967c1.304-2.413,2.503-6.587,1.447-12.065C543.321,331.423,539.603,318.967,530.147,322.945z
						"/>
					<path style="fill:#01265A;" d="M546.365,326.45c-0.554-1.613-2.166-2.898-3.575-3.755c-1.576-0.959-3.419-1.507-5.269-1.473
						c-0.538,0.01-1.062,0.079-1.575,0.188c-0.904-0.363-1.914-0.529-2.791-0.535c-1.881-0.013-3.707,0.675-5.334,1.569
						c-1.59,0.873-3.363,1.908-4.508,3.345c-0.568,0.714-0.863,1.716-0.577,3.056c0.361,1.689,1.809,3.065,3.168,4.025
						c1.805,1.276,3.982,2.07,6.184,2.256c0.972,0.082,2.024-0.01,3.055-0.26c0.378,0.158,0.774,0.276,1.177,0.345
						c1.818,0.314,3.694-0.111,5.403-0.734c1.562-0.57,3.005-1.468,3.667-3.061c0.285-0.685,0.406-1.429,0.395-2.171
						C546.467,328.565,546.675,327.353,546.365,326.45z"/>
					<path style="fill:#D57141;" d="M544.332,340.26c0,0,2.105-0.548,3.228-1.793c1.588-1.761,2.054-4.402,0.783-7.37
						c-1.055-2.461-3.96-3.253-6.13-0.359c-1.37,1.826-1.149,4.397-1.149,4.397L544.332,340.26z"/>
				</g>
			</g>
			<g>
				<g>
					<g>
						<g>
							<path style="fill:#BF583A;" d="M404.947,457.702c-2.605,0.135-6.915-0.851-9.16-1.988c-1.346-0.682-2.932-0.714-4.311-0.1
								c-1.76,0.783-3.572,1.483-5.436,2.103c-1.781,0.592-3.724-0.284-4.491-1.997l-11.32-25.309
								c-0.354-0.792,0.079-1.714,0.915-1.947l0,0c0.501-0.139,1.039,0.011,1.4,0.385c4.519,4.689,9.063,8.915,13.65,12.341
								c2.112,1.577,4.592,2.585,7.212,2.871c5.219,0.57,10.603,0.282,16.085-0.522L404.947,457.702z"/>
						</g>
						<path style="fill:#52328D;" d="M369.444,430.497l11.805,26.13c0.734,1.624,2.531,2.457,4.257,2.011
							c1.358-0.351,2.805-0.868,4.286-1.448c0.351-0.137,0.5-0.563,0.313-0.89c-1.381-2.409-2.857-4.522-4.479-6.172
							c-0.449-0.457-0.601-1.111-0.405-1.721c0.702-2.185,1.002-4.694,1.01-7.439c0.001-0.437-0.216-0.841-0.575-1.091
							c-3.703-2.584-8.242-6.811-13.051-11.571c-0.523-0.518-1.294-0.702-1.993-0.471l0,0
							C369.51,428.2,368.966,429.439,369.444,430.497z"/>
					</g>
					<path style="fill:#D95574;" d="M537.429,424.341l-5.551,4.053c0,0-24.035-8.397-46.144-7.358
						c-22.109,1.039-55.956,21.664-69.848,22.113c-13.891,0.448-18.757-0.78-18.757-0.78v14.239c0,0,25.124,5.902,38.636,5.772
						c13.512-0.13,25.251-7.8,36.469-6.704c11.217,1.096,9.413,6.77,33.863,6.706c24.45-0.064,33.539-2.921,33.539-2.921
						l16.598-17.091L537.429,424.341z"/>
				</g>
				<g>
					<g>
						<path style="fill:#B7E4F2;" d="M450.947,414.37l58.222,5.187c0.289,0.026,0.506,0.277,0.488,0.567l-0.213,3.535
							c-0.018,0.296-0.272,0.522-0.568,0.504l-53.92-3.251c-1.084-0.065-2.022-0.778-2.377-1.805L450.947,414.37z"/>
						<path style="fill:#A5DDEF;" d="M454.956,420.911l53.92,3.251c0.296,0.018,0.55-0.208,0.568-0.504l0,0l-29.982-6.748
							l-28.515-2.54l1.633,4.737C452.934,420.134,453.872,420.846,454.956,420.911z"/>
					</g>
					<g>
						<path style="fill:#B7E4F2;" d="M442.553,383.153l-1.559-0.094c-0.381-0.023-0.664,0.349-0.54,0.71l12.115,35.333
							c0.353,1.029,1.292,1.744,2.378,1.809l1.953,0.118l-13.876-37.526C442.951,383.303,442.766,383.166,442.553,383.153z"/>
						<path style="fill:#81BBC1;" d="M453.178,417.868c0.021-0.35,0.322-0.616,0.672-0.595c0.35,0.021,0.616,0.322,0.595,0.672
							c-0.021,0.35-0.322,0.616-0.672,0.595C453.424,418.518,453.157,418.218,453.178,417.868z"/>
					</g>
				</g>
				<g>
					<g>
						<g>
							<path style="fill:#D57141;" d="M384.712,458.099c-2.79-0.477-5.541-1.085-7.969-1.747c-1.456-0.397-3.016-0.108-4.243,0.771
								c-1.566,1.122-3.2,2.173-4.901,3.155c-1.626,0.939-3.705,0.473-4.801-1.051l-16.189-22.509
								c-0.507-0.705-0.268-1.695,0.504-2.091l0,0c0.463-0.238,1.02-0.199,1.449,0.095c5.371,3.682,10.674,6.906,15.857,9.337
								c2.386,1.119,5.019,1.606,7.643,1.358c5.227-0.493,10.442-1.861,15.65-3.753L384.712,458.099z"/>
							<path style="fill:#BF583A;" d="M375.844,456.201c0.302,0.025,0.603,0.07,0.9,0.151c2.428,0.662,5.179,1.27,7.969,1.747
								l3-16.435c-3.038,1.104-6.078,2.021-9.122,2.698C377.407,447.985,376.505,451.947,375.844,456.201z"/>
						</g>
						<path style="fill:#52328D;" d="M345.859,436.962l16.829,23.215c1.046,1.443,2.974,1.896,4.574,1.112
							c1.259-0.617,2.573-1.416,3.906-2.282c0.316-0.206,0.377-0.652,0.127-0.935c-1.838-2.081-3.709-3.853-5.631-5.142
							c-0.532-0.357-0.813-0.967-0.744-1.604c0.247-2.281,0.036-4.799-0.509-7.49c-0.087-0.428-0.382-0.78-0.783-0.953
							c-4.148-1.784-9.445-5.011-15.115-8.704c-0.617-0.402-1.409-0.427-2.047-0.059l0,0
							C345.46,434.699,345.177,436.022,345.859,436.962z"/>
					</g>
					<g>
						<path style="fill:#FA6886;" d="M565.853,460.227c0,0-21.514,2.193-42.105,2.152c-20.591-0.041-57.482-14.576-67.069-12.815
							c-9.587,1.761-34.63,12.033-53.609,10.859c-14.817-0.917-19.537-1.913-20.894-2.305c-0.302-0.087-0.525-0.342-0.573-0.653
							c-0.862-5.579-1.096-10.846-0.22-15.561c0.062-0.336,0.332-0.592,0.671-0.643c4.185-0.629,30.718-4.733,43.223-9.501
							c13.598-5.185,29.283-12.258,42.082-12.439c12.799-0.181,41.462,10.233,53.983,10.162c12.522-0.071,13.793-1.539,13.793-1.539
							l3.424-5.38l34.239,13.206L565.853,460.227z"/>
						<path style="fill:#D95574;" d="M535.136,427.945c0,0-0.555,0.638-4.523,1.093c4.705,4.757,10.899,12.231,13.49,20.689
							c1.216,3.97,1.763,8.095,1.919,11.995c11.378-0.633,19.831-1.495,19.831-1.495l6.946-24.456l-34.239-13.206L535.136,427.945z"
							/>
					</g>
				</g>
			</g>
			<g>
				<g>
					<path style="fill:#9CBC50;" d="M546.505,354.034c6.438-5.297,17.294-4.742,23.848,8.074
						c6.554,12.815,4.952,21.239,6.927,28.962c1.975,7.723,14.301,37.006,13.519,50.571c-0.783,13.565-17.348,20.739-32.087,20.739
						c0.13-10.862-26.834-33.986-26.834-33.986s4.763-15.905,4.891-23.634c0.128-7.728,0-8.334,0-8.334s-4.861-1.481-5.187-6.177
						c-0.326-4.696,2.083-6.13,4.628-12.783C538.756,370.814,539.712,359.623,546.505,354.034z"/>
					<path style="fill:#809B34;" d="M577.28,391.07c-1.975-7.723-0.373-16.147-6.927-28.962c-3.012-5.889-6.932-9.183-10.914-10.516
						l3.381,11.087c-12.913-3.212-24.209,14.02-25.703,28.686c-0.186,1.831-0.453,3.458-0.778,4.903
						c0.265,0.108,0.428,0.159,0.428,0.159s0.128,0.605,0,8.334c-0.106,6.421-3.409,18.476-4.525,22.375
						c5.387,2.906,13.372,6.215,22.479,6.724c16.707,0.933,15.337-27.436,22.576-33.697c0.802-0.693,1.575-1.309,2.324-1.875
						C578.54,395.185,577.688,392.663,577.28,391.07z"/>
				</g>
				<g>
					<g>
						<path style="fill:#D57141;" d="M502.951,391.749c0,0-13.63-0.522-17.283-1.174c-3.652-0.652-9.522-2.217-11.478-0.783
							c-1.957,1.435-3.717,4.794-4.239,8.69c-0.522,3.897-0.403,4.315-0.403,4.315s0.846-0.076,1.383-0.467
							c0.536-0.391,0.879-0.815,0.879-0.815s0.342,2.641,0.506,3.408c0.163,0.766,2.413,3.929,2.413,3.929s0.538-0.245,0.685-0.669
							c0.147-0.424,0.147-0.554,0.147-0.554l1.076,1.304c0,0,0.44-0.13,0.652-0.929c0.212-0.799-0.049-1.451-0.049-1.451
							l0.505,0.766c0,0,0.554-0.326,0.603-1.027c0.035-0.498-0.128-1.308-0.225-1.736c-0.031-0.136,0.082-0.258,0.22-0.237
							c0.894,0.135,3.74,0.444,6.787-0.473c1.598-0.481,2.54-0.928,3.094-1.28c0.666-0.424,1.472-0.544,2.239-0.358
							c1.296,0.313,3.645,0.815,7.742,1.525c7.63,1.321,9.587,1.321,9.587,1.321L502.951,391.749z"/>
						<path style="fill:#BF583A;" d="M498.207,403.733c7.63,1.321,9.587,1.321,9.587,1.321l-4.842-13.304
							c0,0-3.859-0.148-8.02-0.384c-0.037,3.409-0.644,7.366-1.411,11.503C494.747,403.112,496.277,403.399,498.207,403.733z"/>
					</g>
					<g>
						<path style="fill:#9CBC50;" d="M552.931,350.882c17.807-0.836,16.085,14.324,14.259,30.889
							c-1.826,16.565-2.12,30.033-8.87,34.239c-9.262,5.772-20.089,4.845-30.979,1.738c-10.89-3.107-20.673-8.325-24.194-9.89
							c-2.4-1.067-3.649-1.77-4.201-2.11c-0.23-0.141-0.367-0.378-0.375-0.648c-0.046-1.551-0.241-7.115-0.726-9.96
							c-0.306-1.793-0.541-3.017-0.694-3.765c-0.1-0.491,0.266-0.944,0.767-0.951c3.443-0.051,15.441-0.033,25.382,2.384
							c8.708,2.117,11.909,3.084,12.981,3.443c0.249,0.083,0.505-0.092,0.522-0.354c0.192-3.036,1.22-18.377,2.834-26.191
							C541.432,361.008,544.085,351.297,552.931,350.882z"/>
						<path style="fill:#809B34;" d="M545.408,397.423c-3.372-6.424-4.545-25.227-4.858-31.764
							c-0.336,1.348-0.638,2.708-0.914,4.046c-1.614,7.814-2.642,23.156-2.834,26.191c-0.017,0.262-0.273,0.437-0.522,0.354
							l15.426,10.38C551.706,406.631,549.516,405.249,545.408,397.423z"/>
					</g>
				</g>
			</g>
		</g>
	</g>
</g>
</svg>
