<svg xmlns="http://www.w3.org/2000/svg" data-name="Layer 2" viewBox="0 0 64 64" id="forex"><path d="M35.29 21a2 2 0 0 0-2-2H33v4h.29a2 2 0 0 0 2-2zM31 13h-.29a2 2 0 0 0 0 4H31z"></path><path d="M32 32a14 14 0 1 0-14-14 14 14 0 0 0 14 14zm-1.29-13a4 4 0 0 1 0-8H31V8.57h2V11h.29a4 4 0 0 1 4 4h-2a2 2 0 0 0-2-2H33v4h.29a4 4 0 0 1 0 8H33v2.43h-2V25h-.29a4 4 0 0 1-4-4h2a2 2 0 0 0 2 2H31v-4zM24 39v5h-4a1 1 0 0 0-1 1v10a1 1 0 0 0 1 1h4v5h2v-5h4a1 1 0 0 0 1-1V45a1 1 0 0 0-1-1h-4v-5zm24 17h4v5h2v-5h4a1 1 0 0 0 1-1V45a1 1 0 0 0-1-1h-4v-5h-2v5h-4a1 1 0 0 0-1 1v10a1 1 0 0 0 1 1zM6 49h4v5h2v-5h4a1 1 0 0 0 1-1V38a1 1 0 0 0-1-1h-4v-5h-2v5H6a1 1 0 0 0-1 1v10a1 1 0 0 0 1 1zm1-10h8v8H7zm31-6v5h-4a1 1 0 0 0-1 1v10a1 1 0 0 0 1 1h4v5h2v-5h4a1 1 0 0 0 1-1V39a1 1 0 0 0-1-1h-4v-5zm5 7v8h-8v-8z"></path></svg>